G04 #@! TF.GenerationSoftware,KiCad,Pcbnew,7.0.2-0*
G04 #@! TF.CreationDate,2023-05-29T14:12:07-07:00*
G04 #@! TF.ProjectId,SWR Protector,53575220-5072-46f7-9465-63746f722e6b,v2.0*
G04 #@! TF.SameCoordinates,Original*
G04 #@! TF.FileFunction,Soldermask,Bot*
G04 #@! TF.FilePolarity,Negative*
%FSLAX46Y46*%
G04 Gerber Fmt 4.6, Leading zero omitted, Abs format (unit mm)*
G04 Created by KiCad (PCBNEW 7.0.2-0) date 2023-05-29 14:12:07*
%MOMM*%
%LPD*%
G01*
G04 APERTURE LIST*
G04 Aperture macros list*
%AMRoundRect*
0 Rectangle with rounded corners*
0 $1 Rounding radius*
0 $2 $3 $4 $5 $6 $7 $8 $9 X,Y pos of 4 corners*
0 Add a 4 corners polygon primitive as box body*
4,1,4,$2,$3,$4,$5,$6,$7,$8,$9,$2,$3,0*
0 Add four circle primitives for the rounded corners*
1,1,$1+$1,$2,$3*
1,1,$1+$1,$4,$5*
1,1,$1+$1,$6,$7*
1,1,$1+$1,$8,$9*
0 Add four rect primitives between the rounded corners*
20,1,$1+$1,$2,$3,$4,$5,0*
20,1,$1+$1,$4,$5,$6,$7,0*
20,1,$1+$1,$6,$7,$8,$9,0*
20,1,$1+$1,$8,$9,$2,$3,0*%
G04 Aperture macros list end*
%ADD10C,1.600000*%
%ADD11O,1.600000X1.600000*%
%ADD12C,1.700000*%
%ADD13O,2.500000X1.600000*%
%ADD14O,7.000000X3.500000*%
%ADD15C,1.500000*%
%ADD16R,1.700000X1.700000*%
%ADD17O,1.700000X1.700000*%
%ADD18C,2.340000*%
%ADD19R,2.400000X2.400000*%
%ADD20O,2.400000X2.400000*%
%ADD21R,3.500000X3.500000*%
%ADD22RoundRect,0.750000X0.750000X1.000000X-0.750000X1.000000X-0.750000X-1.000000X0.750000X-1.000000X0*%
%ADD23RoundRect,0.875000X0.875000X0.875000X-0.875000X0.875000X-0.875000X-0.875000X0.875000X-0.875000X0*%
%ADD24R,1.050000X1.500000*%
%ADD25O,1.050000X1.500000*%
%ADD26R,1.800000X1.800000*%
%ADD27C,1.800000*%
%ADD28R,2.000000X2.000000*%
%ADD29C,2.000000*%
%ADD30R,1.350000X1.350000*%
%ADD31C,1.350000*%
%ADD32RoundRect,0.750000X-0.750000X-1.000000X0.750000X-1.000000X0.750000X1.000000X-0.750000X1.000000X0*%
%ADD33RoundRect,0.875000X-0.875000X-0.875000X0.875000X-0.875000X0.875000X0.875000X-0.875000X0.875000X0*%
G04 APERTURE END LIST*
D10*
X188595000Y-83820000D03*
X193595000Y-83820000D03*
X156210000Y-104775000D03*
D11*
X153670000Y-104775000D03*
D10*
X180975000Y-78740000D03*
D11*
X183515000Y-78740000D03*
D10*
X151765000Y-88900000D03*
D11*
X154305000Y-88900000D03*
D10*
X141605000Y-126325000D03*
X141605000Y-121325000D03*
D12*
X170180000Y-78200000D03*
X160020000Y-88360000D03*
X170180000Y-83280000D03*
X160020000Y-83280000D03*
D13*
X182880000Y-102870000D03*
D14*
X187960000Y-97790000D03*
D13*
X182880000Y-100330000D03*
D14*
X187960000Y-107950000D03*
D15*
X154940000Y-123190000D03*
X160020000Y-123190000D03*
X162560000Y-123190000D03*
X165100000Y-123190000D03*
X165100000Y-118110000D03*
X162560000Y-118110000D03*
X160020000Y-118110000D03*
X154940000Y-118110000D03*
D12*
X147955000Y-78200000D03*
X137795000Y-88360000D03*
X147955000Y-83280000D03*
X137795000Y-83280000D03*
D16*
X172715000Y-104140000D03*
D17*
X175255000Y-104140000D03*
D10*
X148180000Y-104775000D03*
D11*
X150720000Y-104775000D03*
D18*
X137160000Y-99060000D03*
X142160000Y-96560000D03*
X137160000Y-94060000D03*
D19*
X175895000Y-87965000D03*
D20*
X175895000Y-91775000D03*
D19*
X154305000Y-99360000D03*
D20*
X154305000Y-95550000D03*
D21*
X182626000Y-124460000D03*
D22*
X188626000Y-124460000D03*
D23*
X185626000Y-119760000D03*
D10*
X187325000Y-91440000D03*
D11*
X187325000Y-88900000D03*
D24*
X157480000Y-112395000D03*
D25*
X160020000Y-112395000D03*
X162560000Y-112395000D03*
D16*
X173228000Y-108458000D03*
D17*
X175768000Y-108458000D03*
X173228000Y-110998000D03*
X175768000Y-110998000D03*
X173228000Y-113538000D03*
X175768000Y-113538000D03*
D10*
X159465000Y-104775000D03*
X164465000Y-104775000D03*
X135226000Y-104775000D03*
D11*
X137766000Y-104775000D03*
D26*
X192405000Y-91440000D03*
D27*
X192405000Y-88900000D03*
D13*
X127000000Y-102870000D03*
D14*
X121920000Y-107950000D03*
D13*
X127000000Y-105410000D03*
D14*
X121920000Y-97790000D03*
D10*
X181610000Y-83820000D03*
D11*
X184150000Y-83820000D03*
D28*
X160040000Y-96520000D03*
D29*
X167640000Y-96520000D03*
D10*
X140941000Y-104775000D03*
D11*
X143481000Y-104775000D03*
D30*
X140810000Y-109855000D03*
D31*
X140810000Y-112395000D03*
X140810000Y-114935000D03*
X140810000Y-117475000D03*
X148750000Y-117475000D03*
X148750000Y-114935000D03*
X148750000Y-112395000D03*
X148750000Y-109855000D03*
D24*
X123190000Y-114935000D03*
D25*
X120650000Y-114935000D03*
X118110000Y-114935000D03*
D19*
X192405000Y-78105000D03*
D20*
X188595000Y-78105000D03*
D10*
X132715000Y-118745000D03*
X137715000Y-118745000D03*
D21*
X127254000Y-124460000D03*
D32*
X121254000Y-124460000D03*
D33*
X124254000Y-129160000D03*
M02*
