M48
; DRILL file {KiCad 7.0.2-0} date 2023 May 29, Monday 14:12:44
; FORMAT={-:-/ absolute / metric / decimal}
; #@! TF.CreationDate,2023-05-29T14:12:44-07:00
; #@! TF.GenerationSoftware,Kicad,Pcbnew,7.0.2-0
; #@! TF.FileFunction,Plated,1,2,PTH
FMAT,2
METRIC
; #@! TA.AperFunction,Plated,PTH,ViaDrill
T1C0.400
; #@! TA.AperFunction,Plated,PTH,ComponentDrill
T2C0.750
; #@! TA.AperFunction,Plated,PTH,ComponentDrill
T3C0.800
; #@! TA.AperFunction,Plated,PTH,ComponentDrill
T4C0.850
; #@! TA.AperFunction,Plated,PTH,ComponentDrill
T5C0.890
; #@! TA.AperFunction,Plated,PTH,ComponentDrill
T6C0.900
; #@! TA.AperFunction,Plated,PTH,ComponentDrill
T7C1.000
; #@! TA.AperFunction,Plated,PTH,ComponentDrill
T8C1.200
; #@! TA.AperFunction,Plated,PTH,ComponentDrill
T9C1.300
; #@! TA.AperFunction,Plated,PTH,ComponentDrill
T10C2.010
%
G90
G05
T1
X118.625Y-79.749
X118.625Y-84.829
X118.625Y-89.909
X118.625Y-94.989
X118.625Y-105.149
X118.625Y-125.469
X123.705Y-79.749
X123.705Y-84.829
X123.705Y-89.909
X123.705Y-94.989
X123.705Y-105.149
X123.705Y-125.469
X128.785Y-79.749
X128.785Y-84.829
X128.785Y-100.069
X128.785Y-110.229
X133.865Y-94.989
X133.865Y-115.309
X144.025Y-79.749
X144.025Y-84.829
X144.025Y-89.909
X144.78Y-107.315
X149.105Y-89.909
X149.105Y-94.989
X149.105Y-100.069
X154.185Y-79.749
X154.185Y-84.829
X154.185Y-110.229
X154.185Y-115.309
X159.265Y-79.749
X159.265Y-100.069
X159.265Y-120.389
X164.345Y-79.749
X164.345Y-84.829
X164.345Y-94.989
X164.345Y-115.309
X164.345Y-120.389
X166.37Y-107.315
X169.425Y-89.909
X169.425Y-100.069
X169.425Y-115.309
X174.505Y-84.829
X178.505Y-94.615
X178.505Y-105.664
X179.705Y-94.615
X184.665Y-94.989
X189.745Y-94.989
X189.745Y-115.309
X189.745Y-120.389
T2
X118.11Y-114.935
X120.65Y-114.935
X123.19Y-114.935
X157.48Y-112.395
X160.02Y-112.395
X162.56Y-112.395
T3
X132.715Y-118.745
X135.226Y-104.775
X137.715Y-118.745
X137.766Y-104.775
X140.941Y-104.775
X141.605Y-121.325
X141.605Y-126.325
X143.481Y-104.775
X148.18Y-104.775
X150.72Y-104.775
X151.765Y-88.9
X153.67Y-104.775
X154.305Y-88.9
X156.21Y-104.775
X159.465Y-104.775
X164.465Y-104.775
X180.975Y-78.74
X181.61Y-83.82
X183.515Y-78.74
X184.15Y-83.82
X187.325Y-88.9
X187.325Y-91.44
X188.595Y-83.82
X193.595Y-83.82
T4
X140.81Y-109.855
X140.81Y-112.395
X140.81Y-114.935
X140.81Y-117.475
X148.75Y-109.855
X148.75Y-112.395
X148.75Y-114.935
X148.75Y-117.475
T5
X127.0Y-102.87
X127.0Y-105.41
X182.88Y-100.33
X182.88Y-102.87
T6
X192.405Y-88.9
X192.405Y-91.44
T7
X137.795Y-83.28
X137.795Y-88.36
X147.955Y-78.2
X147.955Y-83.28
X154.94Y-118.11
X154.94Y-123.19
X160.02Y-83.28
X160.02Y-88.36
X160.02Y-118.11
X160.02Y-123.19
X160.04Y-96.52
X162.56Y-118.11
X162.56Y-123.19
X165.1Y-118.11
X165.1Y-123.19
X167.64Y-96.52
X170.18Y-78.2
X170.18Y-83.28
X172.715Y-104.14
X173.228Y-108.458
X173.228Y-110.998
X173.228Y-113.538
X175.255Y-104.14
X175.768Y-108.458
X175.768Y-110.998
X175.768Y-113.538
T8
X154.305Y-95.55
X154.305Y-99.36
X175.895Y-87.965
X175.895Y-91.775
X188.595Y-78.105
X192.405Y-78.105
T9
X137.16Y-94.06
X137.16Y-99.06
X142.16Y-96.56
T10
X121.92Y-97.79
X121.92Y-107.95
X187.96Y-97.79
X187.96Y-107.95
T7
G00X121.254Y-123.46
M15
G01X121.254Y-125.46
M16
G05
G00X123.254Y-129.16
M15
G01X125.254Y-129.16
M16
G05
G00X127.254Y-123.46
M15
G01X127.254Y-125.46
M16
G05
G00X182.626Y-125.46
M15
G01X182.626Y-123.46
M16
G05
G00X186.626Y-119.76
M15
G01X184.626Y-119.76
M16
G05
G00X188.626Y-125.46
M15
G01X188.626Y-123.46
M16
G05
T0
M30
