G04 #@! TF.GenerationSoftware,KiCad,Pcbnew,7.0.2-0*
G04 #@! TF.CreationDate,2023-05-29T14:12:07-07:00*
G04 #@! TF.ProjectId,SWR Protector,53575220-5072-46f7-9465-63746f722e6b,v2.0*
G04 #@! TF.SameCoordinates,Original*
G04 #@! TF.FileFunction,Copper,L2,Bot*
G04 #@! TF.FilePolarity,Positive*
%FSLAX46Y46*%
G04 Gerber Fmt 4.6, Leading zero omitted, Abs format (unit mm)*
G04 Created by KiCad (PCBNEW 7.0.2-0) date 2023-05-29 14:12:07*
%MOMM*%
%LPD*%
G01*
G04 APERTURE LIST*
G04 Aperture macros list*
%AMRoundRect*
0 Rectangle with rounded corners*
0 $1 Rounding radius*
0 $2 $3 $4 $5 $6 $7 $8 $9 X,Y pos of 4 corners*
0 Add a 4 corners polygon primitive as box body*
4,1,4,$2,$3,$4,$5,$6,$7,$8,$9,$2,$3,0*
0 Add four circle primitives for the rounded corners*
1,1,$1+$1,$2,$3*
1,1,$1+$1,$4,$5*
1,1,$1+$1,$6,$7*
1,1,$1+$1,$8,$9*
0 Add four rect primitives between the rounded corners*
20,1,$1+$1,$2,$3,$4,$5,0*
20,1,$1+$1,$4,$5,$6,$7,0*
20,1,$1+$1,$6,$7,$8,$9,0*
20,1,$1+$1,$8,$9,$2,$3,0*%
G04 Aperture macros list end*
G04 #@! TA.AperFunction,ComponentPad*
%ADD10C,1.600000*%
G04 #@! TD*
G04 #@! TA.AperFunction,ComponentPad*
%ADD11O,1.600000X1.600000*%
G04 #@! TD*
G04 #@! TA.AperFunction,ComponentPad*
%ADD12C,1.700000*%
G04 #@! TD*
G04 #@! TA.AperFunction,ComponentPad*
%ADD13O,2.500000X1.600000*%
G04 #@! TD*
G04 #@! TA.AperFunction,ComponentPad*
%ADD14O,7.000000X3.500000*%
G04 #@! TD*
G04 #@! TA.AperFunction,ComponentPad*
%ADD15C,1.500000*%
G04 #@! TD*
G04 #@! TA.AperFunction,ComponentPad*
%ADD16R,1.700000X1.700000*%
G04 #@! TD*
G04 #@! TA.AperFunction,ComponentPad*
%ADD17O,1.700000X1.700000*%
G04 #@! TD*
G04 #@! TA.AperFunction,ComponentPad*
%ADD18C,2.340000*%
G04 #@! TD*
G04 #@! TA.AperFunction,ComponentPad*
%ADD19R,2.400000X2.400000*%
G04 #@! TD*
G04 #@! TA.AperFunction,ComponentPad*
%ADD20O,2.400000X2.400000*%
G04 #@! TD*
G04 #@! TA.AperFunction,ComponentPad*
%ADD21R,3.500000X3.500000*%
G04 #@! TD*
G04 #@! TA.AperFunction,ComponentPad*
%ADD22RoundRect,0.750000X0.750000X1.000000X-0.750000X1.000000X-0.750000X-1.000000X0.750000X-1.000000X0*%
G04 #@! TD*
G04 #@! TA.AperFunction,ComponentPad*
%ADD23RoundRect,0.875000X0.875000X0.875000X-0.875000X0.875000X-0.875000X-0.875000X0.875000X-0.875000X0*%
G04 #@! TD*
G04 #@! TA.AperFunction,ComponentPad*
%ADD24R,1.050000X1.500000*%
G04 #@! TD*
G04 #@! TA.AperFunction,ComponentPad*
%ADD25O,1.050000X1.500000*%
G04 #@! TD*
G04 #@! TA.AperFunction,ComponentPad*
%ADD26R,1.800000X1.800000*%
G04 #@! TD*
G04 #@! TA.AperFunction,ComponentPad*
%ADD27C,1.800000*%
G04 #@! TD*
G04 #@! TA.AperFunction,ComponentPad*
%ADD28R,2.000000X2.000000*%
G04 #@! TD*
G04 #@! TA.AperFunction,ComponentPad*
%ADD29C,2.000000*%
G04 #@! TD*
G04 #@! TA.AperFunction,ComponentPad*
%ADD30R,1.350000X1.350000*%
G04 #@! TD*
G04 #@! TA.AperFunction,ComponentPad*
%ADD31C,1.350000*%
G04 #@! TD*
G04 #@! TA.AperFunction,ComponentPad*
%ADD32RoundRect,0.750000X-0.750000X-1.000000X0.750000X-1.000000X0.750000X1.000000X-0.750000X1.000000X0*%
G04 #@! TD*
G04 #@! TA.AperFunction,ComponentPad*
%ADD33RoundRect,0.875000X-0.875000X-0.875000X0.875000X-0.875000X0.875000X0.875000X-0.875000X0.875000X0*%
G04 #@! TD*
G04 #@! TA.AperFunction,ViaPad*
%ADD34C,0.800000*%
G04 #@! TD*
G04 #@! TA.AperFunction,Conductor*
%ADD35C,1.000000*%
G04 #@! TD*
G04 #@! TA.AperFunction,Conductor*
%ADD36C,2.500000*%
G04 #@! TD*
G04 APERTURE END LIST*
D10*
X188595000Y-83820000D03*
X193595000Y-83820000D03*
X156210000Y-104775000D03*
D11*
X153670000Y-104775000D03*
D10*
X180975000Y-78740000D03*
D11*
X183515000Y-78740000D03*
D10*
X151765000Y-88900000D03*
D11*
X154305000Y-88900000D03*
D10*
X141605000Y-126325000D03*
X141605000Y-121325000D03*
D12*
X170180000Y-78200000D03*
X160020000Y-88360000D03*
X170180000Y-83280000D03*
X160020000Y-83280000D03*
D13*
X182880000Y-102870000D03*
D14*
X187960000Y-97790000D03*
D13*
X182880000Y-100330000D03*
D14*
X187960000Y-107950000D03*
D15*
X154940000Y-123190000D03*
X160020000Y-123190000D03*
X162560000Y-123190000D03*
X165100000Y-123190000D03*
X165100000Y-118110000D03*
X162560000Y-118110000D03*
X160020000Y-118110000D03*
X154940000Y-118110000D03*
D12*
X147955000Y-78200000D03*
X137795000Y-88360000D03*
X147955000Y-83280000D03*
X137795000Y-83280000D03*
D16*
X172715000Y-104140000D03*
D17*
X175255000Y-104140000D03*
D10*
X148180000Y-104775000D03*
D11*
X150720000Y-104775000D03*
D18*
X137160000Y-99060000D03*
X142160000Y-96560000D03*
X137160000Y-94060000D03*
D19*
X175895000Y-87965000D03*
D20*
X175895000Y-91775000D03*
D19*
X154305000Y-99360000D03*
D20*
X154305000Y-95550000D03*
D21*
X182626000Y-124460000D03*
D22*
X188626000Y-124460000D03*
D23*
X185626000Y-119760000D03*
D10*
X187325000Y-91440000D03*
D11*
X187325000Y-88900000D03*
D24*
X157480000Y-112395000D03*
D25*
X160020000Y-112395000D03*
X162560000Y-112395000D03*
D16*
X173228000Y-108458000D03*
D17*
X175768000Y-108458000D03*
X173228000Y-110998000D03*
X175768000Y-110998000D03*
X173228000Y-113538000D03*
X175768000Y-113538000D03*
D10*
X159465000Y-104775000D03*
X164465000Y-104775000D03*
X135226000Y-104775000D03*
D11*
X137766000Y-104775000D03*
D26*
X192405000Y-91440000D03*
D27*
X192405000Y-88900000D03*
D13*
X127000000Y-102870000D03*
D14*
X121920000Y-107950000D03*
D13*
X127000000Y-105410000D03*
D14*
X121920000Y-97790000D03*
D10*
X181610000Y-83820000D03*
D11*
X184150000Y-83820000D03*
D28*
X160040000Y-96520000D03*
D29*
X167640000Y-96520000D03*
D10*
X140941000Y-104775000D03*
D11*
X143481000Y-104775000D03*
D30*
X140810000Y-109855000D03*
D31*
X140810000Y-112395000D03*
X140810000Y-114935000D03*
X140810000Y-117475000D03*
X148750000Y-117475000D03*
X148750000Y-114935000D03*
X148750000Y-112395000D03*
X148750000Y-109855000D03*
D24*
X123190000Y-114935000D03*
D25*
X120650000Y-114935000D03*
X118110000Y-114935000D03*
D19*
X192405000Y-78105000D03*
D20*
X188595000Y-78105000D03*
D10*
X132715000Y-118745000D03*
X137715000Y-118745000D03*
D21*
X127254000Y-124460000D03*
D32*
X121254000Y-124460000D03*
D33*
X124254000Y-129160000D03*
D34*
X189745497Y-120389234D03*
X189745497Y-115309234D03*
X189745497Y-94989234D03*
X184665497Y-94989234D03*
X174505497Y-84829234D03*
X169425497Y-115309234D03*
X169425497Y-100069234D03*
X169425497Y-89909234D03*
X164345497Y-120389234D03*
X164345497Y-115309234D03*
X164345497Y-94989234D03*
X164345497Y-84829234D03*
X164345497Y-79749234D03*
X159265497Y-120389234D03*
X159265497Y-100069234D03*
X159265497Y-79749234D03*
X154185497Y-115309234D03*
X154185497Y-110229234D03*
X154185497Y-84829234D03*
X154185497Y-79749234D03*
X149105497Y-100069234D03*
X149105497Y-94989234D03*
X149105497Y-89909234D03*
X144025497Y-89909234D03*
X144025497Y-84829234D03*
X144025497Y-79749234D03*
X133865497Y-115309234D03*
X133865497Y-94989234D03*
X128785497Y-110229234D03*
X128785497Y-100069234D03*
X128785497Y-84829234D03*
X128785497Y-79749234D03*
X123705497Y-125469234D03*
X123705497Y-105149234D03*
X123705497Y-94989234D03*
X123705497Y-89909234D03*
X123705497Y-84829234D03*
X123705497Y-79749234D03*
X118625497Y-125469234D03*
X118625497Y-105149234D03*
X118625497Y-94989234D03*
X118625497Y-89909234D03*
X118625497Y-84829234D03*
X118625497Y-79749234D03*
X166370000Y-107315000D03*
X178505000Y-105664000D03*
X178505000Y-94615000D03*
X179705000Y-94615000D03*
X144780000Y-107315000D03*
D35*
X166370000Y-108585000D02*
X162560000Y-112395000D01*
X166370000Y-107315000D02*
X166370000Y-108585000D01*
X180791000Y-107950000D02*
X187960000Y-107950000D01*
X178505000Y-105664000D02*
X180791000Y-107950000D01*
X140810000Y-114935000D02*
X150765000Y-104980000D01*
X137160000Y-112014000D02*
X137160000Y-115431600D01*
X178505000Y-90805000D02*
X178505000Y-94615000D01*
X135226000Y-104775000D02*
X135226000Y-100994000D01*
X135226000Y-104775000D02*
X135226000Y-110080000D01*
X154940000Y-123190000D02*
X154940000Y-121139000D01*
X135226000Y-100994000D02*
X137160000Y-99060000D01*
X137160000Y-115770000D02*
X141215000Y-119825000D01*
X154940000Y-121139000D02*
X162234000Y-113845000D01*
X135226000Y-110080000D02*
X137160000Y-112014000D01*
X162234000Y-113845000D02*
X167841000Y-113845000D01*
X175895000Y-88195000D02*
X178505000Y-90805000D01*
X137160000Y-115431600D02*
X137160000Y-115770000D01*
X133846600Y-118745000D02*
X132715000Y-118745000D01*
X151575000Y-119825000D02*
X154940000Y-123190000D01*
X167841000Y-113845000D02*
X173228000Y-108458000D01*
X141215000Y-119825000D02*
X151575000Y-119825000D01*
X137160000Y-115431600D02*
X133846600Y-118745000D01*
X185077000Y-84746700D02*
X185077000Y-90362300D01*
X180824000Y-94615000D02*
X179705000Y-94615000D01*
X185077000Y-90362300D02*
X180824000Y-94615000D01*
X184150000Y-83820000D02*
X185077000Y-84746700D01*
X145922000Y-102616000D02*
X142160000Y-98854000D01*
X178054000Y-108712000D02*
X178054000Y-107696000D01*
X165713000Y-106275000D02*
X158589000Y-106275000D01*
X140979000Y-102616000D02*
X139435000Y-104160000D01*
X156172000Y-102616000D02*
X145922000Y-102616000D01*
X145922000Y-102616000D02*
X140979000Y-102616000D01*
X165873000Y-106115000D02*
X165713000Y-106275000D01*
X139435000Y-111020000D02*
X140810000Y-112395000D01*
X178054000Y-107696000D02*
X176473000Y-106115000D01*
X176473000Y-106115000D02*
X165873000Y-106115000D01*
X175768000Y-110998000D02*
X178054000Y-108712000D01*
X157710000Y-105396000D02*
X157710000Y-104154000D01*
X157710000Y-104154000D02*
X156172000Y-102616000D01*
X139435000Y-104160000D02*
X139435000Y-111020000D01*
X142160000Y-98854000D02*
X142160000Y-96560000D01*
X158589000Y-106275000D02*
X157710000Y-105396000D01*
X147955000Y-83280000D02*
X157575000Y-83280000D01*
X157575000Y-83280000D02*
X177165000Y-102870000D01*
X177165000Y-102870000D02*
X182880000Y-102870000D01*
D36*
X173100000Y-122498000D02*
X175407000Y-122498000D01*
X171572000Y-124026000D02*
X173100000Y-122498000D01*
X170524000Y-125390000D02*
X170792000Y-124945000D01*
X180697000Y-122531000D02*
X182626000Y-124460000D01*
X160020000Y-124251000D02*
X161159000Y-125390000D01*
X171157000Y-124464000D02*
X171572000Y-124026000D01*
X175407000Y-122498000D02*
X176010000Y-122531000D01*
X176010000Y-122531000D02*
X180697000Y-122531000D01*
X161159000Y-125390000D02*
X170524000Y-125390000D01*
X170792000Y-124945000D02*
X171157000Y-124464000D01*
X160020000Y-123190000D02*
X160020000Y-124251000D01*
D35*
X143350000Y-107315000D02*
X140810000Y-109855000D01*
X144780000Y-107315000D02*
X143350000Y-107315000D01*
X167660000Y-104140000D02*
X160040000Y-96520000D01*
X172715000Y-104140000D02*
X167660000Y-104140000D01*
X175485000Y-104370000D02*
X189644000Y-104370000D01*
X189927000Y-111220000D02*
X182808000Y-111220000D01*
X189644000Y-104370000D02*
X192207000Y-106934000D01*
X192207000Y-108940000D02*
X189927000Y-111220000D01*
X171579000Y-116711000D02*
X165100000Y-123190000D01*
X192207000Y-106934000D02*
X192207000Y-108940000D01*
X182808000Y-111220000D02*
X177318000Y-116711000D01*
X177318000Y-116711000D02*
X171579000Y-116711000D01*
G04 #@! TA.AperFunction,Conductor*
G36*
X130171944Y-75789419D02*
G01*
X130217699Y-75842223D01*
X130228905Y-75893734D01*
X130228905Y-77982151D01*
X130228905Y-78074861D01*
X130228905Y-78274429D01*
X130229169Y-78277288D01*
X130229170Y-78277289D01*
X130265466Y-78669000D01*
X130265468Y-78669015D01*
X130265732Y-78671863D01*
X130266257Y-78674676D01*
X130266259Y-78674684D01*
X130338549Y-79061398D01*
X130338552Y-79061411D01*
X130339074Y-79064203D01*
X130339856Y-79066954D01*
X130339857Y-79066955D01*
X130447278Y-79444505D01*
X130448302Y-79448102D01*
X130449333Y-79450765D01*
X130449335Y-79450769D01*
X130587335Y-79806989D01*
X130592487Y-79820286D01*
X130593768Y-79822859D01*
X130593770Y-79822863D01*
X130708612Y-80053498D01*
X130770397Y-80177578D01*
X130771898Y-80180003D01*
X130771903Y-80180011D01*
X130979011Y-80514502D01*
X130979017Y-80514511D01*
X130980515Y-80516930D01*
X131221049Y-80835448D01*
X131489945Y-81130413D01*
X131784910Y-81399309D01*
X132103428Y-81639843D01*
X132442780Y-81849961D01*
X132800072Y-82027871D01*
X133172256Y-82172056D01*
X133556155Y-82281284D01*
X133948495Y-82354626D01*
X134345929Y-82391453D01*
X134348801Y-82391453D01*
X134742193Y-82391453D01*
X134745065Y-82391453D01*
X135142499Y-82354626D01*
X135534839Y-82281284D01*
X135918738Y-82172056D01*
X136290922Y-82027871D01*
X136648214Y-81849961D01*
X136987566Y-81639843D01*
X137306084Y-81399309D01*
X137601049Y-81130413D01*
X137869945Y-80835448D01*
X138110479Y-80516930D01*
X138320597Y-80177578D01*
X138498507Y-79820286D01*
X138642692Y-79448102D01*
X138751920Y-79064203D01*
X138825262Y-78671863D01*
X138862089Y-78274429D01*
X138862089Y-78200000D01*
X146599842Y-78200000D01*
X146620430Y-78435318D01*
X146681569Y-78663492D01*
X146781400Y-78877580D01*
X146840073Y-78961373D01*
X147471923Y-78329523D01*
X147495507Y-78409844D01*
X147573239Y-78530798D01*
X147681900Y-78624952D01*
X147812685Y-78684680D01*
X147822466Y-78686086D01*
X147193625Y-79314925D01*
X147277420Y-79373599D01*
X147491507Y-79473430D01*
X147719681Y-79534569D01*
X147955000Y-79555157D01*
X148190318Y-79534569D01*
X148418492Y-79473430D01*
X148632576Y-79373600D01*
X148716373Y-79314925D01*
X148087533Y-78686086D01*
X148097315Y-78684680D01*
X148228100Y-78624952D01*
X148336761Y-78530798D01*
X148414493Y-78409844D01*
X148438076Y-78329524D01*
X149069925Y-78961373D01*
X149128600Y-78877576D01*
X149228430Y-78663492D01*
X149289569Y-78435318D01*
X149310157Y-78199999D01*
X149289569Y-77964681D01*
X149228430Y-77736507D01*
X149128599Y-77522421D01*
X149069926Y-77438626D01*
X149069925Y-77438625D01*
X148438076Y-78070475D01*
X148414493Y-77990156D01*
X148336761Y-77869202D01*
X148228100Y-77775048D01*
X148097315Y-77715320D01*
X148087533Y-77713913D01*
X148716373Y-77085073D01*
X148716373Y-77085072D01*
X148632580Y-77026400D01*
X148418492Y-76926569D01*
X148190318Y-76865430D01*
X147954999Y-76844842D01*
X147719681Y-76865430D01*
X147491507Y-76926569D01*
X147277422Y-77026399D01*
X147193625Y-77085072D01*
X147822466Y-77713913D01*
X147812685Y-77715320D01*
X147681900Y-77775048D01*
X147573239Y-77869202D01*
X147495507Y-77990156D01*
X147471923Y-78070475D01*
X146840073Y-77438625D01*
X146840072Y-77438625D01*
X146781399Y-77522422D01*
X146681569Y-77736507D01*
X146620430Y-77964681D01*
X146599842Y-78200000D01*
X138862089Y-78200000D01*
X138862089Y-78074861D01*
X138862089Y-77982151D01*
X138862089Y-75893733D01*
X138881774Y-75826695D01*
X138934578Y-75780940D01*
X138986089Y-75769734D01*
X170966871Y-75769734D01*
X171033910Y-75789419D01*
X171079665Y-75842223D01*
X171090871Y-75893734D01*
X171090871Y-76940165D01*
X171071186Y-77007204D01*
X171018382Y-77052959D01*
X170949224Y-77062903D01*
X170907854Y-77049220D01*
X170727572Y-76951657D01*
X170514636Y-76878556D01*
X170292569Y-76841500D01*
X170067431Y-76841500D01*
X169845363Y-76878556D01*
X169632427Y-76951657D01*
X169434424Y-77058811D01*
X169256760Y-77197094D01*
X169104279Y-77362730D01*
X168981138Y-77551211D01*
X168890705Y-77757381D01*
X168890704Y-77757384D01*
X168843858Y-77942375D01*
X168835435Y-77975636D01*
X168816843Y-78200000D01*
X168835435Y-78424363D01*
X168835435Y-78424366D01*
X168835436Y-78424368D01*
X168883673Y-78614852D01*
X168890705Y-78642618D01*
X168981138Y-78848788D01*
X168981140Y-78848791D01*
X169104278Y-79037268D01*
X169256760Y-79202906D01*
X169434424Y-79341189D01*
X169632426Y-79448342D01*
X169845365Y-79521444D01*
X170067431Y-79558500D01*
X170292569Y-79558500D01*
X170514635Y-79521444D01*
X170727574Y-79448342D01*
X170925576Y-79341189D01*
X171070513Y-79228378D01*
X171135502Y-79202737D01*
X171204042Y-79216303D01*
X171254368Y-79264771D01*
X171265938Y-79292299D01*
X171309482Y-79445341D01*
X171310268Y-79448102D01*
X171311299Y-79450765D01*
X171311301Y-79450769D01*
X171449301Y-79806989D01*
X171454453Y-79820286D01*
X171455734Y-79822859D01*
X171455736Y-79822863D01*
X171570578Y-80053498D01*
X171632363Y-80177578D01*
X171633864Y-80180003D01*
X171633869Y-80180011D01*
X171840977Y-80514502D01*
X171840983Y-80514511D01*
X171842481Y-80516930D01*
X172083015Y-80835448D01*
X172351911Y-81130413D01*
X172646876Y-81399309D01*
X172965394Y-81639843D01*
X173304746Y-81849961D01*
X173662038Y-82027871D01*
X174034222Y-82172056D01*
X174418121Y-82281284D01*
X174810461Y-82354626D01*
X175207895Y-82391453D01*
X175210767Y-82391453D01*
X175604159Y-82391453D01*
X175607031Y-82391453D01*
X176004465Y-82354626D01*
X176396805Y-82281284D01*
X176780704Y-82172056D01*
X177152888Y-82027871D01*
X177510180Y-81849961D01*
X177849532Y-81639843D01*
X178168050Y-81399309D01*
X178463015Y-81130413D01*
X178731911Y-80835448D01*
X178972445Y-80516930D01*
X179182563Y-80177578D01*
X179360473Y-79820286D01*
X179504658Y-79448102D01*
X179548807Y-79292930D01*
X179586084Y-79233841D01*
X179649394Y-79204283D01*
X179718633Y-79213645D01*
X179771820Y-79258954D01*
X179780454Y-79274463D01*
X179837477Y-79396749D01*
X179968802Y-79584300D01*
X180130700Y-79746198D01*
X180318251Y-79877523D01*
X180525757Y-79974284D01*
X180746913Y-80033543D01*
X180898970Y-80046846D01*
X180974999Y-80053498D01*
X180974999Y-80053497D01*
X180975000Y-80053498D01*
X181203087Y-80033543D01*
X181424243Y-79974284D01*
X181631749Y-79877523D01*
X181819300Y-79746198D01*
X181981198Y-79584300D01*
X182112523Y-79396749D01*
X182137308Y-79343596D01*
X182183476Y-79291160D01*
X182250669Y-79272007D01*
X182317551Y-79292221D01*
X182362070Y-79343597D01*
X182384866Y-79392482D01*
X182515341Y-79578819D01*
X182676180Y-79739658D01*
X182862519Y-79870134D01*
X183068673Y-79966266D01*
X183264999Y-80018871D01*
X183265000Y-80018871D01*
X183265000Y-79055686D01*
X183276955Y-79067641D01*
X183389852Y-79125165D01*
X183483519Y-79140000D01*
X183546481Y-79140000D01*
X183640148Y-79125165D01*
X183753045Y-79067641D01*
X183765000Y-79055685D01*
X183765000Y-80018871D01*
X183961326Y-79966266D01*
X184167480Y-79870134D01*
X184353819Y-79739658D01*
X184514658Y-79578819D01*
X184645134Y-79392480D01*
X184741266Y-79186326D01*
X184793872Y-78990000D01*
X183830686Y-78990000D01*
X183842641Y-78978045D01*
X183900165Y-78865148D01*
X183919986Y-78740000D01*
X183900165Y-78614852D01*
X183842641Y-78501955D01*
X183830686Y-78490000D01*
X184793872Y-78490000D01*
X184793871Y-78489999D01*
X184741266Y-78293673D01*
X184653286Y-78105000D01*
X186881708Y-78105000D01*
X186900844Y-78360350D01*
X186957826Y-78610003D01*
X187027422Y-78787331D01*
X187051378Y-78848369D01*
X187068241Y-78877576D01*
X187179412Y-79070130D01*
X187339069Y-79270334D01*
X187526778Y-79444503D01*
X187526781Y-79444505D01*
X187738355Y-79588754D01*
X187969065Y-79699858D01*
X188213757Y-79775335D01*
X188466966Y-79813500D01*
X188723034Y-79813500D01*
X188976243Y-79775335D01*
X189220935Y-79699858D01*
X189451646Y-79588754D01*
X189663219Y-79444505D01*
X189764718Y-79350328D01*
X190696499Y-79350328D01*
X190696500Y-79350346D01*
X190696500Y-79353638D01*
X190696852Y-79356918D01*
X190696853Y-79356924D01*
X190703011Y-79414205D01*
X190754110Y-79551203D01*
X190841738Y-79668261D01*
X190958796Y-79755889D01*
X191095794Y-79806988D01*
X191095797Y-79806988D01*
X191095799Y-79806989D01*
X191156362Y-79813500D01*
X191159672Y-79813500D01*
X193650328Y-79813500D01*
X193653638Y-79813500D01*
X193714201Y-79806989D01*
X193714203Y-79806988D01*
X193714205Y-79806988D01*
X193799070Y-79775334D01*
X193851204Y-79755889D01*
X193968261Y-79668261D01*
X194055889Y-79551204D01*
X194077924Y-79492124D01*
X194106988Y-79414205D01*
X194106988Y-79414203D01*
X194106989Y-79414201D01*
X194113500Y-79353638D01*
X194113500Y-76856362D01*
X194106989Y-76795799D01*
X194106988Y-76795797D01*
X194106988Y-76795794D01*
X194055889Y-76658796D01*
X193968261Y-76541738D01*
X193851203Y-76454110D01*
X193714205Y-76403011D01*
X193656924Y-76396853D01*
X193656918Y-76396852D01*
X193653638Y-76396500D01*
X191156362Y-76396500D01*
X191153082Y-76396852D01*
X191153075Y-76396853D01*
X191095794Y-76403011D01*
X190958796Y-76454110D01*
X190841738Y-76541738D01*
X190754110Y-76658796D01*
X190703011Y-76795794D01*
X190697738Y-76844842D01*
X190696500Y-76856362D01*
X190696500Y-76859652D01*
X190696499Y-76859671D01*
X190696499Y-79350328D01*
X189764718Y-79350328D01*
X189850931Y-79270334D01*
X190010587Y-79070131D01*
X190138622Y-78848369D01*
X190232174Y-78610001D01*
X190289155Y-78360353D01*
X190308291Y-78105000D01*
X190289155Y-77849647D01*
X190232174Y-77599999D01*
X190213025Y-77551209D01*
X190177671Y-77461126D01*
X190138622Y-77361631D01*
X190010587Y-77139869D01*
X189850931Y-76939666D01*
X189785070Y-76878556D01*
X189663221Y-76765496D01*
X189506721Y-76658796D01*
X189451646Y-76621246D01*
X189451643Y-76621245D01*
X189451641Y-76621243D01*
X189220935Y-76510142D01*
X188976244Y-76434665D01*
X188723034Y-76396500D01*
X188466966Y-76396500D01*
X188213755Y-76434665D01*
X187969066Y-76510141D01*
X187738361Y-76621243D01*
X187738355Y-76621246D01*
X187683758Y-76658469D01*
X187526778Y-76765496D01*
X187339069Y-76939665D01*
X187179412Y-77139869D01*
X187051377Y-77361632D01*
X186957826Y-77599996D01*
X186900844Y-77849649D01*
X186881708Y-78105000D01*
X184653286Y-78105000D01*
X184645134Y-78087519D01*
X184514658Y-77901180D01*
X184353819Y-77740341D01*
X184167480Y-77609865D01*
X183961326Y-77513733D01*
X183765000Y-77461126D01*
X183765000Y-78424314D01*
X183753045Y-78412359D01*
X183640148Y-78354835D01*
X183546481Y-78340000D01*
X183483519Y-78340000D01*
X183389852Y-78354835D01*
X183276955Y-78412359D01*
X183265000Y-78424313D01*
X183265000Y-77461127D01*
X183264999Y-77461126D01*
X183068673Y-77513733D01*
X182862519Y-77609865D01*
X182676180Y-77740341D01*
X182515341Y-77901180D01*
X182384864Y-78087520D01*
X182362069Y-78136403D01*
X182315896Y-78188841D01*
X182248702Y-78207992D01*
X182181821Y-78187775D01*
X182137307Y-78136401D01*
X182112523Y-78083251D01*
X181981198Y-77895700D01*
X181819300Y-77733802D01*
X181631749Y-77602477D01*
X181631746Y-77602476D01*
X181631744Y-77602474D01*
X181424246Y-77505717D01*
X181424243Y-77505716D01*
X181257832Y-77461126D01*
X181203084Y-77446456D01*
X180974999Y-77426501D01*
X180746915Y-77446456D01*
X180525753Y-77505717D01*
X180318255Y-77602474D01*
X180130696Y-77733805D01*
X179968803Y-77895698D01*
X179949629Y-77923082D01*
X179895052Y-77966706D01*
X179825553Y-77973898D01*
X179763199Y-77942375D01*
X179727786Y-77882145D01*
X179724055Y-77851957D01*
X179724055Y-75893734D01*
X179743740Y-75826695D01*
X179796544Y-75780940D01*
X179848055Y-75769734D01*
X195182963Y-75769734D01*
X195250002Y-75789419D01*
X195295757Y-75842223D01*
X195306963Y-75893734D01*
X195306963Y-130255987D01*
X195287278Y-130323026D01*
X195234474Y-130368781D01*
X195182963Y-130379987D01*
X179848055Y-130379987D01*
X179781016Y-130360302D01*
X179735261Y-130307498D01*
X179724055Y-130255987D01*
X179724055Y-127878165D01*
X179724055Y-127878164D01*
X179724055Y-127875293D01*
X179687228Y-127477859D01*
X179613886Y-127085519D01*
X179504658Y-126701620D01*
X179360473Y-126329436D01*
X179182563Y-125972144D01*
X179101833Y-125841761D01*
X178973948Y-125635219D01*
X178973945Y-125635214D01*
X178972445Y-125632792D01*
X178731911Y-125314274D01*
X178463015Y-125019309D01*
X178168050Y-124750413D01*
X177852942Y-124512454D01*
X177811306Y-124456345D01*
X177806615Y-124386633D01*
X177840357Y-124325451D01*
X177901820Y-124292224D01*
X177927669Y-124289500D01*
X179917243Y-124289500D01*
X179984282Y-124309185D01*
X180004924Y-124325819D01*
X180331181Y-124652076D01*
X180364666Y-124713399D01*
X180367500Y-124739756D01*
X180367500Y-126258638D01*
X180367852Y-126261918D01*
X180367853Y-126261924D01*
X180374011Y-126319205D01*
X180425110Y-126456203D01*
X180512738Y-126573261D01*
X180629796Y-126660889D01*
X180766794Y-126711988D01*
X180766797Y-126711988D01*
X180766799Y-126711989D01*
X180827362Y-126718500D01*
X180830672Y-126718500D01*
X184421328Y-126718500D01*
X184424638Y-126718500D01*
X184485201Y-126711989D01*
X184485203Y-126711988D01*
X184485205Y-126711988D01*
X184596181Y-126670595D01*
X184622204Y-126660889D01*
X184739261Y-126573261D01*
X184826889Y-126456204D01*
X184874172Y-126329436D01*
X184877988Y-126319205D01*
X184877988Y-126319203D01*
X184877989Y-126319201D01*
X184884500Y-126258638D01*
X184884500Y-124210000D01*
X186626000Y-124210000D01*
X188126000Y-124210000D01*
X188126000Y-124710000D01*
X186626001Y-124710000D01*
X186626001Y-125521744D01*
X186626192Y-125526625D01*
X186636400Y-125656331D01*
X186691377Y-125874518D01*
X186784430Y-126079379D01*
X186912565Y-126264332D01*
X187071667Y-126423434D01*
X187256620Y-126551569D01*
X187461481Y-126644622D01*
X187679668Y-126699599D01*
X187809374Y-126709808D01*
X187814254Y-126709999D01*
X188375999Y-126709999D01*
X188376000Y-126709998D01*
X188376000Y-125893686D01*
X188416156Y-125919493D01*
X188554111Y-125960000D01*
X188697889Y-125960000D01*
X188835844Y-125919493D01*
X188876000Y-125893686D01*
X188876000Y-126709999D01*
X189437744Y-126709999D01*
X189442625Y-126709807D01*
X189572331Y-126699599D01*
X189790518Y-126644622D01*
X189995379Y-126551569D01*
X190180332Y-126423434D01*
X190339434Y-126264332D01*
X190467569Y-126079379D01*
X190560622Y-125874518D01*
X190615599Y-125656331D01*
X190625808Y-125526625D01*
X190626000Y-125521745D01*
X190626000Y-124710000D01*
X189126000Y-124710000D01*
X189126000Y-124210000D01*
X190625999Y-124210000D01*
X190625999Y-123398255D01*
X190625807Y-123393374D01*
X190615599Y-123263668D01*
X190560622Y-123045481D01*
X190467569Y-122840620D01*
X190339434Y-122655667D01*
X190180332Y-122496565D01*
X189995379Y-122368430D01*
X189790518Y-122275377D01*
X189572331Y-122220400D01*
X189442625Y-122210191D01*
X189437746Y-122210000D01*
X188876000Y-122210000D01*
X188876000Y-123026313D01*
X188835844Y-123000507D01*
X188697889Y-122960000D01*
X188554111Y-122960000D01*
X188416156Y-123000507D01*
X188376000Y-123026313D01*
X188376000Y-122210000D01*
X187814255Y-122210000D01*
X187809374Y-122210192D01*
X187679668Y-122220400D01*
X187461481Y-122275377D01*
X187256620Y-122368430D01*
X187071667Y-122496565D01*
X186912565Y-122655667D01*
X186784430Y-122840620D01*
X186691377Y-123045481D01*
X186636400Y-123263668D01*
X186626191Y-123393374D01*
X186626000Y-123398254D01*
X186626000Y-124210000D01*
X184884500Y-124210000D01*
X184884500Y-122661362D01*
X184877989Y-122600799D01*
X184877988Y-122600797D01*
X184877988Y-122600794D01*
X184826889Y-122463796D01*
X184739261Y-122346738D01*
X184622204Y-122259111D01*
X184596180Y-122249404D01*
X184540247Y-122207531D01*
X184515832Y-122142066D01*
X184530685Y-122073794D01*
X184580091Y-122024390D01*
X184646101Y-122009398D01*
X184655782Y-122009912D01*
X184659057Y-122009999D01*
X185375999Y-122009999D01*
X185376000Y-122009998D01*
X185376000Y-120260000D01*
X185876000Y-120260000D01*
X185876000Y-122009999D01*
X186592931Y-122009999D01*
X186596230Y-122009911D01*
X186642923Y-122007432D01*
X186651383Y-122006394D01*
X186876986Y-121962762D01*
X187095976Y-121880119D01*
X187297841Y-121761659D01*
X187476786Y-121610786D01*
X187627659Y-121431841D01*
X187746119Y-121229976D01*
X187828762Y-121010986D01*
X187872392Y-120785391D01*
X187873433Y-120776908D01*
X187875912Y-120730237D01*
X187876000Y-120726942D01*
X187876000Y-120010000D01*
X187059686Y-120010000D01*
X187085493Y-119969844D01*
X187126000Y-119831889D01*
X187126000Y-119688111D01*
X187085493Y-119550156D01*
X187059686Y-119510000D01*
X187875999Y-119510000D01*
X187875999Y-118793069D01*
X187875911Y-118789769D01*
X187873432Y-118743076D01*
X187872394Y-118734616D01*
X187828762Y-118509013D01*
X187746119Y-118290023D01*
X187627659Y-118088158D01*
X187476786Y-117909213D01*
X187297841Y-117758340D01*
X187095976Y-117639880D01*
X186876986Y-117557237D01*
X186651391Y-117513607D01*
X186642908Y-117512566D01*
X186596237Y-117510087D01*
X186592943Y-117510000D01*
X185876000Y-117510000D01*
X185876000Y-119260000D01*
X185376000Y-119260000D01*
X185376000Y-117510000D01*
X184687139Y-117510000D01*
X184620100Y-117490315D01*
X184574345Y-117437511D01*
X184563365Y-117378515D01*
X184581733Y-117074861D01*
X184562738Y-116760832D01*
X184506029Y-116451383D01*
X184412434Y-116151026D01*
X184283317Y-115864140D01*
X184120561Y-115594909D01*
X183926540Y-115347259D01*
X183704082Y-115124801D01*
X183456432Y-114930780D01*
X183217503Y-114786342D01*
X183190406Y-114769961D01*
X183190399Y-114769957D01*
X183187201Y-114768024D01*
X182900315Y-114638907D01*
X182887716Y-114634981D01*
X182603534Y-114546426D01*
X182603528Y-114546424D01*
X182599958Y-114545312D01*
X182596287Y-114544639D01*
X182596278Y-114544637D01*
X182294193Y-114489278D01*
X182294191Y-114489277D01*
X182290509Y-114488603D01*
X182286783Y-114488377D01*
X182286770Y-114488376D01*
X181980216Y-114469834D01*
X181976480Y-114469608D01*
X181972744Y-114469834D01*
X181666189Y-114488376D01*
X181666174Y-114488377D01*
X181662451Y-114488603D01*
X181658770Y-114489277D01*
X181658766Y-114489278D01*
X181356681Y-114544637D01*
X181356668Y-114544640D01*
X181353002Y-114545312D01*
X181349434Y-114546423D01*
X181349425Y-114546426D01*
X181188855Y-114596462D01*
X181118995Y-114597614D01*
X181059603Y-114560813D01*
X181029535Y-114497744D01*
X181038337Y-114428431D01*
X181064274Y-114390405D01*
X182350201Y-113104246D01*
X183189468Y-112264827D01*
X183250788Y-112231336D01*
X183277157Y-112228500D01*
X189871358Y-112228500D01*
X189883511Y-112229096D01*
X189927000Y-112233380D01*
X190124701Y-112213909D01*
X190314804Y-112156241D01*
X190410774Y-112104944D01*
X190490004Y-112062595D01*
X190643568Y-111936568D01*
X190671299Y-111902776D01*
X190679451Y-111893781D01*
X192880781Y-109692451D01*
X192889776Y-109684299D01*
X192923568Y-109656568D01*
X193049595Y-109503004D01*
X193143241Y-109327804D01*
X193159258Y-109275003D01*
X193189726Y-109174568D01*
X193200908Y-109137703D01*
X193200909Y-109137701D01*
X193220380Y-108940000D01*
X193216097Y-108896510D01*
X193215500Y-108884357D01*
X193215500Y-106989754D01*
X193216099Y-106977577D01*
X193220380Y-106934198D01*
X193215507Y-106884626D01*
X193215500Y-106884525D01*
X193215500Y-106884453D01*
X193210762Y-106836355D01*
X193200947Y-106736493D01*
X193200946Y-106736490D01*
X193200937Y-106736397D01*
X193200908Y-106736302D01*
X193200908Y-106736299D01*
X193172588Y-106642940D01*
X193170763Y-106636921D01*
X193143286Y-106546278D01*
X193103799Y-106472405D01*
X193096501Y-106458751D01*
X193049705Y-106371161D01*
X193049702Y-106371157D01*
X193049656Y-106371071D01*
X193049596Y-106370997D01*
X193049595Y-106370996D01*
X192986359Y-106293943D01*
X192970434Y-106274530D01*
X192955440Y-106256252D01*
X192955424Y-106256233D01*
X192955285Y-106256064D01*
X192955231Y-106256010D01*
X192955162Y-106255930D01*
X192949326Y-106248819D01*
X192923568Y-106217432D01*
X192923566Y-106217430D01*
X192889874Y-106189779D01*
X192880842Y-106181591D01*
X191271058Y-104571180D01*
X190396513Y-103696295D01*
X190388361Y-103687299D01*
X190361741Y-103654862D01*
X190360568Y-103653432D01*
X190350130Y-103644866D01*
X190282648Y-103589484D01*
X190207084Y-103527445D01*
X190119459Y-103480611D01*
X190031899Y-103433787D01*
X189939415Y-103405733D01*
X189925586Y-103401535D01*
X189841895Y-103376130D01*
X189841893Y-103376129D01*
X189841802Y-103376102D01*
X189841701Y-103376092D01*
X189744643Y-103366532D01*
X189744642Y-103366531D01*
X189644195Y-103356619D01*
X189600603Y-103360905D01*
X189588473Y-103361500D01*
X184714562Y-103361500D01*
X184647523Y-103341815D01*
X184601768Y-103289011D01*
X184591824Y-103219853D01*
X184594787Y-103205406D01*
X184613091Y-103137094D01*
X184623543Y-103098087D01*
X184643498Y-102870000D01*
X184623543Y-102641913D01*
X184564284Y-102420757D01*
X184467523Y-102213251D01*
X184336198Y-102025700D01*
X184174300Y-101863802D01*
X183986749Y-101732477D01*
X183986748Y-101732476D01*
X183986746Y-101732475D01*
X183933598Y-101707692D01*
X183881159Y-101661519D01*
X183862007Y-101594325D01*
X183882223Y-101527444D01*
X183933600Y-101482927D01*
X183982481Y-101460133D01*
X184168819Y-101329658D01*
X184329658Y-101168819D01*
X184460134Y-100982480D01*
X184556266Y-100776326D01*
X184608872Y-100580000D01*
X183249503Y-100580000D01*
X183298917Y-100494413D01*
X183328768Y-100363630D01*
X183318743Y-100229860D01*
X183269734Y-100104987D01*
X183249807Y-100080000D01*
X184608872Y-100080000D01*
X184608871Y-100079999D01*
X184556266Y-99883673D01*
X184460134Y-99677519D01*
X184329658Y-99491180D01*
X184168819Y-99330341D01*
X183982480Y-99199865D01*
X183776326Y-99103733D01*
X183556602Y-99044858D01*
X183389464Y-99030236D01*
X183384054Y-99030000D01*
X183130000Y-99030000D01*
X183130000Y-99961862D01*
X183075259Y-99924541D01*
X182947073Y-99885000D01*
X182846654Y-99885000D01*
X182747353Y-99899967D01*
X182630000Y-99956481D01*
X182630000Y-99030000D01*
X182375946Y-99030000D01*
X182370535Y-99030236D01*
X182203397Y-99044858D01*
X181983673Y-99103733D01*
X181777519Y-99199865D01*
X181591180Y-99330341D01*
X181430341Y-99491180D01*
X181299865Y-99677519D01*
X181203733Y-99883673D01*
X181151128Y-100079999D01*
X181151128Y-100080000D01*
X182510497Y-100080000D01*
X182461083Y-100165587D01*
X182431232Y-100296370D01*
X182441257Y-100430140D01*
X182490266Y-100555013D01*
X182510193Y-100580000D01*
X181151128Y-100580000D01*
X181203733Y-100776326D01*
X181299865Y-100982480D01*
X181430341Y-101168819D01*
X181591180Y-101329658D01*
X181777516Y-101460132D01*
X181826400Y-101482927D01*
X181878839Y-101529099D01*
X181897992Y-101596292D01*
X181877777Y-101663174D01*
X181826402Y-101707691D01*
X181773252Y-101732475D01*
X181621013Y-101839075D01*
X181554807Y-101861402D01*
X181549890Y-101861500D01*
X177634096Y-101861500D01*
X177567057Y-101841815D01*
X177546415Y-101825181D01*
X173261233Y-97539999D01*
X183970384Y-97539999D01*
X183970385Y-97540000D01*
X186986589Y-97540000D01*
X186961466Y-97637030D01*
X186951114Y-97841165D01*
X186981574Y-98040000D01*
X183973793Y-98040000D01*
X183985960Y-98160951D01*
X183987337Y-98169112D01*
X184055248Y-98454080D01*
X184057699Y-98461981D01*
X184162987Y-98735354D01*
X184166467Y-98742855D01*
X184307254Y-98999758D01*
X184311707Y-99006733D01*
X184485476Y-99242574D01*
X184490821Y-99248896D01*
X184694474Y-99459472D01*
X184700609Y-99465020D01*
X184930518Y-99646578D01*
X184937328Y-99651253D01*
X185189393Y-99800551D01*
X185196769Y-99804278D01*
X185466482Y-99918647D01*
X185474286Y-99921357D01*
X185756820Y-99998751D01*
X185764942Y-100000402D01*
X186055278Y-100039448D01*
X186063521Y-100040000D01*
X187710000Y-100040000D01*
X187710000Y-98764625D01*
X187857801Y-98795000D01*
X188010967Y-98795000D01*
X188163348Y-98779504D01*
X188210000Y-98764867D01*
X188210000Y-100040000D01*
X189783146Y-100040000D01*
X189787306Y-100039860D01*
X190006434Y-100025191D01*
X190014627Y-100024089D01*
X190301701Y-99965739D01*
X190309690Y-99963551D01*
X190586429Y-99867457D01*
X190594041Y-99864229D01*
X190855501Y-99732107D01*
X190862618Y-99727893D01*
X191104144Y-99562094D01*
X191110632Y-99556970D01*
X191327898Y-99360464D01*
X191333648Y-99354519D01*
X191522786Y-99130806D01*
X191527692Y-99124148D01*
X191685327Y-98877216D01*
X191689296Y-98869973D01*
X191812610Y-98604238D01*
X191815583Y-98596519D01*
X191902378Y-98316718D01*
X191904294Y-98308679D01*
X191949615Y-98040000D01*
X188933411Y-98040000D01*
X188958534Y-97942970D01*
X188968886Y-97738835D01*
X188938426Y-97540000D01*
X191946207Y-97540000D01*
X191946207Y-97539999D01*
X191934039Y-97419048D01*
X191932662Y-97410887D01*
X191864751Y-97125919D01*
X191862300Y-97118018D01*
X191757012Y-96844645D01*
X191753532Y-96837144D01*
X191612745Y-96580241D01*
X191608292Y-96573266D01*
X191434523Y-96337425D01*
X191429178Y-96331103D01*
X191225525Y-96120527D01*
X191219390Y-96114979D01*
X190989481Y-95933421D01*
X190982671Y-95928746D01*
X190730606Y-95779448D01*
X190723230Y-95775721D01*
X190453517Y-95661352D01*
X190445713Y-95658642D01*
X190163179Y-95581248D01*
X190155057Y-95579597D01*
X189864721Y-95540551D01*
X189856479Y-95540000D01*
X188210000Y-95540000D01*
X188210000Y-96815374D01*
X188062199Y-96785000D01*
X187909033Y-96785000D01*
X187756652Y-96800496D01*
X187710000Y-96815132D01*
X187710000Y-95540000D01*
X186136854Y-95540000D01*
X186132693Y-95540139D01*
X185913565Y-95554808D01*
X185905372Y-95555910D01*
X185618298Y-95614260D01*
X185610309Y-95616448D01*
X185333570Y-95712542D01*
X185325958Y-95715770D01*
X185064498Y-95847892D01*
X185057381Y-95852106D01*
X184815855Y-96017905D01*
X184809367Y-96023029D01*
X184592101Y-96219535D01*
X184586351Y-96225480D01*
X184397213Y-96449193D01*
X184392307Y-96455851D01*
X184234672Y-96702783D01*
X184230703Y-96710026D01*
X184107389Y-96975761D01*
X184104416Y-96983480D01*
X184017621Y-97263281D01*
X184015705Y-97271320D01*
X183970384Y-97539999D01*
X173261233Y-97539999D01*
X167496233Y-91774999D01*
X174181708Y-91774999D01*
X174200844Y-92030350D01*
X174257826Y-92280003D01*
X174351377Y-92518367D01*
X174479412Y-92740130D01*
X174639069Y-92940334D01*
X174826778Y-93114503D01*
X174826781Y-93114505D01*
X175038355Y-93258754D01*
X175269065Y-93369858D01*
X175513757Y-93445335D01*
X175766966Y-93483500D01*
X176023034Y-93483500D01*
X176276243Y-93445335D01*
X176520935Y-93369858D01*
X176751646Y-93258754D01*
X176963219Y-93114505D01*
X177150931Y-92940334D01*
X177275553Y-92784061D01*
X177332741Y-92743922D01*
X177402553Y-92741072D01*
X177462823Y-92776417D01*
X177494416Y-92838736D01*
X177496500Y-92861374D01*
X177496500Y-94664547D01*
X177496797Y-94667564D01*
X177496798Y-94667581D01*
X177511091Y-94812698D01*
X177511092Y-94812701D01*
X177568759Y-95002804D01*
X177604200Y-95069110D01*
X177651038Y-95156739D01*
X177662405Y-95178004D01*
X177788432Y-95331568D01*
X177941996Y-95457595D01*
X178117196Y-95551241D01*
X178307299Y-95608908D01*
X178505000Y-95628380D01*
X178702701Y-95608908D01*
X178892804Y-95551241D01*
X179046547Y-95469063D01*
X179114949Y-95454822D01*
X179163450Y-95469062D01*
X179317196Y-95551241D01*
X179507299Y-95608908D01*
X179655453Y-95623500D01*
X180768334Y-95623500D01*
X180780491Y-95624097D01*
X180782373Y-95624282D01*
X180823964Y-95628380D01*
X180873524Y-95623500D01*
X180873535Y-95623500D01*
X180873547Y-95623500D01*
X180910365Y-95619873D01*
X180920076Y-95618917D01*
X181020603Y-95609021D01*
X181021676Y-95608926D01*
X181095649Y-95586475D01*
X181100596Y-95584975D01*
X181209720Y-95551876D01*
X181211936Y-95551249D01*
X181214399Y-95549853D01*
X181253430Y-95528990D01*
X181301618Y-95503234D01*
X181325841Y-95490287D01*
X181384306Y-95459040D01*
X181387119Y-95457628D01*
X181389686Y-95455393D01*
X181467930Y-95391180D01*
X181502056Y-95363176D01*
X181502063Y-95363167D01*
X181509043Y-95357440D01*
X181509051Y-95357432D01*
X181540568Y-95331568D01*
X181568283Y-95297795D01*
X181576441Y-95288794D01*
X185750768Y-91114762D01*
X185759756Y-91106615D01*
X185793568Y-91078868D01*
X185835487Y-91027788D01*
X185893232Y-90988455D01*
X185963077Y-90986584D01*
X186022845Y-91022771D01*
X186053561Y-91085527D01*
X186051115Y-91138548D01*
X186031456Y-91211915D01*
X186011501Y-91440000D01*
X186031456Y-91668084D01*
X186090717Y-91889246D01*
X186187474Y-92096744D01*
X186187476Y-92096746D01*
X186187477Y-92096749D01*
X186318802Y-92284300D01*
X186480700Y-92446198D01*
X186668251Y-92577523D01*
X186668254Y-92577524D01*
X186668255Y-92577525D01*
X186772004Y-92625903D01*
X186875757Y-92674284D01*
X187096913Y-92733543D01*
X187325000Y-92753498D01*
X187553087Y-92733543D01*
X187774243Y-92674284D01*
X187981749Y-92577523D01*
X188169300Y-92446198D01*
X188331198Y-92284300D01*
X188462523Y-92096749D01*
X188559284Y-91889243D01*
X188618543Y-91668087D01*
X188638498Y-91440000D01*
X188618543Y-91211913D01*
X188559284Y-90990757D01*
X188462523Y-90783251D01*
X188331198Y-90595700D01*
X188169300Y-90433802D01*
X187981749Y-90302477D01*
X187963132Y-90293796D01*
X187938655Y-90282382D01*
X187886215Y-90236210D01*
X187867063Y-90169017D01*
X187887278Y-90102136D01*
X187938655Y-90057618D01*
X187941882Y-90056112D01*
X187981749Y-90037523D01*
X188169300Y-89906198D01*
X188331198Y-89744300D01*
X188462523Y-89556749D01*
X188559284Y-89349243D01*
X188618543Y-89128087D01*
X188638498Y-88900000D01*
X188638498Y-88899999D01*
X190991672Y-88899999D01*
X191010948Y-89132621D01*
X191010948Y-89132624D01*
X191010949Y-89132626D01*
X191027319Y-89197268D01*
X191068251Y-89358908D01*
X191162016Y-89572669D01*
X191289684Y-89768081D01*
X191376857Y-89862775D01*
X191407779Y-89925429D01*
X191399919Y-89994856D01*
X191355772Y-90049011D01*
X191328962Y-90062939D01*
X191258796Y-90089110D01*
X191141738Y-90176738D01*
X191054110Y-90293796D01*
X191003011Y-90430794D01*
X191002506Y-90435495D01*
X190996500Y-90491362D01*
X190996500Y-92388638D01*
X190996852Y-92391918D01*
X190996853Y-92391924D01*
X191003011Y-92449205D01*
X191054110Y-92586203D01*
X191141738Y-92703261D01*
X191258796Y-92790889D01*
X191395794Y-92841988D01*
X191395797Y-92841988D01*
X191395799Y-92841989D01*
X191456362Y-92848500D01*
X191459672Y-92848500D01*
X193350328Y-92848500D01*
X193353638Y-92848500D01*
X193414201Y-92841989D01*
X193414203Y-92841988D01*
X193414205Y-92841988D01*
X193492124Y-92812924D01*
X193551204Y-92790889D01*
X193668261Y-92703261D01*
X193755889Y-92586204D01*
X193806989Y-92449201D01*
X193813500Y-92388638D01*
X193813500Y-90491362D01*
X193806989Y-90430799D01*
X193806988Y-90430797D01*
X193806988Y-90430794D01*
X193755889Y-90293796D01*
X193668261Y-90176738D01*
X193551204Y-90089110D01*
X193481037Y-90062939D01*
X193425104Y-90021067D01*
X193400688Y-89955603D01*
X193415541Y-89887330D01*
X193433138Y-89862780D01*
X193520314Y-89768083D01*
X193647984Y-89572669D01*
X193741749Y-89358907D01*
X193799051Y-89132626D01*
X193818327Y-88900000D01*
X193815012Y-88860000D01*
X193810258Y-88802618D01*
X193799051Y-88667374D01*
X193741749Y-88441093D01*
X193647984Y-88227331D01*
X193520314Y-88031917D01*
X193362220Y-87860182D01*
X193178017Y-87716810D01*
X192972727Y-87605713D01*
X192972726Y-87605712D01*
X192972725Y-87605712D01*
X192751953Y-87529919D01*
X192521712Y-87491500D01*
X192288288Y-87491500D01*
X192058046Y-87529919D01*
X191837274Y-87605712D01*
X191631983Y-87716810D01*
X191447780Y-87860181D01*
X191289684Y-88031918D01*
X191162016Y-88227330D01*
X191068251Y-88441091D01*
X191010948Y-88667378D01*
X190991672Y-88899999D01*
X188638498Y-88899999D01*
X188618543Y-88671913D01*
X188559284Y-88450757D01*
X188487307Y-88296400D01*
X188462525Y-88243255D01*
X188462524Y-88243254D01*
X188462523Y-88243251D01*
X188331198Y-88055700D01*
X188169300Y-87893802D01*
X187981749Y-87762477D01*
X187981746Y-87762476D01*
X187981744Y-87762474D01*
X187774246Y-87665717D01*
X187774243Y-87665716D01*
X187584440Y-87614858D01*
X187553084Y-87606456D01*
X187325000Y-87586501D01*
X187096915Y-87606456D01*
X186875753Y-87665717D01*
X186668255Y-87762474D01*
X186480696Y-87893805D01*
X186318803Y-88055698D01*
X186311074Y-88066737D01*
X186256496Y-88110361D01*
X186186998Y-88117553D01*
X186124643Y-88086030D01*
X186089231Y-88025799D01*
X186085500Y-87995612D01*
X186085500Y-84802249D01*
X186086095Y-84790115D01*
X186090380Y-84746536D01*
X186080341Y-84644782D01*
X186070908Y-84548999D01*
X186070905Y-84548992D01*
X186070897Y-84548902D01*
X186040881Y-84450014D01*
X186040880Y-84450013D01*
X186013241Y-84358896D01*
X186013240Y-84358894D01*
X186013213Y-84358805D01*
X185965830Y-84270195D01*
X185931070Y-84205165D01*
X185919595Y-84183696D01*
X185919592Y-84183693D01*
X185919552Y-84183617D01*
X185856745Y-84107113D01*
X185793567Y-84030131D01*
X185759711Y-84002346D01*
X185750715Y-83994193D01*
X185576465Y-83820000D01*
X187281501Y-83820000D01*
X187301456Y-84048084D01*
X187301457Y-84048087D01*
X187359934Y-84266326D01*
X187360717Y-84269246D01*
X187457474Y-84476744D01*
X187457476Y-84476746D01*
X187457477Y-84476749D01*
X187588802Y-84664300D01*
X187750700Y-84826198D01*
X187938251Y-84957523D01*
X188145757Y-85054284D01*
X188366913Y-85113543D01*
X188595000Y-85133498D01*
X188823087Y-85113543D01*
X189044243Y-85054284D01*
X189251749Y-84957523D01*
X189439300Y-84826198D01*
X189601198Y-84664300D01*
X189732523Y-84476749D01*
X189829284Y-84269243D01*
X189888543Y-84048087D01*
X189908498Y-83820000D01*
X189908498Y-83819999D01*
X192290033Y-83819999D01*
X192309858Y-84046602D01*
X192368733Y-84266326D01*
X192464866Y-84472484D01*
X192515972Y-84545471D01*
X192515974Y-84545472D01*
X193197046Y-83864399D01*
X193209835Y-83945148D01*
X193267359Y-84058045D01*
X193356955Y-84147641D01*
X193469852Y-84205165D01*
X193550599Y-84217953D01*
X192869526Y-84899025D01*
X192869526Y-84899026D01*
X192942515Y-84950133D01*
X193148673Y-85046266D01*
X193368397Y-85105141D01*
X193595000Y-85124966D01*
X193821602Y-85105141D01*
X194041326Y-85046266D01*
X194247480Y-84950134D01*
X194320472Y-84899025D01*
X193639401Y-84217953D01*
X193720148Y-84205165D01*
X193833045Y-84147641D01*
X193922641Y-84058045D01*
X193980165Y-83945148D01*
X193992953Y-83864400D01*
X194674025Y-84545472D01*
X194725134Y-84472480D01*
X194821266Y-84266326D01*
X194880141Y-84046602D01*
X194899966Y-83820000D01*
X194880141Y-83593397D01*
X194821266Y-83373673D01*
X194725133Y-83167515D01*
X194674025Y-83094526D01*
X193992953Y-83775598D01*
X193980165Y-83694852D01*
X193922641Y-83581955D01*
X193833045Y-83492359D01*
X193720148Y-83434835D01*
X193639399Y-83422045D01*
X194320472Y-82740973D01*
X194320471Y-82740972D01*
X194247484Y-82689866D01*
X194041326Y-82593733D01*
X193821602Y-82534858D01*
X193595000Y-82515033D01*
X193368397Y-82534858D01*
X193148672Y-82593733D01*
X192942516Y-82689865D01*
X192869526Y-82740973D01*
X193550598Y-83422046D01*
X193469852Y-83434835D01*
X193356955Y-83492359D01*
X193267359Y-83581955D01*
X193209835Y-83694852D01*
X193197046Y-83775599D01*
X192515973Y-83094526D01*
X192515973Y-83094527D01*
X192464865Y-83167516D01*
X192368733Y-83373672D01*
X192309858Y-83593397D01*
X192290033Y-83819999D01*
X189908498Y-83819999D01*
X189888543Y-83591913D01*
X189829284Y-83370757D01*
X189732523Y-83163251D01*
X189601198Y-82975700D01*
X189439300Y-82813802D01*
X189251749Y-82682477D01*
X189251746Y-82682476D01*
X189251744Y-82682474D01*
X189044246Y-82585717D01*
X189044243Y-82585716D01*
X188854440Y-82534858D01*
X188823084Y-82526456D01*
X188594999Y-82506501D01*
X188366915Y-82526456D01*
X188145753Y-82585717D01*
X187938255Y-82682474D01*
X187750696Y-82813805D01*
X187588805Y-82975696D01*
X187457474Y-83163255D01*
X187360717Y-83370753D01*
X187301456Y-83591915D01*
X187281501Y-83820000D01*
X185576465Y-83820000D01*
X185484595Y-83728160D01*
X185451101Y-83666844D01*
X185448736Y-83651278D01*
X185443543Y-83591913D01*
X185384284Y-83370757D01*
X185287523Y-83163251D01*
X185156198Y-82975700D01*
X184994300Y-82813802D01*
X184806749Y-82682477D01*
X184806746Y-82682476D01*
X184806744Y-82682474D01*
X184599246Y-82585717D01*
X184599243Y-82585716D01*
X184409440Y-82534858D01*
X184378084Y-82526456D01*
X184150000Y-82506501D01*
X183921915Y-82526456D01*
X183700753Y-82585717D01*
X183493255Y-82682474D01*
X183305696Y-82813805D01*
X183143805Y-82975696D01*
X183143802Y-82975699D01*
X183143802Y-82975700D01*
X183012477Y-83163251D01*
X183012476Y-83163253D01*
X183012474Y-83163256D01*
X182987691Y-83216402D01*
X182941518Y-83268841D01*
X182874325Y-83287992D01*
X182807444Y-83267775D01*
X182762927Y-83216400D01*
X182740131Y-83167512D01*
X182689025Y-83094526D01*
X182007953Y-83775598D01*
X181995165Y-83694852D01*
X181937641Y-83581955D01*
X181848045Y-83492359D01*
X181735148Y-83434835D01*
X181654400Y-83422046D01*
X182335472Y-82740974D01*
X182335471Y-82740972D01*
X182262484Y-82689866D01*
X182056326Y-82593733D01*
X181836602Y-82534858D01*
X181610000Y-82515033D01*
X181383397Y-82534858D01*
X181163672Y-82593733D01*
X180957516Y-82689865D01*
X180884527Y-82740973D01*
X180884526Y-82740973D01*
X181565600Y-83422046D01*
X181484852Y-83434835D01*
X181371955Y-83492359D01*
X181282359Y-83581955D01*
X181224835Y-83694852D01*
X181212046Y-83775599D01*
X180530973Y-83094526D01*
X180530973Y-83094527D01*
X180479865Y-83167516D01*
X180383733Y-83373672D01*
X180324858Y-83593397D01*
X180305033Y-83820000D01*
X180324858Y-84046602D01*
X180383733Y-84266326D01*
X180479866Y-84472484D01*
X180530972Y-84545471D01*
X180530974Y-84545472D01*
X181212046Y-83864399D01*
X181224835Y-83945148D01*
X181282359Y-84058045D01*
X181371955Y-84147641D01*
X181484852Y-84205165D01*
X181565599Y-84217953D01*
X180884526Y-84899025D01*
X180884526Y-84899026D01*
X180957515Y-84950133D01*
X181163673Y-85046266D01*
X181383397Y-85105141D01*
X181610000Y-85124966D01*
X181836602Y-85105141D01*
X182056326Y-85046266D01*
X182262480Y-84950134D01*
X182335472Y-84899025D01*
X181654401Y-84217953D01*
X181735148Y-84205165D01*
X181848045Y-84147641D01*
X181937641Y-84058045D01*
X181995165Y-83945148D01*
X182007953Y-83864400D01*
X182689025Y-84545472D01*
X182740133Y-84472481D01*
X182762927Y-84423600D01*
X182809098Y-84371160D01*
X182876292Y-84352007D01*
X182943173Y-84372222D01*
X182987692Y-84423598D01*
X183012475Y-84476746D01*
X183012476Y-84476748D01*
X183012477Y-84476749D01*
X183143802Y-84664300D01*
X183305700Y-84826198D01*
X183493251Y-84957523D01*
X183700757Y-85054284D01*
X183921913Y-85113543D01*
X183955304Y-85116464D01*
X184020374Y-85141915D01*
X184061354Y-85198504D01*
X184068500Y-85239992D01*
X184068500Y-87189857D01*
X184048815Y-87256896D01*
X183996011Y-87302651D01*
X183926853Y-87312595D01*
X183863297Y-87283570D01*
X183856819Y-87277538D01*
X183706735Y-87127454D01*
X183704082Y-87124801D01*
X183456432Y-86930780D01*
X183321816Y-86849401D01*
X183190406Y-86769961D01*
X183190399Y-86769957D01*
X183187201Y-86768024D01*
X182900315Y-86638907D01*
X182896737Y-86637792D01*
X182603534Y-86546426D01*
X182603528Y-86546424D01*
X182599958Y-86545312D01*
X182596287Y-86544639D01*
X182596278Y-86544637D01*
X182294193Y-86489278D01*
X182294191Y-86489277D01*
X182290509Y-86488603D01*
X182286783Y-86488377D01*
X182286770Y-86488376D01*
X181980216Y-86469834D01*
X181976480Y-86469608D01*
X181972744Y-86469834D01*
X181666189Y-86488376D01*
X181666174Y-86488377D01*
X181662451Y-86488603D01*
X181658770Y-86489277D01*
X181658766Y-86489278D01*
X181356681Y-86544637D01*
X181356668Y-86544640D01*
X181353002Y-86545312D01*
X181349434Y-86546423D01*
X181349425Y-86546426D01*
X181056222Y-86637792D01*
X181056216Y-86637794D01*
X181052645Y-86638907D01*
X181049236Y-86640441D01*
X181049234Y-86640442D01*
X180769173Y-86766487D01*
X180769166Y-86766490D01*
X180765759Y-86768024D01*
X180762566Y-86769953D01*
X180762553Y-86769961D01*
X180528022Y-86911741D01*
X180496528Y-86930780D01*
X180493586Y-86933084D01*
X180493580Y-86933089D01*
X180334304Y-87057874D01*
X180248878Y-87124801D01*
X180246232Y-87127446D01*
X180246224Y-87127454D01*
X180029073Y-87344605D01*
X180029065Y-87344613D01*
X180026420Y-87347259D01*
X180024108Y-87350209D01*
X180024108Y-87350210D01*
X179834708Y-87591961D01*
X179834703Y-87591967D01*
X179832399Y-87594909D01*
X179830462Y-87598111D01*
X179830462Y-87598113D01*
X179671580Y-87860934D01*
X179671572Y-87860947D01*
X179669643Y-87864140D01*
X179668109Y-87867547D01*
X179668106Y-87867554D01*
X179583429Y-88055700D01*
X179540526Y-88151026D01*
X179539413Y-88154597D01*
X179539411Y-88154603D01*
X179448045Y-88447806D01*
X179448042Y-88447815D01*
X179446931Y-88451383D01*
X179446259Y-88455049D01*
X179446256Y-88455062D01*
X179406245Y-88673397D01*
X179390222Y-88760832D01*
X179389996Y-88764555D01*
X179389995Y-88764570D01*
X179375223Y-89008791D01*
X179371227Y-89074861D01*
X179371453Y-89078597D01*
X179389995Y-89385151D01*
X179389996Y-89385164D01*
X179390222Y-89388890D01*
X179390896Y-89392572D01*
X179390897Y-89392574D01*
X179446256Y-89694659D01*
X179446258Y-89694668D01*
X179446931Y-89698339D01*
X179448043Y-89701909D01*
X179448045Y-89701915D01*
X179461253Y-89744300D01*
X179540526Y-89998696D01*
X179669643Y-90285582D01*
X179671576Y-90288780D01*
X179671580Y-90288787D01*
X179689744Y-90318833D01*
X179832399Y-90554813D01*
X180026420Y-90802463D01*
X180248878Y-91024921D01*
X180496528Y-91218942D01*
X180765759Y-91381698D01*
X181052645Y-91510815D01*
X181353002Y-91604410D01*
X181662451Y-91661119D01*
X181976480Y-91680114D01*
X182029370Y-91676914D01*
X182097473Y-91692514D01*
X182146334Y-91742459D01*
X182160436Y-91810890D01*
X182135302Y-91876083D01*
X182124534Y-91888372D01*
X181259348Y-92753498D01*
X180466807Y-93545984D01*
X180442605Y-93570184D01*
X180381281Y-93603667D01*
X180354927Y-93606500D01*
X179655453Y-93606500D01*
X179652423Y-93606798D01*
X179652411Y-93606799D01*
X179649651Y-93607071D01*
X179581005Y-93594051D01*
X179530296Y-93545984D01*
X179513500Y-93483668D01*
X179513500Y-90860638D01*
X179514097Y-90848484D01*
X179518380Y-90805000D01*
X179498908Y-90607299D01*
X179441241Y-90417196D01*
X179347595Y-90241996D01*
X179324207Y-90213498D01*
X179221568Y-90088432D01*
X179187784Y-90060706D01*
X179178768Y-90052534D01*
X177639819Y-88513584D01*
X177606334Y-88452261D01*
X177603500Y-88425903D01*
X177603500Y-86719671D01*
X177603500Y-86716362D01*
X177596989Y-86655799D01*
X177596988Y-86655797D01*
X177596988Y-86655794D01*
X177545889Y-86518796D01*
X177458261Y-86401738D01*
X177341203Y-86314110D01*
X177204205Y-86263011D01*
X177146924Y-86256853D01*
X177146918Y-86256852D01*
X177143638Y-86256500D01*
X174646362Y-86256500D01*
X174643082Y-86256852D01*
X174643075Y-86256853D01*
X174585794Y-86263011D01*
X174448796Y-86314110D01*
X174331738Y-86401738D01*
X174244110Y-86518796D01*
X174193011Y-86655794D01*
X174186853Y-86713075D01*
X174186500Y-86716362D01*
X174186500Y-86719652D01*
X174186499Y-86719671D01*
X174186499Y-89210328D01*
X174186500Y-89210346D01*
X174186500Y-89213638D01*
X174186852Y-89216918D01*
X174186853Y-89216924D01*
X174193011Y-89274205D01*
X174244110Y-89411203D01*
X174331738Y-89528261D01*
X174448796Y-89615889D01*
X174585794Y-89666988D01*
X174585797Y-89666988D01*
X174585799Y-89666989D01*
X174646362Y-89673500D01*
X175895904Y-89673500D01*
X175962943Y-89693185D01*
X175983585Y-89709819D01*
X176130107Y-89856341D01*
X176163592Y-89917664D01*
X176158608Y-89987356D01*
X176116736Y-90043289D01*
X176051272Y-90067706D01*
X176023949Y-90066638D01*
X176023034Y-90066500D01*
X175766966Y-90066500D01*
X175513755Y-90104665D01*
X175269066Y-90180141D01*
X175057208Y-90282167D01*
X175038355Y-90291246D01*
X174983758Y-90328469D01*
X174826778Y-90435496D01*
X174639069Y-90609665D01*
X174479412Y-90809869D01*
X174351377Y-91031632D01*
X174257826Y-91269996D01*
X174200844Y-91519649D01*
X174181708Y-91774999D01*
X167496233Y-91774999D01*
X160471307Y-84750073D01*
X160437822Y-84688750D01*
X160442806Y-84619058D01*
X160484678Y-84563125D01*
X160518720Y-84545113D01*
X160567574Y-84528342D01*
X160765576Y-84421189D01*
X160943240Y-84282906D01*
X161095722Y-84117268D01*
X161218860Y-83928791D01*
X161309296Y-83722616D01*
X161364564Y-83504368D01*
X161383156Y-83280000D01*
X168816843Y-83280000D01*
X168835435Y-83504363D01*
X168835435Y-83504366D01*
X168835436Y-83504368D01*
X168883673Y-83694852D01*
X168890705Y-83722618D01*
X168981138Y-83928788D01*
X168981140Y-83928791D01*
X169104278Y-84117268D01*
X169256760Y-84282906D01*
X169434424Y-84421189D01*
X169632426Y-84528342D01*
X169845365Y-84601444D01*
X170067431Y-84638500D01*
X170292569Y-84638500D01*
X170514635Y-84601444D01*
X170727574Y-84528342D01*
X170925576Y-84421189D01*
X171103240Y-84282906D01*
X171255722Y-84117268D01*
X171378860Y-83928791D01*
X171469296Y-83722616D01*
X171524564Y-83504368D01*
X171543156Y-83280000D01*
X171524564Y-83055632D01*
X171469296Y-82837384D01*
X171378860Y-82631209D01*
X171255722Y-82442732D01*
X171103240Y-82277094D01*
X170925576Y-82138811D01*
X170727574Y-82031658D01*
X170727573Y-82031657D01*
X170727572Y-82031657D01*
X170514636Y-81958556D01*
X170292569Y-81921500D01*
X170067431Y-81921500D01*
X169845363Y-81958556D01*
X169632427Y-82031657D01*
X169434424Y-82138811D01*
X169256760Y-82277094D01*
X169104279Y-82442730D01*
X168981138Y-82631211D01*
X168890705Y-82837381D01*
X168835435Y-83055636D01*
X168816843Y-83280000D01*
X161383156Y-83280000D01*
X161364564Y-83055632D01*
X161309296Y-82837384D01*
X161218860Y-82631209D01*
X161095722Y-82442732D01*
X160943240Y-82277094D01*
X160765576Y-82138811D01*
X160567574Y-82031658D01*
X160567573Y-82031657D01*
X160567572Y-82031657D01*
X160354636Y-81958556D01*
X160132569Y-81921500D01*
X159907431Y-81921500D01*
X159685363Y-81958556D01*
X159472427Y-82031657D01*
X159274424Y-82138811D01*
X159096760Y-82277094D01*
X158944279Y-82442730D01*
X158821138Y-82631211D01*
X158751138Y-82790796D01*
X158706182Y-82844282D01*
X158639446Y-82864972D01*
X158572118Y-82846297D01*
X158549901Y-82828667D01*
X158327464Y-82606230D01*
X158319291Y-82597213D01*
X158291567Y-82563431D01*
X158138003Y-82437404D01*
X157962502Y-82343597D01*
X157959875Y-82342870D01*
X157772703Y-82286091D01*
X157640900Y-82273110D01*
X157575000Y-82266620D01*
X157574999Y-82266620D01*
X157531512Y-82270903D01*
X157519358Y-82271500D01*
X148913623Y-82271500D01*
X148846584Y-82251815D01*
X148837460Y-82245353D01*
X148744297Y-82172841D01*
X148700576Y-82138811D01*
X148502574Y-82031658D01*
X148502573Y-82031657D01*
X148502572Y-82031657D01*
X148289636Y-81958556D01*
X148067569Y-81921500D01*
X147842431Y-81921500D01*
X147620363Y-81958556D01*
X147407427Y-82031657D01*
X147209424Y-82138811D01*
X147031760Y-82277094D01*
X146879279Y-82442730D01*
X146756138Y-82631211D01*
X146665705Y-82837381D01*
X146610435Y-83055636D01*
X146591843Y-83280000D01*
X146610435Y-83504363D01*
X146610435Y-83504366D01*
X146610436Y-83504368D01*
X146658673Y-83694852D01*
X146665705Y-83722618D01*
X146756138Y-83928788D01*
X146756140Y-83928791D01*
X146879278Y-84117268D01*
X147031760Y-84282906D01*
X147209424Y-84421189D01*
X147407426Y-84528342D01*
X147620365Y-84601444D01*
X147842431Y-84638500D01*
X148067569Y-84638500D01*
X148289635Y-84601444D01*
X148502574Y-84528342D01*
X148700576Y-84421189D01*
X148837459Y-84314647D01*
X148902454Y-84289004D01*
X148913623Y-84288500D01*
X157105904Y-84288500D01*
X157172943Y-84308185D01*
X157193585Y-84324819D01*
X159719184Y-86850418D01*
X159752669Y-86911741D01*
X159747685Y-86981433D01*
X159705813Y-87037366D01*
X159663598Y-87057874D01*
X159556506Y-87086570D01*
X159342422Y-87186399D01*
X159258625Y-87245072D01*
X159887466Y-87873913D01*
X159877685Y-87875320D01*
X159746900Y-87935048D01*
X159638239Y-88029202D01*
X159560507Y-88150156D01*
X159536923Y-88230476D01*
X158905072Y-87598625D01*
X158846399Y-87682422D01*
X158746569Y-87896507D01*
X158685430Y-88124681D01*
X158664842Y-88360000D01*
X158685430Y-88595318D01*
X158746569Y-88823492D01*
X158846400Y-89037580D01*
X158905073Y-89121373D01*
X159536923Y-88489523D01*
X159560507Y-88569844D01*
X159638239Y-88690798D01*
X159746900Y-88784952D01*
X159877685Y-88844680D01*
X159887465Y-88846086D01*
X159258625Y-89474925D01*
X159342420Y-89533599D01*
X159556507Y-89633430D01*
X159784681Y-89694569D01*
X160019999Y-89715157D01*
X160255318Y-89694569D01*
X160483492Y-89633430D01*
X160697576Y-89533600D01*
X160781373Y-89474925D01*
X160152534Y-88846086D01*
X160162315Y-88844680D01*
X160293100Y-88784952D01*
X160401761Y-88690798D01*
X160479493Y-88569844D01*
X160503076Y-88489524D01*
X161134925Y-89121373D01*
X161193600Y-89037576D01*
X161293430Y-88823491D01*
X161322125Y-88716403D01*
X161358490Y-88656742D01*
X161421337Y-88626213D01*
X161490712Y-88634508D01*
X161529581Y-88660815D01*
X167677085Y-94808319D01*
X167710570Y-94869642D01*
X167705586Y-94939334D01*
X167663714Y-94995267D01*
X167598250Y-95019684D01*
X167589404Y-95020000D01*
X167515707Y-95020000D01*
X167270506Y-95060916D01*
X167035393Y-95141631D01*
X166816764Y-95259946D01*
X166769942Y-95296388D01*
X166769942Y-95296390D01*
X167507466Y-96033913D01*
X167497685Y-96035320D01*
X167366900Y-96095048D01*
X167258239Y-96189202D01*
X167180507Y-96310156D01*
X167156923Y-96390474D01*
X166416564Y-95650116D01*
X166316266Y-95803634D01*
X166216413Y-96031278D01*
X166155386Y-96272267D01*
X166134858Y-96519999D01*
X166155386Y-96767732D01*
X166216413Y-97008721D01*
X166316268Y-97236370D01*
X166416563Y-97389882D01*
X166416564Y-97389882D01*
X167156923Y-96649523D01*
X167180507Y-96729844D01*
X167258239Y-96850798D01*
X167366900Y-96944952D01*
X167497685Y-97004680D01*
X167507466Y-97006086D01*
X166769942Y-97743609D01*
X166769942Y-97743610D01*
X166816766Y-97780055D01*
X167035393Y-97898368D01*
X167270506Y-97979083D01*
X167515707Y-98020000D01*
X167764293Y-98020000D01*
X168009493Y-97979083D01*
X168244606Y-97898368D01*
X168463233Y-97780053D01*
X168510056Y-97743609D01*
X167772533Y-97006086D01*
X167782315Y-97004680D01*
X167913100Y-96944952D01*
X168021761Y-96850798D01*
X168099493Y-96729844D01*
X168123076Y-96649524D01*
X168863434Y-97389882D01*
X168963730Y-97236369D01*
X169063586Y-97008721D01*
X169124612Y-96767737D01*
X169141691Y-96561625D01*
X169166845Y-96496439D01*
X169223247Y-96455201D01*
X169292990Y-96451003D01*
X169352949Y-96484183D01*
X175438585Y-102569819D01*
X175472070Y-102631142D01*
X175467086Y-102700834D01*
X175425214Y-102756767D01*
X175359750Y-102781184D01*
X175350904Y-102781500D01*
X175142431Y-102781500D01*
X174920363Y-102818556D01*
X174707427Y-102891657D01*
X174509424Y-102998811D01*
X174331759Y-103137094D01*
X174268548Y-103205759D01*
X174208660Y-103241749D01*
X174138822Y-103239648D01*
X174081207Y-103200123D01*
X174061138Y-103165110D01*
X174018513Y-103050832D01*
X174015889Y-103043796D01*
X173982214Y-102998811D01*
X173928261Y-102926738D01*
X173811203Y-102839110D01*
X173674205Y-102788011D01*
X173616924Y-102781853D01*
X173616918Y-102781852D01*
X173613638Y-102781500D01*
X171816362Y-102781500D01*
X171813082Y-102781852D01*
X171813075Y-102781853D01*
X171755794Y-102788011D01*
X171618796Y-102839110D01*
X171501738Y-102926738D01*
X171414111Y-103043795D01*
X171411487Y-103050832D01*
X171369617Y-103106766D01*
X171304152Y-103131184D01*
X171295305Y-103131500D01*
X168129096Y-103131500D01*
X168062057Y-103111815D01*
X168041415Y-103095181D01*
X161584819Y-96638585D01*
X161551334Y-96577262D01*
X161548500Y-96550904D01*
X161548500Y-95474671D01*
X161548500Y-95471362D01*
X161541989Y-95410799D01*
X161541988Y-95410797D01*
X161541988Y-95410794D01*
X161490889Y-95273796D01*
X161403261Y-95156738D01*
X161286203Y-95069110D01*
X161149205Y-95018011D01*
X161091924Y-95011853D01*
X161091918Y-95011852D01*
X161088638Y-95011500D01*
X158991362Y-95011500D01*
X158988082Y-95011852D01*
X158988075Y-95011853D01*
X158930794Y-95018011D01*
X158793796Y-95069110D01*
X158676738Y-95156738D01*
X158589110Y-95273796D01*
X158538011Y-95410794D01*
X158532822Y-95459061D01*
X158531500Y-95471362D01*
X158531500Y-97568638D01*
X158531852Y-97571918D01*
X158531853Y-97571924D01*
X158538011Y-97629205D01*
X158589110Y-97766203D01*
X158676738Y-97883261D01*
X158793796Y-97970889D01*
X158930794Y-98021988D01*
X158930797Y-98021988D01*
X158930799Y-98021989D01*
X158991362Y-98028500D01*
X160070904Y-98028500D01*
X160137943Y-98048185D01*
X160158585Y-98064819D01*
X166907534Y-104813768D01*
X166915706Y-104822784D01*
X166943431Y-104856567D01*
X166980083Y-104886647D01*
X167019417Y-104944393D01*
X167021288Y-105014238D01*
X166985100Y-105074006D01*
X166922344Y-105104721D01*
X166901418Y-105106500D01*
X165928640Y-105106500D01*
X165916487Y-105105903D01*
X165901689Y-105104445D01*
X165864577Y-105100790D01*
X165799791Y-105074628D01*
X165759432Y-105017593D01*
X165753205Y-104966579D01*
X165769966Y-104774999D01*
X165750141Y-104548397D01*
X165691266Y-104328673D01*
X165595133Y-104122515D01*
X165544025Y-104049526D01*
X164862953Y-104730598D01*
X164850165Y-104649852D01*
X164792641Y-104536955D01*
X164703045Y-104447359D01*
X164590148Y-104389835D01*
X164509400Y-104377046D01*
X165190472Y-103695974D01*
X165190471Y-103695972D01*
X165117484Y-103644866D01*
X164911326Y-103548733D01*
X164691602Y-103489858D01*
X164465000Y-103470033D01*
X164238397Y-103489858D01*
X164018672Y-103548733D01*
X163812516Y-103644865D01*
X163739527Y-103695973D01*
X163739526Y-103695973D01*
X164420600Y-104377046D01*
X164339852Y-104389835D01*
X164226955Y-104447359D01*
X164137359Y-104536955D01*
X164079835Y-104649852D01*
X164067046Y-104730600D01*
X163385973Y-104049527D01*
X163334865Y-104122516D01*
X163238733Y-104328672D01*
X163179858Y-104548397D01*
X163160033Y-104774999D01*
X163179858Y-105001602D01*
X163209012Y-105110406D01*
X163207349Y-105180256D01*
X163168187Y-105238119D01*
X163103958Y-105265623D01*
X163089237Y-105266500D01*
X160849562Y-105266500D01*
X160782523Y-105246815D01*
X160736768Y-105194011D01*
X160726824Y-105124853D01*
X160729787Y-105110406D01*
X160738941Y-105076241D01*
X160758543Y-105003087D01*
X160778498Y-104775000D01*
X160758543Y-104546913D01*
X160699284Y-104325757D01*
X160602523Y-104118251D01*
X160471198Y-103930700D01*
X160309300Y-103768802D01*
X160121749Y-103637477D01*
X160121745Y-103637475D01*
X160121744Y-103637474D01*
X159914246Y-103540717D01*
X159914243Y-103540716D01*
X159724440Y-103489858D01*
X159693084Y-103481456D01*
X159464999Y-103461501D01*
X159236915Y-103481456D01*
X159015753Y-103540717D01*
X158808253Y-103637475D01*
X158754854Y-103674865D01*
X158688648Y-103697192D01*
X158620881Y-103680180D01*
X158574375Y-103631744D01*
X158552595Y-103590996D01*
X158426568Y-103437432D01*
X158392784Y-103409706D01*
X158383769Y-103401535D01*
X156924464Y-101942230D01*
X156916291Y-101933213D01*
X156888567Y-101899431D01*
X156735003Y-101773404D01*
X156559803Y-101679758D01*
X156369702Y-101622091D01*
X156270850Y-101612355D01*
X156172000Y-101602620D01*
X156171999Y-101602620D01*
X156128512Y-101606903D01*
X156116358Y-101607500D01*
X146391096Y-101607500D01*
X146324057Y-101587815D01*
X146303415Y-101571181D01*
X145340872Y-100608638D01*
X152596500Y-100608638D01*
X152596852Y-100611918D01*
X152596853Y-100611924D01*
X152603011Y-100669205D01*
X152654110Y-100806203D01*
X152741738Y-100923261D01*
X152858796Y-101010889D01*
X152995794Y-101061988D01*
X152995797Y-101061988D01*
X152995799Y-101061989D01*
X153056362Y-101068500D01*
X153059672Y-101068500D01*
X155550328Y-101068500D01*
X155553638Y-101068500D01*
X155614201Y-101061989D01*
X155614203Y-101061988D01*
X155614205Y-101061988D01*
X155692124Y-101032924D01*
X155751204Y-101010889D01*
X155868261Y-100923261D01*
X155955889Y-100806204D01*
X155987321Y-100721933D01*
X156006988Y-100669205D01*
X156006988Y-100669203D01*
X156006989Y-100669201D01*
X156013500Y-100608638D01*
X156013500Y-98111362D01*
X156006989Y-98050799D01*
X156006988Y-98050797D01*
X156006988Y-98050794D01*
X155955889Y-97913796D01*
X155868261Y-97796738D01*
X155751203Y-97709110D01*
X155614205Y-97658011D01*
X155556924Y-97651853D01*
X155556918Y-97651852D01*
X155553638Y-97651500D01*
X153056362Y-97651500D01*
X153053082Y-97651852D01*
X153053075Y-97651853D01*
X152995794Y-97658011D01*
X152858796Y-97709110D01*
X152741738Y-97796738D01*
X152654110Y-97913796D01*
X152603011Y-98050794D01*
X152596853Y-98108075D01*
X152596500Y-98111362D01*
X152596500Y-100608638D01*
X145340872Y-100608638D01*
X143204819Y-98472585D01*
X143171334Y-98411262D01*
X143168500Y-98384904D01*
X143168500Y-97968091D01*
X143188185Y-97901052D01*
X143208159Y-97877192D01*
X143209457Y-97875986D01*
X143209462Y-97875984D01*
X143393878Y-97704872D01*
X143550731Y-97508184D01*
X143676517Y-97290316D01*
X143768427Y-97056134D01*
X143824407Y-96810869D01*
X143843207Y-96560000D01*
X143824407Y-96309131D01*
X143768427Y-96063866D01*
X143676517Y-95829684D01*
X143550731Y-95611816D01*
X143501434Y-95549999D01*
X152591708Y-95549999D01*
X152610844Y-95805350D01*
X152667826Y-96055003D01*
X152761377Y-96293367D01*
X152889412Y-96515130D01*
X153049069Y-96715334D01*
X153236778Y-96889503D01*
X153236781Y-96889505D01*
X153448355Y-97033754D01*
X153679065Y-97144858D01*
X153923757Y-97220335D01*
X154176966Y-97258500D01*
X154433034Y-97258500D01*
X154686243Y-97220335D01*
X154930935Y-97144858D01*
X155161646Y-97033754D01*
X155373219Y-96889505D01*
X155560931Y-96715334D01*
X155720587Y-96515131D01*
X155848622Y-96293369D01*
X155942174Y-96055001D01*
X155999155Y-95805353D01*
X156018291Y-95550000D01*
X155999155Y-95294647D01*
X155942174Y-95044999D01*
X155848622Y-94806631D01*
X155720587Y-94584869D01*
X155560931Y-94384666D01*
X155560930Y-94384665D01*
X155373221Y-94210496D01*
X155273645Y-94142606D01*
X155161646Y-94066246D01*
X155161643Y-94066245D01*
X155161641Y-94066243D01*
X154930935Y-93955142D01*
X154686244Y-93879665D01*
X154433034Y-93841500D01*
X154176966Y-93841500D01*
X153923755Y-93879665D01*
X153679066Y-93955141D01*
X153461327Y-94059999D01*
X153448355Y-94066246D01*
X153397178Y-94101138D01*
X153236778Y-94210496D01*
X153049069Y-94384665D01*
X152889412Y-94584869D01*
X152761377Y-94806632D01*
X152667826Y-95044996D01*
X152610844Y-95294649D01*
X152591708Y-95549999D01*
X143501434Y-95549999D01*
X143393878Y-95415128D01*
X143209462Y-95244016D01*
X143209459Y-95244013D01*
X143001606Y-95102301D01*
X142915669Y-95060916D01*
X142774945Y-94993147D01*
X142700792Y-94970273D01*
X142534548Y-94918994D01*
X142285787Y-94881500D01*
X142285786Y-94881500D01*
X142034214Y-94881500D01*
X142034213Y-94881500D01*
X141785451Y-94918994D01*
X141545055Y-94993147D01*
X141318399Y-95102298D01*
X141110536Y-95244017D01*
X140926122Y-95415128D01*
X140769268Y-95611817D01*
X140643483Y-95829683D01*
X140551573Y-96063865D01*
X140495592Y-96309132D01*
X140476792Y-96559999D01*
X140495592Y-96810867D01*
X140513541Y-96889505D01*
X140551573Y-97056134D01*
X140643483Y-97290316D01*
X140769269Y-97508184D01*
X140926122Y-97704872D01*
X141110538Y-97875984D01*
X141110542Y-97875986D01*
X141111841Y-97877192D01*
X141147596Y-97937220D01*
X141151500Y-97968091D01*
X141151500Y-98798357D01*
X141150903Y-98810510D01*
X141146619Y-98853999D01*
X141166091Y-99051701D01*
X141201174Y-99167350D01*
X141223760Y-99241806D01*
X141317404Y-99417003D01*
X141443431Y-99570567D01*
X141477213Y-99598291D01*
X141486230Y-99606464D01*
X143275585Y-101395819D01*
X143309070Y-101457142D01*
X143304086Y-101526834D01*
X143262214Y-101582767D01*
X143196750Y-101607184D01*
X143187904Y-101607500D01*
X141034642Y-101607500D01*
X141022488Y-101606903D01*
X140979000Y-101602620D01*
X140781297Y-101622091D01*
X140635442Y-101666337D01*
X140591196Y-101679758D01*
X140415996Y-101773404D01*
X140262433Y-101899430D01*
X140234707Y-101933214D01*
X140226536Y-101942228D01*
X138761228Y-103407536D01*
X138752214Y-103415707D01*
X138718430Y-103443433D01*
X138584657Y-103606437D01*
X138581969Y-103604231D01*
X138547406Y-103639409D01*
X138479266Y-103654862D01*
X138433999Y-103639021D01*
X138432582Y-103642062D01*
X138215246Y-103540717D01*
X138215243Y-103540716D01*
X138025440Y-103489858D01*
X137994084Y-103481456D01*
X137766000Y-103461501D01*
X137537915Y-103481456D01*
X137316753Y-103540717D01*
X137109255Y-103637474D01*
X136921696Y-103768805D01*
X136759805Y-103930696D01*
X136759802Y-103930699D01*
X136759802Y-103930700D01*
X136676599Y-104049527D01*
X136628476Y-104118253D01*
X136608382Y-104161345D01*
X136562209Y-104213784D01*
X136495016Y-104232936D01*
X136428135Y-104212720D01*
X136383618Y-104161345D01*
X136381286Y-104156344D01*
X136363523Y-104118251D01*
X136256925Y-103966013D01*
X136234598Y-103899807D01*
X136234500Y-103894890D01*
X136234500Y-101463095D01*
X136254185Y-101396056D01*
X136270815Y-101375418D01*
X136880038Y-100766194D01*
X136941359Y-100732711D01*
X136986194Y-100731262D01*
X137034214Y-100738500D01*
X137034216Y-100738500D01*
X137285787Y-100738500D01*
X137410167Y-100719752D01*
X137534549Y-100701005D01*
X137774945Y-100626853D01*
X138001604Y-100517700D01*
X138209462Y-100375984D01*
X138393878Y-100204872D01*
X138550731Y-100008184D01*
X138676517Y-99790316D01*
X138768427Y-99556134D01*
X138824407Y-99310869D01*
X138843207Y-99060000D01*
X138838692Y-98999758D01*
X138824407Y-98809132D01*
X138824407Y-98809131D01*
X138768427Y-98563866D01*
X138676517Y-98329684D01*
X138550731Y-98111816D01*
X138393878Y-97915128D01*
X138209462Y-97744016D01*
X138209459Y-97744013D01*
X138001606Y-97602301D01*
X137931704Y-97568638D01*
X137774945Y-97493147D01*
X137700792Y-97470273D01*
X137534548Y-97418994D01*
X137285787Y-97381500D01*
X137285786Y-97381500D01*
X137034214Y-97381500D01*
X137034213Y-97381500D01*
X136785451Y-97418994D01*
X136545055Y-97493147D01*
X136318399Y-97602298D01*
X136110536Y-97744017D01*
X135926122Y-97915128D01*
X135769268Y-98111817D01*
X135643483Y-98329683D01*
X135551573Y-98563865D01*
X135495592Y-98809132D01*
X135476792Y-99060000D01*
X135490456Y-99242333D01*
X135475837Y-99310656D01*
X135454484Y-99339280D01*
X134552228Y-100241536D01*
X134543214Y-100249707D01*
X134509430Y-100277433D01*
X134383405Y-100430994D01*
X134371421Y-100453417D01*
X134289758Y-100606195D01*
X134232091Y-100796297D01*
X134212620Y-100993999D01*
X134216903Y-101037487D01*
X134217500Y-101049641D01*
X134217500Y-103894890D01*
X134197815Y-103961929D01*
X134195075Y-103966013D01*
X134088476Y-104118251D01*
X133991717Y-104325753D01*
X133932456Y-104546915D01*
X133912501Y-104775000D01*
X133932456Y-105003084D01*
X133950218Y-105069373D01*
X133990934Y-105221326D01*
X133991717Y-105224246D01*
X134088474Y-105431745D01*
X134088477Y-105431749D01*
X134195074Y-105583985D01*
X134217401Y-105650191D01*
X134217499Y-105655108D01*
X134217499Y-110024357D01*
X134216902Y-110036508D01*
X134212619Y-110079997D01*
X134232091Y-110277702D01*
X134262352Y-110377456D01*
X134289758Y-110467803D01*
X134383404Y-110643003D01*
X134492720Y-110776204D01*
X134509432Y-110796568D01*
X134517877Y-110803499D01*
X134543213Y-110824291D01*
X134552230Y-110832464D01*
X136115181Y-112395415D01*
X136148666Y-112456738D01*
X136151500Y-112483096D01*
X136151500Y-114962503D01*
X136131815Y-115029542D01*
X136115181Y-115050184D01*
X133554802Y-117610562D01*
X133493479Y-117644047D01*
X133423787Y-117639063D01*
X133395998Y-117624456D01*
X133371748Y-117607476D01*
X133164246Y-117510717D01*
X133164243Y-117510716D01*
X132962005Y-117456526D01*
X132943084Y-117451456D01*
X132715000Y-117431501D01*
X132486915Y-117451456D01*
X132265753Y-117510717D01*
X132058255Y-117607474D01*
X131870696Y-117738805D01*
X131708805Y-117900696D01*
X131708802Y-117900699D01*
X131708802Y-117900700D01*
X131702841Y-117909213D01*
X131577474Y-118088255D01*
X131480717Y-118295753D01*
X131421456Y-118516915D01*
X131401501Y-118745000D01*
X131421456Y-118973084D01*
X131423954Y-118982405D01*
X131479934Y-119191326D01*
X131480717Y-119194246D01*
X131577474Y-119401744D01*
X131577476Y-119401746D01*
X131577477Y-119401749D01*
X131708802Y-119589300D01*
X131870700Y-119751198D01*
X132058251Y-119882523D01*
X132265757Y-119979284D01*
X132486913Y-120038543D01*
X132715000Y-120058498D01*
X132943087Y-120038543D01*
X133164243Y-119979284D01*
X133371749Y-119882523D01*
X133455291Y-119824026D01*
X133523987Y-119775925D01*
X133590193Y-119753598D01*
X133595110Y-119753500D01*
X133790958Y-119753500D01*
X133803111Y-119754096D01*
X133846600Y-119758380D01*
X134044301Y-119738909D01*
X134234404Y-119681241D01*
X134286304Y-119653500D01*
X134409604Y-119587595D01*
X134563168Y-119461568D01*
X134590899Y-119427776D01*
X134599051Y-119418781D01*
X136903119Y-117114714D01*
X136964442Y-117081229D01*
X137034134Y-117086213D01*
X137078481Y-117114714D01*
X137289278Y-117325511D01*
X137322763Y-117386834D01*
X137317779Y-117456526D01*
X137275907Y-117512459D01*
X137254002Y-117525574D01*
X137062516Y-117614865D01*
X136989526Y-117665973D01*
X137670599Y-118347046D01*
X137589852Y-118359835D01*
X137476955Y-118417359D01*
X137387359Y-118506955D01*
X137329835Y-118619852D01*
X137317046Y-118700598D01*
X136635973Y-118019527D01*
X136584865Y-118092516D01*
X136488733Y-118298672D01*
X136429858Y-118518397D01*
X136410033Y-118745000D01*
X136429858Y-118971602D01*
X136488733Y-119191326D01*
X136584866Y-119397484D01*
X136635972Y-119470471D01*
X136635973Y-119470472D01*
X137317046Y-118789399D01*
X137329835Y-118870148D01*
X137387359Y-118983045D01*
X137476955Y-119072641D01*
X137589852Y-119130165D01*
X137670597Y-119142953D01*
X136989526Y-119824025D01*
X136989526Y-119824026D01*
X137062515Y-119875133D01*
X137268673Y-119971266D01*
X137488397Y-120030141D01*
X137714999Y-120049966D01*
X137941602Y-120030141D01*
X138161326Y-119971266D01*
X138367480Y-119875134D01*
X138440472Y-119824025D01*
X137759399Y-119142953D01*
X137840148Y-119130165D01*
X137953045Y-119072641D01*
X138042641Y-118983045D01*
X138100165Y-118870148D01*
X138112953Y-118789400D01*
X138794025Y-119470472D01*
X138845135Y-119397479D01*
X138934424Y-119205998D01*
X138980596Y-119153558D01*
X139047789Y-119134406D01*
X139114670Y-119154621D01*
X139134487Y-119170721D01*
X140462534Y-120498768D01*
X140470703Y-120507781D01*
X140475513Y-120513641D01*
X140502823Y-120577953D01*
X140491028Y-120646820D01*
X140481234Y-120663420D01*
X140474868Y-120672511D01*
X140378733Y-120878673D01*
X140319858Y-121098397D01*
X140300033Y-121325000D01*
X140319858Y-121551602D01*
X140378733Y-121771326D01*
X140474866Y-121977484D01*
X140525972Y-122050471D01*
X140525973Y-122050472D01*
X141207045Y-121369399D01*
X141219835Y-121450148D01*
X141277359Y-121563045D01*
X141366955Y-121652641D01*
X141479852Y-121710165D01*
X141560599Y-121722953D01*
X140879526Y-122404025D01*
X140879526Y-122404026D01*
X140952515Y-122455133D01*
X141158673Y-122551266D01*
X141378397Y-122610141D01*
X141605000Y-122629966D01*
X141831602Y-122610141D01*
X142051326Y-122551266D01*
X142257480Y-122455134D01*
X142330472Y-122404025D01*
X141649401Y-121722953D01*
X141730148Y-121710165D01*
X141843045Y-121652641D01*
X141932641Y-121563045D01*
X141990165Y-121450148D01*
X142002953Y-121369400D01*
X142684025Y-122050472D01*
X142735134Y-121977480D01*
X142831266Y-121771326D01*
X142890141Y-121551602D01*
X142909966Y-121325000D01*
X142890141Y-121098397D01*
X142860988Y-120989594D01*
X142862651Y-120919744D01*
X142901813Y-120861881D01*
X142966042Y-120834377D01*
X142980763Y-120833500D01*
X151105904Y-120833500D01*
X151172943Y-120853185D01*
X151193585Y-120869819D01*
X153660400Y-123336634D01*
X153693885Y-123397957D01*
X153695270Y-123407074D01*
X153695884Y-123409368D01*
X153695885Y-123409371D01*
X153722746Y-123509618D01*
X153752880Y-123622078D01*
X153753759Y-123623962D01*
X153845944Y-123821654D01*
X153972251Y-124002038D01*
X154127962Y-124157749D01*
X154308346Y-124284056D01*
X154507924Y-124377120D01*
X154720629Y-124434115D01*
X154940000Y-124453307D01*
X155159371Y-124434115D01*
X155372076Y-124377120D01*
X155571654Y-124284056D01*
X155752038Y-124157749D01*
X155907749Y-124002038D01*
X156034056Y-123821654D01*
X156127120Y-123622076D01*
X156184115Y-123409371D01*
X156203307Y-123190000D01*
X156184115Y-122970629D01*
X156127120Y-122757924D01*
X156034056Y-122558347D01*
X155970925Y-122468186D01*
X155948598Y-122401980D01*
X155948500Y-122397063D01*
X155948500Y-121608095D01*
X155968185Y-121541056D01*
X155984814Y-121520419D01*
X158754582Y-118750650D01*
X158815905Y-118717166D01*
X158885597Y-118722150D01*
X158941530Y-118764022D01*
X158943814Y-118767175D01*
X159052251Y-118922038D01*
X159207962Y-119077749D01*
X159388346Y-119204056D01*
X159587924Y-119297120D01*
X159800629Y-119354115D01*
X160020000Y-119373307D01*
X160239371Y-119354115D01*
X160452076Y-119297120D01*
X160651654Y-119204056D01*
X160832038Y-119077749D01*
X160987749Y-118922038D01*
X161114056Y-118741654D01*
X161171042Y-118619446D01*
X161177618Y-118605344D01*
X161223790Y-118552904D01*
X161290983Y-118533752D01*
X161357865Y-118553967D01*
X161402382Y-118605344D01*
X161465941Y-118741649D01*
X161465943Y-118741651D01*
X161465944Y-118741654D01*
X161592251Y-118922038D01*
X161747962Y-119077749D01*
X161928346Y-119204056D01*
X162127924Y-119297120D01*
X162340629Y-119354115D01*
X162560000Y-119373307D01*
X162779371Y-119354115D01*
X162992076Y-119297120D01*
X163191654Y-119204056D01*
X163372038Y-119077749D01*
X163527749Y-118922038D01*
X163654056Y-118741654D01*
X163702580Y-118637594D01*
X163722307Y-118595289D01*
X163768479Y-118542849D01*
X163835673Y-118523697D01*
X163902554Y-118543913D01*
X163947071Y-118595289D01*
X164013331Y-118737386D01*
X164056873Y-118799571D01*
X164056875Y-118799572D01*
X164616923Y-118239523D01*
X164640507Y-118319844D01*
X164718239Y-118440798D01*
X164826900Y-118534952D01*
X164957685Y-118594680D01*
X164967466Y-118596086D01*
X164410426Y-119153124D01*
X164410427Y-119153125D01*
X164472610Y-119196666D01*
X164670840Y-119289102D01*
X164882113Y-119345712D01*
X165100000Y-119364775D01*
X165317886Y-119345712D01*
X165529159Y-119289102D01*
X165727385Y-119196667D01*
X165789572Y-119153124D01*
X165232534Y-118596086D01*
X165242315Y-118594680D01*
X165373100Y-118534952D01*
X165481761Y-118440798D01*
X165559493Y-118319844D01*
X165583076Y-118239524D01*
X166143124Y-118799572D01*
X166186667Y-118737385D01*
X166279102Y-118539159D01*
X166335712Y-118327886D01*
X166354775Y-118110000D01*
X166335712Y-117892113D01*
X166279102Y-117680840D01*
X166186667Y-117482615D01*
X166143123Y-117420427D01*
X165583076Y-117980473D01*
X165559493Y-117900156D01*
X165481761Y-117779202D01*
X165373100Y-117685048D01*
X165242315Y-117625320D01*
X165232534Y-117623913D01*
X165789572Y-117066875D01*
X165789571Y-117066873D01*
X165727386Y-117023331D01*
X165529161Y-116930898D01*
X165317886Y-116874287D01*
X165100000Y-116855224D01*
X164882113Y-116874287D01*
X164670840Y-116930897D01*
X164472611Y-117023333D01*
X164410428Y-117066874D01*
X164410427Y-117066875D01*
X164967466Y-117623913D01*
X164957685Y-117625320D01*
X164826900Y-117685048D01*
X164718239Y-117779202D01*
X164640507Y-117900156D01*
X164616923Y-117980475D01*
X164056875Y-117420427D01*
X164056874Y-117420428D01*
X164013333Y-117482611D01*
X163947071Y-117624712D01*
X163900899Y-117677151D01*
X163833705Y-117696303D01*
X163766824Y-117676087D01*
X163722307Y-117624712D01*
X163690843Y-117557237D01*
X163654056Y-117478347D01*
X163527749Y-117297962D01*
X163372038Y-117142251D01*
X163191654Y-117015944D01*
X163080924Y-116964310D01*
X162992077Y-116922880D01*
X162779368Y-116865884D01*
X162560000Y-116846692D01*
X162340631Y-116865884D01*
X162127922Y-116922880D01*
X161928349Y-117015943D01*
X161928347Y-117015944D01*
X161747962Y-117142251D01*
X161747958Y-117142254D01*
X161592254Y-117297958D01*
X161592251Y-117297961D01*
X161592251Y-117297962D01*
X161481224Y-117456526D01*
X161465943Y-117478349D01*
X161402382Y-117614656D01*
X161356210Y-117667095D01*
X161289016Y-117686247D01*
X161222135Y-117666031D01*
X161177618Y-117614656D01*
X161150843Y-117557237D01*
X161114056Y-117478347D01*
X160987749Y-117297962D01*
X160832038Y-117142251D01*
X160677206Y-117033836D01*
X160633583Y-116979261D01*
X160626391Y-116909762D01*
X160657913Y-116847408D01*
X160660651Y-116844582D01*
X161610903Y-115894331D01*
X162615414Y-114889819D01*
X162676738Y-114856334D01*
X162703096Y-114853500D01*
X167785358Y-114853500D01*
X167797511Y-114854096D01*
X167841000Y-114858380D01*
X168038701Y-114838909D01*
X168228804Y-114781241D01*
X168349737Y-114716601D01*
X168404004Y-114687595D01*
X168557568Y-114561568D01*
X168585299Y-114527776D01*
X168593451Y-114518781D01*
X171730423Y-111381809D01*
X171791744Y-111348326D01*
X171861436Y-111353310D01*
X171917369Y-111395182D01*
X171934566Y-111431211D01*
X171934577Y-111431207D01*
X171934725Y-111431545D01*
X171938306Y-111439047D01*
X171938702Y-111440612D01*
X172029138Y-111646788D01*
X172029140Y-111646791D01*
X172152278Y-111835268D01*
X172304760Y-112000906D01*
X172482424Y-112139189D01*
X172518930Y-112158945D01*
X172568520Y-112208162D01*
X172583630Y-112276379D01*
X172559459Y-112341935D01*
X172518933Y-112377052D01*
X172482427Y-112396809D01*
X172482425Y-112396810D01*
X172482424Y-112396811D01*
X172405431Y-112456738D01*
X172304760Y-112535094D01*
X172152279Y-112700730D01*
X172029138Y-112889211D01*
X171958000Y-113051393D01*
X171938704Y-113095384D01*
X171898949Y-113252371D01*
X171883435Y-113313636D01*
X171864843Y-113538000D01*
X171883435Y-113762363D01*
X171883435Y-113762366D01*
X171883436Y-113762368D01*
X171937451Y-113975669D01*
X171938705Y-113980618D01*
X172029138Y-114186788D01*
X172029140Y-114186791D01*
X172152278Y-114375268D01*
X172304760Y-114540906D01*
X172482424Y-114679189D01*
X172680426Y-114786342D01*
X172893365Y-114859444D01*
X173115431Y-114896500D01*
X173340569Y-114896500D01*
X173562635Y-114859444D01*
X173775574Y-114786342D01*
X173973576Y-114679189D01*
X174151240Y-114540906D01*
X174303722Y-114375268D01*
X174394191Y-114236793D01*
X174447336Y-114191438D01*
X174516567Y-114182014D01*
X174579903Y-114211515D01*
X174601807Y-114236794D01*
X174692275Y-114375265D01*
X174692277Y-114375267D01*
X174692278Y-114375268D01*
X174844760Y-114540906D01*
X175022424Y-114679189D01*
X175220426Y-114786342D01*
X175433365Y-114859444D01*
X175655431Y-114896500D01*
X175880569Y-114896500D01*
X176102635Y-114859444D01*
X176315574Y-114786342D01*
X176513576Y-114679189D01*
X176691240Y-114540906D01*
X176843722Y-114375268D01*
X176966860Y-114186791D01*
X177057296Y-113980616D01*
X177112564Y-113762368D01*
X177131156Y-113538000D01*
X177112564Y-113313632D01*
X177057296Y-113095384D01*
X176966860Y-112889209D01*
X176843722Y-112700732D01*
X176691240Y-112535094D01*
X176513576Y-112396811D01*
X176477067Y-112377053D01*
X176427478Y-112327836D01*
X176412370Y-112259619D01*
X176436540Y-112194063D01*
X176477067Y-112158946D01*
X176513576Y-112139189D01*
X176691240Y-112000906D01*
X176843722Y-111835268D01*
X176966860Y-111646791D01*
X177057296Y-111440616D01*
X177112564Y-111222368D01*
X177121702Y-111112074D01*
X177146856Y-111046891D01*
X177157590Y-111034642D01*
X178727781Y-109464451D01*
X178736776Y-109456299D01*
X178770568Y-109428568D01*
X178896595Y-109275004D01*
X178990241Y-109099804D01*
X179047908Y-108909701D01*
X179059596Y-108791036D01*
X179067380Y-108712000D01*
X179063097Y-108668513D01*
X179062500Y-108656359D01*
X179062500Y-107751641D01*
X179063097Y-107739487D01*
X179067380Y-107696000D01*
X179047909Y-107498300D01*
X178991129Y-107311124D01*
X178990401Y-107308494D01*
X178923598Y-107183515D01*
X178896595Y-107132996D01*
X178770568Y-106979432D01*
X178736784Y-106951706D01*
X178727769Y-106943535D01*
X177374415Y-105590181D01*
X177340930Y-105528858D01*
X177345914Y-105459166D01*
X177387786Y-105403233D01*
X177453250Y-105378816D01*
X177462096Y-105378500D01*
X189174775Y-105378500D01*
X189241814Y-105398185D01*
X189262467Y-105414831D01*
X189335946Y-105488337D01*
X189369417Y-105549666D01*
X189364419Y-105619356D01*
X189322537Y-105675282D01*
X189257068Y-105699686D01*
X189248246Y-105700000D01*
X188210000Y-105700000D01*
X188210000Y-106975374D01*
X188062199Y-106945000D01*
X187909033Y-106945000D01*
X187756652Y-106960496D01*
X187710000Y-106975132D01*
X187710000Y-105700000D01*
X186136854Y-105700000D01*
X186132693Y-105700139D01*
X185913565Y-105714808D01*
X185905372Y-105715910D01*
X185618298Y-105774260D01*
X185610309Y-105776448D01*
X185333570Y-105872542D01*
X185325958Y-105875770D01*
X185064498Y-106007892D01*
X185057381Y-106012106D01*
X184815855Y-106177905D01*
X184809367Y-106183029D01*
X184592101Y-106379535D01*
X184586351Y-106385480D01*
X184397213Y-106609193D01*
X184392307Y-106615851D01*
X184234672Y-106862783D01*
X184230703Y-106870026D01*
X184107389Y-107135761D01*
X184104416Y-107143480D01*
X184017621Y-107423281D01*
X184015705Y-107431320D01*
X183970384Y-107699999D01*
X183970385Y-107700000D01*
X186986589Y-107700000D01*
X186961466Y-107797030D01*
X186951114Y-108001165D01*
X186981574Y-108200000D01*
X183973793Y-108200000D01*
X183985960Y-108320951D01*
X183987337Y-108329112D01*
X184055248Y-108614080D01*
X184057699Y-108621981D01*
X184162987Y-108895354D01*
X184166467Y-108902855D01*
X184307254Y-109159758D01*
X184311707Y-109166733D01*
X184485476Y-109402574D01*
X184490821Y-109408896D01*
X184694474Y-109619472D01*
X184700609Y-109625020D01*
X184930518Y-109806578D01*
X184937328Y-109811253D01*
X185189393Y-109960551D01*
X185196776Y-109964282D01*
X185218136Y-109973340D01*
X185272171Y-110017634D01*
X185293681Y-110084110D01*
X185275836Y-110151663D01*
X185224302Y-110198844D01*
X185169727Y-110211500D01*
X182863589Y-110211500D01*
X182851447Y-110210904D01*
X182807908Y-110206620D01*
X182703676Y-110216895D01*
X182610249Y-110226096D01*
X182511409Y-110256089D01*
X182420155Y-110283771D01*
X182334582Y-110329519D01*
X182244955Y-110377426D01*
X182169193Y-110439613D01*
X182091430Y-110503434D01*
X182063674Y-110537253D01*
X182055513Y-110546257D01*
X176936532Y-115666173D01*
X176875212Y-115699664D01*
X176848843Y-115702500D01*
X171634642Y-115702500D01*
X171622488Y-115701903D01*
X171579000Y-115697620D01*
X171381300Y-115717090D01*
X171248863Y-115757265D01*
X171191194Y-115774759D01*
X171015996Y-115868404D01*
X170862433Y-115994430D01*
X170834707Y-116028214D01*
X170826536Y-116037228D01*
X164953364Y-121910400D01*
X164892041Y-121943885D01*
X164882929Y-121945269D01*
X164880630Y-121945884D01*
X164880629Y-121945885D01*
X164822406Y-121961486D01*
X164667922Y-122002880D01*
X164468349Y-122095943D01*
X164468347Y-122095944D01*
X164305184Y-122210192D01*
X164287958Y-122222254D01*
X164132254Y-122377958D01*
X164132251Y-122377961D01*
X164132251Y-122377962D01*
X164005946Y-122558345D01*
X164005943Y-122558349D01*
X163942382Y-122694656D01*
X163896210Y-122747095D01*
X163829016Y-122766247D01*
X163762135Y-122746031D01*
X163717618Y-122694656D01*
X163687452Y-122629966D01*
X163654056Y-122558347D01*
X163527749Y-122377962D01*
X163372038Y-122222251D01*
X163191654Y-122095944D01*
X163038205Y-122024390D01*
X162992077Y-122002880D01*
X162779368Y-121945884D01*
X162560000Y-121926692D01*
X162340631Y-121945884D01*
X162127922Y-122002880D01*
X161928349Y-122095943D01*
X161928347Y-122095944D01*
X161765184Y-122210192D01*
X161747958Y-122222254D01*
X161699835Y-122270377D01*
X161638512Y-122303861D01*
X161568820Y-122298876D01*
X161512887Y-122257005D01*
X161504775Y-122244706D01*
X161477015Y-122196624D01*
X161312686Y-121990562D01*
X161243852Y-121926693D01*
X161119483Y-121811295D01*
X160901713Y-121662822D01*
X160664252Y-121548467D01*
X160412401Y-121470782D01*
X160151782Y-121431500D01*
X160151781Y-121431500D01*
X159888219Y-121431500D01*
X159888218Y-121431500D01*
X159627598Y-121470782D01*
X159375748Y-121548467D01*
X159138287Y-121662822D01*
X158920513Y-121811298D01*
X158727317Y-121990558D01*
X158562984Y-122196624D01*
X158431204Y-122424875D01*
X158334913Y-122670219D01*
X158276264Y-122927176D01*
X158273008Y-122970631D01*
X158261500Y-123124200D01*
X158261500Y-123126515D01*
X158261500Y-123126516D01*
X158261500Y-124215792D01*
X158261413Y-124220429D01*
X158257801Y-124316936D01*
X158268613Y-124412898D01*
X158269046Y-124417513D01*
X158276264Y-124513823D01*
X158282064Y-124539233D01*
X158284393Y-124552941D01*
X158287311Y-124578840D01*
X158312304Y-124672116D01*
X158313420Y-124676615D01*
X158334913Y-124770780D01*
X158344437Y-124795048D01*
X158348781Y-124808249D01*
X158355528Y-124833427D01*
X158394145Y-124921940D01*
X158395919Y-124926222D01*
X158431204Y-125016124D01*
X158444236Y-125038696D01*
X158450503Y-125051110D01*
X158460925Y-125074998D01*
X158512309Y-125156777D01*
X158514702Y-125160748D01*
X158562983Y-125244373D01*
X158579229Y-125264745D01*
X158587273Y-125276083D01*
X158601144Y-125298157D01*
X158601147Y-125298161D01*
X158618910Y-125318802D01*
X158664146Y-125371368D01*
X158667103Y-125374937D01*
X158727312Y-125450436D01*
X158727314Y-125450438D01*
X158798124Y-125516140D01*
X158801437Y-125519332D01*
X159890666Y-126608561D01*
X159893859Y-126611875D01*
X159959562Y-126682686D01*
X160035060Y-126742893D01*
X160038617Y-126745841D01*
X160063748Y-126767467D01*
X160111839Y-126808853D01*
X160129141Y-126819724D01*
X160133905Y-126822718D01*
X160145245Y-126830763D01*
X160165624Y-126847015D01*
X160249243Y-126895292D01*
X160253215Y-126897685D01*
X160335001Y-126949075D01*
X160358895Y-126959500D01*
X160371308Y-126965767D01*
X160393873Y-126978795D01*
X160393876Y-126978796D01*
X160483797Y-127014087D01*
X160488037Y-127015844D01*
X160576572Y-127054472D01*
X160601748Y-127061218D01*
X160614955Y-127065563D01*
X160639220Y-127075087D01*
X160733407Y-127096584D01*
X160737834Y-127097682D01*
X160831158Y-127122688D01*
X160857061Y-127125606D01*
X160870745Y-127127930D01*
X160896174Y-127133735D01*
X160992500Y-127140953D01*
X160997064Y-127141380D01*
X161093064Y-127152198D01*
X161189569Y-127148587D01*
X161194206Y-127148500D01*
X170436146Y-127148500D01*
X170447694Y-127149039D01*
X170491428Y-127153130D01*
X170570045Y-127148696D01*
X170577026Y-127148500D01*
X170587483Y-127148500D01*
X170589800Y-127148500D01*
X170639223Y-127144796D01*
X170754573Y-127138292D01*
X170762569Y-127136621D01*
X170778662Y-127134346D01*
X170786826Y-127133735D01*
X170899475Y-127108023D01*
X171012567Y-127084400D01*
X171012568Y-127084399D01*
X171021686Y-127082495D01*
X171022104Y-127084498D01*
X171079710Y-127080454D01*
X171140989Y-127114019D01*
X171174394Y-127175386D01*
X171175083Y-127224371D01*
X171128225Y-127475037D01*
X171128223Y-127475048D01*
X171127698Y-127477859D01*
X171127434Y-127480703D01*
X171127432Y-127480721D01*
X171108038Y-127690023D01*
X171090871Y-127875293D01*
X171090871Y-127878164D01*
X171090871Y-127878165D01*
X171090871Y-130255987D01*
X171071186Y-130323026D01*
X171018382Y-130368781D01*
X170966871Y-130379987D01*
X138986089Y-130379987D01*
X138919050Y-130360302D01*
X138873295Y-130307498D01*
X138862089Y-130255987D01*
X138862089Y-127878165D01*
X138862089Y-127878164D01*
X138862089Y-127875293D01*
X138825262Y-127477859D01*
X138751920Y-127085519D01*
X138642692Y-126701620D01*
X138498507Y-126329436D01*
X138496298Y-126325000D01*
X140291501Y-126325000D01*
X140311456Y-126553084D01*
X140326321Y-126608561D01*
X140353501Y-126709998D01*
X140370717Y-126774246D01*
X140467474Y-126981744D01*
X140467476Y-126981746D01*
X140467477Y-126981749D01*
X140598802Y-127169300D01*
X140760700Y-127331198D01*
X140948251Y-127462523D01*
X140948254Y-127462524D01*
X140948255Y-127462525D01*
X140981139Y-127477859D01*
X141155757Y-127559284D01*
X141376913Y-127618543D01*
X141605000Y-127638498D01*
X141833087Y-127618543D01*
X142054243Y-127559284D01*
X142261749Y-127462523D01*
X142449300Y-127331198D01*
X142611198Y-127169300D01*
X142742523Y-126981749D01*
X142839284Y-126774243D01*
X142898543Y-126553087D01*
X142918498Y-126325000D01*
X142912402Y-126255328D01*
X142898543Y-126096915D01*
X142898543Y-126096913D01*
X142839284Y-125875757D01*
X142742523Y-125668251D01*
X142611198Y-125480700D01*
X142449300Y-125318802D01*
X142261749Y-125187477D01*
X142261746Y-125187476D01*
X142261744Y-125187474D01*
X142054246Y-125090717D01*
X142054243Y-125090716D01*
X141943665Y-125061086D01*
X141833084Y-125031456D01*
X141605000Y-125011501D01*
X141376915Y-125031456D01*
X141155753Y-125090717D01*
X140948255Y-125187474D01*
X140948250Y-125187477D01*
X140948251Y-125187477D01*
X140763901Y-125316561D01*
X140760696Y-125318805D01*
X140598805Y-125480696D01*
X140467474Y-125668255D01*
X140370717Y-125875753D01*
X140311456Y-126096915D01*
X140291501Y-126325000D01*
X138496298Y-126325000D01*
X138320597Y-125972144D01*
X138239867Y-125841761D01*
X138111982Y-125635219D01*
X138111979Y-125635214D01*
X138110479Y-125632792D01*
X137869945Y-125314274D01*
X137601049Y-125019309D01*
X137306084Y-124750413D01*
X136987566Y-124509879D01*
X136985147Y-124508381D01*
X136985138Y-124508375D01*
X136650647Y-124301267D01*
X136650639Y-124301262D01*
X136648214Y-124299761D01*
X136645648Y-124298483D01*
X136645644Y-124298481D01*
X136293499Y-124123134D01*
X136293495Y-124123132D01*
X136290922Y-124121851D01*
X136288251Y-124120816D01*
X136288246Y-124120814D01*
X135921405Y-123978699D01*
X135921401Y-123978697D01*
X135918738Y-123977666D01*
X135915985Y-123976882D01*
X135915977Y-123976880D01*
X135537591Y-123869221D01*
X135537590Y-123869220D01*
X135534839Y-123868438D01*
X135532047Y-123867916D01*
X135532034Y-123867913D01*
X135145320Y-123795623D01*
X135145312Y-123795621D01*
X135142499Y-123795096D01*
X135139651Y-123794832D01*
X135139636Y-123794830D01*
X134747925Y-123758534D01*
X134747924Y-123758533D01*
X134745065Y-123758269D01*
X134345929Y-123758269D01*
X134343070Y-123758533D01*
X134343068Y-123758534D01*
X133951357Y-123794830D01*
X133951339Y-123794832D01*
X133948495Y-123795096D01*
X133945684Y-123795621D01*
X133945673Y-123795623D01*
X133558959Y-123867913D01*
X133558941Y-123867917D01*
X133556155Y-123868438D01*
X133553407Y-123869219D01*
X133553402Y-123869221D01*
X133175016Y-123976880D01*
X133175001Y-123976884D01*
X133172256Y-123977666D01*
X133169599Y-123978695D01*
X133169588Y-123978699D01*
X132802747Y-124120814D01*
X132802734Y-124120819D01*
X132800072Y-124121851D01*
X132797506Y-124123128D01*
X132797494Y-124123134D01*
X132445349Y-124298481D01*
X132445335Y-124298488D01*
X132442780Y-124299761D01*
X132440363Y-124301257D01*
X132440346Y-124301267D01*
X132105855Y-124508375D01*
X132105835Y-124508388D01*
X132103428Y-124509879D01*
X132101154Y-124511595D01*
X132101147Y-124511601D01*
X131787197Y-124748685D01*
X131787184Y-124748695D01*
X131784910Y-124750413D01*
X131782795Y-124752340D01*
X131782789Y-124752346D01*
X131492060Y-125017380D01*
X131492049Y-125017390D01*
X131489945Y-125019309D01*
X131488026Y-125021413D01*
X131488016Y-125021424D01*
X131222982Y-125312153D01*
X131222976Y-125312159D01*
X131221049Y-125314274D01*
X131219331Y-125316548D01*
X131219321Y-125316561D01*
X130982237Y-125630511D01*
X130982231Y-125630518D01*
X130980515Y-125632792D01*
X130979024Y-125635199D01*
X130979011Y-125635219D01*
X130771903Y-125969710D01*
X130771893Y-125969727D01*
X130770397Y-125972144D01*
X130769124Y-125974699D01*
X130769117Y-125974713D01*
X130593770Y-126326858D01*
X130593764Y-126326870D01*
X130592487Y-126329436D01*
X130591455Y-126332098D01*
X130591450Y-126332111D01*
X130449335Y-126698952D01*
X130449331Y-126698963D01*
X130448302Y-126701620D01*
X130447520Y-126704365D01*
X130447516Y-126704380D01*
X130340515Y-127080454D01*
X130339074Y-127085519D01*
X130338553Y-127088305D01*
X130338549Y-127088323D01*
X130266259Y-127475037D01*
X130266257Y-127475048D01*
X130265732Y-127477859D01*
X130265468Y-127480703D01*
X130265466Y-127480721D01*
X130246072Y-127690023D01*
X130228905Y-127875293D01*
X130228905Y-127878165D01*
X130228905Y-130255987D01*
X130209220Y-130323026D01*
X130156416Y-130368781D01*
X130104905Y-130379987D01*
X126613037Y-130379987D01*
X126545998Y-130360302D01*
X126500243Y-130307498D01*
X126490299Y-130238340D01*
X126491293Y-130232441D01*
X126500392Y-130185391D01*
X126501433Y-130176906D01*
X126503912Y-130130237D01*
X126504000Y-130126942D01*
X126504000Y-129410000D01*
X125687686Y-129410000D01*
X125713493Y-129369844D01*
X125754000Y-129231889D01*
X125754000Y-129088111D01*
X125713493Y-128950156D01*
X125687686Y-128910000D01*
X126503999Y-128910000D01*
X126503999Y-128193069D01*
X126503911Y-128189769D01*
X126501432Y-128143076D01*
X126500394Y-128134616D01*
X126456762Y-127909013D01*
X126374119Y-127690023D01*
X126255659Y-127488158D01*
X126104786Y-127309213D01*
X125925841Y-127158340D01*
X125723974Y-127039879D01*
X125508369Y-126958514D01*
X125452597Y-126916427D01*
X125428433Y-126850869D01*
X125443548Y-126782654D01*
X125493143Y-126733439D01*
X125552150Y-126718500D01*
X129049328Y-126718500D01*
X129052638Y-126718500D01*
X129113201Y-126711989D01*
X129113203Y-126711988D01*
X129113205Y-126711988D01*
X129224181Y-126670595D01*
X129250204Y-126660889D01*
X129367261Y-126573261D01*
X129454889Y-126456204D01*
X129502172Y-126329436D01*
X129505988Y-126319205D01*
X129505988Y-126319203D01*
X129505989Y-126319201D01*
X129512500Y-126258638D01*
X129512500Y-122661362D01*
X129505989Y-122600799D01*
X129505988Y-122600797D01*
X129505988Y-122600794D01*
X129454889Y-122463796D01*
X129367261Y-122346738D01*
X129250203Y-122259110D01*
X129113205Y-122208011D01*
X129055924Y-122201853D01*
X129055918Y-122201852D01*
X129052638Y-122201500D01*
X125455362Y-122201500D01*
X125452082Y-122201852D01*
X125452075Y-122201853D01*
X125394794Y-122208011D01*
X125257796Y-122259110D01*
X125140738Y-122346738D01*
X125053110Y-122463796D01*
X125002011Y-122600794D01*
X124998875Y-122629966D01*
X124995500Y-122661362D01*
X124995500Y-126258638D01*
X124995852Y-126261918D01*
X124995853Y-126261924D01*
X125002011Y-126319205D01*
X125053110Y-126456203D01*
X125140738Y-126573261D01*
X125228365Y-126638857D01*
X125257796Y-126660889D01*
X125277609Y-126668279D01*
X125283818Y-126670595D01*
X125339751Y-126712466D01*
X125364167Y-126777931D01*
X125349315Y-126846204D01*
X125299909Y-126895609D01*
X125233908Y-126910602D01*
X125224205Y-126910086D01*
X125220943Y-126910000D01*
X124504000Y-126910000D01*
X124504000Y-128660000D01*
X124003999Y-128660000D01*
X124003999Y-126910000D01*
X123287069Y-126910000D01*
X123283769Y-126910088D01*
X123237076Y-126912567D01*
X123228616Y-126913605D01*
X123003013Y-126957237D01*
X122784023Y-127039880D01*
X122582158Y-127158340D01*
X122403213Y-127309213D01*
X122252340Y-127488158D01*
X122133880Y-127690023D01*
X122051237Y-127909013D01*
X122007607Y-128134608D01*
X122006566Y-128143091D01*
X122004087Y-128189762D01*
X122004000Y-128193057D01*
X122004000Y-128910000D01*
X122820314Y-128910000D01*
X122794507Y-128950156D01*
X122754000Y-129088111D01*
X122754000Y-129231889D01*
X122794507Y-129369844D01*
X122820314Y-129410000D01*
X122004001Y-129410000D01*
X122004001Y-130126930D01*
X122004088Y-130130230D01*
X122006567Y-130176921D01*
X122007605Y-130185383D01*
X122016707Y-130232441D01*
X122010111Y-130301998D01*
X121966956Y-130356948D01*
X121900944Y-130379843D01*
X121894963Y-130379987D01*
X114769997Y-130379987D01*
X114702958Y-130360302D01*
X114657203Y-130307498D01*
X114645997Y-130255987D01*
X114645997Y-124210000D01*
X119254000Y-124210000D01*
X120754000Y-124210000D01*
X120754000Y-124710000D01*
X119254001Y-124710000D01*
X119254001Y-125521744D01*
X119254192Y-125526625D01*
X119264400Y-125656331D01*
X119319377Y-125874518D01*
X119412430Y-126079379D01*
X119540565Y-126264332D01*
X119699667Y-126423434D01*
X119884620Y-126551569D01*
X120089481Y-126644622D01*
X120307668Y-126699599D01*
X120437374Y-126709808D01*
X120442254Y-126709999D01*
X121003999Y-126709999D01*
X121004000Y-126709998D01*
X121004000Y-125893686D01*
X121044156Y-125919493D01*
X121182111Y-125960000D01*
X121325889Y-125960000D01*
X121463844Y-125919493D01*
X121504000Y-125893686D01*
X121504000Y-126709999D01*
X122065744Y-126709999D01*
X122070625Y-126709807D01*
X122200331Y-126699599D01*
X122418518Y-126644622D01*
X122623379Y-126551569D01*
X122808332Y-126423434D01*
X122967434Y-126264332D01*
X123095569Y-126079379D01*
X123188622Y-125874518D01*
X123243599Y-125656331D01*
X123253808Y-125526625D01*
X123254000Y-125521745D01*
X123254000Y-124710000D01*
X121754000Y-124710000D01*
X121754000Y-124210000D01*
X123253999Y-124210000D01*
X123253999Y-123398255D01*
X123253807Y-123393374D01*
X123243599Y-123263668D01*
X123188622Y-123045481D01*
X123095569Y-122840620D01*
X122967434Y-122655667D01*
X122808332Y-122496565D01*
X122623379Y-122368430D01*
X122418518Y-122275377D01*
X122200331Y-122220400D01*
X122070625Y-122210191D01*
X122065746Y-122210000D01*
X121504000Y-122210000D01*
X121504000Y-123026313D01*
X121463844Y-123000507D01*
X121325889Y-122960000D01*
X121182111Y-122960000D01*
X121044156Y-123000507D01*
X121003999Y-123026313D01*
X121003999Y-122210000D01*
X120442255Y-122210000D01*
X120437374Y-122210192D01*
X120307668Y-122220400D01*
X120089481Y-122275377D01*
X119884620Y-122368430D01*
X119699667Y-122496565D01*
X119540565Y-122655667D01*
X119412430Y-122840620D01*
X119319377Y-123045481D01*
X119264400Y-123263668D01*
X119254191Y-123393374D01*
X119254000Y-123398254D01*
X119254000Y-124210000D01*
X114645997Y-124210000D01*
X114645997Y-117074861D01*
X125371227Y-117074861D01*
X125371453Y-117078597D01*
X125389995Y-117385151D01*
X125389996Y-117385164D01*
X125390222Y-117388890D01*
X125390896Y-117392572D01*
X125390897Y-117392574D01*
X125446256Y-117694659D01*
X125446258Y-117694668D01*
X125446931Y-117698339D01*
X125448043Y-117701909D01*
X125448045Y-117701915D01*
X125507313Y-117892113D01*
X125540526Y-117998696D01*
X125669643Y-118285582D01*
X125671576Y-118288780D01*
X125671580Y-118288787D01*
X125748898Y-118416686D01*
X125832399Y-118554813D01*
X126026420Y-118802463D01*
X126248878Y-119024921D01*
X126496528Y-119218942D01*
X126765759Y-119381698D01*
X127052645Y-119510815D01*
X127353002Y-119604410D01*
X127662451Y-119661119D01*
X127976480Y-119680114D01*
X128290509Y-119661119D01*
X128599958Y-119604410D01*
X128900315Y-119510815D01*
X129187201Y-119381698D01*
X129456432Y-119218942D01*
X129704082Y-119024921D01*
X129926540Y-118802463D01*
X130120561Y-118554813D01*
X130283317Y-118285582D01*
X130412434Y-117998696D01*
X130506029Y-117698339D01*
X130562738Y-117388890D01*
X130581733Y-117074861D01*
X130562738Y-116760832D01*
X130506029Y-116451383D01*
X130412434Y-116151026D01*
X130283317Y-115864140D01*
X130120561Y-115594909D01*
X129926540Y-115347259D01*
X129704082Y-115124801D01*
X129456432Y-114930780D01*
X129217503Y-114786342D01*
X129190406Y-114769961D01*
X129190399Y-114769957D01*
X129187201Y-114768024D01*
X128900315Y-114638907D01*
X128887716Y-114634981D01*
X128603534Y-114546426D01*
X128603528Y-114546424D01*
X128599958Y-114545312D01*
X128596287Y-114544639D01*
X128596278Y-114544637D01*
X128294193Y-114489278D01*
X128294191Y-114489277D01*
X128290509Y-114488603D01*
X128286783Y-114488377D01*
X128286770Y-114488376D01*
X127980216Y-114469834D01*
X127976480Y-114469608D01*
X127972744Y-114469834D01*
X127666189Y-114488376D01*
X127666174Y-114488377D01*
X127662451Y-114488603D01*
X127658770Y-114489277D01*
X127658766Y-114489278D01*
X127356681Y-114544637D01*
X127356668Y-114544640D01*
X127353002Y-114545312D01*
X127349434Y-114546423D01*
X127349425Y-114546426D01*
X127056222Y-114637792D01*
X127056216Y-114637794D01*
X127052645Y-114638907D01*
X127049236Y-114640441D01*
X127049234Y-114640442D01*
X126769173Y-114766487D01*
X126769166Y-114766490D01*
X126765759Y-114768024D01*
X126762566Y-114769953D01*
X126762553Y-114769961D01*
X126499732Y-114928843D01*
X126496528Y-114930780D01*
X126493586Y-114933084D01*
X126493580Y-114933089D01*
X126296210Y-115087719D01*
X126248878Y-115124801D01*
X126246232Y-115127446D01*
X126246224Y-115127454D01*
X126029073Y-115344605D01*
X126029065Y-115344613D01*
X126026420Y-115347259D01*
X126024108Y-115350209D01*
X126024108Y-115350210D01*
X125834708Y-115591961D01*
X125834703Y-115591967D01*
X125832399Y-115594909D01*
X125830462Y-115598111D01*
X125830462Y-115598113D01*
X125671580Y-115860934D01*
X125671572Y-115860947D01*
X125669643Y-115864140D01*
X125668109Y-115867547D01*
X125668106Y-115867554D01*
X125542061Y-116147615D01*
X125540526Y-116151026D01*
X125539413Y-116154597D01*
X125539411Y-116154603D01*
X125448045Y-116447806D01*
X125448042Y-116447815D01*
X125446931Y-116451383D01*
X125446259Y-116455049D01*
X125446256Y-116455062D01*
X125390897Y-116757147D01*
X125390222Y-116760832D01*
X125389996Y-116764555D01*
X125389995Y-116764570D01*
X125372808Y-117048722D01*
X125371227Y-117074861D01*
X114645997Y-117074861D01*
X114645997Y-115210775D01*
X117076500Y-115210775D01*
X117076797Y-115213793D01*
X117076798Y-115213808D01*
X117091453Y-115362599D01*
X117121001Y-115460009D01*
X117149559Y-115554151D01*
X117150551Y-115557419D01*
X117246498Y-115736924D01*
X117246518Y-115736960D01*
X117375669Y-115894331D01*
X117533040Y-116023482D01*
X117712583Y-116119450D01*
X117907399Y-116178546D01*
X118110000Y-116198501D01*
X118312601Y-116178546D01*
X118507417Y-116119450D01*
X118686960Y-116023482D01*
X118844331Y-115894331D01*
X118973482Y-115736960D01*
X119069450Y-115557417D01*
X119128546Y-115362601D01*
X119143500Y-115210775D01*
X119143500Y-115207311D01*
X119625000Y-115207311D01*
X119625298Y-115213395D01*
X119639829Y-115360932D01*
X119698442Y-115554151D01*
X119793620Y-115732215D01*
X119921707Y-115888292D01*
X120077784Y-116016379D01*
X120255849Y-116111558D01*
X120400000Y-116155285D01*
X120400000Y-115215617D01*
X120469052Y-115269363D01*
X120587424Y-115310000D01*
X120681073Y-115310000D01*
X120773446Y-115294586D01*
X120883514Y-115235019D01*
X120900000Y-115217110D01*
X120900000Y-116155285D01*
X121044150Y-116111558D01*
X121222215Y-116016379D01*
X121378292Y-115888292D01*
X121505211Y-115733638D01*
X122156500Y-115733638D01*
X122156852Y-115736918D01*
X122156853Y-115736924D01*
X122163011Y-115794205D01*
X122214110Y-115931203D01*
X122301738Y-116048261D01*
X122418796Y-116135889D01*
X122555794Y-116186988D01*
X122555797Y-116186988D01*
X122555799Y-116186989D01*
X122616362Y-116193500D01*
X122619672Y-116193500D01*
X123760328Y-116193500D01*
X123763638Y-116193500D01*
X123824201Y-116186989D01*
X123824203Y-116186988D01*
X123824205Y-116186988D01*
X123911030Y-116154603D01*
X123961204Y-116135889D01*
X124078261Y-116048261D01*
X124165889Y-115931204D01*
X124216989Y-115794201D01*
X124223500Y-115733638D01*
X124223500Y-114136362D01*
X124216989Y-114075799D01*
X124216988Y-114075797D01*
X124216988Y-114075794D01*
X124165889Y-113938796D01*
X124078261Y-113821738D01*
X123961203Y-113734110D01*
X123824205Y-113683011D01*
X123766924Y-113676853D01*
X123766918Y-113676852D01*
X123763638Y-113676500D01*
X122616362Y-113676500D01*
X122613082Y-113676852D01*
X122613075Y-113676853D01*
X122555794Y-113683011D01*
X122418796Y-113734110D01*
X122301738Y-113821738D01*
X122214110Y-113938796D01*
X122163011Y-114075794D01*
X122156857Y-114133040D01*
X122156500Y-114136362D01*
X122156500Y-115733638D01*
X121505211Y-115733638D01*
X121506379Y-115732215D01*
X121601557Y-115554151D01*
X121660170Y-115360932D01*
X121674701Y-115213395D01*
X121675000Y-115207311D01*
X121675000Y-115185000D01*
X120929560Y-115185000D01*
X120968278Y-115142941D01*
X121018551Y-115028330D01*
X121028886Y-114903605D01*
X120998163Y-114782281D01*
X120934606Y-114685000D01*
X121675000Y-114685000D01*
X121674999Y-114684999D01*
X121675000Y-114662688D01*
X121674701Y-114656604D01*
X121660170Y-114509067D01*
X121601557Y-114315848D01*
X121506379Y-114137784D01*
X121378292Y-113981707D01*
X121222215Y-113853620D01*
X121044146Y-113758440D01*
X120900000Y-113714712D01*
X120900000Y-114654382D01*
X120830948Y-114600637D01*
X120712576Y-114560000D01*
X120618927Y-114560000D01*
X120526554Y-114575414D01*
X120416486Y-114634981D01*
X120400000Y-114652889D01*
X120400000Y-113714712D01*
X120255853Y-113758440D01*
X120077784Y-113853620D01*
X119921707Y-113981707D01*
X119793620Y-114137784D01*
X119698442Y-114315848D01*
X119639829Y-114509067D01*
X119625298Y-114656604D01*
X119625000Y-114662688D01*
X119625000Y-114685000D01*
X120370440Y-114685000D01*
X120331722Y-114727059D01*
X120281449Y-114841670D01*
X120271114Y-114966395D01*
X120301837Y-115087719D01*
X120365394Y-115185000D01*
X119625000Y-115185000D01*
X119625000Y-115207311D01*
X119143500Y-115207311D01*
X119143500Y-114659225D01*
X119128546Y-114507399D01*
X119069450Y-114312583D01*
X118973482Y-114133040D01*
X118844331Y-113975669D01*
X118686960Y-113846518D01*
X118686959Y-113846517D01*
X118507419Y-113750551D01*
X118507418Y-113750550D01*
X118507417Y-113750550D01*
X118410009Y-113721001D01*
X118312599Y-113691453D01*
X118132134Y-113673679D01*
X118110000Y-113671499D01*
X118109999Y-113671499D01*
X117907400Y-113691453D01*
X117712580Y-113750551D01*
X117533040Y-113846517D01*
X117375669Y-113975669D01*
X117246517Y-114133040D01*
X117150551Y-114312580D01*
X117091453Y-114507400D01*
X117076798Y-114656191D01*
X117076797Y-114656207D01*
X117076500Y-114659225D01*
X117076500Y-115210775D01*
X114645997Y-115210775D01*
X114645997Y-107699999D01*
X117930384Y-107699999D01*
X117930385Y-107700000D01*
X120946589Y-107700000D01*
X120921466Y-107797030D01*
X120911114Y-108001165D01*
X120941574Y-108200000D01*
X117933793Y-108200000D01*
X117945960Y-108320951D01*
X117947337Y-108329112D01*
X118015248Y-108614080D01*
X118017699Y-108621981D01*
X118122987Y-108895354D01*
X118126467Y-108902855D01*
X118267254Y-109159758D01*
X118271707Y-109166733D01*
X118445476Y-109402574D01*
X118450821Y-109408896D01*
X118654474Y-109619472D01*
X118660609Y-109625020D01*
X118890518Y-109806578D01*
X118897328Y-109811253D01*
X119149393Y-109960551D01*
X119156769Y-109964278D01*
X119426482Y-110078647D01*
X119434286Y-110081357D01*
X119716820Y-110158751D01*
X119724942Y-110160402D01*
X120015278Y-110199448D01*
X120023521Y-110200000D01*
X121670000Y-110200000D01*
X121670000Y-108924625D01*
X121817801Y-108955000D01*
X121970967Y-108955000D01*
X122123348Y-108939504D01*
X122170000Y-108924867D01*
X122170000Y-110200000D01*
X123743146Y-110200000D01*
X123747306Y-110199860D01*
X123966434Y-110185191D01*
X123974627Y-110184089D01*
X124261701Y-110125739D01*
X124269690Y-110123551D01*
X124546429Y-110027457D01*
X124554041Y-110024229D01*
X124815501Y-109892107D01*
X124822618Y-109887893D01*
X125064144Y-109722094D01*
X125070632Y-109716970D01*
X125287898Y-109520464D01*
X125293648Y-109514519D01*
X125482786Y-109290806D01*
X125487692Y-109284148D01*
X125645327Y-109037216D01*
X125649296Y-109029973D01*
X125772610Y-108764238D01*
X125775583Y-108756519D01*
X125862378Y-108476718D01*
X125864294Y-108468679D01*
X125909615Y-108200000D01*
X122893411Y-108200000D01*
X122918534Y-108102970D01*
X122928886Y-107898835D01*
X122898426Y-107700000D01*
X125906207Y-107700000D01*
X125906207Y-107699999D01*
X125894039Y-107579048D01*
X125892662Y-107570887D01*
X125824751Y-107285919D01*
X125822300Y-107278018D01*
X125717012Y-107004645D01*
X125713532Y-106997144D01*
X125572745Y-106740241D01*
X125568292Y-106733266D01*
X125394523Y-106497425D01*
X125389178Y-106491103D01*
X125185525Y-106280527D01*
X125179390Y-106274979D01*
X124949481Y-106093421D01*
X124942671Y-106088746D01*
X124690606Y-105939448D01*
X124683230Y-105935721D01*
X124413517Y-105821352D01*
X124405713Y-105818642D01*
X124123179Y-105741248D01*
X124115057Y-105739597D01*
X123824721Y-105700551D01*
X123816479Y-105700000D01*
X122170000Y-105700000D01*
X122170000Y-106975374D01*
X122022199Y-106945000D01*
X121869033Y-106945000D01*
X121716652Y-106960496D01*
X121670000Y-106975132D01*
X121670000Y-105700000D01*
X120096854Y-105700000D01*
X120092693Y-105700139D01*
X119873565Y-105714808D01*
X119865372Y-105715910D01*
X119578298Y-105774260D01*
X119570309Y-105776448D01*
X119293570Y-105872542D01*
X119285958Y-105875770D01*
X119024498Y-106007892D01*
X119017381Y-106012106D01*
X118775855Y-106177905D01*
X118769367Y-106183029D01*
X118552101Y-106379535D01*
X118546351Y-106385480D01*
X118357213Y-106609193D01*
X118352307Y-106615851D01*
X118194672Y-106862783D01*
X118190703Y-106870026D01*
X118067389Y-107135761D01*
X118064416Y-107143480D01*
X117977621Y-107423281D01*
X117975705Y-107431320D01*
X117930384Y-107699999D01*
X114645997Y-107699999D01*
X114645997Y-102870000D01*
X125236501Y-102870000D01*
X125256456Y-103098084D01*
X125315717Y-103319246D01*
X125412474Y-103526744D01*
X125412476Y-103526746D01*
X125412477Y-103526749D01*
X125543802Y-103714300D01*
X125705700Y-103876198D01*
X125893251Y-104007523D01*
X125946401Y-104032307D01*
X125998839Y-104078477D01*
X126017992Y-104145670D01*
X125997777Y-104212552D01*
X125946403Y-104257069D01*
X125897520Y-104279864D01*
X125711180Y-104410341D01*
X125550341Y-104571180D01*
X125419865Y-104757519D01*
X125323733Y-104963673D01*
X125271128Y-105159999D01*
X125271128Y-105160000D01*
X126630497Y-105160000D01*
X126581083Y-105245587D01*
X126551232Y-105376370D01*
X126561257Y-105510140D01*
X126610266Y-105635013D01*
X126630193Y-105660000D01*
X125271128Y-105660000D01*
X125323733Y-105856326D01*
X125419865Y-106062480D01*
X125550341Y-106248819D01*
X125711180Y-106409658D01*
X125897519Y-106540134D01*
X126103673Y-106636266D01*
X126323397Y-106695141D01*
X126490535Y-106709763D01*
X126495946Y-106710000D01*
X126750000Y-106710000D01*
X126750000Y-105778137D01*
X126804741Y-105815459D01*
X126932927Y-105855000D01*
X127033346Y-105855000D01*
X127132647Y-105840033D01*
X127249999Y-105783518D01*
X127249999Y-106709999D01*
X127250000Y-106710000D01*
X127504054Y-106710000D01*
X127509464Y-106709763D01*
X127676602Y-106695141D01*
X127896326Y-106636266D01*
X128102480Y-106540134D01*
X128288819Y-106409658D01*
X128449658Y-106248819D01*
X128580134Y-106062480D01*
X128676266Y-105856326D01*
X128728872Y-105660000D01*
X127369503Y-105660000D01*
X127418917Y-105574413D01*
X127448768Y-105443630D01*
X127438743Y-105309860D01*
X127389734Y-105184987D01*
X127369807Y-105160000D01*
X128728872Y-105160000D01*
X128728871Y-105159999D01*
X128676266Y-104963673D01*
X128580134Y-104757519D01*
X128449658Y-104571180D01*
X128288819Y-104410341D01*
X128102482Y-104279866D01*
X128053597Y-104257070D01*
X128001158Y-104210897D01*
X127982007Y-104143703D01*
X128002223Y-104076822D01*
X128053595Y-104032308D01*
X128106749Y-104007523D01*
X128294300Y-103876198D01*
X128456198Y-103714300D01*
X128587523Y-103526749D01*
X128684284Y-103319243D01*
X128743543Y-103098087D01*
X128763498Y-102870000D01*
X128743543Y-102641913D01*
X128684284Y-102420757D01*
X128587523Y-102213251D01*
X128456198Y-102025700D01*
X128294300Y-101863802D01*
X128106749Y-101732477D01*
X128106745Y-101732475D01*
X128106744Y-101732474D01*
X127899246Y-101635717D01*
X127899243Y-101635716D01*
X127744771Y-101594325D01*
X127678084Y-101576456D01*
X127509827Y-101561736D01*
X127509822Y-101561735D01*
X127507127Y-101561500D01*
X126492873Y-101561500D01*
X126490178Y-101561735D01*
X126490172Y-101561736D01*
X126321915Y-101576456D01*
X126100753Y-101635717D01*
X125893255Y-101732474D01*
X125705696Y-101863805D01*
X125543805Y-102025696D01*
X125412474Y-102213255D01*
X125315717Y-102420753D01*
X125256456Y-102641915D01*
X125236501Y-102870000D01*
X114645997Y-102870000D01*
X114645997Y-97539999D01*
X117930384Y-97539999D01*
X117930385Y-97540000D01*
X120946589Y-97540000D01*
X120921466Y-97637030D01*
X120911114Y-97841165D01*
X120941574Y-98040000D01*
X117933793Y-98040000D01*
X117945960Y-98160951D01*
X117947337Y-98169112D01*
X118015248Y-98454080D01*
X118017699Y-98461981D01*
X118122987Y-98735354D01*
X118126467Y-98742855D01*
X118267254Y-98999758D01*
X118271707Y-99006733D01*
X118445476Y-99242574D01*
X118450821Y-99248896D01*
X118654474Y-99459472D01*
X118660609Y-99465020D01*
X118890518Y-99646578D01*
X118897328Y-99651253D01*
X119149393Y-99800551D01*
X119156769Y-99804278D01*
X119426482Y-99918647D01*
X119434286Y-99921357D01*
X119716820Y-99998751D01*
X119724942Y-100000402D01*
X120015278Y-100039448D01*
X120023521Y-100040000D01*
X121670000Y-100040000D01*
X121670000Y-98764625D01*
X121817801Y-98795000D01*
X121970967Y-98795000D01*
X122123348Y-98779504D01*
X122170000Y-98764867D01*
X122170000Y-100040000D01*
X123743146Y-100040000D01*
X123747306Y-100039860D01*
X123966434Y-100025191D01*
X123974627Y-100024089D01*
X124261701Y-99965739D01*
X124269690Y-99963551D01*
X124546429Y-99867457D01*
X124554041Y-99864229D01*
X124815501Y-99732107D01*
X124822618Y-99727893D01*
X125064144Y-99562094D01*
X125070632Y-99556970D01*
X125287898Y-99360464D01*
X125293648Y-99354519D01*
X125482786Y-99130806D01*
X125487692Y-99124148D01*
X125645327Y-98877216D01*
X125649296Y-98869973D01*
X125772610Y-98604238D01*
X125775583Y-98596519D01*
X125862378Y-98316718D01*
X125864294Y-98308679D01*
X125909615Y-98040000D01*
X122893411Y-98040000D01*
X122918534Y-97942970D01*
X122928886Y-97738835D01*
X122898426Y-97540000D01*
X125906207Y-97540000D01*
X125906207Y-97539999D01*
X125894039Y-97419048D01*
X125892662Y-97410887D01*
X125824751Y-97125919D01*
X125822300Y-97118018D01*
X125717012Y-96844645D01*
X125713532Y-96837144D01*
X125572745Y-96580241D01*
X125568292Y-96573266D01*
X125394523Y-96337425D01*
X125389178Y-96331103D01*
X125185525Y-96120527D01*
X125179390Y-96114979D01*
X124949481Y-95933421D01*
X124942671Y-95928746D01*
X124690606Y-95779448D01*
X124683230Y-95775721D01*
X124413517Y-95661352D01*
X124405713Y-95658642D01*
X124123179Y-95581248D01*
X124115057Y-95579597D01*
X123824721Y-95540551D01*
X123816479Y-95540000D01*
X122170000Y-95540000D01*
X122170000Y-96815374D01*
X122022199Y-96785000D01*
X121869033Y-96785000D01*
X121716652Y-96800496D01*
X121670000Y-96815132D01*
X121670000Y-95540000D01*
X120096854Y-95540000D01*
X120092693Y-95540139D01*
X119873565Y-95554808D01*
X119865372Y-95555910D01*
X119578298Y-95614260D01*
X119570309Y-95616448D01*
X119293570Y-95712542D01*
X119285958Y-95715770D01*
X119024498Y-95847892D01*
X119017381Y-95852106D01*
X118775855Y-96017905D01*
X118769367Y-96023029D01*
X118552101Y-96219535D01*
X118546351Y-96225480D01*
X118357213Y-96449193D01*
X118352307Y-96455851D01*
X118194672Y-96702783D01*
X118190703Y-96710026D01*
X118067389Y-96975761D01*
X118064416Y-96983480D01*
X117977621Y-97263281D01*
X117975705Y-97271320D01*
X117930384Y-97539999D01*
X114645997Y-97539999D01*
X114645997Y-94060000D01*
X135485316Y-94060000D01*
X135504021Y-94309597D01*
X135559718Y-94553621D01*
X135651163Y-94786618D01*
X135776310Y-95003380D01*
X135814800Y-95051645D01*
X136557452Y-94308993D01*
X136567188Y-94338956D01*
X136655186Y-94477619D01*
X136774903Y-94590040D01*
X136909510Y-94664041D01*
X136168402Y-95405148D01*
X136322660Y-95510318D01*
X136548167Y-95618917D01*
X136787348Y-95692695D01*
X137034851Y-95730000D01*
X137285149Y-95730000D01*
X137532651Y-95692695D01*
X137771832Y-95618917D01*
X137997337Y-95510320D01*
X138151596Y-95405148D01*
X137407534Y-94661086D01*
X137475629Y-94634126D01*
X137608492Y-94537595D01*
X137713175Y-94411055D01*
X137761631Y-94308079D01*
X138505198Y-95051646D01*
X138505199Y-95051645D01*
X138543688Y-95003382D01*
X138668836Y-94786618D01*
X138760281Y-94553621D01*
X138815978Y-94309597D01*
X138834683Y-94060000D01*
X138815978Y-93810402D01*
X138760281Y-93566378D01*
X138668836Y-93333381D01*
X138543689Y-93116619D01*
X138505198Y-93068353D01*
X137762546Y-93811004D01*
X137752812Y-93781044D01*
X137664814Y-93642381D01*
X137545097Y-93529960D01*
X137410489Y-93455958D01*
X138151596Y-92714850D01*
X137997340Y-92609681D01*
X137771832Y-92501082D01*
X137532651Y-92427304D01*
X137285149Y-92390000D01*
X137034851Y-92390000D01*
X136787348Y-92427304D01*
X136548167Y-92501083D01*
X136322660Y-92609680D01*
X136168402Y-92714849D01*
X136912466Y-93458913D01*
X136844371Y-93485874D01*
X136711508Y-93582405D01*
X136606825Y-93708945D01*
X136558368Y-93811920D01*
X135814800Y-93068353D01*
X135814799Y-93068353D01*
X135776313Y-93116615D01*
X135651163Y-93333381D01*
X135559718Y-93566378D01*
X135504021Y-93810402D01*
X135485316Y-94060000D01*
X114645997Y-94060000D01*
X114645997Y-89074861D01*
X125371227Y-89074861D01*
X125371453Y-89078597D01*
X125389995Y-89385151D01*
X125389996Y-89385164D01*
X125390222Y-89388890D01*
X125390896Y-89392572D01*
X125390897Y-89392574D01*
X125446256Y-89694659D01*
X125446258Y-89694668D01*
X125446931Y-89698339D01*
X125448043Y-89701909D01*
X125448045Y-89701915D01*
X125461253Y-89744300D01*
X125540526Y-89998696D01*
X125669643Y-90285582D01*
X125671576Y-90288780D01*
X125671580Y-90288787D01*
X125689744Y-90318833D01*
X125832399Y-90554813D01*
X126026420Y-90802463D01*
X126248878Y-91024921D01*
X126496528Y-91218942D01*
X126765759Y-91381698D01*
X127052645Y-91510815D01*
X127353002Y-91604410D01*
X127662451Y-91661119D01*
X127976480Y-91680114D01*
X128290509Y-91661119D01*
X128599958Y-91604410D01*
X128900315Y-91510815D01*
X129187201Y-91381698D01*
X129456432Y-91218942D01*
X129704082Y-91024921D01*
X129926540Y-90802463D01*
X130120561Y-90554813D01*
X130283317Y-90285582D01*
X130412434Y-89998696D01*
X130506029Y-89698339D01*
X130562738Y-89388890D01*
X130581733Y-89074861D01*
X130562738Y-88760832D01*
X130506029Y-88451383D01*
X130477553Y-88360000D01*
X136431843Y-88360000D01*
X136450435Y-88584363D01*
X136450435Y-88584366D01*
X136450436Y-88584368D01*
X136498673Y-88774852D01*
X136505705Y-88802618D01*
X136596138Y-89008788D01*
X136596140Y-89008791D01*
X136719278Y-89197268D01*
X136871760Y-89362906D01*
X137049424Y-89501189D01*
X137247426Y-89608342D01*
X137460365Y-89681444D01*
X137682431Y-89718500D01*
X137907569Y-89718500D01*
X138129635Y-89681444D01*
X138342574Y-89608342D01*
X138540576Y-89501189D01*
X138718240Y-89362906D01*
X138870722Y-89197268D01*
X138993860Y-89008791D01*
X139041580Y-88900000D01*
X150460033Y-88900000D01*
X150479858Y-89126602D01*
X150538733Y-89346326D01*
X150634866Y-89552484D01*
X150685972Y-89625471D01*
X150685974Y-89625472D01*
X151367046Y-88944399D01*
X151379835Y-89025148D01*
X151437359Y-89138045D01*
X151526955Y-89227641D01*
X151639852Y-89285165D01*
X151720599Y-89297953D01*
X151039526Y-89979025D01*
X151039526Y-89979026D01*
X151112515Y-90030133D01*
X151318673Y-90126266D01*
X151538397Y-90185141D01*
X151764999Y-90204966D01*
X151991602Y-90185141D01*
X152211326Y-90126266D01*
X152417480Y-90030134D01*
X152490472Y-89979025D01*
X151809401Y-89297953D01*
X151890148Y-89285165D01*
X152003045Y-89227641D01*
X152092641Y-89138045D01*
X152150165Y-89025148D01*
X152162953Y-88944400D01*
X152844025Y-89625472D01*
X152895133Y-89552481D01*
X152917927Y-89503600D01*
X152964098Y-89451160D01*
X153031292Y-89432007D01*
X153098173Y-89452222D01*
X153142692Y-89503598D01*
X153167475Y-89556746D01*
X153167476Y-89556748D01*
X153167477Y-89556749D01*
X153298802Y-89744300D01*
X153460700Y-89906198D01*
X153648251Y-90037523D01*
X153648254Y-90037524D01*
X153648255Y-90037525D01*
X153660616Y-90043289D01*
X153855757Y-90134284D01*
X154076913Y-90193543D01*
X154305000Y-90213498D01*
X154533087Y-90193543D01*
X154754243Y-90134284D01*
X154961749Y-90037523D01*
X155149300Y-89906198D01*
X155311198Y-89744300D01*
X155442523Y-89556749D01*
X155539284Y-89349243D01*
X155598543Y-89128087D01*
X155618498Y-88900000D01*
X155598543Y-88671913D01*
X155539284Y-88450757D01*
X155467307Y-88296400D01*
X155442525Y-88243255D01*
X155442524Y-88243254D01*
X155442523Y-88243251D01*
X155311198Y-88055700D01*
X155149300Y-87893802D01*
X154961749Y-87762477D01*
X154961746Y-87762476D01*
X154961744Y-87762474D01*
X154754246Y-87665717D01*
X154754243Y-87665716D01*
X154564440Y-87614858D01*
X154533084Y-87606456D01*
X154305000Y-87586501D01*
X154076915Y-87606456D01*
X153855753Y-87665717D01*
X153648255Y-87762474D01*
X153460696Y-87893805D01*
X153298805Y-88055696D01*
X153298804Y-88055698D01*
X153298802Y-88055700D01*
X153167477Y-88243251D01*
X153167476Y-88243253D01*
X153167474Y-88243256D01*
X153142691Y-88296402D01*
X153096518Y-88348841D01*
X153029325Y-88367992D01*
X152962444Y-88347775D01*
X152917927Y-88296400D01*
X152895131Y-88247512D01*
X152844025Y-88174526D01*
X152162953Y-88855598D01*
X152150165Y-88774852D01*
X152092641Y-88661955D01*
X152003045Y-88572359D01*
X151890148Y-88514835D01*
X151809400Y-88502046D01*
X152490472Y-87820974D01*
X152490471Y-87820972D01*
X152417484Y-87769866D01*
X152211326Y-87673733D01*
X151991602Y-87614858D01*
X151764999Y-87595033D01*
X151538397Y-87614858D01*
X151318672Y-87673733D01*
X151112516Y-87769865D01*
X151039527Y-87820973D01*
X151039526Y-87820973D01*
X151720600Y-88502046D01*
X151639852Y-88514835D01*
X151526955Y-88572359D01*
X151437359Y-88661955D01*
X151379835Y-88774852D01*
X151367046Y-88855599D01*
X150685973Y-88174526D01*
X150685973Y-88174527D01*
X150634865Y-88247516D01*
X150538733Y-88453672D01*
X150479858Y-88673397D01*
X150460033Y-88900000D01*
X139041580Y-88900000D01*
X139084296Y-88802616D01*
X139139564Y-88584368D01*
X139158156Y-88360000D01*
X139139564Y-88135632D01*
X139084296Y-87917384D01*
X138993860Y-87711209D01*
X138870722Y-87522732D01*
X138718240Y-87357094D01*
X138540576Y-87218811D01*
X138342574Y-87111658D01*
X138342573Y-87111657D01*
X138342572Y-87111657D01*
X138129636Y-87038556D01*
X137907569Y-87001500D01*
X137682431Y-87001500D01*
X137460363Y-87038556D01*
X137247427Y-87111657D01*
X137049424Y-87218811D01*
X136871760Y-87357094D01*
X136719279Y-87522730D01*
X136596138Y-87711211D01*
X136514861Y-87896507D01*
X136505704Y-87917384D01*
X136455014Y-88117553D01*
X136450435Y-88135636D01*
X136431843Y-88360000D01*
X130477553Y-88360000D01*
X130412434Y-88151026D01*
X130283317Y-87864140D01*
X130120561Y-87594909D01*
X129926540Y-87347259D01*
X129704082Y-87124801D01*
X129456432Y-86930780D01*
X129321816Y-86849401D01*
X129190406Y-86769961D01*
X129190399Y-86769957D01*
X129187201Y-86768024D01*
X128900315Y-86638907D01*
X128896737Y-86637792D01*
X128603534Y-86546426D01*
X128603528Y-86546424D01*
X128599958Y-86545312D01*
X128596287Y-86544639D01*
X128596278Y-86544637D01*
X128294193Y-86489278D01*
X128294191Y-86489277D01*
X128290509Y-86488603D01*
X128286783Y-86488377D01*
X128286770Y-86488376D01*
X127980216Y-86469834D01*
X127976480Y-86469608D01*
X127972744Y-86469834D01*
X127666189Y-86488376D01*
X127666174Y-86488377D01*
X127662451Y-86488603D01*
X127658770Y-86489277D01*
X127658766Y-86489278D01*
X127356681Y-86544637D01*
X127356668Y-86544640D01*
X127353002Y-86545312D01*
X127349434Y-86546423D01*
X127349425Y-86546426D01*
X127056222Y-86637792D01*
X127056216Y-86637794D01*
X127052645Y-86638907D01*
X127049236Y-86640441D01*
X127049234Y-86640442D01*
X126769173Y-86766487D01*
X126769166Y-86766490D01*
X126765759Y-86768024D01*
X126762566Y-86769953D01*
X126762553Y-86769961D01*
X126528022Y-86911741D01*
X126496528Y-86930780D01*
X126493586Y-86933084D01*
X126493580Y-86933089D01*
X126334304Y-87057874D01*
X126248878Y-87124801D01*
X126246232Y-87127446D01*
X126246224Y-87127454D01*
X126029073Y-87344605D01*
X126029065Y-87344613D01*
X126026420Y-87347259D01*
X126024108Y-87350209D01*
X126024108Y-87350210D01*
X125834708Y-87591961D01*
X125834703Y-87591967D01*
X125832399Y-87594909D01*
X125830462Y-87598111D01*
X125830462Y-87598113D01*
X125671580Y-87860934D01*
X125671572Y-87860947D01*
X125669643Y-87864140D01*
X125668109Y-87867547D01*
X125668106Y-87867554D01*
X125583429Y-88055700D01*
X125540526Y-88151026D01*
X125539413Y-88154597D01*
X125539411Y-88154603D01*
X125448045Y-88447806D01*
X125448042Y-88447815D01*
X125446931Y-88451383D01*
X125446259Y-88455049D01*
X125446256Y-88455062D01*
X125406245Y-88673397D01*
X125390222Y-88760832D01*
X125389996Y-88764555D01*
X125389995Y-88764570D01*
X125375223Y-89008791D01*
X125371227Y-89074861D01*
X114645997Y-89074861D01*
X114645997Y-83280000D01*
X136431843Y-83280000D01*
X136450435Y-83504363D01*
X136450435Y-83504366D01*
X136450436Y-83504368D01*
X136498673Y-83694852D01*
X136505705Y-83722618D01*
X136596138Y-83928788D01*
X136596140Y-83928791D01*
X136719278Y-84117268D01*
X136871760Y-84282906D01*
X137049424Y-84421189D01*
X137247426Y-84528342D01*
X137460365Y-84601444D01*
X137682431Y-84638500D01*
X137907569Y-84638500D01*
X138129635Y-84601444D01*
X138342574Y-84528342D01*
X138540576Y-84421189D01*
X138718240Y-84282906D01*
X138870722Y-84117268D01*
X138993860Y-83928791D01*
X139084296Y-83722616D01*
X139139564Y-83504368D01*
X139158156Y-83280000D01*
X139139564Y-83055632D01*
X139084296Y-82837384D01*
X138993860Y-82631209D01*
X138870722Y-82442732D01*
X138718240Y-82277094D01*
X138540576Y-82138811D01*
X138342574Y-82031658D01*
X138342573Y-82031657D01*
X138342572Y-82031657D01*
X138129636Y-81958556D01*
X137907569Y-81921500D01*
X137682431Y-81921500D01*
X137460363Y-81958556D01*
X137247427Y-82031657D01*
X137049424Y-82138811D01*
X136871760Y-82277094D01*
X136719279Y-82442730D01*
X136596138Y-82631211D01*
X136505705Y-82837381D01*
X136450435Y-83055636D01*
X136431843Y-83280000D01*
X114645997Y-83280000D01*
X114645997Y-75893734D01*
X114665682Y-75826695D01*
X114718486Y-75780940D01*
X114769997Y-75769734D01*
X130104905Y-75769734D01*
X130171944Y-75789419D01*
G37*
G04 #@! TD.AperFunction*
G04 #@! TA.AperFunction,Conductor*
G36*
X179422873Y-116134628D02*
G01*
X179478810Y-116176495D01*
X179503233Y-116241957D01*
X179497935Y-116287704D01*
X179448045Y-116447806D01*
X179448042Y-116447815D01*
X179446931Y-116451383D01*
X179446259Y-116455049D01*
X179446256Y-116455062D01*
X179390897Y-116757147D01*
X179390222Y-116760832D01*
X179389996Y-116764555D01*
X179389995Y-116764570D01*
X179372808Y-117048722D01*
X179371227Y-117074861D01*
X179371453Y-117078597D01*
X179389995Y-117385151D01*
X179389996Y-117385164D01*
X179390222Y-117388890D01*
X179390896Y-117392572D01*
X179390897Y-117392574D01*
X179446256Y-117694659D01*
X179446258Y-117694668D01*
X179446931Y-117698339D01*
X179448043Y-117701909D01*
X179448045Y-117701915D01*
X179507313Y-117892113D01*
X179540526Y-117998696D01*
X179669643Y-118285582D01*
X179671576Y-118288780D01*
X179671580Y-118288787D01*
X179748898Y-118416686D01*
X179832399Y-118554813D01*
X180026420Y-118802463D01*
X180248878Y-119024921D01*
X180496528Y-119218942D01*
X180765759Y-119381698D01*
X181052645Y-119510815D01*
X181353002Y-119604410D01*
X181662451Y-119661119D01*
X181976480Y-119680114D01*
X182290509Y-119661119D01*
X182599958Y-119604410D01*
X182900315Y-119510815D01*
X183187201Y-119381698D01*
X183190410Y-119379757D01*
X183193724Y-119378019D01*
X183187786Y-119381373D01*
X183255226Y-119363464D01*
X183321730Y-119384887D01*
X183366096Y-119438863D01*
X183375999Y-119487420D01*
X183375999Y-119509999D01*
X183376000Y-119510000D01*
X184192314Y-119510000D01*
X184166507Y-119550156D01*
X184126000Y-119688111D01*
X184126000Y-119831889D01*
X184166507Y-119969844D01*
X184192314Y-120010000D01*
X183376001Y-120010000D01*
X183376001Y-120726930D01*
X183376088Y-120730230D01*
X183378567Y-120776923D01*
X183379605Y-120785383D01*
X183423237Y-121010986D01*
X183505880Y-121229976D01*
X183624340Y-121431841D01*
X183775213Y-121610786D01*
X183954158Y-121761659D01*
X184156025Y-121880120D01*
X184371631Y-121961486D01*
X184427403Y-122003573D01*
X184451567Y-122069131D01*
X184436452Y-122137346D01*
X184386857Y-122186561D01*
X184327850Y-122201500D01*
X182905757Y-122201500D01*
X182838718Y-122181815D01*
X182818076Y-122165181D01*
X181965332Y-121312437D01*
X181962140Y-121309124D01*
X181896438Y-121238314D01*
X181896437Y-121238313D01*
X181896436Y-121238312D01*
X181820937Y-121178103D01*
X181817368Y-121175146D01*
X181779025Y-121142150D01*
X181744161Y-121112147D01*
X181744159Y-121112145D01*
X181744157Y-121112144D01*
X181722083Y-121098273D01*
X181710745Y-121090229D01*
X181690373Y-121073983D01*
X181606748Y-121025702D01*
X181602777Y-121023309D01*
X181520998Y-120971925D01*
X181520996Y-120971924D01*
X181497105Y-120961500D01*
X181484696Y-120955236D01*
X181462124Y-120942204D01*
X181372222Y-120906919D01*
X181367940Y-120905145D01*
X181279427Y-120866528D01*
X181279425Y-120866527D01*
X181279424Y-120866527D01*
X181254246Y-120859780D01*
X181241048Y-120855437D01*
X181216780Y-120845913D01*
X181216779Y-120845912D01*
X181122607Y-120824418D01*
X181118116Y-120823304D01*
X181024840Y-120798311D01*
X180998941Y-120795393D01*
X180985239Y-120793065D01*
X180971597Y-120789951D01*
X180959823Y-120787264D01*
X180863513Y-120780046D01*
X180858898Y-120779613D01*
X180762937Y-120768801D01*
X180666431Y-120772413D01*
X180661794Y-120772500D01*
X176061478Y-120772500D01*
X176054702Y-120772315D01*
X175521990Y-120743161D01*
X175519501Y-120742999D01*
X175475116Y-120739673D01*
X175475101Y-120739672D01*
X175472800Y-120739500D01*
X175470482Y-120739500D01*
X175458475Y-120739500D01*
X175451699Y-120739315D01*
X175439712Y-120738659D01*
X175439711Y-120738658D01*
X175437391Y-120738532D01*
X175435086Y-120738578D01*
X175435064Y-120738578D01*
X175390540Y-120739475D01*
X175388045Y-120739500D01*
X173135206Y-120739500D01*
X173130569Y-120739413D01*
X173034060Y-120735801D01*
X172938096Y-120746613D01*
X172933482Y-120747046D01*
X172837174Y-120754264D01*
X172811764Y-120760064D01*
X172798057Y-120762393D01*
X172772158Y-120765311D01*
X172678889Y-120790302D01*
X172674391Y-120791418D01*
X172667180Y-120793064D01*
X172580220Y-120812913D01*
X172580216Y-120812914D01*
X172580214Y-120812915D01*
X172555945Y-120822438D01*
X172542753Y-120826779D01*
X172517573Y-120833527D01*
X172429054Y-120872147D01*
X172424773Y-120873921D01*
X172334873Y-120909205D01*
X172312299Y-120922237D01*
X172299895Y-120928499D01*
X172276003Y-120938924D01*
X172270783Y-120942204D01*
X172194237Y-120990300D01*
X172190268Y-120992691D01*
X172106619Y-121040987D01*
X172086237Y-121057240D01*
X172074908Y-121065279D01*
X172052838Y-121079147D01*
X171979626Y-121142150D01*
X171976058Y-121145106D01*
X171900562Y-121205313D01*
X171834870Y-121276111D01*
X171831654Y-121279449D01*
X170360398Y-122750705D01*
X170356111Y-122754793D01*
X170343506Y-122766247D01*
X170340745Y-122768756D01*
X170339167Y-122770421D01*
X170339149Y-122770439D01*
X170312955Y-122798084D01*
X170310629Y-122800473D01*
X170283669Y-122827434D01*
X170283644Y-122827460D01*
X170282025Y-122829080D01*
X170280526Y-122830821D01*
X170280522Y-122830826D01*
X170268484Y-122844814D01*
X170264513Y-122849211D01*
X169955073Y-123175800D01*
X169944688Y-123185568D01*
X169926807Y-123200546D01*
X169861050Y-123274927D01*
X169858165Y-123278078D01*
X169836829Y-123300598D01*
X169836811Y-123300617D01*
X169835232Y-123302285D01*
X169833779Y-123304067D01*
X169833767Y-123304082D01*
X169817614Y-123323907D01*
X169814390Y-123327705D01*
X169797480Y-123346834D01*
X169797458Y-123346860D01*
X169795940Y-123348578D01*
X169794560Y-123350396D01*
X169794526Y-123350438D01*
X169775792Y-123375125D01*
X169773152Y-123378483D01*
X169710435Y-123455466D01*
X169698555Y-123475554D01*
X169690605Y-123487386D01*
X169618464Y-123582456D01*
X169562259Y-123623962D01*
X169519684Y-123631500D01*
X166446196Y-123631500D01*
X166379157Y-123611815D01*
X166333402Y-123559011D01*
X166323458Y-123489853D01*
X166326421Y-123475407D01*
X166346923Y-123398892D01*
X166349229Y-123399510D01*
X166369197Y-123348448D01*
X166379592Y-123336640D01*
X171960414Y-117755819D01*
X172021738Y-117722334D01*
X172048096Y-117719500D01*
X177262411Y-117719500D01*
X177274552Y-117720095D01*
X177318092Y-117724380D01*
X177422323Y-117714104D01*
X177515015Y-117704975D01*
X177515768Y-117704915D01*
X177516941Y-117704541D01*
X177616401Y-117674361D01*
X177705268Y-117647403D01*
X177705852Y-117647237D01*
X177706667Y-117646789D01*
X177748442Y-117624456D01*
X177793721Y-117600249D01*
X177821656Y-117585316D01*
X177881004Y-117553595D01*
X177881007Y-117553591D01*
X177881058Y-117553565D01*
X177952662Y-117494785D01*
X177958109Y-117490315D01*
X178034568Y-117427568D01*
X178062330Y-117393738D01*
X178070481Y-117384743D01*
X179291862Y-116163140D01*
X179353181Y-116129650D01*
X179422873Y-116134628D01*
G37*
G04 #@! TD.AperFunction*
G04 #@! TA.AperFunction,Conductor*
G36*
X142699730Y-103644185D02*
G01*
X142720372Y-103660819D01*
X143436600Y-104377046D01*
X143355852Y-104389835D01*
X143242955Y-104447359D01*
X143153359Y-104536955D01*
X143095835Y-104649852D01*
X143083046Y-104730599D01*
X142401973Y-104049526D01*
X142401973Y-104049527D01*
X142350865Y-104122517D01*
X142328069Y-104171402D01*
X142281896Y-104223840D01*
X142214702Y-104242991D01*
X142147821Y-104222774D01*
X142103307Y-104171401D01*
X142078523Y-104118251D01*
X141947198Y-103930700D01*
X141852679Y-103836181D01*
X141819194Y-103774858D01*
X141824178Y-103705166D01*
X141866050Y-103649233D01*
X141931514Y-103624816D01*
X141940360Y-103624500D01*
X142632691Y-103624500D01*
X142699730Y-103644185D01*
G37*
G04 #@! TD.AperFunction*
G04 #@! TA.AperFunction,Conductor*
G36*
X145878514Y-103625097D02*
G01*
X145922000Y-103629380D01*
X145965485Y-103625097D01*
X145977640Y-103624500D01*
X147331691Y-103624500D01*
X147398730Y-103644185D01*
X147419372Y-103660819D01*
X148135600Y-104377046D01*
X148054852Y-104389835D01*
X147941955Y-104447359D01*
X147852359Y-104536955D01*
X147794835Y-104649852D01*
X147782046Y-104730599D01*
X147100973Y-104049526D01*
X147100973Y-104049527D01*
X147049865Y-104122516D01*
X146953733Y-104328672D01*
X146894858Y-104548397D01*
X146875033Y-104775000D01*
X146894858Y-105001602D01*
X146953733Y-105221326D01*
X147049866Y-105427484D01*
X147100972Y-105500471D01*
X147100974Y-105500472D01*
X147782046Y-104819399D01*
X147794835Y-104900148D01*
X147852359Y-105013045D01*
X147941955Y-105102641D01*
X148054852Y-105160165D01*
X148135599Y-105172953D01*
X147454526Y-105854025D01*
X147454526Y-105854026D01*
X147527515Y-105905133D01*
X147733673Y-106001266D01*
X147953397Y-106060141D01*
X147969156Y-106061520D01*
X148034226Y-106086970D01*
X148075206Y-106143560D01*
X148079087Y-106213321D01*
X148046034Y-106272729D01*
X142163824Y-112154940D01*
X142102501Y-112188425D01*
X142032809Y-112183441D01*
X141976876Y-112141569D01*
X141956877Y-112101194D01*
X141918309Y-111965639D01*
X141820543Y-111769299D01*
X141795825Y-111736567D01*
X141688363Y-111594264D01*
X141526275Y-111446502D01*
X141339791Y-111331036D01*
X141339790Y-111331035D01*
X141203214Y-111278125D01*
X141147815Y-111235554D01*
X141124224Y-111169787D01*
X141139935Y-111101707D01*
X141189959Y-111052928D01*
X141248010Y-111038500D01*
X141530328Y-111038500D01*
X141533638Y-111038500D01*
X141594201Y-111031989D01*
X141594203Y-111031988D01*
X141594205Y-111031988D01*
X141684800Y-110998197D01*
X141731204Y-110980889D01*
X141848261Y-110893261D01*
X141935889Y-110776204D01*
X141980822Y-110655735D01*
X141986988Y-110639205D01*
X141986988Y-110639203D01*
X141986989Y-110639201D01*
X141993500Y-110578638D01*
X141993500Y-110149095D01*
X142013185Y-110082056D01*
X142029819Y-110061414D01*
X143731415Y-108359819D01*
X143792738Y-108326334D01*
X143819096Y-108323500D01*
X144826497Y-108323500D01*
X144829547Y-108323500D01*
X144977701Y-108308908D01*
X145167804Y-108251241D01*
X145343004Y-108157595D01*
X145496568Y-108031568D01*
X145622595Y-107878004D01*
X145716241Y-107702804D01*
X145773908Y-107512701D01*
X145793380Y-107315000D01*
X145773908Y-107117299D01*
X145716241Y-106927196D01*
X145622595Y-106751996D01*
X145496568Y-106598432D01*
X145343004Y-106472405D01*
X145343003Y-106472404D01*
X145180378Y-106385480D01*
X145167804Y-106378759D01*
X144977701Y-106321092D01*
X144977698Y-106321091D01*
X144832581Y-106306798D01*
X144832564Y-106306797D01*
X144829547Y-106306500D01*
X144826497Y-106306500D01*
X143730056Y-106306500D01*
X143663017Y-106286815D01*
X143617262Y-106234011D01*
X143607318Y-106164853D01*
X143636343Y-106101297D01*
X143695121Y-106063523D01*
X143697962Y-106062725D01*
X143927326Y-106001266D01*
X144133480Y-105905134D01*
X144206472Y-105854025D01*
X143525401Y-105172953D01*
X143606148Y-105160165D01*
X143719045Y-105102641D01*
X143808641Y-105013045D01*
X143866165Y-104900148D01*
X143878953Y-104819399D01*
X144560025Y-105500472D01*
X144611134Y-105427480D01*
X144707266Y-105221326D01*
X144766141Y-105001602D01*
X144785966Y-104774999D01*
X144766141Y-104548397D01*
X144707266Y-104328673D01*
X144611133Y-104122515D01*
X144560025Y-104049526D01*
X143878953Y-104730597D01*
X143866165Y-104649852D01*
X143808641Y-104536955D01*
X143719045Y-104447359D01*
X143606148Y-104389835D01*
X143525400Y-104377046D01*
X144241627Y-103660819D01*
X144302950Y-103627334D01*
X144329308Y-103624500D01*
X145866360Y-103624500D01*
X145878514Y-103625097D01*
G37*
G04 #@! TD.AperFunction*
G04 #@! TA.AperFunction,Conductor*
G36*
X149787679Y-103644185D02*
G01*
X149833434Y-103696989D01*
X149843378Y-103766147D01*
X149814353Y-103829703D01*
X149808321Y-103836181D01*
X149713805Y-103930696D01*
X149713802Y-103930699D01*
X149713802Y-103930700D01*
X149582477Y-104118251D01*
X149582476Y-104118253D01*
X149582474Y-104118256D01*
X149557691Y-104171402D01*
X149511518Y-104223841D01*
X149444325Y-104242992D01*
X149377444Y-104222775D01*
X149332927Y-104171400D01*
X149310131Y-104122512D01*
X149259025Y-104049526D01*
X148577953Y-104730598D01*
X148565165Y-104649852D01*
X148507641Y-104536955D01*
X148418045Y-104447359D01*
X148305148Y-104389835D01*
X148224400Y-104377046D01*
X148940627Y-103660819D01*
X149001950Y-103627334D01*
X149028308Y-103624500D01*
X149720640Y-103624500D01*
X149787679Y-103644185D01*
G37*
G04 #@! TD.AperFunction*
G04 #@! TA.AperFunction,Conductor*
G36*
X152737679Y-103644185D02*
G01*
X152783434Y-103696989D01*
X152793378Y-103766147D01*
X152764353Y-103829703D01*
X152758321Y-103836181D01*
X152663805Y-103930696D01*
X152663802Y-103930699D01*
X152663802Y-103930700D01*
X152641935Y-103961929D01*
X152532474Y-104118255D01*
X152435717Y-104325753D01*
X152376456Y-104546915D01*
X152356501Y-104774999D01*
X152376456Y-105003084D01*
X152394218Y-105069373D01*
X152434934Y-105221326D01*
X152435717Y-105224246D01*
X152532474Y-105431744D01*
X152532475Y-105431745D01*
X152532477Y-105431749D01*
X152663802Y-105619300D01*
X152825700Y-105781198D01*
X153013251Y-105912523D01*
X153013254Y-105912524D01*
X153013255Y-105912525D01*
X153070992Y-105939448D01*
X153220757Y-106009284D01*
X153441913Y-106068543D01*
X153670000Y-106088498D01*
X153898087Y-106068543D01*
X154119243Y-106009284D01*
X154326749Y-105912523D01*
X154514300Y-105781198D01*
X154676198Y-105619300D01*
X154807523Y-105431749D01*
X154827617Y-105388655D01*
X154873790Y-105336215D01*
X154940983Y-105317063D01*
X155007864Y-105337278D01*
X155052382Y-105388655D01*
X155072477Y-105431749D01*
X155203802Y-105619300D01*
X155365700Y-105781198D01*
X155553251Y-105912523D01*
X155553254Y-105912524D01*
X155553255Y-105912525D01*
X155610992Y-105939448D01*
X155760757Y-106009284D01*
X155981913Y-106068543D01*
X156210000Y-106088498D01*
X156438087Y-106068543D01*
X156659243Y-106009284D01*
X156752424Y-105965832D01*
X156821499Y-105955341D01*
X156885283Y-105983860D01*
X156900680Y-105999550D01*
X156993431Y-106112567D01*
X157027213Y-106140291D01*
X157036230Y-106148464D01*
X157836535Y-106948769D01*
X157844706Y-106957784D01*
X157872432Y-106991568D01*
X158025635Y-107117299D01*
X158025996Y-107117595D01*
X158201196Y-107211241D01*
X158258864Y-107228735D01*
X158342208Y-107254017D01*
X158391300Y-107268909D01*
X158589000Y-107288380D01*
X158632488Y-107284096D01*
X158644642Y-107283500D01*
X165237500Y-107283500D01*
X165304539Y-107303185D01*
X165350294Y-107355989D01*
X165361500Y-107407500D01*
X165361500Y-108115903D01*
X165341815Y-108182942D01*
X165325181Y-108203584D01*
X162407944Y-111120820D01*
X162356258Y-111151800D01*
X162162580Y-111210551D01*
X161983040Y-111306517D01*
X161825669Y-111435669D01*
X161696517Y-111593040D01*
X161600551Y-111772580D01*
X161541453Y-111967400D01*
X161526798Y-112116191D01*
X161526797Y-112116207D01*
X161526500Y-112119225D01*
X161526500Y-112670775D01*
X161526797Y-112673793D01*
X161526798Y-112673808D01*
X161541453Y-112822601D01*
X161586894Y-112972401D01*
X161587517Y-113042267D01*
X161550268Y-113101380D01*
X161546900Y-113104246D01*
X161517435Y-113128428D01*
X161489707Y-113162214D01*
X161481536Y-113171228D01*
X156411663Y-118241101D01*
X156350340Y-118274586D01*
X156280648Y-118269602D01*
X156224715Y-118227730D01*
X156200298Y-118162266D01*
X156200454Y-118142612D01*
X156203307Y-118109999D01*
X156185741Y-117909213D01*
X156184115Y-117890629D01*
X156127120Y-117677924D01*
X156034056Y-117478347D01*
X155907749Y-117297962D01*
X155752038Y-117142251D01*
X155571654Y-117015944D01*
X155460924Y-116964310D01*
X155372077Y-116922880D01*
X155159368Y-116865884D01*
X154940000Y-116846692D01*
X154720631Y-116865884D01*
X154507922Y-116922880D01*
X154308349Y-117015943D01*
X154308347Y-117015944D01*
X154127962Y-117142251D01*
X154127958Y-117142254D01*
X153972254Y-117297958D01*
X153972251Y-117297961D01*
X153972251Y-117297962D01*
X153861224Y-117456526D01*
X153845943Y-117478349D01*
X153752880Y-117677922D01*
X153695884Y-117890631D01*
X153676692Y-118110000D01*
X153695884Y-118329368D01*
X153752880Y-118542077D01*
X153788958Y-118619446D01*
X153845944Y-118741654D01*
X153972251Y-118922038D01*
X154127962Y-119077749D01*
X154308346Y-119204056D01*
X154507924Y-119297120D01*
X154720629Y-119354115D01*
X154866876Y-119366909D01*
X154939999Y-119373307D01*
X154939999Y-119373306D01*
X154940000Y-119373307D01*
X154954476Y-119372040D01*
X154972612Y-119370454D01*
X155041112Y-119384220D01*
X155091295Y-119432835D01*
X155107229Y-119500864D01*
X155083854Y-119566708D01*
X155071101Y-119581663D01*
X154266228Y-120386536D01*
X154257214Y-120394707D01*
X154223430Y-120422433D01*
X154097404Y-120575996D01*
X154055986Y-120653485D01*
X154007024Y-120703330D01*
X153938886Y-120718790D01*
X153873206Y-120694958D01*
X153858947Y-120682713D01*
X152327464Y-119151230D01*
X152319291Y-119142213D01*
X152291567Y-119108431D01*
X152138003Y-118982404D01*
X151962502Y-118888597D01*
X151959875Y-118887870D01*
X151772703Y-118831091D01*
X151640900Y-118818110D01*
X151575000Y-118811620D01*
X151574999Y-118811620D01*
X151531512Y-118815903D01*
X151519358Y-118816500D01*
X149226730Y-118816500D01*
X149159691Y-118796815D01*
X149113936Y-118744011D01*
X149103992Y-118674853D01*
X149133017Y-118611297D01*
X149181934Y-118576873D01*
X149279791Y-118538964D01*
X149466273Y-118423499D01*
X149612690Y-118290023D01*
X149628363Y-118275735D01*
X149632705Y-118269985D01*
X149760543Y-118100701D01*
X149858309Y-117904361D01*
X149918332Y-117693399D01*
X149938570Y-117475000D01*
X149918332Y-117256601D01*
X149858309Y-117045639D01*
X149760543Y-116849299D01*
X149632705Y-116680014D01*
X149628363Y-116674264D01*
X149466275Y-116526502D01*
X149279791Y-116411036D01*
X149279791Y-116411035D01*
X149075268Y-116331803D01*
X149048974Y-116326887D01*
X148986696Y-116295221D01*
X148951423Y-116234909D01*
X148954357Y-116165101D01*
X148994566Y-116107960D01*
X149048974Y-116083112D01*
X149075268Y-116078197D01*
X149279791Y-115998964D01*
X149466273Y-115883499D01*
X149628364Y-115735734D01*
X149760543Y-115560701D01*
X149858309Y-115364361D01*
X149918332Y-115153399D01*
X149938570Y-114935000D01*
X149918332Y-114716601D01*
X149858309Y-114505639D01*
X149760543Y-114309299D01*
X149760543Y-114309298D01*
X149628363Y-114134264D01*
X149466275Y-113986502D01*
X149279791Y-113871036D01*
X149152541Y-113821739D01*
X149075268Y-113791803D01*
X149048974Y-113786887D01*
X148986696Y-113755221D01*
X148951423Y-113694909D01*
X148954357Y-113625101D01*
X148994566Y-113567960D01*
X149048974Y-113543112D01*
X149075268Y-113538197D01*
X149279791Y-113458964D01*
X149466273Y-113343499D01*
X149627020Y-113196959D01*
X149628363Y-113195735D01*
X149633058Y-113189518D01*
X156455000Y-113189518D01*
X156455354Y-113196132D01*
X156461400Y-113252371D01*
X156511647Y-113387089D01*
X156597811Y-113502188D01*
X156712910Y-113588352D01*
X156847628Y-113638599D01*
X156903867Y-113644645D01*
X156910482Y-113645000D01*
X157230000Y-113645000D01*
X157230000Y-112675617D01*
X157299052Y-112729363D01*
X157417424Y-112770000D01*
X157511073Y-112770000D01*
X157603446Y-112754586D01*
X157713514Y-112695019D01*
X157730000Y-112677110D01*
X157730000Y-113645000D01*
X158049518Y-113645000D01*
X158056132Y-113644645D01*
X158112371Y-113638599D01*
X158247089Y-113588352D01*
X158362188Y-113502188D01*
X158448352Y-113387089D01*
X158498599Y-113252371D01*
X158504645Y-113196132D01*
X158505000Y-113189518D01*
X158505000Y-112670775D01*
X158986500Y-112670775D01*
X158986797Y-112673793D01*
X158986798Y-112673808D01*
X159001453Y-112822599D01*
X159060551Y-113017419D01*
X159155862Y-113195734D01*
X159156518Y-113196960D01*
X159285669Y-113354331D01*
X159443040Y-113483482D01*
X159622583Y-113579450D01*
X159817399Y-113638546D01*
X160020000Y-113658501D01*
X160222601Y-113638546D01*
X160417417Y-113579450D01*
X160596960Y-113483482D01*
X160754331Y-113354331D01*
X160883482Y-113196960D01*
X160979450Y-113017417D01*
X161038546Y-112822601D01*
X161053500Y-112670775D01*
X161053500Y-112119225D01*
X161038546Y-111967399D01*
X160979450Y-111772583D01*
X160883482Y-111593040D01*
X160754331Y-111435669D01*
X160596960Y-111306518D01*
X160596959Y-111306517D01*
X160417419Y-111210551D01*
X160417418Y-111210550D01*
X160417417Y-111210550D01*
X160283038Y-111169787D01*
X160222599Y-111151453D01*
X160020000Y-111131499D01*
X159817400Y-111151453D01*
X159622580Y-111210551D01*
X159443040Y-111306517D01*
X159285669Y-111435669D01*
X159156517Y-111593040D01*
X159060551Y-111772580D01*
X159001453Y-111967400D01*
X158986798Y-112116191D01*
X158986797Y-112116207D01*
X158986500Y-112119225D01*
X158986500Y-112670775D01*
X158505000Y-112670775D01*
X158505000Y-112645000D01*
X157759560Y-112645000D01*
X157798278Y-112602941D01*
X157848551Y-112488330D01*
X157858886Y-112363605D01*
X157828163Y-112242281D01*
X157764606Y-112145000D01*
X158505000Y-112145000D01*
X158505000Y-111600481D01*
X158504645Y-111593867D01*
X158498599Y-111537628D01*
X158448352Y-111402910D01*
X158362188Y-111287811D01*
X158247089Y-111201647D01*
X158112371Y-111151400D01*
X158056132Y-111145354D01*
X158049518Y-111145000D01*
X157730000Y-111145000D01*
X157730000Y-112114382D01*
X157660948Y-112060637D01*
X157542576Y-112020000D01*
X157448927Y-112020000D01*
X157356554Y-112035414D01*
X157246486Y-112094981D01*
X157230000Y-112112889D01*
X157230000Y-111145000D01*
X156910482Y-111145000D01*
X156903867Y-111145354D01*
X156847628Y-111151400D01*
X156712910Y-111201647D01*
X156597811Y-111287811D01*
X156511647Y-111402910D01*
X156461400Y-111537628D01*
X156455354Y-111593867D01*
X156455000Y-111600481D01*
X156455000Y-112145000D01*
X157200440Y-112145000D01*
X157161722Y-112187059D01*
X157111449Y-112301670D01*
X157101114Y-112426395D01*
X157131837Y-112547719D01*
X157195394Y-112645000D01*
X156455000Y-112645000D01*
X156455000Y-113189518D01*
X149633058Y-113189518D01*
X149646870Y-113171228D01*
X149760543Y-113020701D01*
X149858309Y-112824361D01*
X149918332Y-112613399D01*
X149938570Y-112395000D01*
X149918332Y-112176601D01*
X149858309Y-111965639D01*
X149760543Y-111769299D01*
X149735825Y-111736567D01*
X149628363Y-111594264D01*
X149466275Y-111446502D01*
X149279791Y-111331036D01*
X149193049Y-111297432D01*
X149075268Y-111251803D01*
X149048974Y-111246887D01*
X148986696Y-111215221D01*
X148951423Y-111154909D01*
X148954357Y-111085101D01*
X148994566Y-111027960D01*
X149048974Y-111003112D01*
X149075268Y-110998197D01*
X149279791Y-110918964D01*
X149466273Y-110803499D01*
X149628364Y-110655734D01*
X149760543Y-110480701D01*
X149858309Y-110284361D01*
X149918332Y-110073399D01*
X149938570Y-109855000D01*
X149918332Y-109636601D01*
X149858309Y-109425639D01*
X149760543Y-109229299D01*
X149691373Y-109137703D01*
X149628363Y-109054264D01*
X149466275Y-108906502D01*
X149279791Y-108791036D01*
X149274014Y-108788798D01*
X149075268Y-108711803D01*
X148859667Y-108671500D01*
X148799095Y-108671500D01*
X148732056Y-108651815D01*
X148686301Y-108599011D01*
X148676357Y-108529853D01*
X148705382Y-108466297D01*
X148711414Y-108459819D01*
X149917216Y-107254017D01*
X151140118Y-106031114D01*
X151175389Y-106006418D01*
X151376749Y-105912523D01*
X151564300Y-105781198D01*
X151726198Y-105619300D01*
X151857523Y-105431749D01*
X151954284Y-105224243D01*
X152013543Y-105003087D01*
X152033498Y-104775000D01*
X152013543Y-104546913D01*
X151954284Y-104325757D01*
X151857523Y-104118251D01*
X151726198Y-103930700D01*
X151631679Y-103836181D01*
X151598194Y-103774858D01*
X151603178Y-103705166D01*
X151645050Y-103649233D01*
X151710514Y-103624816D01*
X151719360Y-103624500D01*
X152670640Y-103624500D01*
X152737679Y-103644185D01*
G37*
G04 #@! TD.AperFunction*
G04 #@! TA.AperFunction,Conductor*
G36*
X147484871Y-109788875D02*
G01*
X147540804Y-109830747D01*
X147565008Y-109893615D01*
X147581667Y-110073395D01*
X147581667Y-110073398D01*
X147581668Y-110073399D01*
X147639796Y-110277702D01*
X147641692Y-110284364D01*
X147739456Y-110480700D01*
X147871636Y-110655735D01*
X148033724Y-110803497D01*
X148033726Y-110803498D01*
X148033727Y-110803499D01*
X148220209Y-110918964D01*
X148424732Y-110998197D01*
X148451023Y-111003111D01*
X148513303Y-111034780D01*
X148548576Y-111095092D01*
X148545642Y-111164900D01*
X148505433Y-111222040D01*
X148451023Y-111246888D01*
X148424731Y-111251803D01*
X148424732Y-111251803D01*
X148220208Y-111331036D01*
X148033724Y-111446502D01*
X147871636Y-111594264D01*
X147739456Y-111769299D01*
X147641692Y-111965635D01*
X147581667Y-112176604D01*
X147561430Y-112395000D01*
X147581667Y-112613395D01*
X147581667Y-112613398D01*
X147581668Y-112613399D01*
X147641690Y-112824359D01*
X147641692Y-112824364D01*
X147739456Y-113020700D01*
X147871636Y-113195735D01*
X148033724Y-113343497D01*
X148033726Y-113343498D01*
X148033727Y-113343499D01*
X148220209Y-113458964D01*
X148424732Y-113538197D01*
X148451023Y-113543111D01*
X148513303Y-113574780D01*
X148548576Y-113635092D01*
X148545642Y-113704900D01*
X148505433Y-113762040D01*
X148451023Y-113786888D01*
X148424737Y-113791802D01*
X148424732Y-113791803D01*
X148220208Y-113871036D01*
X148033724Y-113986502D01*
X147871636Y-114134264D01*
X147739456Y-114309299D01*
X147641692Y-114505635D01*
X147581667Y-114716604D01*
X147561430Y-114934999D01*
X147581667Y-115153395D01*
X147581667Y-115153398D01*
X147581668Y-115153399D01*
X147640715Y-115360932D01*
X147641692Y-115364364D01*
X147739456Y-115560700D01*
X147871636Y-115735735D01*
X148033724Y-115883497D01*
X148033726Y-115883498D01*
X148033727Y-115883499D01*
X148220209Y-115998964D01*
X148424732Y-116078197D01*
X148451023Y-116083111D01*
X148513303Y-116114780D01*
X148548576Y-116175092D01*
X148545642Y-116244900D01*
X148505433Y-116302040D01*
X148451023Y-116326888D01*
X148427899Y-116331211D01*
X148424732Y-116331803D01*
X148220208Y-116411036D01*
X148033724Y-116526502D01*
X147871636Y-116674264D01*
X147739456Y-116849299D01*
X147641692Y-117045635D01*
X147581667Y-117256604D01*
X147561430Y-117475000D01*
X147581667Y-117693395D01*
X147581667Y-117693398D01*
X147581668Y-117693399D01*
X147640649Y-117900700D01*
X147641692Y-117904364D01*
X147739456Y-118100700D01*
X147871636Y-118275735D01*
X148033724Y-118423497D01*
X148033726Y-118423498D01*
X148033727Y-118423499D01*
X148220209Y-118538964D01*
X148318065Y-118576873D01*
X148373466Y-118619446D01*
X148397056Y-118685213D01*
X148381345Y-118753294D01*
X148331321Y-118802072D01*
X148273270Y-118816500D01*
X141684096Y-118816500D01*
X141617057Y-118796815D01*
X141596415Y-118780181D01*
X141453828Y-118637594D01*
X141420343Y-118576271D01*
X141425327Y-118506579D01*
X141467199Y-118450646D01*
X141476232Y-118444486D01*
X141521129Y-118416686D01*
X141682055Y-118269985D01*
X141813287Y-118096205D01*
X141910349Y-117901277D01*
X141969940Y-117691834D01*
X141971501Y-117675000D01*
X141185084Y-117675000D01*
X141219238Y-117607969D01*
X141240298Y-117475000D01*
X141219238Y-117342031D01*
X141185084Y-117275000D01*
X141971501Y-117275000D01*
X141969940Y-117258165D01*
X141910349Y-117048722D01*
X141813287Y-116853794D01*
X141682055Y-116680014D01*
X141521131Y-116533314D01*
X141335987Y-116418677D01*
X141132931Y-116340013D01*
X141085849Y-116331212D01*
X141023568Y-116299543D01*
X140988295Y-116239231D01*
X140991229Y-116169423D01*
X141031438Y-116112283D01*
X141085846Y-116087435D01*
X141135268Y-116078197D01*
X141339791Y-115998964D01*
X141526273Y-115883499D01*
X141688364Y-115735734D01*
X141820543Y-115560701D01*
X141918309Y-115364361D01*
X141953810Y-115239582D01*
X141985394Y-115185838D01*
X147353858Y-109817374D01*
X147415179Y-109783891D01*
X147484871Y-109788875D01*
G37*
G04 #@! TD.AperFunction*
G04 #@! TA.AperFunction,Conductor*
G36*
X143095835Y-104900148D02*
G01*
X143153359Y-105013045D01*
X143242955Y-105102641D01*
X143355852Y-105160165D01*
X143436599Y-105172953D01*
X142755526Y-105854025D01*
X142755526Y-105854026D01*
X142828515Y-105905133D01*
X143034673Y-106001266D01*
X143254397Y-106060141D01*
X143274991Y-106061943D01*
X143340061Y-106087394D01*
X143381041Y-106143983D01*
X143384920Y-106213745D01*
X143350468Y-106274530D01*
X143288622Y-106307040D01*
X143276342Y-106308874D01*
X143152301Y-106321091D01*
X143088931Y-106340314D01*
X142962196Y-106378759D01*
X142962192Y-106378760D01*
X142962192Y-106378761D01*
X142786996Y-106472404D01*
X142633433Y-106598430D01*
X142605707Y-106632214D01*
X142597536Y-106641228D01*
X140655181Y-108583584D01*
X140593858Y-108617069D01*
X140524166Y-108612085D01*
X140468233Y-108570213D01*
X140443816Y-108504749D01*
X140443500Y-108495903D01*
X140443500Y-106157954D01*
X140463185Y-106090915D01*
X140515989Y-106045160D01*
X140585147Y-106035216D01*
X140599593Y-106038178D01*
X140712913Y-106068543D01*
X140941000Y-106088498D01*
X141169087Y-106068543D01*
X141390243Y-106009284D01*
X141597749Y-105912523D01*
X141785300Y-105781198D01*
X141947198Y-105619300D01*
X142078523Y-105431749D01*
X142103308Y-105378596D01*
X142149476Y-105326160D01*
X142216669Y-105307007D01*
X142283551Y-105327221D01*
X142328070Y-105378597D01*
X142350867Y-105427485D01*
X142401972Y-105500471D01*
X142401974Y-105500472D01*
X143083046Y-104819399D01*
X143095835Y-104900148D01*
G37*
G04 #@! TD.AperFunction*
M02*
