G04 #@! TF.GenerationSoftware,KiCad,Pcbnew,7.0.2-0*
G04 #@! TF.CreationDate,2023-05-12T13:42:33-07:00*
G04 #@! TF.ProjectId,SWR Protector,53575220-5072-46f7-9465-63746f722e6b,v1.0*
G04 #@! TF.SameCoordinates,Original*
G04 #@! TF.FileFunction,Copper,L2,Bot*
G04 #@! TF.FilePolarity,Positive*
%FSLAX46Y46*%
G04 Gerber Fmt 4.6, Leading zero omitted, Abs format (unit mm)*
G04 Created by KiCad (PCBNEW 7.0.2-0) date 2023-05-12 13:42:33*
%MOMM*%
%LPD*%
G01*
G04 APERTURE LIST*
G04 Aperture macros list*
%AMRoundRect*
0 Rectangle with rounded corners*
0 $1 Rounding radius*
0 $2 $3 $4 $5 $6 $7 $8 $9 X,Y pos of 4 corners*
0 Add a 4 corners polygon primitive as box body*
4,1,4,$2,$3,$4,$5,$6,$7,$8,$9,$2,$3,0*
0 Add four circle primitives for the rounded corners*
1,1,$1+$1,$2,$3*
1,1,$1+$1,$4,$5*
1,1,$1+$1,$6,$7*
1,1,$1+$1,$8,$9*
0 Add four rect primitives between the rounded corners*
20,1,$1+$1,$2,$3,$4,$5,0*
20,1,$1+$1,$4,$5,$6,$7,0*
20,1,$1+$1,$6,$7,$8,$9,0*
20,1,$1+$1,$8,$9,$2,$3,0*%
G04 Aperture macros list end*
G04 #@! TA.AperFunction,ComponentPad*
%ADD10C,1.600000*%
G04 #@! TD*
G04 #@! TA.AperFunction,ComponentPad*
%ADD11O,1.600000X1.600000*%
G04 #@! TD*
G04 #@! TA.AperFunction,ComponentPad*
%ADD12C,1.700000*%
G04 #@! TD*
G04 #@! TA.AperFunction,ComponentPad*
%ADD13O,2.500000X1.600000*%
G04 #@! TD*
G04 #@! TA.AperFunction,ComponentPad*
%ADD14O,7.000000X3.500000*%
G04 #@! TD*
G04 #@! TA.AperFunction,ComponentPad*
%ADD15C,1.500000*%
G04 #@! TD*
G04 #@! TA.AperFunction,ComponentPad*
%ADD16C,1.440000*%
G04 #@! TD*
G04 #@! TA.AperFunction,ComponentPad*
%ADD17R,2.400000X2.400000*%
G04 #@! TD*
G04 #@! TA.AperFunction,ComponentPad*
%ADD18O,2.400000X2.400000*%
G04 #@! TD*
G04 #@! TA.AperFunction,ComponentPad*
%ADD19R,3.500000X3.500000*%
G04 #@! TD*
G04 #@! TA.AperFunction,ComponentPad*
%ADD20RoundRect,0.750000X0.750000X1.000000X-0.750000X1.000000X-0.750000X-1.000000X0.750000X-1.000000X0*%
G04 #@! TD*
G04 #@! TA.AperFunction,ComponentPad*
%ADD21RoundRect,0.875000X0.875000X0.875000X-0.875000X0.875000X-0.875000X-0.875000X0.875000X-0.875000X0*%
G04 #@! TD*
G04 #@! TA.AperFunction,ComponentPad*
%ADD22R,1.050000X1.500000*%
G04 #@! TD*
G04 #@! TA.AperFunction,ComponentPad*
%ADD23O,1.050000X1.500000*%
G04 #@! TD*
G04 #@! TA.AperFunction,ComponentPad*
%ADD24R,1.700000X1.700000*%
G04 #@! TD*
G04 #@! TA.AperFunction,ComponentPad*
%ADD25O,1.700000X1.700000*%
G04 #@! TD*
G04 #@! TA.AperFunction,ComponentPad*
%ADD26R,1.800000X1.800000*%
G04 #@! TD*
G04 #@! TA.AperFunction,ComponentPad*
%ADD27C,1.800000*%
G04 #@! TD*
G04 #@! TA.AperFunction,ComponentPad*
%ADD28R,1.350000X1.350000*%
G04 #@! TD*
G04 #@! TA.AperFunction,ComponentPad*
%ADD29C,1.350000*%
G04 #@! TD*
G04 #@! TA.AperFunction,ComponentPad*
%ADD30RoundRect,0.750000X-0.750000X-1.000000X0.750000X-1.000000X0.750000X1.000000X-0.750000X1.000000X0*%
G04 #@! TD*
G04 #@! TA.AperFunction,ComponentPad*
%ADD31RoundRect,0.875000X-0.875000X-0.875000X0.875000X-0.875000X0.875000X0.875000X-0.875000X0.875000X0*%
G04 #@! TD*
G04 #@! TA.AperFunction,ViaPad*
%ADD32C,0.800000*%
G04 #@! TD*
G04 #@! TA.AperFunction,Conductor*
%ADD33C,1.000000*%
G04 #@! TD*
G04 #@! TA.AperFunction,Conductor*
%ADD34C,2.500000*%
G04 #@! TD*
G04 APERTURE END LIST*
D10*
X188595000Y-83820000D03*
X193595000Y-83820000D03*
X156210000Y-104775000D03*
D11*
X153670000Y-104775000D03*
D10*
X180975000Y-78740000D03*
D11*
X183515000Y-78740000D03*
D10*
X151765000Y-88900000D03*
D11*
X154305000Y-88900000D03*
D10*
X141605000Y-126325000D03*
X141605000Y-121325000D03*
D12*
X170180000Y-78200000D03*
X160020000Y-88360000D03*
X170180000Y-83280000D03*
X160020000Y-83280000D03*
D13*
X182880000Y-102870000D03*
D14*
X187960000Y-97790000D03*
D13*
X182880000Y-100330000D03*
D14*
X187960000Y-107950000D03*
D15*
X154940000Y-123190000D03*
X160020000Y-123190000D03*
X162560000Y-123190000D03*
X165100000Y-123190000D03*
X165100000Y-118110000D03*
X162560000Y-118110000D03*
X160020000Y-118110000D03*
X154940000Y-118110000D03*
D12*
X147955000Y-78200000D03*
X137795000Y-88360000D03*
X147955000Y-83280000D03*
X137795000Y-83280000D03*
D10*
X148180000Y-104775000D03*
D11*
X150720000Y-104775000D03*
D16*
X137795000Y-114300000D03*
X135255000Y-114300000D03*
X132715000Y-114300000D03*
D17*
X175895000Y-87965000D03*
D18*
X175895000Y-91775000D03*
D17*
X154305000Y-99360000D03*
D18*
X154305000Y-95550000D03*
D19*
X181610000Y-125730000D03*
D20*
X187610000Y-125730000D03*
D21*
X184610000Y-121030000D03*
D10*
X187325000Y-91440000D03*
D11*
X187325000Y-88900000D03*
D22*
X158750000Y-112395000D03*
D23*
X160020000Y-112395000D03*
X161290000Y-112395000D03*
D24*
X175260000Y-110490000D03*
D25*
X175260000Y-113030000D03*
X175260000Y-115570000D03*
X175260000Y-118110000D03*
D10*
X159465000Y-104775000D03*
X164465000Y-104775000D03*
X136525000Y-104775000D03*
D11*
X139065000Y-104775000D03*
D26*
X192405000Y-91440000D03*
D27*
X192405000Y-88900000D03*
D13*
X127000000Y-102870000D03*
D14*
X121920000Y-107950000D03*
D13*
X127000000Y-105410000D03*
D14*
X121920000Y-97790000D03*
D10*
X181610000Y-83820000D03*
D11*
X184150000Y-83820000D03*
D10*
X142240000Y-104775000D03*
D11*
X144780000Y-104775000D03*
D28*
X140810000Y-109855000D03*
D29*
X140810000Y-112395000D03*
X140810000Y-114935000D03*
X140810000Y-117475000D03*
X148750000Y-117475000D03*
X148750000Y-114935000D03*
X148750000Y-112395000D03*
X148750000Y-109855000D03*
D22*
X121920000Y-114935000D03*
D23*
X120650000Y-114935000D03*
X119380000Y-114935000D03*
D17*
X192405000Y-78105000D03*
D18*
X188595000Y-78105000D03*
D10*
X132715000Y-118745000D03*
X137715000Y-118745000D03*
D19*
X128270000Y-124460000D03*
D30*
X122270000Y-124460000D03*
D31*
X125270000Y-129160000D03*
D32*
X194775000Y-125469234D03*
X194775000Y-120389234D03*
X194775000Y-115309234D03*
X194775000Y-110229234D03*
X194775000Y-105149234D03*
X194775000Y-100069234D03*
X194775000Y-94989234D03*
X194775000Y-89909234D03*
X194775000Y-79749234D03*
X189695000Y-120389234D03*
X189695000Y-115309234D03*
X189695000Y-105149234D03*
X189695000Y-94989234D03*
X184615000Y-125469234D03*
X184615000Y-115309234D03*
X184615000Y-105149234D03*
X184615000Y-94989234D03*
X184615000Y-89909234D03*
X179535000Y-120389234D03*
X179535000Y-115309234D03*
X179535000Y-84829234D03*
X174455000Y-120389234D03*
X174455000Y-105149234D03*
X174455000Y-94989234D03*
X174455000Y-84829234D03*
X169375000Y-120389234D03*
X169375000Y-110229234D03*
X169375000Y-100069234D03*
X169375000Y-89909234D03*
X164295000Y-115309234D03*
X164295000Y-100069234D03*
X164295000Y-94989234D03*
X164295000Y-84829234D03*
X164295000Y-79749234D03*
X159215000Y-100069234D03*
X159215000Y-94989234D03*
X159215000Y-79749234D03*
X154135000Y-115309234D03*
X154135000Y-110229234D03*
X154135000Y-84829234D03*
X154135000Y-79749234D03*
X149055000Y-120389234D03*
X149055000Y-100069234D03*
X149055000Y-94989234D03*
X149055000Y-89909234D03*
X143975000Y-120389234D03*
X143975000Y-100069234D03*
X143975000Y-94989234D03*
X143975000Y-89909234D03*
X143975000Y-84829234D03*
X143975000Y-79749234D03*
X138895000Y-100069234D03*
X138895000Y-94989234D03*
X138895000Y-79749234D03*
X133815000Y-110229234D03*
X133815000Y-105149234D03*
X133815000Y-100069234D03*
X133815000Y-94989234D03*
X128735000Y-120389234D03*
X128735000Y-110229234D03*
X128735000Y-100069234D03*
X128735000Y-84829234D03*
X128735000Y-79749234D03*
X123655000Y-105149234D03*
X123655000Y-94989234D03*
X123655000Y-89909234D03*
X123655000Y-84829234D03*
X123655000Y-79749234D03*
X118575000Y-125469234D03*
X118575000Y-105149234D03*
X118575000Y-94989234D03*
X118575000Y-89909234D03*
X118575000Y-84829234D03*
X118575000Y-79749234D03*
X179705000Y-94615000D03*
X178505000Y-90805000D03*
X178505000Y-94615000D03*
X166370000Y-107315000D03*
X144780000Y-107315000D03*
D33*
X151130000Y-104775000D02*
X140970000Y-114935000D01*
X140970000Y-114935000D02*
X140810000Y-114935000D01*
X179705000Y-94615000D02*
X179705000Y-88231486D01*
X179705000Y-88231486D02*
X184116486Y-83820000D01*
X184116486Y-83820000D02*
X184150000Y-83820000D01*
X175260000Y-110490000D02*
X164510000Y-121240000D01*
X178505000Y-94615000D02*
X178505000Y-90805000D01*
X137795000Y-116404544D02*
X140770456Y-119380000D01*
X156890000Y-121240000D02*
X154940000Y-123190000D01*
X164510000Y-121240000D02*
X156890000Y-121240000D01*
X142185000Y-116420000D02*
X148750000Y-109855000D01*
X137795000Y-106045000D02*
X136525000Y-104775000D01*
X141605000Y-119380000D02*
X142185000Y-118800000D01*
X140770456Y-119380000D02*
X141605000Y-119380000D01*
X137795000Y-114300000D02*
X137795000Y-116404544D01*
X142185000Y-118800000D02*
X142185000Y-116420000D01*
X137795000Y-114300000D02*
X137795000Y-106045000D01*
X166370000Y-107315000D02*
X161290000Y-112395000D01*
D34*
X179279344Y-123399344D02*
X181610000Y-125730000D01*
X160020000Y-123190000D02*
X160020000Y-124250660D01*
X161159340Y-125390000D02*
X171155000Y-125390000D01*
X171155000Y-125390000D02*
X173145656Y-123399344D01*
X160020000Y-124250660D02*
X161159340Y-125390000D01*
X173145656Y-123399344D02*
X179279344Y-123399344D01*
D33*
X157575000Y-83280000D02*
X177165000Y-102870000D01*
X147955000Y-83280000D02*
X157575000Y-83280000D01*
X177165000Y-102870000D02*
X182880000Y-102870000D01*
X144780000Y-107315000D02*
X143350000Y-107315000D01*
X143350000Y-107315000D02*
X140810000Y-109855000D01*
G04 #@! TA.AperFunction,Conductor*
G36*
X174418923Y-110141603D02*
G01*
X175256216Y-110487438D01*
X175262553Y-110493763D01*
X175262562Y-110493784D01*
X175608395Y-111331073D01*
X175608386Y-111340028D01*
X175604016Y-111345312D01*
X174170477Y-112289349D01*
X174161683Y-112291037D01*
X174155769Y-112287850D01*
X173462149Y-111594230D01*
X173458722Y-111585957D01*
X173460648Y-111579525D01*
X174404690Y-110145980D01*
X174412100Y-110140958D01*
X174418923Y-110141603D01*
G37*
G04 #@! TD.AperFunction*
G04 #@! TA.AperFunction,Conductor*
G36*
X131071944Y-75584685D02*
G01*
X131117699Y-75637489D01*
X131128905Y-75689000D01*
X131128905Y-78047932D01*
X131128905Y-78074861D01*
X131128905Y-78253917D01*
X131129242Y-78257127D01*
X131129243Y-78257138D01*
X131165999Y-78606848D01*
X131166000Y-78606860D01*
X131166338Y-78610067D01*
X131167011Y-78613237D01*
X131167012Y-78613238D01*
X131240118Y-78957182D01*
X131240121Y-78957196D01*
X131240793Y-78960354D01*
X131241793Y-78963433D01*
X131241794Y-78963435D01*
X131348623Y-79292221D01*
X131351456Y-79300938D01*
X131352770Y-79303891D01*
X131352775Y-79303902D01*
X131495790Y-79625120D01*
X131495795Y-79625130D01*
X131497113Y-79628090D01*
X131498736Y-79630901D01*
X131498739Y-79630907D01*
X131674543Y-79935409D01*
X131674549Y-79935419D01*
X131676169Y-79938224D01*
X131678080Y-79940854D01*
X131884754Y-80225318D01*
X131884762Y-80225327D01*
X131886662Y-80227943D01*
X132126286Y-80494072D01*
X132392415Y-80733696D01*
X132395032Y-80735597D01*
X132395039Y-80735603D01*
X132549208Y-80847613D01*
X132682134Y-80944189D01*
X132684943Y-80945810D01*
X132684948Y-80945814D01*
X132967203Y-81108774D01*
X132992268Y-81123245D01*
X133319420Y-81268902D01*
X133660004Y-81379565D01*
X134010291Y-81454020D01*
X134366441Y-81491453D01*
X134369683Y-81491453D01*
X134721311Y-81491453D01*
X134724553Y-81491453D01*
X135080703Y-81454020D01*
X135430990Y-81379565D01*
X135771574Y-81268902D01*
X136098726Y-81123245D01*
X136408860Y-80944189D01*
X136698579Y-80733696D01*
X136964708Y-80494072D01*
X137204332Y-80227943D01*
X137414825Y-79938224D01*
X137593881Y-79628090D01*
X137739538Y-79300938D01*
X137850201Y-78960354D01*
X137924656Y-78610067D01*
X137962089Y-78253917D01*
X137962089Y-78200000D01*
X146599842Y-78200000D01*
X146620430Y-78435318D01*
X146681569Y-78663492D01*
X146781400Y-78877580D01*
X146840073Y-78961373D01*
X147471923Y-78329523D01*
X147495507Y-78409844D01*
X147573239Y-78530798D01*
X147681900Y-78624952D01*
X147812685Y-78684680D01*
X147822466Y-78686086D01*
X147193625Y-79314925D01*
X147277420Y-79373599D01*
X147491507Y-79473430D01*
X147719681Y-79534569D01*
X147955000Y-79555157D01*
X148190318Y-79534569D01*
X148418492Y-79473430D01*
X148632576Y-79373600D01*
X148716373Y-79314925D01*
X148087533Y-78686086D01*
X148097315Y-78684680D01*
X148228100Y-78624952D01*
X148336761Y-78530798D01*
X148414493Y-78409844D01*
X148438076Y-78329524D01*
X149069925Y-78961373D01*
X149128600Y-78877576D01*
X149228430Y-78663492D01*
X149289569Y-78435318D01*
X149310157Y-78200000D01*
X168816843Y-78200000D01*
X168835435Y-78424363D01*
X168835435Y-78424366D01*
X168835436Y-78424368D01*
X168883673Y-78614852D01*
X168890705Y-78642618D01*
X168981138Y-78848788D01*
X168981140Y-78848791D01*
X169104278Y-79037268D01*
X169256760Y-79202906D01*
X169434424Y-79341189D01*
X169632426Y-79448342D01*
X169845365Y-79521444D01*
X170067431Y-79558500D01*
X170292569Y-79558500D01*
X170514635Y-79521444D01*
X170727574Y-79448342D01*
X170925576Y-79341189D01*
X171103240Y-79202906D01*
X171255722Y-79037268D01*
X171378860Y-78848791D01*
X171469296Y-78642616D01*
X171524564Y-78424368D01*
X171543156Y-78200000D01*
X171524564Y-77975632D01*
X171469296Y-77757384D01*
X171378860Y-77551209D01*
X171255722Y-77362732D01*
X171103240Y-77197094D01*
X170925576Y-77058811D01*
X170727574Y-76951658D01*
X170727573Y-76951657D01*
X170727572Y-76951657D01*
X170514636Y-76878556D01*
X170292569Y-76841500D01*
X170067431Y-76841500D01*
X169845363Y-76878556D01*
X169632427Y-76951657D01*
X169434424Y-77058811D01*
X169256760Y-77197094D01*
X169104279Y-77362730D01*
X168981138Y-77551211D01*
X168890705Y-77757381D01*
X168835435Y-77975636D01*
X168816843Y-78200000D01*
X149310157Y-78200000D01*
X149310157Y-78199999D01*
X149289569Y-77964681D01*
X149228430Y-77736507D01*
X149128599Y-77522421D01*
X149069926Y-77438626D01*
X149069925Y-77438625D01*
X148438076Y-78070475D01*
X148414493Y-77990156D01*
X148336761Y-77869202D01*
X148228100Y-77775048D01*
X148097315Y-77715320D01*
X148087533Y-77713913D01*
X148716373Y-77085073D01*
X148716373Y-77085072D01*
X148632580Y-77026400D01*
X148418492Y-76926569D01*
X148190318Y-76865430D01*
X147954999Y-76844842D01*
X147719681Y-76865430D01*
X147491507Y-76926569D01*
X147277422Y-77026399D01*
X147193625Y-77085072D01*
X147822466Y-77713913D01*
X147812685Y-77715320D01*
X147681900Y-77775048D01*
X147573239Y-77869202D01*
X147495507Y-77990156D01*
X147471923Y-78070475D01*
X146840073Y-77438625D01*
X146840072Y-77438625D01*
X146781399Y-77522422D01*
X146681569Y-77736507D01*
X146620430Y-77964681D01*
X146599842Y-78200000D01*
X137962089Y-78200000D01*
X137962089Y-78074861D01*
X137962089Y-78047932D01*
X137962089Y-75689000D01*
X137981774Y-75621961D01*
X138034578Y-75576206D01*
X138086089Y-75565000D01*
X171866871Y-75565000D01*
X171933910Y-75584685D01*
X171979665Y-75637489D01*
X171990871Y-75689000D01*
X171990871Y-78047932D01*
X171990871Y-78074861D01*
X171990871Y-78253917D01*
X171991208Y-78257127D01*
X171991209Y-78257138D01*
X172027965Y-78606848D01*
X172027966Y-78606860D01*
X172028304Y-78610067D01*
X172028977Y-78613237D01*
X172028978Y-78613238D01*
X172102084Y-78957182D01*
X172102087Y-78957196D01*
X172102759Y-78960354D01*
X172103759Y-78963433D01*
X172103760Y-78963435D01*
X172210589Y-79292221D01*
X172213422Y-79300938D01*
X172214736Y-79303891D01*
X172214741Y-79303902D01*
X172357756Y-79625120D01*
X172357761Y-79625130D01*
X172359079Y-79628090D01*
X172360702Y-79630901D01*
X172360705Y-79630907D01*
X172536509Y-79935409D01*
X172536515Y-79935419D01*
X172538135Y-79938224D01*
X172540046Y-79940854D01*
X172746720Y-80225318D01*
X172746728Y-80225327D01*
X172748628Y-80227943D01*
X172988252Y-80494072D01*
X173254381Y-80733696D01*
X173256998Y-80735597D01*
X173257005Y-80735603D01*
X173411174Y-80847613D01*
X173544100Y-80944189D01*
X173546909Y-80945810D01*
X173546914Y-80945814D01*
X173829169Y-81108774D01*
X173854234Y-81123245D01*
X174181386Y-81268902D01*
X174521970Y-81379565D01*
X174872257Y-81454020D01*
X175228407Y-81491453D01*
X175231649Y-81491453D01*
X175583277Y-81491453D01*
X175586519Y-81491453D01*
X175942669Y-81454020D01*
X176292956Y-81379565D01*
X176633540Y-81268902D01*
X176960692Y-81123245D01*
X177270826Y-80944189D01*
X177560545Y-80733696D01*
X177826674Y-80494072D01*
X178066298Y-80227943D01*
X178276791Y-79938224D01*
X178455847Y-79628090D01*
X178601504Y-79300938D01*
X178712167Y-78960354D01*
X178759004Y-78739999D01*
X179661501Y-78739999D01*
X179681456Y-78968084D01*
X179699994Y-79037268D01*
X179739934Y-79186326D01*
X179740717Y-79189246D01*
X179837474Y-79396744D01*
X179837476Y-79396746D01*
X179837477Y-79396749D01*
X179968802Y-79584300D01*
X180130700Y-79746198D01*
X180318251Y-79877523D01*
X180525757Y-79974284D01*
X180746913Y-80033543D01*
X180898970Y-80046846D01*
X180974999Y-80053498D01*
X180974999Y-80053497D01*
X180975000Y-80053498D01*
X181203087Y-80033543D01*
X181424243Y-79974284D01*
X181631749Y-79877523D01*
X181819300Y-79746198D01*
X181981198Y-79584300D01*
X182112523Y-79396749D01*
X182137308Y-79343596D01*
X182183476Y-79291160D01*
X182250669Y-79272007D01*
X182317551Y-79292221D01*
X182362070Y-79343597D01*
X182384866Y-79392482D01*
X182515341Y-79578819D01*
X182676180Y-79739658D01*
X182862519Y-79870134D01*
X183068673Y-79966266D01*
X183264999Y-80018871D01*
X183265000Y-80018871D01*
X183265000Y-79055686D01*
X183276955Y-79067641D01*
X183389852Y-79125165D01*
X183483519Y-79140000D01*
X183546481Y-79140000D01*
X183640148Y-79125165D01*
X183753045Y-79067641D01*
X183765000Y-79055685D01*
X183765000Y-80018871D01*
X183961326Y-79966266D01*
X184167480Y-79870134D01*
X184353819Y-79739658D01*
X184514658Y-79578819D01*
X184645134Y-79392480D01*
X184741266Y-79186326D01*
X184793872Y-78990000D01*
X183830686Y-78990000D01*
X183842641Y-78978045D01*
X183900165Y-78865148D01*
X183919986Y-78740000D01*
X183900165Y-78614852D01*
X183842641Y-78501955D01*
X183830686Y-78490000D01*
X184793872Y-78490000D01*
X184793871Y-78489999D01*
X184741266Y-78293673D01*
X184653286Y-78105000D01*
X186881708Y-78105000D01*
X186900844Y-78360350D01*
X186957826Y-78610003D01*
X187019097Y-78766118D01*
X187051378Y-78848369D01*
X187068241Y-78877576D01*
X187179412Y-79070130D01*
X187339069Y-79270334D01*
X187526778Y-79444503D01*
X187526781Y-79444505D01*
X187738355Y-79588754D01*
X187969065Y-79699858D01*
X188213757Y-79775335D01*
X188466966Y-79813500D01*
X188723034Y-79813500D01*
X188976243Y-79775335D01*
X189220935Y-79699858D01*
X189451646Y-79588754D01*
X189663219Y-79444505D01*
X189764718Y-79350328D01*
X190696499Y-79350328D01*
X190696500Y-79350346D01*
X190696500Y-79353638D01*
X190696852Y-79356918D01*
X190696853Y-79356924D01*
X190703011Y-79414205D01*
X190754110Y-79551203D01*
X190841738Y-79668261D01*
X190958796Y-79755889D01*
X191095794Y-79806988D01*
X191095797Y-79806988D01*
X191095799Y-79806989D01*
X191156362Y-79813500D01*
X191159672Y-79813500D01*
X193650328Y-79813500D01*
X193653638Y-79813500D01*
X193714201Y-79806989D01*
X193714203Y-79806988D01*
X193714205Y-79806988D01*
X193799070Y-79775334D01*
X193851204Y-79755889D01*
X193968261Y-79668261D01*
X194055889Y-79551204D01*
X194077924Y-79492124D01*
X194106988Y-79414205D01*
X194106988Y-79414203D01*
X194106989Y-79414201D01*
X194113500Y-79353638D01*
X194113500Y-76856362D01*
X194106989Y-76795799D01*
X194106988Y-76795797D01*
X194106988Y-76795794D01*
X194055889Y-76658796D01*
X193968261Y-76541738D01*
X193851203Y-76454110D01*
X193714205Y-76403011D01*
X193656924Y-76396853D01*
X193656918Y-76396852D01*
X193653638Y-76396500D01*
X191156362Y-76396500D01*
X191153082Y-76396852D01*
X191153075Y-76396853D01*
X191095794Y-76403011D01*
X190958796Y-76454110D01*
X190841738Y-76541738D01*
X190754110Y-76658796D01*
X190703011Y-76795794D01*
X190697738Y-76844842D01*
X190696500Y-76856362D01*
X190696500Y-76859652D01*
X190696499Y-76859671D01*
X190696499Y-79350328D01*
X189764718Y-79350328D01*
X189850931Y-79270334D01*
X190010587Y-79070131D01*
X190138622Y-78848369D01*
X190232174Y-78610001D01*
X190289155Y-78360353D01*
X190308291Y-78105000D01*
X190289155Y-77849647D01*
X190232174Y-77599999D01*
X190213025Y-77551209D01*
X190177671Y-77461126D01*
X190138622Y-77361631D01*
X190010587Y-77139869D01*
X189850931Y-76939666D01*
X189785070Y-76878556D01*
X189663221Y-76765496D01*
X189506721Y-76658796D01*
X189451646Y-76621246D01*
X189451643Y-76621245D01*
X189451641Y-76621243D01*
X189220935Y-76510142D01*
X188976244Y-76434665D01*
X188723034Y-76396500D01*
X188466966Y-76396500D01*
X188213755Y-76434665D01*
X187969066Y-76510141D01*
X187738361Y-76621243D01*
X187738355Y-76621246D01*
X187683758Y-76658469D01*
X187526778Y-76765496D01*
X187339069Y-76939665D01*
X187179412Y-77139869D01*
X187051377Y-77361632D01*
X186957826Y-77599996D01*
X186900844Y-77849649D01*
X186881708Y-78105000D01*
X184653286Y-78105000D01*
X184645134Y-78087519D01*
X184514658Y-77901180D01*
X184353819Y-77740341D01*
X184167480Y-77609865D01*
X183961326Y-77513733D01*
X183765000Y-77461126D01*
X183765000Y-78424314D01*
X183753045Y-78412359D01*
X183640148Y-78354835D01*
X183546481Y-78340000D01*
X183483519Y-78340000D01*
X183389852Y-78354835D01*
X183276955Y-78412359D01*
X183265000Y-78424313D01*
X183265000Y-77461127D01*
X183264999Y-77461126D01*
X183068673Y-77513733D01*
X182862519Y-77609865D01*
X182676180Y-77740341D01*
X182515341Y-77901180D01*
X182384864Y-78087520D01*
X182362069Y-78136403D01*
X182315896Y-78188841D01*
X182248702Y-78207992D01*
X182181821Y-78187775D01*
X182137307Y-78136401D01*
X182112523Y-78083251D01*
X181981198Y-77895700D01*
X181819300Y-77733802D01*
X181631749Y-77602477D01*
X181631746Y-77602476D01*
X181631744Y-77602474D01*
X181424246Y-77505717D01*
X181424243Y-77505716D01*
X181257832Y-77461126D01*
X181203084Y-77446456D01*
X180974999Y-77426501D01*
X180746915Y-77446456D01*
X180525753Y-77505717D01*
X180318255Y-77602474D01*
X180130696Y-77733805D01*
X179968805Y-77895696D01*
X179837474Y-78083255D01*
X179740717Y-78290753D01*
X179681456Y-78511915D01*
X179661501Y-78739999D01*
X178759004Y-78739999D01*
X178786622Y-78610067D01*
X178824055Y-78253917D01*
X178824055Y-78074861D01*
X178824055Y-78047932D01*
X178824055Y-78047931D01*
X178824055Y-75689000D01*
X178843740Y-75621961D01*
X178896544Y-75576206D01*
X178948055Y-75565000D01*
X195456000Y-75565000D01*
X195523039Y-75584685D01*
X195568794Y-75637489D01*
X195580000Y-75689000D01*
X195580000Y-130686000D01*
X195560315Y-130753039D01*
X195507511Y-130798794D01*
X195456000Y-130810000D01*
X178948055Y-130810000D01*
X178881016Y-130790315D01*
X178835261Y-130737511D01*
X178824055Y-130686000D01*
X178824055Y-127899046D01*
X178824055Y-127895805D01*
X178786622Y-127539655D01*
X178712167Y-127189368D01*
X178601504Y-126848784D01*
X178543498Y-126718500D01*
X178457169Y-126524601D01*
X178457168Y-126524599D01*
X178455847Y-126521632D01*
X178395467Y-126417050D01*
X178278416Y-126214312D01*
X178278412Y-126214307D01*
X178276791Y-126211498D01*
X178108598Y-125980000D01*
X178068205Y-125924403D01*
X178068199Y-125924396D01*
X178066298Y-125921779D01*
X177826674Y-125655650D01*
X177767440Y-125602315D01*
X177562954Y-125418195D01*
X177562953Y-125418194D01*
X177560545Y-125416026D01*
X177557929Y-125414126D01*
X177557920Y-125414118D01*
X177513935Y-125382162D01*
X177471269Y-125326832D01*
X177465290Y-125257219D01*
X177497895Y-125195424D01*
X177558734Y-125161067D01*
X177586820Y-125157844D01*
X178499587Y-125157844D01*
X178566626Y-125177529D01*
X178587268Y-125194163D01*
X179315181Y-125922075D01*
X179348666Y-125983398D01*
X179351500Y-126009756D01*
X179351500Y-127528638D01*
X179351852Y-127531918D01*
X179351853Y-127531924D01*
X179358011Y-127589205D01*
X179409110Y-127726203D01*
X179496738Y-127843261D01*
X179613796Y-127930889D01*
X179750794Y-127981988D01*
X179750797Y-127981988D01*
X179750799Y-127981989D01*
X179811362Y-127988500D01*
X179814672Y-127988500D01*
X183405328Y-127988500D01*
X183408638Y-127988500D01*
X183469201Y-127981989D01*
X183469203Y-127981988D01*
X183469205Y-127981988D01*
X183547124Y-127952924D01*
X183606204Y-127930889D01*
X183723261Y-127843261D01*
X183810889Y-127726204D01*
X183861989Y-127589201D01*
X183868500Y-127528638D01*
X183868500Y-125479999D01*
X185609999Y-125479999D01*
X185610000Y-125480000D01*
X187110000Y-125480000D01*
X187110000Y-125980000D01*
X185610001Y-125980000D01*
X185610001Y-126791744D01*
X185610192Y-126796625D01*
X185620400Y-126926331D01*
X185675377Y-127144518D01*
X185768430Y-127349379D01*
X185896565Y-127534332D01*
X186055667Y-127693434D01*
X186240620Y-127821569D01*
X186445481Y-127914622D01*
X186663668Y-127969599D01*
X186793374Y-127979808D01*
X186798254Y-127979999D01*
X187359999Y-127979999D01*
X187360000Y-127979998D01*
X187360000Y-127163686D01*
X187400156Y-127189493D01*
X187538111Y-127230000D01*
X187681889Y-127230000D01*
X187819844Y-127189493D01*
X187860000Y-127163686D01*
X187860000Y-127979999D01*
X188421744Y-127979999D01*
X188426625Y-127979807D01*
X188556331Y-127969599D01*
X188774518Y-127914622D01*
X188979379Y-127821569D01*
X189164332Y-127693434D01*
X189323434Y-127534332D01*
X189451569Y-127349379D01*
X189544622Y-127144518D01*
X189599599Y-126926331D01*
X189609808Y-126796625D01*
X189610000Y-126791745D01*
X189610000Y-125980000D01*
X188110000Y-125980000D01*
X188110000Y-125480000D01*
X189609999Y-125480000D01*
X189609999Y-124668255D01*
X189609807Y-124663374D01*
X189599599Y-124533668D01*
X189544622Y-124315481D01*
X189451569Y-124110620D01*
X189323434Y-123925667D01*
X189164332Y-123766565D01*
X188979379Y-123638430D01*
X188774518Y-123545377D01*
X188556331Y-123490400D01*
X188426625Y-123480191D01*
X188421746Y-123480000D01*
X187860000Y-123480000D01*
X187860000Y-124296313D01*
X187819844Y-124270507D01*
X187681889Y-124230000D01*
X187538111Y-124230000D01*
X187400156Y-124270507D01*
X187360000Y-124296313D01*
X187360000Y-123480000D01*
X186798255Y-123480000D01*
X186793374Y-123480192D01*
X186663668Y-123490400D01*
X186445481Y-123545377D01*
X186240620Y-123638430D01*
X186055667Y-123766565D01*
X185896565Y-123925667D01*
X185768430Y-124110620D01*
X185675377Y-124315481D01*
X185620400Y-124533668D01*
X185610191Y-124663374D01*
X185610000Y-124668254D01*
X185609999Y-125479999D01*
X183868500Y-125479999D01*
X183868500Y-123931362D01*
X183861989Y-123870799D01*
X183861988Y-123870797D01*
X183861988Y-123870794D01*
X183810889Y-123733796D01*
X183723261Y-123616738D01*
X183606204Y-123529111D01*
X183580180Y-123519404D01*
X183524247Y-123477531D01*
X183499832Y-123412066D01*
X183514685Y-123343794D01*
X183564091Y-123294390D01*
X183630101Y-123279398D01*
X183639782Y-123279912D01*
X183643057Y-123279999D01*
X184359999Y-123279999D01*
X184360000Y-123279998D01*
X184360000Y-121530000D01*
X184860000Y-121530000D01*
X184860000Y-123279999D01*
X185576931Y-123279999D01*
X185580230Y-123279911D01*
X185626923Y-123277432D01*
X185635383Y-123276394D01*
X185860986Y-123232762D01*
X186079976Y-123150119D01*
X186281841Y-123031659D01*
X186460786Y-122880786D01*
X186611659Y-122701841D01*
X186730119Y-122499976D01*
X186812762Y-122280986D01*
X186856392Y-122055391D01*
X186857433Y-122046908D01*
X186859912Y-122000237D01*
X186860000Y-121996942D01*
X186860000Y-121280000D01*
X186043686Y-121280000D01*
X186069493Y-121239844D01*
X186110000Y-121101889D01*
X186110000Y-120958111D01*
X186069493Y-120820156D01*
X186043686Y-120780000D01*
X186859999Y-120780000D01*
X186859999Y-120063069D01*
X186859911Y-120059769D01*
X186857432Y-120013076D01*
X186856394Y-120004616D01*
X186812762Y-119779013D01*
X186730119Y-119560023D01*
X186611659Y-119358158D01*
X186460786Y-119179213D01*
X186281841Y-119028340D01*
X186079976Y-118909880D01*
X185860986Y-118827237D01*
X185635391Y-118783607D01*
X185626908Y-118782566D01*
X185580237Y-118780087D01*
X185576943Y-118780000D01*
X184860000Y-118780000D01*
X184860000Y-120530000D01*
X184360000Y-120530000D01*
X184360000Y-118780000D01*
X183643069Y-118780000D01*
X183639769Y-118780088D01*
X183593076Y-118782567D01*
X183584616Y-118783605D01*
X183359013Y-118827237D01*
X183140023Y-118909880D01*
X182938158Y-119028340D01*
X182759213Y-119179213D01*
X182608340Y-119358158D01*
X182489880Y-119560023D01*
X182407237Y-119779013D01*
X182363607Y-120004608D01*
X182362566Y-120013091D01*
X182360087Y-120059762D01*
X182360000Y-120063057D01*
X182360000Y-120780000D01*
X183176314Y-120780000D01*
X183150507Y-120820156D01*
X183110000Y-120958111D01*
X183110000Y-121101889D01*
X183150507Y-121239844D01*
X183176314Y-121280000D01*
X182360001Y-121280000D01*
X182360001Y-121996930D01*
X182360088Y-122000230D01*
X182362567Y-122046923D01*
X182363605Y-122055383D01*
X182407237Y-122280986D01*
X182489880Y-122499976D01*
X182608340Y-122701841D01*
X182759213Y-122880786D01*
X182938158Y-123031659D01*
X183140025Y-123150120D01*
X183355631Y-123231486D01*
X183411403Y-123273573D01*
X183435567Y-123339131D01*
X183420452Y-123407346D01*
X183370857Y-123456561D01*
X183311850Y-123471500D01*
X181889757Y-123471500D01*
X181822718Y-123451815D01*
X181802076Y-123435181D01*
X180547676Y-122180781D01*
X180544484Y-122177468D01*
X180478782Y-122106658D01*
X180478781Y-122106657D01*
X180478780Y-122106656D01*
X180403281Y-122046447D01*
X180399712Y-122043490D01*
X180364714Y-122013372D01*
X180326505Y-121980491D01*
X180326503Y-121980489D01*
X180326501Y-121980488D01*
X180304427Y-121966617D01*
X180293089Y-121958573D01*
X180277691Y-121946294D01*
X180272720Y-121942329D01*
X180272717Y-121942327D01*
X180189092Y-121894046D01*
X180185121Y-121891653D01*
X180103342Y-121840269D01*
X180103340Y-121840268D01*
X180079449Y-121829844D01*
X180067040Y-121823580D01*
X180044468Y-121810548D01*
X179954566Y-121775263D01*
X179950284Y-121773489D01*
X179861771Y-121734872D01*
X179861769Y-121734871D01*
X179861768Y-121734871D01*
X179836590Y-121728124D01*
X179823392Y-121723781D01*
X179799124Y-121714257D01*
X179781196Y-121710165D01*
X179704947Y-121692761D01*
X179700460Y-121691648D01*
X179607184Y-121666655D01*
X179581285Y-121663737D01*
X179567583Y-121661409D01*
X179553941Y-121658295D01*
X179542167Y-121655608D01*
X179445857Y-121648390D01*
X179441242Y-121647957D01*
X179345281Y-121637145D01*
X179248775Y-121640757D01*
X179244138Y-121640844D01*
X173180862Y-121640844D01*
X173176225Y-121640757D01*
X173079718Y-121637145D01*
X172983755Y-121647957D01*
X172979141Y-121648390D01*
X172882827Y-121655608D01*
X172857410Y-121661409D01*
X172843711Y-121663737D01*
X172817812Y-121666655D01*
X172724543Y-121691646D01*
X172720046Y-121692761D01*
X172625876Y-121714256D01*
X172601601Y-121723782D01*
X172588409Y-121728123D01*
X172563229Y-121734871D01*
X172474705Y-121773493D01*
X172470424Y-121775267D01*
X172380527Y-121810549D01*
X172357964Y-121823576D01*
X172345559Y-121829839D01*
X172321656Y-121840268D01*
X172239877Y-121891653D01*
X172235907Y-121894046D01*
X172152274Y-121942332D01*
X172131909Y-121958573D01*
X172120572Y-121966618D01*
X172098495Y-121980490D01*
X172025278Y-122043497D01*
X172021710Y-122046453D01*
X171946218Y-122106657D01*
X171880514Y-122177468D01*
X171877298Y-122180806D01*
X170462924Y-123595181D01*
X170401601Y-123628666D01*
X170375243Y-123631500D01*
X166446196Y-123631500D01*
X166379157Y-123611815D01*
X166333402Y-123559011D01*
X166323458Y-123489853D01*
X166326421Y-123475406D01*
X166337199Y-123435181D01*
X166344115Y-123409371D01*
X166363307Y-123190000D01*
X166344115Y-122970629D01*
X166287120Y-122757924D01*
X166194056Y-122558347D01*
X166067749Y-122377962D01*
X165912038Y-122222251D01*
X165731654Y-122095944D01*
X165625519Y-122046453D01*
X165532077Y-122002880D01*
X165456615Y-121982660D01*
X165396955Y-121946294D01*
X165366426Y-121883447D01*
X165374721Y-121814072D01*
X165401025Y-121775207D01*
X173762423Y-113413809D01*
X173823744Y-113380326D01*
X173893436Y-113385310D01*
X173949369Y-113427182D01*
X173966566Y-113463211D01*
X173966577Y-113463207D01*
X173966725Y-113463545D01*
X173970306Y-113471047D01*
X173970702Y-113472612D01*
X174061138Y-113678788D01*
X174064154Y-113683404D01*
X174184278Y-113867268D01*
X174336760Y-114032906D01*
X174514424Y-114171189D01*
X174550930Y-114190945D01*
X174600520Y-114240162D01*
X174615630Y-114308379D01*
X174591459Y-114373935D01*
X174550933Y-114409052D01*
X174514427Y-114428809D01*
X174514425Y-114428810D01*
X174514424Y-114428811D01*
X174386701Y-114528223D01*
X174336760Y-114567094D01*
X174184279Y-114732730D01*
X174061138Y-114921211D01*
X173985926Y-115092681D01*
X173970704Y-115127384D01*
X173943447Y-115235019D01*
X173915435Y-115345636D01*
X173896843Y-115570000D01*
X173915435Y-115794363D01*
X173915435Y-115794366D01*
X173915436Y-115794368D01*
X173960328Y-115971643D01*
X173970705Y-116012618D01*
X174061138Y-116218788D01*
X174061140Y-116218791D01*
X174184278Y-116407268D01*
X174336760Y-116572906D01*
X174514424Y-116711189D01*
X174557697Y-116734607D01*
X174607287Y-116783825D01*
X174622395Y-116852042D01*
X174598225Y-116917598D01*
X174569803Y-116945236D01*
X174388918Y-117071893D01*
X174221890Y-117238921D01*
X174086400Y-117432421D01*
X173986569Y-117646507D01*
X173929364Y-117859999D01*
X173929364Y-117860000D01*
X174826314Y-117860000D01*
X174800507Y-117900156D01*
X174760000Y-118038111D01*
X174760000Y-118181889D01*
X174800507Y-118319844D01*
X174826314Y-118360000D01*
X173929364Y-118360000D01*
X173986569Y-118573492D01*
X174086399Y-118787576D01*
X174221893Y-118981081D01*
X174388918Y-119148106D01*
X174582423Y-119283600D01*
X174796509Y-119383430D01*
X175010000Y-119440634D01*
X175010000Y-118545501D01*
X175117685Y-118594680D01*
X175224237Y-118610000D01*
X175295763Y-118610000D01*
X175402315Y-118594680D01*
X175510000Y-118545501D01*
X175510000Y-119440633D01*
X175723490Y-119383430D01*
X175937576Y-119283600D01*
X176131081Y-119148106D01*
X176298106Y-118981081D01*
X176433600Y-118787576D01*
X176533430Y-118573492D01*
X176590636Y-118360000D01*
X175693686Y-118360000D01*
X175719493Y-118319844D01*
X175760000Y-118181889D01*
X175760000Y-118038111D01*
X175719493Y-117900156D01*
X175693686Y-117860000D01*
X176590636Y-117860000D01*
X176590635Y-117859999D01*
X176533430Y-117646507D01*
X176433599Y-117432421D01*
X176298109Y-117238921D01*
X176134048Y-117074860D01*
X180271211Y-117074860D01*
X180290257Y-117329015D01*
X180346972Y-117577498D01*
X180440088Y-117814752D01*
X180567518Y-118035468D01*
X180567521Y-118035473D01*
X180726430Y-118234738D01*
X180913263Y-118408093D01*
X181123846Y-118551666D01*
X181353476Y-118662250D01*
X181597022Y-118737374D01*
X181849045Y-118775361D01*
X182103915Y-118775361D01*
X182355938Y-118737374D01*
X182599484Y-118662250D01*
X182829114Y-118551666D01*
X183039697Y-118408093D01*
X183226530Y-118234738D01*
X183385439Y-118035473D01*
X183512873Y-117814749D01*
X183605988Y-117577498D01*
X183662702Y-117329018D01*
X183681748Y-117074861D01*
X183681149Y-117066874D01*
X183664845Y-116849299D01*
X183662702Y-116820704D01*
X183605988Y-116572224D01*
X183512873Y-116334973D01*
X183489922Y-116295221D01*
X183445794Y-116218788D01*
X183385439Y-116114249D01*
X183226530Y-115914984D01*
X183039697Y-115741629D01*
X182829114Y-115598056D01*
X182599484Y-115487472D01*
X182355938Y-115412348D01*
X182103915Y-115374361D01*
X181849045Y-115374361D01*
X181597022Y-115412348D01*
X181353476Y-115487472D01*
X181201417Y-115560700D01*
X181123846Y-115598056D01*
X181089834Y-115621245D01*
X180913261Y-115741630D01*
X180812296Y-115835312D01*
X180726430Y-115914984D01*
X180572537Y-116107960D01*
X180567518Y-116114253D01*
X180440088Y-116334969D01*
X180346972Y-116572223D01*
X180290257Y-116820706D01*
X180271211Y-117074860D01*
X176134048Y-117074860D01*
X176131081Y-117071893D01*
X175950197Y-116945236D01*
X175906572Y-116890659D01*
X175899380Y-116821160D01*
X175930902Y-116758806D01*
X175962301Y-116734607D01*
X176005576Y-116711189D01*
X176183240Y-116572906D01*
X176335722Y-116407268D01*
X176458860Y-116218791D01*
X176549296Y-116012616D01*
X176604564Y-115794368D01*
X176623156Y-115570000D01*
X176604564Y-115345632D01*
X176549296Y-115127384D01*
X176458860Y-114921209D01*
X176335722Y-114732732D01*
X176183240Y-114567094D01*
X176005576Y-114428811D01*
X176005575Y-114428810D01*
X175969067Y-114409053D01*
X175919477Y-114359833D01*
X175904370Y-114291616D01*
X175928541Y-114226061D01*
X175969066Y-114190946D01*
X176005576Y-114171189D01*
X176183240Y-114032906D01*
X176335722Y-113867268D01*
X176458860Y-113678791D01*
X176549296Y-113472616D01*
X176604564Y-113254368D01*
X176623156Y-113030000D01*
X176604564Y-112805632D01*
X176549296Y-112587384D01*
X176458860Y-112381209D01*
X176335722Y-112192732D01*
X176335721Y-112192731D01*
X176335718Y-112192726D01*
X176190510Y-112034990D01*
X176159587Y-111972336D01*
X176167447Y-111902910D01*
X176211594Y-111848754D01*
X176238396Y-111834829D01*
X176356204Y-111790889D01*
X176473261Y-111703261D01*
X176560889Y-111586204D01*
X176611989Y-111449201D01*
X176618500Y-111388638D01*
X176618500Y-109591362D01*
X176611989Y-109530799D01*
X176611988Y-109530797D01*
X176611988Y-109530794D01*
X176560889Y-109393796D01*
X176473261Y-109276738D01*
X176356203Y-109189110D01*
X176219205Y-109138011D01*
X176161924Y-109131853D01*
X176161918Y-109131852D01*
X176158638Y-109131500D01*
X174361362Y-109131500D01*
X174358082Y-109131852D01*
X174358075Y-109131853D01*
X174300794Y-109138011D01*
X174163796Y-109189110D01*
X174046738Y-109276738D01*
X173959110Y-109393796D01*
X173908011Y-109530794D01*
X173901853Y-109588075D01*
X173901500Y-109591362D01*
X173901500Y-109594670D01*
X173901500Y-109594671D01*
X173901500Y-109939268D01*
X173881815Y-110006307D01*
X173881061Y-110007467D01*
X173048621Y-111271541D01*
X173032741Y-111291023D01*
X166507855Y-117815909D01*
X166446532Y-117849394D01*
X166376840Y-117844410D01*
X166320907Y-117802538D01*
X166300399Y-117760321D01*
X166279102Y-117680842D01*
X166186667Y-117482615D01*
X166143123Y-117420428D01*
X165583076Y-117980475D01*
X165559493Y-117900156D01*
X165481761Y-117779202D01*
X165373100Y-117685048D01*
X165242315Y-117625320D01*
X165232534Y-117623913D01*
X165789572Y-117066875D01*
X165789571Y-117066873D01*
X165727386Y-117023331D01*
X165529161Y-116930898D01*
X165317886Y-116874287D01*
X165100000Y-116855224D01*
X164882113Y-116874287D01*
X164670840Y-116930897D01*
X164472611Y-117023333D01*
X164410428Y-117066874D01*
X164410427Y-117066875D01*
X164967466Y-117623913D01*
X164957685Y-117625320D01*
X164826900Y-117685048D01*
X164718239Y-117779202D01*
X164640507Y-117900156D01*
X164616923Y-117980475D01*
X164056875Y-117420427D01*
X164056874Y-117420428D01*
X164013333Y-117482611D01*
X163947071Y-117624712D01*
X163900899Y-117677151D01*
X163833705Y-117696303D01*
X163766824Y-117676087D01*
X163722307Y-117624712D01*
X163714269Y-117607474D01*
X163654056Y-117478347D01*
X163527749Y-117297962D01*
X163372038Y-117142251D01*
X163191654Y-117015944D01*
X163087868Y-116967548D01*
X162992077Y-116922880D01*
X162779368Y-116865884D01*
X162560000Y-116846692D01*
X162340631Y-116865884D01*
X162127922Y-116922880D01*
X161928349Y-117015943D01*
X161928347Y-117015944D01*
X161747962Y-117142251D01*
X161747958Y-117142254D01*
X161592254Y-117297958D01*
X161592251Y-117297961D01*
X161592251Y-117297962D01*
X161484774Y-117451456D01*
X161465943Y-117478349D01*
X161402382Y-117614656D01*
X161356210Y-117667095D01*
X161289016Y-117686247D01*
X161222135Y-117666031D01*
X161177618Y-117614656D01*
X161152946Y-117561748D01*
X161114056Y-117478347D01*
X160987749Y-117297962D01*
X160832038Y-117142251D01*
X160651654Y-117015944D01*
X160547868Y-116967548D01*
X160452077Y-116922880D01*
X160239368Y-116865884D01*
X160020000Y-116846692D01*
X159800631Y-116865884D01*
X159587922Y-116922880D01*
X159388349Y-117015943D01*
X159388347Y-117015944D01*
X159207962Y-117142251D01*
X159207958Y-117142254D01*
X159052254Y-117297958D01*
X159052251Y-117297961D01*
X159052251Y-117297962D01*
X158944774Y-117451456D01*
X158925943Y-117478349D01*
X158832880Y-117677922D01*
X158775884Y-117890631D01*
X158756692Y-118110000D01*
X158775884Y-118329368D01*
X158832880Y-118542077D01*
X158869147Y-118619852D01*
X158925944Y-118741654D01*
X159052251Y-118922038D01*
X159207962Y-119077749D01*
X159388346Y-119204056D01*
X159587924Y-119297120D01*
X159800629Y-119354115D01*
X160020000Y-119373307D01*
X160239371Y-119354115D01*
X160452076Y-119297120D01*
X160651654Y-119204056D01*
X160832038Y-119077749D01*
X160987749Y-118922038D01*
X161114056Y-118741654D01*
X161170853Y-118619852D01*
X161177618Y-118605344D01*
X161223790Y-118552904D01*
X161290983Y-118533752D01*
X161357865Y-118553967D01*
X161402382Y-118605344D01*
X161465941Y-118741649D01*
X161465943Y-118741651D01*
X161465944Y-118741654D01*
X161592251Y-118922038D01*
X161747962Y-119077749D01*
X161928346Y-119204056D01*
X162127924Y-119297120D01*
X162340629Y-119354115D01*
X162560000Y-119373307D01*
X162779371Y-119354115D01*
X162992076Y-119297120D01*
X163191654Y-119204056D01*
X163372038Y-119077749D01*
X163527749Y-118922038D01*
X163654056Y-118741654D01*
X163710853Y-118619852D01*
X163722307Y-118595289D01*
X163768479Y-118542849D01*
X163835673Y-118523697D01*
X163902554Y-118543913D01*
X163947071Y-118595289D01*
X164013331Y-118737386D01*
X164056873Y-118799571D01*
X164056875Y-118799572D01*
X164616923Y-118239523D01*
X164640507Y-118319844D01*
X164718239Y-118440798D01*
X164826900Y-118534952D01*
X164957685Y-118594680D01*
X164967466Y-118596086D01*
X164410426Y-119153124D01*
X164410427Y-119153125D01*
X164472610Y-119196666D01*
X164670842Y-119289102D01*
X164750321Y-119310399D01*
X164809982Y-119346764D01*
X164840511Y-119409611D01*
X164832216Y-119478986D01*
X164805909Y-119517855D01*
X164128585Y-120195181D01*
X164067262Y-120228666D01*
X164040904Y-120231500D01*
X156945640Y-120231500D01*
X156933486Y-120230903D01*
X156890000Y-120226620D01*
X156840453Y-120231500D01*
X156692301Y-120246091D01*
X156628931Y-120265314D01*
X156502196Y-120303759D01*
X156502192Y-120303760D01*
X156502192Y-120303761D01*
X156326996Y-120397404D01*
X156173433Y-120523430D01*
X156145707Y-120557214D01*
X156137536Y-120566228D01*
X155346070Y-121357694D01*
X155330463Y-121370916D01*
X154338041Y-122079789D01*
X154318381Y-122091264D01*
X154308348Y-122095943D01*
X154127959Y-122222252D01*
X154100752Y-122249458D01*
X154090537Y-122258601D01*
X154090482Y-122258645D01*
X154090077Y-122258972D01*
X154089178Y-122259673D01*
X154087728Y-122260900D01*
X154085684Y-122262990D01*
X154085673Y-122263001D01*
X154018986Y-122331214D01*
X153972254Y-122377955D01*
X153845944Y-122558345D01*
X153752880Y-122757922D01*
X153695884Y-122970631D01*
X153676692Y-123190000D01*
X153695884Y-123409368D01*
X153751449Y-123616738D01*
X153752880Y-123622076D01*
X153845944Y-123821654D01*
X153972251Y-124002038D01*
X154127962Y-124157749D01*
X154308346Y-124284056D01*
X154507924Y-124377120D01*
X154720629Y-124434115D01*
X154940000Y-124453307D01*
X155159371Y-124434115D01*
X155372076Y-124377120D01*
X155571654Y-124284056D01*
X155752038Y-124157749D01*
X155907749Y-124002038D01*
X156034056Y-123821654D01*
X156038737Y-123811616D01*
X156050217Y-123791946D01*
X156759079Y-122799537D01*
X156772289Y-122783943D01*
X157271414Y-122284819D01*
X157332738Y-122251334D01*
X157359096Y-122248500D01*
X158318552Y-122248500D01*
X158385591Y-122268185D01*
X158431346Y-122320989D01*
X158441290Y-122390147D01*
X158433980Y-122417802D01*
X158334913Y-122670217D01*
X158276264Y-122927176D01*
X158267399Y-123045481D01*
X158261500Y-123124200D01*
X158261500Y-123126516D01*
X158261500Y-124215452D01*
X158261413Y-124220089D01*
X158257801Y-124316596D01*
X158268613Y-124412558D01*
X158269046Y-124417173D01*
X158276264Y-124513483D01*
X158282064Y-124538893D01*
X158284393Y-124552601D01*
X158287311Y-124578500D01*
X158312304Y-124671776D01*
X158313420Y-124676275D01*
X158334913Y-124770440D01*
X158344437Y-124794708D01*
X158348781Y-124807909D01*
X158355528Y-124833087D01*
X158394145Y-124921600D01*
X158395919Y-124925882D01*
X158431204Y-125015784D01*
X158444236Y-125038356D01*
X158450503Y-125050770D01*
X158460925Y-125074658D01*
X158512309Y-125156437D01*
X158514702Y-125160408D01*
X158562983Y-125244033D01*
X158579229Y-125264405D01*
X158587273Y-125275743D01*
X158601144Y-125297817D01*
X158664146Y-125371028D01*
X158667103Y-125374597D01*
X158700142Y-125416026D01*
X158727314Y-125450098D01*
X158798124Y-125515800D01*
X158801437Y-125518992D01*
X159891006Y-126608561D01*
X159894199Y-126611875D01*
X159959902Y-126682686D01*
X160035400Y-126742893D01*
X160038957Y-126745841D01*
X160062107Y-126765763D01*
X160112179Y-126808853D01*
X160129481Y-126819724D01*
X160134245Y-126822718D01*
X160145585Y-126830763D01*
X160165964Y-126847015D01*
X160249583Y-126895292D01*
X160253555Y-126897685D01*
X160335341Y-126949075D01*
X160359235Y-126959500D01*
X160371648Y-126965767D01*
X160394213Y-126978795D01*
X160394216Y-126978796D01*
X160484137Y-127014087D01*
X160488377Y-127015844D01*
X160576912Y-127054472D01*
X160602088Y-127061218D01*
X160615295Y-127065563D01*
X160639560Y-127075087D01*
X160733747Y-127096584D01*
X160738174Y-127097682D01*
X160831498Y-127122688D01*
X160857401Y-127125606D01*
X160871085Y-127127930D01*
X160896514Y-127133735D01*
X160992840Y-127140953D01*
X160997404Y-127141380D01*
X161093404Y-127152198D01*
X161189909Y-127148587D01*
X161194546Y-127148500D01*
X171119794Y-127148500D01*
X171124431Y-127148587D01*
X171220934Y-127152198D01*
X171220934Y-127152197D01*
X171220936Y-127152198D01*
X171316944Y-127141379D01*
X171321492Y-127140953D01*
X171417826Y-127133735D01*
X171443239Y-127127933D01*
X171456946Y-127125606D01*
X171482834Y-127122689D01*
X171482834Y-127122688D01*
X171482842Y-127122688D01*
X171576188Y-127097675D01*
X171580591Y-127096584D01*
X171674780Y-127075087D01*
X171699044Y-127065563D01*
X171712242Y-127061220D01*
X171737424Y-127054473D01*
X171825974Y-127015838D01*
X171830172Y-127014099D01*
X171920124Y-126978796D01*
X171942691Y-126965765D01*
X171955095Y-126959502D01*
X171961459Y-126956726D01*
X172030774Y-126947964D01*
X172093826Y-126978067D01*
X172130593Y-127037480D01*
X172129403Y-127107340D01*
X172128969Y-127108701D01*
X172103760Y-127186286D01*
X172102759Y-127189368D01*
X172102088Y-127192521D01*
X172102084Y-127192539D01*
X172029947Y-127531924D01*
X172028304Y-127539655D01*
X172027967Y-127542858D01*
X172027965Y-127542873D01*
X171991209Y-127892583D01*
X171991208Y-127892595D01*
X171990871Y-127895805D01*
X171990871Y-127899045D01*
X171990871Y-127899046D01*
X171990871Y-130686000D01*
X171971186Y-130753039D01*
X171918382Y-130798794D01*
X171866871Y-130810000D01*
X138086089Y-130810000D01*
X138019050Y-130790315D01*
X137973295Y-130737511D01*
X137962089Y-130686000D01*
X137962089Y-127899046D01*
X137962089Y-127899045D01*
X137962089Y-127895805D01*
X137924656Y-127539655D01*
X137850201Y-127189368D01*
X137739538Y-126848784D01*
X137681532Y-126718500D01*
X137595203Y-126524601D01*
X137595202Y-126524599D01*
X137593881Y-126521632D01*
X137533501Y-126417050D01*
X137480356Y-126325000D01*
X140291501Y-126325000D01*
X140311456Y-126553084D01*
X140326321Y-126608561D01*
X140353501Y-126709998D01*
X140370717Y-126774246D01*
X140467474Y-126981744D01*
X140467476Y-126981746D01*
X140467477Y-126981749D01*
X140598802Y-127169300D01*
X140760700Y-127331198D01*
X140948251Y-127462523D01*
X141155757Y-127559284D01*
X141376913Y-127618543D01*
X141605000Y-127638498D01*
X141833087Y-127618543D01*
X142054243Y-127559284D01*
X142261749Y-127462523D01*
X142449300Y-127331198D01*
X142611198Y-127169300D01*
X142742523Y-126981749D01*
X142839284Y-126774243D01*
X142898543Y-126553087D01*
X142918498Y-126325000D01*
X142912402Y-126255328D01*
X142898543Y-126096915D01*
X142898543Y-126096913D01*
X142839284Y-125875757D01*
X142742523Y-125668251D01*
X142611198Y-125480700D01*
X142449300Y-125318802D01*
X142261749Y-125187477D01*
X142261746Y-125187476D01*
X142261744Y-125187474D01*
X142054246Y-125090717D01*
X142054243Y-125090716D01*
X141881335Y-125044385D01*
X141833084Y-125031456D01*
X141605000Y-125011501D01*
X141376915Y-125031456D01*
X141155753Y-125090717D01*
X140948255Y-125187474D01*
X140922464Y-125205533D01*
X140822195Y-125275743D01*
X140760696Y-125318805D01*
X140598805Y-125480696D01*
X140598802Y-125480699D01*
X140598802Y-125480700D01*
X140571990Y-125518992D01*
X140467474Y-125668255D01*
X140370717Y-125875753D01*
X140311456Y-126096915D01*
X140291501Y-126325000D01*
X137480356Y-126325000D01*
X137416450Y-126214312D01*
X137416446Y-126214307D01*
X137414825Y-126211498D01*
X137246632Y-125980000D01*
X137206239Y-125924403D01*
X137206233Y-125924396D01*
X137204332Y-125921779D01*
X136964708Y-125655650D01*
X136905474Y-125602315D01*
X136700988Y-125418195D01*
X136700987Y-125418194D01*
X136698579Y-125416026D01*
X136695963Y-125414126D01*
X136695954Y-125414118D01*
X136411490Y-125207444D01*
X136408860Y-125205533D01*
X136406055Y-125203913D01*
X136406045Y-125203907D01*
X136101543Y-125028103D01*
X136101537Y-125028100D01*
X136098726Y-125026477D01*
X136095766Y-125025159D01*
X136095756Y-125025154D01*
X135774538Y-124882139D01*
X135774527Y-124882134D01*
X135771574Y-124880820D01*
X135768490Y-124879818D01*
X135768485Y-124879816D01*
X135434071Y-124771158D01*
X135434069Y-124771157D01*
X135430990Y-124770157D01*
X135427832Y-124769485D01*
X135427818Y-124769482D01*
X135083874Y-124696376D01*
X135083873Y-124696375D01*
X135080703Y-124695702D01*
X135077496Y-124695364D01*
X135077484Y-124695363D01*
X134727774Y-124658607D01*
X134727763Y-124658606D01*
X134724553Y-124658269D01*
X134366441Y-124658269D01*
X134363231Y-124658606D01*
X134363219Y-124658607D01*
X134013509Y-124695363D01*
X134013494Y-124695365D01*
X134010291Y-124695702D01*
X134007123Y-124696375D01*
X134007119Y-124696376D01*
X133663175Y-124769482D01*
X133663157Y-124769486D01*
X133660004Y-124770157D01*
X133656929Y-124771156D01*
X133656922Y-124771158D01*
X133322508Y-124879816D01*
X133322497Y-124879820D01*
X133319420Y-124880820D01*
X133316472Y-124882132D01*
X133316455Y-124882139D01*
X132995237Y-125025154D01*
X132995219Y-125025162D01*
X132992268Y-125026477D01*
X132989464Y-125028095D01*
X132989450Y-125028103D01*
X132684948Y-125203907D01*
X132684929Y-125203919D01*
X132682134Y-125205533D01*
X132679509Y-125207439D01*
X132679503Y-125207444D01*
X132395039Y-125414118D01*
X132395020Y-125414133D01*
X132392415Y-125416026D01*
X132390015Y-125418186D01*
X132390005Y-125418195D01*
X132128695Y-125653480D01*
X132128685Y-125653489D01*
X132126286Y-125655650D01*
X132124125Y-125658049D01*
X132124116Y-125658059D01*
X131888831Y-125919369D01*
X131888822Y-125919379D01*
X131886662Y-125921779D01*
X131884769Y-125924384D01*
X131884754Y-125924403D01*
X131678080Y-126208867D01*
X131678075Y-126208873D01*
X131676169Y-126211498D01*
X131674555Y-126214293D01*
X131674543Y-126214312D01*
X131498739Y-126518814D01*
X131498731Y-126518828D01*
X131497113Y-126521632D01*
X131495798Y-126524583D01*
X131495790Y-126524601D01*
X131352775Y-126845819D01*
X131352768Y-126845836D01*
X131351456Y-126848784D01*
X131350456Y-126851861D01*
X131350452Y-126851872D01*
X131241794Y-127186286D01*
X131240793Y-127189368D01*
X131240122Y-127192521D01*
X131240118Y-127192539D01*
X131167981Y-127531924D01*
X131166338Y-127539655D01*
X131166001Y-127542858D01*
X131165999Y-127542873D01*
X131129243Y-127892583D01*
X131129242Y-127892595D01*
X131128905Y-127895805D01*
X131128905Y-127899045D01*
X131128905Y-127899046D01*
X131128905Y-130686000D01*
X131109220Y-130753039D01*
X131056416Y-130798794D01*
X131004905Y-130810000D01*
X127501017Y-130810000D01*
X127433978Y-130790315D01*
X127388223Y-130737511D01*
X127378279Y-130668353D01*
X127388041Y-130640469D01*
X127386394Y-130639848D01*
X127472762Y-130410986D01*
X127516392Y-130185391D01*
X127517433Y-130176908D01*
X127519912Y-130130237D01*
X127520000Y-130126942D01*
X127520000Y-129410000D01*
X126703686Y-129410000D01*
X126729493Y-129369844D01*
X126770000Y-129231889D01*
X126770000Y-129088111D01*
X126729493Y-128950156D01*
X126703686Y-128910000D01*
X127519999Y-128910000D01*
X127519999Y-128193069D01*
X127519911Y-128189769D01*
X127517432Y-128143076D01*
X127516394Y-128134616D01*
X127472762Y-127909013D01*
X127390119Y-127690023D01*
X127271659Y-127488158D01*
X127120786Y-127309213D01*
X126941841Y-127158340D01*
X126739974Y-127039879D01*
X126524369Y-126958514D01*
X126468597Y-126916427D01*
X126444433Y-126850869D01*
X126459548Y-126782654D01*
X126509143Y-126733439D01*
X126568150Y-126718500D01*
X130065328Y-126718500D01*
X130068638Y-126718500D01*
X130129201Y-126711989D01*
X130129203Y-126711988D01*
X130129205Y-126711988D01*
X130240181Y-126670595D01*
X130266204Y-126660889D01*
X130383261Y-126573261D01*
X130470889Y-126456204D01*
X130492924Y-126397124D01*
X130521988Y-126319205D01*
X130521988Y-126319203D01*
X130521989Y-126319201D01*
X130528500Y-126258638D01*
X130528500Y-122661362D01*
X130521989Y-122600799D01*
X130521988Y-122600797D01*
X130521988Y-122600794D01*
X130470889Y-122463796D01*
X130383261Y-122346738D01*
X130266203Y-122259110D01*
X130129205Y-122208011D01*
X130071924Y-122201853D01*
X130071918Y-122201852D01*
X130068638Y-122201500D01*
X126471362Y-122201500D01*
X126468082Y-122201852D01*
X126468075Y-122201853D01*
X126410794Y-122208011D01*
X126273796Y-122259110D01*
X126156738Y-122346738D01*
X126069110Y-122463796D01*
X126018011Y-122600794D01*
X126014875Y-122629966D01*
X126011500Y-122661362D01*
X126011500Y-126258638D01*
X126011852Y-126261918D01*
X126011853Y-126261924D01*
X126018011Y-126319205D01*
X126069110Y-126456203D01*
X126156738Y-126573261D01*
X126244365Y-126638857D01*
X126273796Y-126660889D01*
X126293609Y-126668279D01*
X126299818Y-126670595D01*
X126355751Y-126712466D01*
X126380167Y-126777931D01*
X126365315Y-126846204D01*
X126315909Y-126895609D01*
X126249908Y-126910602D01*
X126240205Y-126910086D01*
X126236943Y-126910000D01*
X125519999Y-126910000D01*
X125519999Y-128660000D01*
X125020000Y-128660000D01*
X125020000Y-126910000D01*
X124303069Y-126910000D01*
X124299769Y-126910088D01*
X124253076Y-126912567D01*
X124244616Y-126913605D01*
X124019013Y-126957237D01*
X123800023Y-127039880D01*
X123598158Y-127158340D01*
X123419213Y-127309213D01*
X123268340Y-127488158D01*
X123149880Y-127690023D01*
X123067237Y-127909013D01*
X123023607Y-128134608D01*
X123022566Y-128143091D01*
X123020087Y-128189762D01*
X123020000Y-128193057D01*
X123020000Y-128910000D01*
X123836314Y-128910000D01*
X123810507Y-128950156D01*
X123770000Y-129088111D01*
X123770000Y-129231889D01*
X123810507Y-129369844D01*
X123836314Y-129410000D01*
X123020001Y-129410000D01*
X123020001Y-130126930D01*
X123020088Y-130130230D01*
X123022567Y-130176923D01*
X123023605Y-130185383D01*
X123067237Y-130410986D01*
X123153606Y-130639848D01*
X123150384Y-130641063D01*
X123162882Y-130691015D01*
X123140502Y-130757203D01*
X123085891Y-130800785D01*
X123038983Y-130810000D01*
X114424000Y-130810000D01*
X114356961Y-130790315D01*
X114311206Y-130737511D01*
X114300000Y-130686000D01*
X114300000Y-124210000D01*
X120270000Y-124210000D01*
X121770000Y-124210000D01*
X121770000Y-124710000D01*
X120270001Y-124710000D01*
X120270001Y-125521744D01*
X120270192Y-125526625D01*
X120280400Y-125656331D01*
X120335377Y-125874518D01*
X120428430Y-126079379D01*
X120556565Y-126264332D01*
X120715667Y-126423434D01*
X120900620Y-126551569D01*
X121105481Y-126644622D01*
X121323668Y-126699599D01*
X121453374Y-126709808D01*
X121458254Y-126709999D01*
X122019999Y-126709999D01*
X122020000Y-126709998D01*
X122019999Y-125893686D01*
X122060156Y-125919493D01*
X122198111Y-125960000D01*
X122341889Y-125960000D01*
X122479844Y-125919493D01*
X122519999Y-125893686D01*
X122519999Y-126709998D01*
X122520000Y-126709999D01*
X123081744Y-126709999D01*
X123086625Y-126709807D01*
X123216331Y-126699599D01*
X123434518Y-126644622D01*
X123639379Y-126551569D01*
X123824332Y-126423434D01*
X123983434Y-126264332D01*
X124111569Y-126079379D01*
X124204622Y-125874518D01*
X124259599Y-125656331D01*
X124269808Y-125526625D01*
X124270000Y-125521745D01*
X124270000Y-124710000D01*
X122770000Y-124710000D01*
X122770000Y-124210000D01*
X124269999Y-124210000D01*
X124269999Y-123398255D01*
X124269807Y-123393374D01*
X124259599Y-123263668D01*
X124204622Y-123045481D01*
X124111569Y-122840620D01*
X123983434Y-122655667D01*
X123824332Y-122496565D01*
X123639379Y-122368430D01*
X123434518Y-122275377D01*
X123216331Y-122220400D01*
X123086625Y-122210191D01*
X123081746Y-122210000D01*
X122520000Y-122210000D01*
X122520000Y-123026313D01*
X122479844Y-123000507D01*
X122341889Y-122960000D01*
X122198111Y-122960000D01*
X122060156Y-123000507D01*
X122020000Y-123026313D01*
X122020000Y-122210000D01*
X121458255Y-122210000D01*
X121453374Y-122210192D01*
X121323668Y-122220400D01*
X121105481Y-122275377D01*
X120900620Y-122368430D01*
X120715667Y-122496565D01*
X120556565Y-122655667D01*
X120428430Y-122840620D01*
X120335377Y-123045481D01*
X120280400Y-123263668D01*
X120270191Y-123393374D01*
X120270000Y-123398254D01*
X120270000Y-124210000D01*
X114300000Y-124210000D01*
X114300000Y-117074860D01*
X126271211Y-117074860D01*
X126290257Y-117329015D01*
X126346972Y-117577498D01*
X126440088Y-117814752D01*
X126567518Y-118035468D01*
X126567521Y-118035473D01*
X126726430Y-118234738D01*
X126913263Y-118408093D01*
X127123846Y-118551666D01*
X127353476Y-118662250D01*
X127597022Y-118737374D01*
X127849045Y-118775361D01*
X128103915Y-118775361D01*
X128305344Y-118745000D01*
X131401501Y-118745000D01*
X131421456Y-118973084D01*
X131421457Y-118973087D01*
X131479934Y-119191326D01*
X131480717Y-119194246D01*
X131577474Y-119401744D01*
X131577476Y-119401746D01*
X131577477Y-119401749D01*
X131708802Y-119589300D01*
X131870700Y-119751198D01*
X132058251Y-119882523D01*
X132265757Y-119979284D01*
X132486913Y-120038543D01*
X132715000Y-120058498D01*
X132943087Y-120038543D01*
X133164243Y-119979284D01*
X133371749Y-119882523D01*
X133559300Y-119751198D01*
X133721198Y-119589300D01*
X133852523Y-119401749D01*
X133949284Y-119194243D01*
X134008543Y-118973087D01*
X134028498Y-118745000D01*
X134008543Y-118516913D01*
X133949284Y-118295757D01*
X133862664Y-118109999D01*
X133852525Y-118088255D01*
X133852524Y-118088254D01*
X133852523Y-118088251D01*
X133721198Y-117900700D01*
X133559300Y-117738802D01*
X133371749Y-117607477D01*
X133371746Y-117607476D01*
X133371744Y-117607474D01*
X133164246Y-117510717D01*
X133164243Y-117510716D01*
X133030950Y-117475000D01*
X132943084Y-117451456D01*
X132715000Y-117431501D01*
X132486915Y-117451456D01*
X132265753Y-117510717D01*
X132058255Y-117607474D01*
X131870696Y-117738805D01*
X131708805Y-117900696D01*
X131708802Y-117900699D01*
X131708802Y-117900700D01*
X131643139Y-117994475D01*
X131577474Y-118088255D01*
X131480717Y-118295753D01*
X131421456Y-118516915D01*
X131401501Y-118745000D01*
X128305344Y-118745000D01*
X128355938Y-118737374D01*
X128599484Y-118662250D01*
X128829114Y-118551666D01*
X129039697Y-118408093D01*
X129226530Y-118234738D01*
X129385439Y-118035473D01*
X129512873Y-117814749D01*
X129605988Y-117577498D01*
X129662702Y-117329018D01*
X129681748Y-117074861D01*
X129681149Y-117066874D01*
X129664845Y-116849299D01*
X129662702Y-116820704D01*
X129605988Y-116572224D01*
X129512873Y-116334973D01*
X129489922Y-116295221D01*
X129445794Y-116218788D01*
X129385439Y-116114249D01*
X129226530Y-115914984D01*
X129039697Y-115741629D01*
X128829114Y-115598056D01*
X128599484Y-115487472D01*
X128355938Y-115412348D01*
X128103915Y-115374361D01*
X127849045Y-115374361D01*
X127597022Y-115412348D01*
X127353476Y-115487472D01*
X127201417Y-115560700D01*
X127123846Y-115598056D01*
X127089834Y-115621245D01*
X126913261Y-115741630D01*
X126812296Y-115835312D01*
X126726430Y-115914984D01*
X126572537Y-116107960D01*
X126567518Y-116114253D01*
X126440088Y-116334969D01*
X126346972Y-116572223D01*
X126290257Y-116820706D01*
X126271211Y-117074860D01*
X114300000Y-117074860D01*
X114300000Y-115210775D01*
X118346500Y-115210775D01*
X118346797Y-115213793D01*
X118346798Y-115213808D01*
X118361453Y-115362599D01*
X118363084Y-115367975D01*
X118410613Y-115524660D01*
X118420551Y-115557419D01*
X118516517Y-115736959D01*
X118539676Y-115765178D01*
X118645669Y-115894331D01*
X118803040Y-116023482D01*
X118982583Y-116119450D01*
X119177399Y-116178546D01*
X119380000Y-116198501D01*
X119582601Y-116178546D01*
X119777417Y-116119450D01*
X119936345Y-116034501D01*
X119965563Y-116018884D01*
X120033966Y-116004642D01*
X120082470Y-116018884D01*
X120255849Y-116111558D01*
X120400000Y-116155285D01*
X120400000Y-115353931D01*
X120400597Y-115341776D01*
X120410160Y-115244681D01*
X120412095Y-115225031D01*
X120469052Y-115269363D01*
X120587424Y-115310000D01*
X120681073Y-115310000D01*
X120773446Y-115294586D01*
X120883514Y-115235019D01*
X120886500Y-115231775D01*
X120886500Y-115733638D01*
X120886852Y-115736918D01*
X120886853Y-115736924D01*
X120893643Y-115800081D01*
X120900000Y-115835312D01*
X120900000Y-116155284D01*
X121035428Y-116114203D01*
X121105295Y-116113580D01*
X121145734Y-116133597D01*
X121148796Y-116135889D01*
X121285794Y-116186988D01*
X121285797Y-116186988D01*
X121285799Y-116186989D01*
X121346362Y-116193500D01*
X121349672Y-116193500D01*
X122490328Y-116193500D01*
X122493638Y-116193500D01*
X122554201Y-116186989D01*
X122554203Y-116186988D01*
X122554205Y-116186988D01*
X122639202Y-116155285D01*
X122691204Y-116135889D01*
X122808261Y-116048261D01*
X122895889Y-115931204D01*
X122940598Y-115811337D01*
X122946988Y-115794205D01*
X122946988Y-115794203D01*
X122946989Y-115794201D01*
X122953500Y-115733638D01*
X122953500Y-114300000D01*
X131490339Y-114300000D01*
X131508944Y-114512657D01*
X131564197Y-114718861D01*
X131654410Y-114912326D01*
X131693415Y-114968030D01*
X131693416Y-114968031D01*
X132317046Y-114344400D01*
X132329835Y-114425148D01*
X132387359Y-114538045D01*
X132476955Y-114627641D01*
X132589852Y-114685165D01*
X132670599Y-114697953D01*
X132046967Y-115321583D01*
X132102670Y-115360587D01*
X132296138Y-115450802D01*
X132502342Y-115506055D01*
X132714999Y-115524660D01*
X132927657Y-115506055D01*
X133133861Y-115450802D01*
X133327325Y-115360589D01*
X133383030Y-115321583D01*
X132759401Y-114697953D01*
X132840148Y-114685165D01*
X132953045Y-114627641D01*
X133042641Y-114538045D01*
X133100165Y-114425148D01*
X133112953Y-114344400D01*
X133736583Y-114968030D01*
X133775589Y-114912325D01*
X133867928Y-114714303D01*
X133914100Y-114661863D01*
X133981293Y-114642711D01*
X134048175Y-114662926D01*
X134092692Y-114714302D01*
X134124391Y-114782281D01*
X134187024Y-114916597D01*
X134310319Y-115092681D01*
X134462319Y-115244681D01*
X134638403Y-115367976D01*
X134833223Y-115458822D01*
X135040858Y-115514458D01*
X135183619Y-115526947D01*
X135254999Y-115533193D01*
X135254999Y-115533192D01*
X135255000Y-115533193D01*
X135469142Y-115514458D01*
X135676777Y-115458822D01*
X135871597Y-115367976D01*
X136047681Y-115244681D01*
X136199681Y-115092681D01*
X136322976Y-114916597D01*
X136396003Y-114759989D01*
X136442174Y-114707551D01*
X136509367Y-114688399D01*
X136576249Y-114708614D01*
X136621583Y-114761780D01*
X136630962Y-114793668D01*
X136742642Y-115524660D01*
X136785077Y-115802417D01*
X136785078Y-115802420D01*
X136786500Y-115821147D01*
X136786500Y-116348901D01*
X136785903Y-116361054D01*
X136781619Y-116404543D01*
X136801090Y-116602242D01*
X136801091Y-116602245D01*
X136858758Y-116792348D01*
X136858759Y-116792348D01*
X136863129Y-116806754D01*
X136871885Y-116816905D01*
X136952404Y-116967547D01*
X137078431Y-117121111D01*
X137112213Y-117148835D01*
X137121230Y-117157008D01*
X137289588Y-117325366D01*
X137323073Y-117386689D01*
X137318089Y-117456381D01*
X137276217Y-117512314D01*
X137254312Y-117525429D01*
X137062516Y-117614865D01*
X136989526Y-117665973D01*
X137670599Y-118347046D01*
X137589852Y-118359835D01*
X137476955Y-118417359D01*
X137387359Y-118506955D01*
X137329835Y-118619852D01*
X137317046Y-118700598D01*
X136635973Y-118019527D01*
X136584865Y-118092516D01*
X136488733Y-118298672D01*
X136429858Y-118518397D01*
X136410033Y-118745000D01*
X136429858Y-118971602D01*
X136488733Y-119191326D01*
X136584866Y-119397484D01*
X136635972Y-119470471D01*
X136635973Y-119470472D01*
X137317046Y-118789399D01*
X137329835Y-118870148D01*
X137387359Y-118983045D01*
X137476955Y-119072641D01*
X137589852Y-119130165D01*
X137670597Y-119142953D01*
X136989526Y-119824025D01*
X136989526Y-119824026D01*
X137062515Y-119875133D01*
X137268673Y-119971266D01*
X137488397Y-120030141D01*
X137714999Y-120049966D01*
X137941602Y-120030141D01*
X138161326Y-119971266D01*
X138367480Y-119875134D01*
X138440472Y-119824025D01*
X137759399Y-119142953D01*
X137840148Y-119130165D01*
X137953045Y-119072641D01*
X138042641Y-118983045D01*
X138100165Y-118870148D01*
X138112953Y-118789400D01*
X138794025Y-119470472D01*
X138845135Y-119397479D01*
X138934569Y-119205687D01*
X138980741Y-119153247D01*
X139047934Y-119134095D01*
X139114815Y-119154310D01*
X139134632Y-119170410D01*
X140017990Y-120053768D01*
X140026162Y-120062784D01*
X140053887Y-120096567D01*
X140190817Y-120208942D01*
X140198438Y-120217777D01*
X140207452Y-120222595D01*
X140382652Y-120316241D01*
X140500778Y-120352074D01*
X140559214Y-120390370D01*
X140587670Y-120454182D01*
X140577110Y-120523249D01*
X140566355Y-120541856D01*
X140474866Y-120672515D01*
X140378733Y-120878673D01*
X140319858Y-121098397D01*
X140300033Y-121325000D01*
X140319858Y-121551602D01*
X140378733Y-121771326D01*
X140474866Y-121977484D01*
X140525972Y-122050471D01*
X140525973Y-122050472D01*
X141207046Y-121369400D01*
X141219835Y-121450148D01*
X141277359Y-121563045D01*
X141366955Y-121652641D01*
X141479852Y-121710165D01*
X141560599Y-121722953D01*
X140879526Y-122404025D01*
X140879526Y-122404026D01*
X140952515Y-122455133D01*
X141158673Y-122551266D01*
X141378397Y-122610141D01*
X141605000Y-122629966D01*
X141831602Y-122610141D01*
X142051326Y-122551266D01*
X142257480Y-122455134D01*
X142330472Y-122404025D01*
X141649401Y-121722953D01*
X141730148Y-121710165D01*
X141843045Y-121652641D01*
X141932641Y-121563045D01*
X141990165Y-121450148D01*
X142002953Y-121369400D01*
X142684025Y-122050472D01*
X142735134Y-121977480D01*
X142831266Y-121771326D01*
X142890141Y-121551602D01*
X142909966Y-121325000D01*
X142890141Y-121098397D01*
X142831266Y-120878673D01*
X142735133Y-120672515D01*
X142684025Y-120599526D01*
X142002953Y-121280598D01*
X141990165Y-121199852D01*
X141932641Y-121086955D01*
X141843045Y-120997359D01*
X141730148Y-120939835D01*
X141649400Y-120927046D01*
X142330472Y-120245974D01*
X142329058Y-120229817D01*
X142312966Y-120209685D01*
X142305774Y-120140186D01*
X142331858Y-120084028D01*
X142349306Y-120062767D01*
X142357451Y-120053781D01*
X142858781Y-119552451D01*
X142867776Y-119544299D01*
X142901568Y-119516568D01*
X143027595Y-119363004D01*
X143121241Y-119187804D01*
X143138726Y-119130165D01*
X143164185Y-119046241D01*
X143178908Y-118997704D01*
X143178907Y-118997704D01*
X143178909Y-118997701D01*
X143198380Y-118800000D01*
X143198338Y-118799571D01*
X143194097Y-118756510D01*
X143193500Y-118744357D01*
X143193500Y-116889095D01*
X143213185Y-116822056D01*
X143229814Y-116801419D01*
X147396176Y-112635056D01*
X147457497Y-112601573D01*
X147527189Y-112606557D01*
X147583122Y-112648429D01*
X147603121Y-112688804D01*
X147641690Y-112824360D01*
X147739456Y-113020700D01*
X147871636Y-113195735D01*
X148033724Y-113343497D01*
X148033726Y-113343498D01*
X148033727Y-113343499D01*
X148220209Y-113458964D01*
X148424732Y-113538197D01*
X148451023Y-113543111D01*
X148513303Y-113574780D01*
X148548576Y-113635092D01*
X148545642Y-113704900D01*
X148505433Y-113762040D01*
X148451023Y-113786888D01*
X148424731Y-113791803D01*
X148424732Y-113791803D01*
X148220208Y-113871036D01*
X148033724Y-113986502D01*
X147871636Y-114134264D01*
X147739456Y-114309299D01*
X147641692Y-114505635D01*
X147581667Y-114716604D01*
X147561430Y-114934999D01*
X147581667Y-115153395D01*
X147581667Y-115153398D01*
X147581668Y-115153399D01*
X147638723Y-115353931D01*
X147641692Y-115364364D01*
X147739456Y-115560700D01*
X147871636Y-115735735D01*
X148033724Y-115883497D01*
X148033726Y-115883498D01*
X148033727Y-115883499D01*
X148220209Y-115998964D01*
X148424732Y-116078197D01*
X148451023Y-116083111D01*
X148513303Y-116114780D01*
X148548576Y-116175092D01*
X148545642Y-116244900D01*
X148505433Y-116302040D01*
X148451023Y-116326888D01*
X148427899Y-116331211D01*
X148424732Y-116331803D01*
X148220208Y-116411036D01*
X148033724Y-116526502D01*
X147871636Y-116674264D01*
X147739456Y-116849299D01*
X147641692Y-117045635D01*
X147581667Y-117256604D01*
X147561430Y-117475000D01*
X147581667Y-117693395D01*
X147581667Y-117693398D01*
X147581668Y-117693399D01*
X147640649Y-117900700D01*
X147641692Y-117904364D01*
X147739456Y-118100700D01*
X147871636Y-118275735D01*
X148033724Y-118423497D01*
X148033726Y-118423498D01*
X148033727Y-118423499D01*
X148220209Y-118538964D01*
X148424732Y-118618197D01*
X148640333Y-118658500D01*
X148640335Y-118658500D01*
X148859665Y-118658500D01*
X148859667Y-118658500D01*
X149075268Y-118618197D01*
X149279791Y-118538964D01*
X149466273Y-118423499D01*
X149628364Y-118275734D01*
X149753521Y-118110000D01*
X153676692Y-118110000D01*
X153695884Y-118329368D01*
X153752880Y-118542077D01*
X153789147Y-118619852D01*
X153845944Y-118741654D01*
X153972251Y-118922038D01*
X154127962Y-119077749D01*
X154308346Y-119204056D01*
X154507924Y-119297120D01*
X154720629Y-119354115D01*
X154866876Y-119366909D01*
X154939999Y-119373307D01*
X154939999Y-119373306D01*
X154940000Y-119373307D01*
X155159371Y-119354115D01*
X155372076Y-119297120D01*
X155571654Y-119204056D01*
X155752038Y-119077749D01*
X155907749Y-118922038D01*
X156034056Y-118741654D01*
X156127120Y-118542076D01*
X156184115Y-118329371D01*
X156203307Y-118110000D01*
X156184115Y-117890629D01*
X156127120Y-117677924D01*
X156034056Y-117478347D01*
X155907749Y-117297962D01*
X155752038Y-117142251D01*
X155571654Y-117015944D01*
X155467868Y-116967548D01*
X155372077Y-116922880D01*
X155159368Y-116865884D01*
X154940000Y-116846692D01*
X154720631Y-116865884D01*
X154507922Y-116922880D01*
X154308349Y-117015943D01*
X154308347Y-117015944D01*
X154127962Y-117142251D01*
X154127958Y-117142254D01*
X153972254Y-117297958D01*
X153972251Y-117297961D01*
X153972251Y-117297962D01*
X153864774Y-117451456D01*
X153845943Y-117478349D01*
X153752880Y-117677922D01*
X153695884Y-117890631D01*
X153676692Y-118110000D01*
X149753521Y-118110000D01*
X149760543Y-118100701D01*
X149858309Y-117904361D01*
X149918332Y-117693399D01*
X149938570Y-117475000D01*
X149918332Y-117256601D01*
X149858309Y-117045639D01*
X149760543Y-116849299D01*
X149736080Y-116816905D01*
X149628363Y-116674264D01*
X149466275Y-116526502D01*
X149279791Y-116411036D01*
X149150773Y-116361054D01*
X149075268Y-116331803D01*
X149048974Y-116326887D01*
X148986696Y-116295221D01*
X148951423Y-116234909D01*
X148954357Y-116165101D01*
X148994566Y-116107960D01*
X149048974Y-116083112D01*
X149075268Y-116078197D01*
X149279791Y-115998964D01*
X149466273Y-115883499D01*
X149621896Y-115741630D01*
X149628363Y-115735735D01*
X149714822Y-115621245D01*
X149760543Y-115560701D01*
X149858309Y-115364361D01*
X149918332Y-115153399D01*
X149938570Y-114935000D01*
X149918332Y-114716601D01*
X149858309Y-114505639D01*
X149760543Y-114309299D01*
X149708333Y-114240162D01*
X149628363Y-114134264D01*
X149466275Y-113986502D01*
X149279791Y-113871036D01*
X149262021Y-113864152D01*
X149075268Y-113791803D01*
X149048974Y-113786887D01*
X148986696Y-113755221D01*
X148951423Y-113694909D01*
X148954357Y-113625101D01*
X148994566Y-113567960D01*
X149048974Y-113543112D01*
X149075268Y-113538197D01*
X149279791Y-113458964D01*
X149466273Y-113343499D01*
X149627020Y-113196959D01*
X149628363Y-113195735D01*
X149633058Y-113189518D01*
X157725000Y-113189518D01*
X157725354Y-113196132D01*
X157731400Y-113252371D01*
X157781647Y-113387089D01*
X157867811Y-113502188D01*
X157982910Y-113588352D01*
X158117628Y-113638599D01*
X158173867Y-113644645D01*
X158180482Y-113645000D01*
X158500000Y-113645000D01*
X158500000Y-112675617D01*
X158569052Y-112729363D01*
X158687424Y-112770000D01*
X158781073Y-112770000D01*
X158873446Y-112754586D01*
X158983514Y-112695019D01*
X158988367Y-112689746D01*
X158994755Y-112754586D01*
X158998989Y-112797579D01*
X158999403Y-112801776D01*
X159000000Y-112813931D01*
X159000000Y-113645000D01*
X159319518Y-113645000D01*
X159326132Y-113644645D01*
X159382373Y-113638599D01*
X159533795Y-113582122D01*
X159535192Y-113585867D01*
X159571164Y-113572441D01*
X159616036Y-113577463D01*
X159622578Y-113579447D01*
X159622583Y-113579450D01*
X159817399Y-113638546D01*
X160020000Y-113658501D01*
X160222601Y-113638546D01*
X160417417Y-113579450D01*
X160596546Y-113483703D01*
X160664950Y-113469461D01*
X160713453Y-113483703D01*
X160782090Y-113520390D01*
X160892583Y-113579450D01*
X161087399Y-113638546D01*
X161290000Y-113658501D01*
X161492601Y-113638546D01*
X161687417Y-113579450D01*
X161866960Y-113483482D01*
X162024331Y-113354331D01*
X162153482Y-113196960D01*
X162249450Y-113017417D01*
X162308202Y-112823734D01*
X162339178Y-112772054D01*
X167118152Y-107993082D01*
X167212595Y-107878003D01*
X167306241Y-107702803D01*
X167307092Y-107699999D01*
X183970384Y-107699999D01*
X183970385Y-107700000D01*
X186986589Y-107700000D01*
X186961466Y-107797030D01*
X186951114Y-108001165D01*
X186981574Y-108200000D01*
X183973793Y-108200000D01*
X183985960Y-108320951D01*
X183987337Y-108329112D01*
X184055248Y-108614080D01*
X184057699Y-108621981D01*
X184162987Y-108895354D01*
X184166467Y-108902855D01*
X184307254Y-109159758D01*
X184311707Y-109166733D01*
X184485476Y-109402574D01*
X184490821Y-109408896D01*
X184694474Y-109619472D01*
X184700609Y-109625020D01*
X184930518Y-109806578D01*
X184937328Y-109811253D01*
X185189393Y-109960551D01*
X185196769Y-109964278D01*
X185466482Y-110078647D01*
X185474286Y-110081357D01*
X185756820Y-110158751D01*
X185764942Y-110160402D01*
X186055278Y-110199448D01*
X186063521Y-110200000D01*
X187710000Y-110200000D01*
X187710000Y-108924625D01*
X187857801Y-108955000D01*
X188010967Y-108955000D01*
X188163348Y-108939504D01*
X188210000Y-108924867D01*
X188210000Y-110200000D01*
X189783146Y-110200000D01*
X189787306Y-110199860D01*
X190006434Y-110185191D01*
X190014627Y-110184089D01*
X190301701Y-110125739D01*
X190309690Y-110123551D01*
X190586429Y-110027457D01*
X190594041Y-110024229D01*
X190855501Y-109892107D01*
X190862618Y-109887893D01*
X191104144Y-109722094D01*
X191110632Y-109716970D01*
X191327898Y-109520464D01*
X191333648Y-109514519D01*
X191522786Y-109290806D01*
X191527692Y-109284148D01*
X191685327Y-109037216D01*
X191689296Y-109029973D01*
X191812610Y-108764238D01*
X191815583Y-108756519D01*
X191902378Y-108476718D01*
X191904294Y-108468679D01*
X191949615Y-108200000D01*
X188933411Y-108200000D01*
X188958534Y-108102970D01*
X188968886Y-107898835D01*
X188938426Y-107700000D01*
X191946207Y-107700000D01*
X191946207Y-107699999D01*
X191934039Y-107579048D01*
X191932662Y-107570887D01*
X191864751Y-107285919D01*
X191862300Y-107278018D01*
X191757012Y-107004645D01*
X191753532Y-106997144D01*
X191612745Y-106740241D01*
X191608292Y-106733266D01*
X191434523Y-106497425D01*
X191429178Y-106491103D01*
X191225525Y-106280527D01*
X191219390Y-106274979D01*
X190989481Y-106093421D01*
X190982671Y-106088746D01*
X190730606Y-105939448D01*
X190723230Y-105935721D01*
X190453517Y-105821352D01*
X190445713Y-105818642D01*
X190163179Y-105741248D01*
X190155057Y-105739597D01*
X189864721Y-105700551D01*
X189856479Y-105700000D01*
X188210000Y-105700000D01*
X188210000Y-106975374D01*
X188062199Y-106945000D01*
X187909033Y-106945000D01*
X187756652Y-106960496D01*
X187710000Y-106975132D01*
X187710000Y-105700000D01*
X186136854Y-105700000D01*
X186132693Y-105700139D01*
X185913565Y-105714808D01*
X185905372Y-105715910D01*
X185618298Y-105774260D01*
X185610309Y-105776448D01*
X185333570Y-105872542D01*
X185325958Y-105875770D01*
X185064498Y-106007892D01*
X185057381Y-106012106D01*
X184815855Y-106177905D01*
X184809367Y-106183029D01*
X184592101Y-106379535D01*
X184586351Y-106385480D01*
X184397213Y-106609193D01*
X184392307Y-106615851D01*
X184234672Y-106862783D01*
X184230703Y-106870026D01*
X184107389Y-107135761D01*
X184104416Y-107143480D01*
X184017621Y-107423281D01*
X184015705Y-107431320D01*
X183970384Y-107699999D01*
X167307092Y-107699999D01*
X167363909Y-107512701D01*
X167383380Y-107315000D01*
X167363909Y-107117299D01*
X167306241Y-106927196D01*
X167306241Y-106927195D01*
X167259418Y-106839596D01*
X167212595Y-106751997D01*
X167118155Y-106636921D01*
X167086568Y-106598431D01*
X166956772Y-106491912D01*
X166933003Y-106472405D01*
X166921688Y-106466357D01*
X166757804Y-106378758D01*
X166567702Y-106321091D01*
X166370000Y-106301620D01*
X166172297Y-106321091D01*
X165982196Y-106378758D01*
X165806997Y-106472404D01*
X165717304Y-106546014D01*
X165691918Y-106566848D01*
X165689775Y-106568990D01*
X165689765Y-106569000D01*
X161137944Y-111120820D01*
X161086258Y-111151800D01*
X160892580Y-111210551D01*
X160713453Y-111306297D01*
X160645050Y-111320539D01*
X160596547Y-111306297D01*
X160417419Y-111210551D01*
X160417418Y-111210550D01*
X160417417Y-111210550D01*
X160317190Y-111180147D01*
X160222599Y-111151453D01*
X160020000Y-111131499D01*
X159817398Y-111151453D01*
X159616032Y-111212536D01*
X159546165Y-111213159D01*
X159534058Y-111207166D01*
X159533793Y-111207878D01*
X159382371Y-111151400D01*
X159326132Y-111145354D01*
X159319518Y-111145000D01*
X159000000Y-111145000D01*
X159000000Y-111976068D01*
X158999403Y-111988222D01*
X158987903Y-112104967D01*
X158930948Y-112060637D01*
X158812576Y-112020000D01*
X158718927Y-112020000D01*
X158626554Y-112035414D01*
X158516486Y-112094981D01*
X158500000Y-112112889D01*
X158500000Y-111145000D01*
X158180482Y-111145000D01*
X158173867Y-111145354D01*
X158117628Y-111151400D01*
X157982910Y-111201647D01*
X157867811Y-111287811D01*
X157781647Y-111402910D01*
X157731400Y-111537628D01*
X157725354Y-111593867D01*
X157725000Y-111600481D01*
X157725000Y-112145000D01*
X158470440Y-112145000D01*
X158431722Y-112187059D01*
X158381449Y-112301670D01*
X158371114Y-112426395D01*
X158401837Y-112547719D01*
X158465394Y-112645000D01*
X157725000Y-112645000D01*
X157725000Y-113189518D01*
X149633058Y-113189518D01*
X149663507Y-113149197D01*
X149760543Y-113020701D01*
X149858309Y-112824361D01*
X149918332Y-112613399D01*
X149938570Y-112395000D01*
X149918332Y-112176601D01*
X149858309Y-111965639D01*
X149760543Y-111769299D01*
X149760543Y-111769298D01*
X149628363Y-111594264D01*
X149466275Y-111446502D01*
X149279786Y-111331033D01*
X149147401Y-111279747D01*
X149091999Y-111237175D01*
X149068409Y-111171408D01*
X149084120Y-111103327D01*
X149116507Y-111065901D01*
X149414429Y-110836354D01*
X149424805Y-110829174D01*
X149466273Y-110803499D01*
X149512713Y-110761162D01*
X149520558Y-110754583D01*
X149530174Y-110747175D01*
X149530184Y-110747166D01*
X149531721Y-110745923D01*
X149553985Y-110727585D01*
X149555492Y-110726346D01*
X149556610Y-110725364D01*
X149556610Y-110725365D01*
X149556308Y-110725641D01*
X149556991Y-110725052D01*
X149556616Y-110725358D01*
X149586275Y-110694470D01*
X149592137Y-110688757D01*
X149628364Y-110655734D01*
X149760543Y-110480701D01*
X149858309Y-110284361D01*
X149918332Y-110073399D01*
X149938570Y-109855000D01*
X149918332Y-109636601D01*
X149858309Y-109425639D01*
X149760543Y-109229299D01*
X149708028Y-109159758D01*
X149628363Y-109054264D01*
X149466275Y-108906502D01*
X149279791Y-108791036D01*
X149075268Y-108711803D01*
X148922460Y-108683238D01*
X148860180Y-108651569D01*
X148824907Y-108591257D01*
X148827841Y-108521449D01*
X148857563Y-108473670D01*
X150523012Y-106808220D01*
X150537030Y-106796155D01*
X150556944Y-106781450D01*
X150556944Y-106781449D01*
X150556948Y-106781447D01*
X151638075Y-105714369D01*
X151676782Y-105671615D01*
X151676783Y-105671611D01*
X151684787Y-105662772D01*
X151692000Y-105653496D01*
X151726198Y-105619300D01*
X151753289Y-105580608D01*
X151767184Y-105564049D01*
X151878152Y-105453082D01*
X151972595Y-105338003D01*
X152066241Y-105162803D01*
X152123909Y-104972701D01*
X152125537Y-104956164D01*
X152151695Y-104891378D01*
X152208728Y-104851017D01*
X152278528Y-104847898D01*
X152338934Y-104883010D01*
X152370768Y-104945207D01*
X152372468Y-104957507D01*
X152376456Y-105003084D01*
X152385858Y-105038171D01*
X152434934Y-105221326D01*
X152435717Y-105224246D01*
X152532474Y-105431744D01*
X152532475Y-105431745D01*
X152532477Y-105431749D01*
X152663802Y-105619300D01*
X152825700Y-105781198D01*
X153013251Y-105912523D01*
X153013254Y-105912524D01*
X153013255Y-105912525D01*
X153117004Y-105960903D01*
X153220757Y-106009284D01*
X153441913Y-106068543D01*
X153670000Y-106088498D01*
X153898087Y-106068543D01*
X154119243Y-106009284D01*
X154326749Y-105912523D01*
X154514300Y-105781198D01*
X154676198Y-105619300D01*
X154807523Y-105431749D01*
X154827617Y-105388655D01*
X154873790Y-105336215D01*
X154940983Y-105317063D01*
X155007864Y-105337278D01*
X155052382Y-105388655D01*
X155072477Y-105431749D01*
X155203802Y-105619300D01*
X155365700Y-105781198D01*
X155553251Y-105912523D01*
X155553254Y-105912524D01*
X155553255Y-105912525D01*
X155657004Y-105960903D01*
X155760757Y-106009284D01*
X155981913Y-106068543D01*
X156210000Y-106088498D01*
X156438087Y-106068543D01*
X156659243Y-106009284D01*
X156866749Y-105912523D01*
X157054300Y-105781198D01*
X157216198Y-105619300D01*
X157347523Y-105431749D01*
X157444284Y-105224243D01*
X157503543Y-105003087D01*
X157523498Y-104775000D01*
X158151501Y-104775000D01*
X158171456Y-105003084D01*
X158180858Y-105038171D01*
X158229934Y-105221326D01*
X158230717Y-105224246D01*
X158327474Y-105431744D01*
X158327475Y-105431745D01*
X158327477Y-105431749D01*
X158458802Y-105619300D01*
X158620700Y-105781198D01*
X158808251Y-105912523D01*
X158808254Y-105912524D01*
X158808255Y-105912525D01*
X158912004Y-105960903D01*
X159015757Y-106009284D01*
X159236913Y-106068543D01*
X159367479Y-106079966D01*
X159464999Y-106088498D01*
X159464999Y-106088497D01*
X159465000Y-106088498D01*
X159693087Y-106068543D01*
X159914243Y-106009284D01*
X160121749Y-105912523D01*
X160309300Y-105781198D01*
X160471198Y-105619300D01*
X160602523Y-105431749D01*
X160699284Y-105224243D01*
X160758543Y-105003087D01*
X160778498Y-104775000D01*
X160778498Y-104774999D01*
X163160033Y-104774999D01*
X163179858Y-105001602D01*
X163238733Y-105221326D01*
X163334866Y-105427484D01*
X163385972Y-105500471D01*
X163385974Y-105500472D01*
X164067046Y-104819399D01*
X164079835Y-104900148D01*
X164137359Y-105013045D01*
X164226955Y-105102641D01*
X164339852Y-105160165D01*
X164420599Y-105172953D01*
X163739526Y-105854025D01*
X163739526Y-105854026D01*
X163812515Y-105905133D01*
X164018673Y-106001266D01*
X164238397Y-106060141D01*
X164465000Y-106079966D01*
X164691602Y-106060141D01*
X164911326Y-106001266D01*
X165117480Y-105905134D01*
X165190472Y-105854025D01*
X164509401Y-105172953D01*
X164590148Y-105160165D01*
X164703045Y-105102641D01*
X164792641Y-105013045D01*
X164850165Y-104900148D01*
X164862953Y-104819400D01*
X165544025Y-105500472D01*
X165595134Y-105427480D01*
X165691266Y-105221326D01*
X165750141Y-105001602D01*
X165769966Y-104774999D01*
X165750141Y-104548397D01*
X165691266Y-104328673D01*
X165595133Y-104122515D01*
X165544025Y-104049526D01*
X164862953Y-104730597D01*
X164850165Y-104649852D01*
X164792641Y-104536955D01*
X164703045Y-104447359D01*
X164590148Y-104389835D01*
X164509400Y-104377046D01*
X165190472Y-103695974D01*
X165190471Y-103695972D01*
X165117484Y-103644866D01*
X164911326Y-103548733D01*
X164691602Y-103489858D01*
X164465000Y-103470033D01*
X164238397Y-103489858D01*
X164018672Y-103548733D01*
X163812516Y-103644865D01*
X163739527Y-103695973D01*
X163739526Y-103695973D01*
X164420600Y-104377046D01*
X164339852Y-104389835D01*
X164226955Y-104447359D01*
X164137359Y-104536955D01*
X164079835Y-104649852D01*
X164067046Y-104730599D01*
X163385973Y-104049526D01*
X163385973Y-104049527D01*
X163334865Y-104122516D01*
X163238733Y-104328672D01*
X163179858Y-104548397D01*
X163160033Y-104774999D01*
X160778498Y-104774999D01*
X160758543Y-104546913D01*
X160699284Y-104325757D01*
X160631932Y-104181319D01*
X160602525Y-104118255D01*
X160602523Y-104118252D01*
X160602523Y-104118251D01*
X160471198Y-103930700D01*
X160309300Y-103768802D01*
X160121749Y-103637477D01*
X160121746Y-103637476D01*
X160121744Y-103637474D01*
X159914246Y-103540717D01*
X159914243Y-103540716D01*
X159724440Y-103489858D01*
X159693084Y-103481456D01*
X159464999Y-103461501D01*
X159236915Y-103481456D01*
X159015753Y-103540717D01*
X158808255Y-103637474D01*
X158620696Y-103768805D01*
X158458805Y-103930696D01*
X158458802Y-103930699D01*
X158458802Y-103930700D01*
X158411151Y-103998753D01*
X158327474Y-104118255D01*
X158230717Y-104325753D01*
X158171456Y-104546915D01*
X158151501Y-104775000D01*
X157523498Y-104775000D01*
X157503543Y-104546913D01*
X157444284Y-104325757D01*
X157376932Y-104181319D01*
X157347525Y-104118255D01*
X157347523Y-104118252D01*
X157347523Y-104118251D01*
X157216198Y-103930700D01*
X157054300Y-103768802D01*
X156866749Y-103637477D01*
X156866746Y-103637476D01*
X156866744Y-103637474D01*
X156659246Y-103540717D01*
X156659243Y-103540716D01*
X156469440Y-103489858D01*
X156438084Y-103481456D01*
X156209999Y-103461501D01*
X155981915Y-103481456D01*
X155760753Y-103540717D01*
X155553255Y-103637474D01*
X155365696Y-103768805D01*
X155203805Y-103930696D01*
X155203802Y-103930699D01*
X155203802Y-103930700D01*
X155072482Y-104118245D01*
X155072476Y-104118253D01*
X155052382Y-104161345D01*
X155006209Y-104213784D01*
X154939016Y-104232936D01*
X154872135Y-104212720D01*
X154827618Y-104161345D01*
X154826214Y-104158334D01*
X154807523Y-104118251D01*
X154676198Y-103930700D01*
X154514300Y-103768802D01*
X154326749Y-103637477D01*
X154326746Y-103637476D01*
X154326744Y-103637474D01*
X154119246Y-103540717D01*
X154119243Y-103540716D01*
X153929440Y-103489858D01*
X153898084Y-103481456D01*
X153670000Y-103461501D01*
X153441915Y-103481456D01*
X153220753Y-103540717D01*
X153013255Y-103637474D01*
X152825696Y-103768805D01*
X152663805Y-103930696D01*
X152663802Y-103930699D01*
X152663802Y-103930700D01*
X152616151Y-103998753D01*
X152532474Y-104118255D01*
X152435717Y-104325753D01*
X152376456Y-104546915D01*
X152372468Y-104592492D01*
X152347014Y-104657561D01*
X152290423Y-104698538D01*
X152220661Y-104702415D01*
X152159877Y-104667961D01*
X152127370Y-104606113D01*
X152125537Y-104593833D01*
X152125405Y-104592492D01*
X152123909Y-104577299D01*
X152066241Y-104387196D01*
X151972595Y-104211996D01*
X151846568Y-104058432D01*
X151846567Y-104058431D01*
X151787000Y-104009545D01*
X151764091Y-103984816D01*
X151726198Y-103930700D01*
X151564303Y-103768805D01*
X151564302Y-103768805D01*
X151564300Y-103768802D01*
X151376749Y-103637477D01*
X151376746Y-103637476D01*
X151376744Y-103637474D01*
X151169246Y-103540717D01*
X151169243Y-103540716D01*
X150979440Y-103489858D01*
X150948084Y-103481456D01*
X150720000Y-103461501D01*
X150491915Y-103481456D01*
X150270753Y-103540717D01*
X150063255Y-103637474D01*
X149875696Y-103768805D01*
X149713805Y-103930696D01*
X149713802Y-103930699D01*
X149713802Y-103930700D01*
X149658594Y-104009545D01*
X149582475Y-104118254D01*
X149557691Y-104171402D01*
X149511518Y-104223840D01*
X149444324Y-104242991D01*
X149377443Y-104222774D01*
X149332928Y-104171399D01*
X149310134Y-104122517D01*
X149259025Y-104049526D01*
X148577953Y-104730598D01*
X148565165Y-104649852D01*
X148507641Y-104536955D01*
X148418045Y-104447359D01*
X148305148Y-104389835D01*
X148224400Y-104377046D01*
X148905472Y-103695974D01*
X148905471Y-103695972D01*
X148832484Y-103644866D01*
X148626326Y-103548733D01*
X148406602Y-103489858D01*
X148180000Y-103470033D01*
X147953397Y-103489858D01*
X147733672Y-103548733D01*
X147527516Y-103644865D01*
X147454527Y-103695973D01*
X147454526Y-103695973D01*
X148135600Y-104377046D01*
X148054852Y-104389835D01*
X147941955Y-104447359D01*
X147852359Y-104536955D01*
X147794835Y-104649852D01*
X147782046Y-104730599D01*
X147100973Y-104049526D01*
X147100973Y-104049527D01*
X147049865Y-104122516D01*
X146953733Y-104328672D01*
X146894858Y-104548397D01*
X146875033Y-104775000D01*
X146894858Y-105001602D01*
X146953733Y-105221326D01*
X147049866Y-105427484D01*
X147100972Y-105500471D01*
X147100974Y-105500472D01*
X147782046Y-104819399D01*
X147794835Y-104900148D01*
X147852359Y-105013045D01*
X147941955Y-105102641D01*
X148054852Y-105160165D01*
X148135599Y-105172953D01*
X147454526Y-105854025D01*
X147454526Y-105854026D01*
X147527515Y-105905133D01*
X147733673Y-106001266D01*
X147953397Y-106060141D01*
X148116288Y-106074392D01*
X148181357Y-106099844D01*
X148222335Y-106156435D01*
X148226214Y-106226197D01*
X148193162Y-106285601D01*
X142192574Y-112286190D01*
X142131251Y-112319675D01*
X142061559Y-112314691D01*
X142005626Y-112272819D01*
X141981422Y-112209949D01*
X141978332Y-112176604D01*
X141978332Y-112176601D01*
X141918309Y-111965639D01*
X141820543Y-111769299D01*
X141820542Y-111769298D01*
X141688363Y-111594264D01*
X141526275Y-111446502D01*
X141339791Y-111331036D01*
X141312695Y-111320539D01*
X141203214Y-111278125D01*
X141147815Y-111235554D01*
X141124224Y-111169787D01*
X141139935Y-111101707D01*
X141189959Y-111052928D01*
X141248010Y-111038500D01*
X141530328Y-111038500D01*
X141533638Y-111038500D01*
X141594201Y-111031989D01*
X141594203Y-111031988D01*
X141594205Y-111031988D01*
X141672124Y-111002924D01*
X141731204Y-110980889D01*
X141848261Y-110893261D01*
X141935889Y-110776204D01*
X141968514Y-110688734D01*
X141986988Y-110639205D01*
X141986988Y-110639203D01*
X141986989Y-110639201D01*
X141993500Y-110578638D01*
X141993500Y-110358190D01*
X142013185Y-110291152D01*
X142019275Y-110282509D01*
X142082956Y-110199860D01*
X142716339Y-109377810D01*
X142717139Y-109376737D01*
X142718824Y-109374437D01*
X142718964Y-109374248D01*
X142731104Y-109360128D01*
X143731414Y-108359819D01*
X143792738Y-108326334D01*
X143819096Y-108323500D01*
X144826497Y-108323500D01*
X144829547Y-108323500D01*
X144977701Y-108308908D01*
X145167804Y-108251241D01*
X145343004Y-108157595D01*
X145496568Y-108031568D01*
X145622595Y-107878004D01*
X145716241Y-107702804D01*
X145773908Y-107512701D01*
X145793380Y-107315000D01*
X145773908Y-107117299D01*
X145716241Y-106927196D01*
X145622595Y-106751996D01*
X145496568Y-106598432D01*
X145343004Y-106472405D01*
X145343003Y-106472404D01*
X145180378Y-106385480D01*
X145167804Y-106378759D01*
X144977701Y-106321092D01*
X144977699Y-106321091D01*
X144977697Y-106321091D01*
X144915282Y-106314944D01*
X144850494Y-106288783D01*
X144810136Y-106231748D01*
X144807019Y-106161948D01*
X144842134Y-106101544D01*
X144904332Y-106069713D01*
X144916629Y-106068013D01*
X145006602Y-106060141D01*
X145226326Y-106001266D01*
X145432480Y-105905134D01*
X145618819Y-105774658D01*
X145779658Y-105613819D01*
X145910134Y-105427480D01*
X146006266Y-105221326D01*
X146058872Y-105025000D01*
X145095686Y-105025000D01*
X145107641Y-105013045D01*
X145165165Y-104900148D01*
X145184986Y-104775000D01*
X145165165Y-104649852D01*
X145107641Y-104536955D01*
X145095686Y-104525000D01*
X146058872Y-104525000D01*
X146058871Y-104524999D01*
X146006266Y-104328673D01*
X145910134Y-104122519D01*
X145779658Y-103936180D01*
X145618819Y-103775341D01*
X145432480Y-103644865D01*
X145226326Y-103548733D01*
X145030000Y-103496126D01*
X145030000Y-104459314D01*
X145018045Y-104447359D01*
X144905148Y-104389835D01*
X144811481Y-104375000D01*
X144748519Y-104375000D01*
X144654852Y-104389835D01*
X144541955Y-104447359D01*
X144530000Y-104459313D01*
X144530000Y-103496127D01*
X144529999Y-103496126D01*
X144333673Y-103548733D01*
X144127519Y-103644865D01*
X143941180Y-103775341D01*
X143780341Y-103936180D01*
X143649864Y-104122520D01*
X143627069Y-104171403D01*
X143580896Y-104223841D01*
X143513702Y-104242992D01*
X143446821Y-104222775D01*
X143402307Y-104171401D01*
X143377523Y-104118251D01*
X143246198Y-103930700D01*
X143084300Y-103768802D01*
X142896749Y-103637477D01*
X142896746Y-103637476D01*
X142896744Y-103637474D01*
X142689246Y-103540717D01*
X142689243Y-103540716D01*
X142499440Y-103489858D01*
X142468084Y-103481456D01*
X142240000Y-103461501D01*
X142011915Y-103481456D01*
X141790753Y-103540717D01*
X141583255Y-103637474D01*
X141395696Y-103768805D01*
X141233805Y-103930696D01*
X141233802Y-103930699D01*
X141233802Y-103930700D01*
X141186151Y-103998753D01*
X141102474Y-104118255D01*
X141005717Y-104325753D01*
X140946456Y-104546915D01*
X140926501Y-104774999D01*
X140946456Y-105003084D01*
X140955858Y-105038171D01*
X141004934Y-105221326D01*
X141005717Y-105224246D01*
X141102474Y-105431744D01*
X141102475Y-105431745D01*
X141102477Y-105431749D01*
X141233802Y-105619300D01*
X141395700Y-105781198D01*
X141583251Y-105912523D01*
X141583254Y-105912524D01*
X141583255Y-105912525D01*
X141687004Y-105960903D01*
X141790757Y-106009284D01*
X142011913Y-106068543D01*
X142240000Y-106088498D01*
X142468087Y-106068543D01*
X142689243Y-106009284D01*
X142896749Y-105912523D01*
X143084300Y-105781198D01*
X143246198Y-105619300D01*
X143377523Y-105431749D01*
X143402308Y-105378596D01*
X143448476Y-105326160D01*
X143515669Y-105307007D01*
X143582551Y-105327221D01*
X143627070Y-105378597D01*
X143649866Y-105427482D01*
X143780341Y-105613819D01*
X143941180Y-105774658D01*
X144127519Y-105905134D01*
X144333673Y-106001266D01*
X144563038Y-106062725D01*
X144622698Y-106099090D01*
X144653227Y-106161937D01*
X144644932Y-106231313D01*
X144600447Y-106285191D01*
X144533895Y-106306465D01*
X144530944Y-106306500D01*
X143405640Y-106306500D01*
X143393486Y-106305903D01*
X143350000Y-106301620D01*
X143300453Y-106306500D01*
X143152301Y-106321091D01*
X143088931Y-106340314D01*
X142962196Y-106378759D01*
X142962192Y-106378760D01*
X142962192Y-106378761D01*
X142786996Y-106472404D01*
X142633433Y-106598430D01*
X142605707Y-106632214D01*
X142597536Y-106641228D01*
X141305548Y-107933216D01*
X141293549Y-107943761D01*
X140382487Y-108645726D01*
X140317368Y-108671049D01*
X140306805Y-108671500D01*
X140086362Y-108671500D01*
X140083082Y-108671852D01*
X140083075Y-108671853D01*
X140025794Y-108678011D01*
X139888796Y-108729110D01*
X139771738Y-108816738D01*
X139684110Y-108933796D01*
X139633011Y-109070794D01*
X139626853Y-109128075D01*
X139626500Y-109131362D01*
X139626500Y-110578638D01*
X139626852Y-110581918D01*
X139626853Y-110581924D01*
X139633011Y-110639205D01*
X139684110Y-110776203D01*
X139771738Y-110893261D01*
X139888796Y-110980889D01*
X140025794Y-111031988D01*
X140025797Y-111031988D01*
X140025799Y-111031989D01*
X140086362Y-111038500D01*
X140089672Y-111038500D01*
X140371990Y-111038500D01*
X140439029Y-111058185D01*
X140484784Y-111110989D01*
X140494728Y-111180147D01*
X140465703Y-111243703D01*
X140416786Y-111278125D01*
X140343497Y-111306518D01*
X140280208Y-111331036D01*
X140093724Y-111446502D01*
X139931636Y-111594264D01*
X139799456Y-111769299D01*
X139701692Y-111965635D01*
X139641667Y-112176604D01*
X139621430Y-112395000D01*
X139641667Y-112613395D01*
X139641667Y-112613398D01*
X139641668Y-112613399D01*
X139698723Y-112813931D01*
X139701692Y-112824364D01*
X139799456Y-113020700D01*
X139931636Y-113195735D01*
X140093724Y-113343497D01*
X140093726Y-113343498D01*
X140093727Y-113343499D01*
X140280209Y-113458964D01*
X140458185Y-113527912D01*
X140513584Y-113570484D01*
X140537175Y-113636251D01*
X140521464Y-113704331D01*
X140480040Y-113748102D01*
X140308356Y-113857536D01*
X140286506Y-113868596D01*
X140280212Y-113871034D01*
X140093724Y-113986502D01*
X139931636Y-114134264D01*
X139799456Y-114309299D01*
X139701692Y-114505635D01*
X139641667Y-114716604D01*
X139621430Y-114934999D01*
X139641667Y-115153395D01*
X139641667Y-115153398D01*
X139641668Y-115153399D01*
X139698723Y-115353931D01*
X139701692Y-115364364D01*
X139799456Y-115560700D01*
X139931636Y-115735735D01*
X140093724Y-115883497D01*
X140093726Y-115883498D01*
X140093727Y-115883499D01*
X140280209Y-115998964D01*
X140484732Y-116078197D01*
X140534152Y-116087435D01*
X140596431Y-116119102D01*
X140631704Y-116179414D01*
X140628771Y-116249222D01*
X140588562Y-116306363D01*
X140534151Y-116331211D01*
X140487072Y-116340011D01*
X140284012Y-116418677D01*
X140098868Y-116533314D01*
X139937942Y-116680017D01*
X139833974Y-116817694D01*
X139777865Y-116859331D01*
X139708153Y-116864022D01*
X139647339Y-116830649D01*
X138839819Y-116023129D01*
X138806334Y-115961806D01*
X138803500Y-115935448D01*
X138803500Y-115821144D01*
X138804922Y-115802420D01*
X138990475Y-114587877D01*
X138993269Y-114574555D01*
X139009458Y-114514142D01*
X139019449Y-114399933D01*
X139020406Y-114391972D01*
X139020561Y-114390960D01*
X139020841Y-114388695D01*
X139024880Y-114353221D01*
X139024948Y-114352630D01*
X139025043Y-114351391D01*
X139025054Y-114351391D01*
X139025147Y-114350314D01*
X139025082Y-114350878D01*
X139025082Y-114350880D01*
X139025054Y-114351391D01*
X139025043Y-114351391D01*
X139025082Y-114350879D01*
X139024982Y-114344080D01*
X139025441Y-114331447D01*
X139028193Y-114299999D01*
X139026298Y-114278342D01*
X139021014Y-114217947D01*
X139020599Y-114209293D01*
X139020555Y-114209005D01*
X139020555Y-114209000D01*
X139020397Y-114207968D01*
X139019449Y-114200061D01*
X139018651Y-114190944D01*
X139009458Y-114085858D01*
X138993272Y-114025454D01*
X138990473Y-114012101D01*
X138984401Y-113972359D01*
X138804922Y-112797579D01*
X138803500Y-112778852D01*
X138803500Y-106200942D01*
X138823185Y-106133903D01*
X138875989Y-106088148D01*
X138938308Y-106077414D01*
X139065000Y-106088498D01*
X139293087Y-106068543D01*
X139514243Y-106009284D01*
X139721749Y-105912523D01*
X139909300Y-105781198D01*
X140071198Y-105619300D01*
X140202523Y-105431749D01*
X140299284Y-105224243D01*
X140358543Y-105003087D01*
X140378498Y-104775000D01*
X140358543Y-104546913D01*
X140299284Y-104325757D01*
X140231932Y-104181319D01*
X140202525Y-104118255D01*
X140202523Y-104118252D01*
X140202523Y-104118251D01*
X140071198Y-103930700D01*
X139909300Y-103768802D01*
X139721749Y-103637477D01*
X139721746Y-103637476D01*
X139721744Y-103637474D01*
X139514246Y-103540717D01*
X139514243Y-103540716D01*
X139324440Y-103489858D01*
X139293084Y-103481456D01*
X139064999Y-103461501D01*
X138836915Y-103481456D01*
X138615753Y-103540717D01*
X138408255Y-103637474D01*
X138220696Y-103768805D01*
X138058805Y-103930696D01*
X138058802Y-103930699D01*
X138058802Y-103930700D01*
X138003594Y-104009545D01*
X137927475Y-104118254D01*
X137907380Y-104161347D01*
X137861207Y-104213785D01*
X137794013Y-104232936D01*
X137727132Y-104212719D01*
X137682617Y-104161345D01*
X137662523Y-104118251D01*
X137662522Y-104118250D01*
X137662520Y-104118245D01*
X137531198Y-103930700D01*
X137497874Y-103897376D01*
X137494215Y-103893555D01*
X137493937Y-103893186D01*
X137492564Y-103891530D01*
X137490376Y-103889369D01*
X137490370Y-103889363D01*
X137449994Y-103849496D01*
X137369300Y-103768802D01*
X137369300Y-103768801D01*
X137181749Y-103637477D01*
X137181746Y-103637476D01*
X137181744Y-103637474D01*
X136974246Y-103540717D01*
X136974243Y-103540716D01*
X136784440Y-103489858D01*
X136753084Y-103481456D01*
X136524999Y-103461501D01*
X136296915Y-103481456D01*
X136075753Y-103540717D01*
X135868255Y-103637474D01*
X135680696Y-103768805D01*
X135518805Y-103930696D01*
X135518802Y-103930699D01*
X135518802Y-103930700D01*
X135471151Y-103998753D01*
X135387474Y-104118255D01*
X135290717Y-104325753D01*
X135231456Y-104546915D01*
X135211501Y-104775000D01*
X135231456Y-105003084D01*
X135240858Y-105038171D01*
X135289934Y-105221326D01*
X135290717Y-105224246D01*
X135387474Y-105431744D01*
X135387475Y-105431745D01*
X135387477Y-105431749D01*
X135518802Y-105619300D01*
X135518805Y-105619303D01*
X135680700Y-105781198D01*
X135868245Y-105912520D01*
X135868250Y-105912522D01*
X135868251Y-105912523D01*
X135913892Y-105933805D01*
X135931495Y-105943842D01*
X136704009Y-106472404D01*
X136732521Y-106491912D01*
X136776733Y-106546014D01*
X136786500Y-106594250D01*
X136786500Y-112778854D01*
X136785078Y-112797573D01*
X136724248Y-113195735D01*
X136630962Y-113806331D01*
X136601378Y-113869629D01*
X136542270Y-113906884D01*
X136472403Y-113906269D01*
X136413960Y-113867978D01*
X136396002Y-113840009D01*
X136373523Y-113791803D01*
X136322976Y-113683404D01*
X136318142Y-113676500D01*
X136199683Y-113507321D01*
X136128211Y-113435849D01*
X136047681Y-113355319D01*
X135871597Y-113232024D01*
X135796400Y-113196959D01*
X135676778Y-113141178D01*
X135469139Y-113085541D01*
X135255000Y-113066806D01*
X135040860Y-113085541D01*
X134833221Y-113141178D01*
X134638402Y-113232024D01*
X134462317Y-113355319D01*
X134310319Y-113507317D01*
X134187024Y-113683402D01*
X134092692Y-113885697D01*
X134046519Y-113938136D01*
X133979326Y-113957288D01*
X133912444Y-113937072D01*
X133867928Y-113885697D01*
X133775586Y-113687669D01*
X133736583Y-113631967D01*
X133112953Y-114255596D01*
X133100165Y-114174852D01*
X133042641Y-114061955D01*
X132953045Y-113972359D01*
X132840148Y-113914835D01*
X132759401Y-113902046D01*
X133383031Y-113278416D01*
X133383030Y-113278415D01*
X133327326Y-113239410D01*
X133133861Y-113149197D01*
X132927657Y-113093944D01*
X132714999Y-113075339D01*
X132502342Y-113093944D01*
X132296138Y-113149197D01*
X132102672Y-113239411D01*
X132046967Y-113278414D01*
X132670599Y-113902046D01*
X132589852Y-113914835D01*
X132476955Y-113972359D01*
X132387359Y-114061955D01*
X132329835Y-114174852D01*
X132317046Y-114255599D01*
X131693414Y-113631967D01*
X131654411Y-113687672D01*
X131564197Y-113881138D01*
X131508944Y-114087342D01*
X131490339Y-114300000D01*
X122953500Y-114300000D01*
X122953500Y-114136362D01*
X122946989Y-114075799D01*
X122946988Y-114075797D01*
X122946988Y-114075794D01*
X122895889Y-113938796D01*
X122808261Y-113821738D01*
X122691203Y-113734110D01*
X122554205Y-113683011D01*
X122496924Y-113676853D01*
X122496918Y-113676852D01*
X122493638Y-113676500D01*
X121346362Y-113676500D01*
X121343082Y-113676852D01*
X121343075Y-113676853D01*
X121285794Y-113683011D01*
X121148796Y-113734110D01*
X121145731Y-113736405D01*
X121080265Y-113760819D01*
X121035428Y-113755795D01*
X120900000Y-113714712D01*
X120900000Y-114034688D01*
X120893643Y-114069922D01*
X120893011Y-114075798D01*
X120893011Y-114075799D01*
X120886500Y-114136362D01*
X120886500Y-114643875D01*
X120830948Y-114600637D01*
X120712576Y-114560000D01*
X120618927Y-114560000D01*
X120526554Y-114575414D01*
X120416486Y-114634981D01*
X120411631Y-114640254D01*
X120400594Y-114528201D01*
X120399999Y-114516068D01*
X120399999Y-113714712D01*
X120255850Y-113758440D01*
X120082468Y-113851116D01*
X120014066Y-113865358D01*
X119965562Y-113851116D01*
X119944782Y-113840009D01*
X119777417Y-113750550D01*
X119680009Y-113721001D01*
X119582599Y-113691453D01*
X119380000Y-113671499D01*
X119177400Y-113691453D01*
X118982580Y-113750551D01*
X118803040Y-113846517D01*
X118645669Y-113975669D01*
X118516517Y-114133040D01*
X118420551Y-114312580D01*
X118361453Y-114507400D01*
X118346798Y-114656191D01*
X118346797Y-114656207D01*
X118346500Y-114659225D01*
X118346500Y-115210775D01*
X114300000Y-115210775D01*
X114300000Y-107699999D01*
X117930384Y-107699999D01*
X117930385Y-107700000D01*
X120946589Y-107700000D01*
X120921466Y-107797030D01*
X120911114Y-108001165D01*
X120941574Y-108200000D01*
X117933793Y-108200000D01*
X117945960Y-108320951D01*
X117947337Y-108329112D01*
X118015248Y-108614080D01*
X118017699Y-108621981D01*
X118122987Y-108895354D01*
X118126467Y-108902855D01*
X118267254Y-109159758D01*
X118271707Y-109166733D01*
X118445476Y-109402574D01*
X118450821Y-109408896D01*
X118654474Y-109619472D01*
X118660609Y-109625020D01*
X118890518Y-109806578D01*
X118897328Y-109811253D01*
X119149393Y-109960551D01*
X119156769Y-109964278D01*
X119426482Y-110078647D01*
X119434286Y-110081357D01*
X119716820Y-110158751D01*
X119724942Y-110160402D01*
X120015278Y-110199448D01*
X120023521Y-110200000D01*
X121670000Y-110200000D01*
X121670000Y-108924625D01*
X121817801Y-108955000D01*
X121970967Y-108955000D01*
X122123348Y-108939504D01*
X122170000Y-108924867D01*
X122170000Y-110200000D01*
X123743146Y-110200000D01*
X123747306Y-110199860D01*
X123966434Y-110185191D01*
X123974627Y-110184089D01*
X124261701Y-110125739D01*
X124269690Y-110123551D01*
X124546429Y-110027457D01*
X124554041Y-110024229D01*
X124815501Y-109892107D01*
X124822618Y-109887893D01*
X125064144Y-109722094D01*
X125070632Y-109716970D01*
X125287898Y-109520464D01*
X125293648Y-109514519D01*
X125482786Y-109290806D01*
X125487692Y-109284148D01*
X125645327Y-109037216D01*
X125649296Y-109029973D01*
X125772610Y-108764238D01*
X125775583Y-108756519D01*
X125862378Y-108476718D01*
X125864294Y-108468679D01*
X125909615Y-108200000D01*
X122893411Y-108200000D01*
X122918534Y-108102970D01*
X122928886Y-107898835D01*
X122898426Y-107700000D01*
X125906207Y-107700000D01*
X125906207Y-107699999D01*
X125894039Y-107579048D01*
X125892662Y-107570887D01*
X125824751Y-107285919D01*
X125822300Y-107278018D01*
X125717012Y-107004645D01*
X125713532Y-106997144D01*
X125572745Y-106740241D01*
X125568292Y-106733266D01*
X125394523Y-106497425D01*
X125389178Y-106491103D01*
X125185525Y-106280527D01*
X125179390Y-106274979D01*
X124949481Y-106093421D01*
X124942671Y-106088746D01*
X124690606Y-105939448D01*
X124683230Y-105935721D01*
X124413517Y-105821352D01*
X124405713Y-105818642D01*
X124123179Y-105741248D01*
X124115057Y-105739597D01*
X123824721Y-105700551D01*
X123816479Y-105700000D01*
X122170000Y-105700000D01*
X122170000Y-106975374D01*
X122022199Y-106945000D01*
X121869033Y-106945000D01*
X121716652Y-106960496D01*
X121670000Y-106975132D01*
X121670000Y-105700000D01*
X120096854Y-105700000D01*
X120092693Y-105700139D01*
X119873565Y-105714808D01*
X119865372Y-105715910D01*
X119578298Y-105774260D01*
X119570309Y-105776448D01*
X119293570Y-105872542D01*
X119285958Y-105875770D01*
X119024498Y-106007892D01*
X119017381Y-106012106D01*
X118775855Y-106177905D01*
X118769367Y-106183029D01*
X118552101Y-106379535D01*
X118546351Y-106385480D01*
X118357213Y-106609193D01*
X118352307Y-106615851D01*
X118194672Y-106862783D01*
X118190703Y-106870026D01*
X118067389Y-107135761D01*
X118064416Y-107143480D01*
X117977621Y-107423281D01*
X117975705Y-107431320D01*
X117930384Y-107699999D01*
X114300000Y-107699999D01*
X114300000Y-102870000D01*
X125236501Y-102870000D01*
X125256456Y-103098084D01*
X125315717Y-103319246D01*
X125412474Y-103526744D01*
X125412476Y-103526746D01*
X125412477Y-103526749D01*
X125543802Y-103714300D01*
X125705700Y-103876198D01*
X125893251Y-104007523D01*
X125946401Y-104032307D01*
X125998839Y-104078477D01*
X126017992Y-104145670D01*
X125997777Y-104212552D01*
X125946403Y-104257069D01*
X125897520Y-104279864D01*
X125711180Y-104410341D01*
X125550341Y-104571180D01*
X125419865Y-104757519D01*
X125323733Y-104963673D01*
X125271128Y-105159999D01*
X125271128Y-105160000D01*
X126630497Y-105160000D01*
X126581083Y-105245587D01*
X126551232Y-105376370D01*
X126561257Y-105510140D01*
X126610266Y-105635013D01*
X126630193Y-105660000D01*
X125271128Y-105660000D01*
X125323733Y-105856326D01*
X125419865Y-106062480D01*
X125550341Y-106248819D01*
X125711180Y-106409658D01*
X125897519Y-106540134D01*
X126103673Y-106636266D01*
X126323397Y-106695141D01*
X126490535Y-106709763D01*
X126495946Y-106710000D01*
X126750000Y-106710000D01*
X126750000Y-105778137D01*
X126804741Y-105815459D01*
X126932927Y-105855000D01*
X127033346Y-105855000D01*
X127132647Y-105840033D01*
X127249999Y-105783518D01*
X127249999Y-106709999D01*
X127250000Y-106710000D01*
X127504054Y-106710000D01*
X127509464Y-106709763D01*
X127676602Y-106695141D01*
X127896326Y-106636266D01*
X128102480Y-106540134D01*
X128288819Y-106409658D01*
X128449658Y-106248819D01*
X128580134Y-106062480D01*
X128676266Y-105856326D01*
X128728872Y-105660000D01*
X127369503Y-105660000D01*
X127418917Y-105574413D01*
X127448768Y-105443630D01*
X127438743Y-105309860D01*
X127389734Y-105184987D01*
X127369807Y-105160000D01*
X128728872Y-105160000D01*
X128728871Y-105159999D01*
X128676266Y-104963673D01*
X128580134Y-104757519D01*
X128449658Y-104571180D01*
X128288819Y-104410341D01*
X128102482Y-104279866D01*
X128053597Y-104257070D01*
X128001158Y-104210897D01*
X127982007Y-104143703D01*
X128002223Y-104076822D01*
X128053595Y-104032308D01*
X128106749Y-104007523D01*
X128294300Y-103876198D01*
X128456198Y-103714300D01*
X128587523Y-103526749D01*
X128684284Y-103319243D01*
X128743543Y-103098087D01*
X128763498Y-102870000D01*
X128743543Y-102641913D01*
X128684284Y-102420757D01*
X128587523Y-102213251D01*
X128456198Y-102025700D01*
X128294300Y-101863802D01*
X128106749Y-101732477D01*
X128106745Y-101732475D01*
X128106744Y-101732474D01*
X127899246Y-101635717D01*
X127899243Y-101635716D01*
X127744771Y-101594325D01*
X127678084Y-101576456D01*
X127509827Y-101561736D01*
X127509822Y-101561735D01*
X127507127Y-101561500D01*
X126492873Y-101561500D01*
X126490178Y-101561735D01*
X126490172Y-101561736D01*
X126321915Y-101576456D01*
X126100753Y-101635717D01*
X125893255Y-101732474D01*
X125705696Y-101863805D01*
X125543805Y-102025696D01*
X125412474Y-102213255D01*
X125315717Y-102420753D01*
X125256456Y-102641915D01*
X125236501Y-102870000D01*
X114300000Y-102870000D01*
X114300000Y-100608638D01*
X152596500Y-100608638D01*
X152596852Y-100611918D01*
X152596853Y-100611924D01*
X152603011Y-100669205D01*
X152654110Y-100806203D01*
X152741738Y-100923261D01*
X152858796Y-101010889D01*
X152995794Y-101061988D01*
X152995797Y-101061988D01*
X152995799Y-101061989D01*
X153056362Y-101068500D01*
X153059672Y-101068500D01*
X155550328Y-101068500D01*
X155553638Y-101068500D01*
X155614201Y-101061989D01*
X155614203Y-101061988D01*
X155614205Y-101061988D01*
X155692124Y-101032924D01*
X155751204Y-101010889D01*
X155868261Y-100923261D01*
X155955889Y-100806204D01*
X155982276Y-100735459D01*
X156006988Y-100669205D01*
X156006988Y-100669203D01*
X156006989Y-100669201D01*
X156013500Y-100608638D01*
X156013500Y-98111362D01*
X156006989Y-98050799D01*
X156006988Y-98050797D01*
X156006988Y-98050794D01*
X155955889Y-97913796D01*
X155868261Y-97796738D01*
X155751203Y-97709110D01*
X155614205Y-97658011D01*
X155556924Y-97651853D01*
X155556918Y-97651852D01*
X155553638Y-97651500D01*
X153056362Y-97651500D01*
X153053082Y-97651852D01*
X153053075Y-97651853D01*
X152995794Y-97658011D01*
X152858796Y-97709110D01*
X152741738Y-97796738D01*
X152654110Y-97913796D01*
X152603011Y-98050794D01*
X152596853Y-98108075D01*
X152596500Y-98111362D01*
X152596500Y-100608638D01*
X114300000Y-100608638D01*
X114300000Y-97539999D01*
X117930384Y-97539999D01*
X117930385Y-97540000D01*
X120946589Y-97540000D01*
X120921466Y-97637030D01*
X120911114Y-97841165D01*
X120941574Y-98040000D01*
X117933793Y-98040000D01*
X117945960Y-98160951D01*
X117947337Y-98169112D01*
X118015248Y-98454080D01*
X118017699Y-98461981D01*
X118122987Y-98735354D01*
X118126467Y-98742855D01*
X118267254Y-98999758D01*
X118271707Y-99006733D01*
X118445476Y-99242574D01*
X118450821Y-99248896D01*
X118654474Y-99459472D01*
X118660609Y-99465020D01*
X118890518Y-99646578D01*
X118897328Y-99651253D01*
X119149393Y-99800551D01*
X119156769Y-99804278D01*
X119426482Y-99918647D01*
X119434286Y-99921357D01*
X119716820Y-99998751D01*
X119724942Y-100000402D01*
X120015278Y-100039448D01*
X120023521Y-100040000D01*
X121670000Y-100040000D01*
X121670000Y-98764625D01*
X121817801Y-98795000D01*
X121970967Y-98795000D01*
X122123348Y-98779504D01*
X122170000Y-98764867D01*
X122170000Y-100040000D01*
X123743146Y-100040000D01*
X123747306Y-100039860D01*
X123966434Y-100025191D01*
X123974627Y-100024089D01*
X124261701Y-99965739D01*
X124269690Y-99963551D01*
X124546429Y-99867457D01*
X124554041Y-99864229D01*
X124815501Y-99732107D01*
X124822618Y-99727893D01*
X125064144Y-99562094D01*
X125070632Y-99556970D01*
X125287898Y-99360464D01*
X125293648Y-99354519D01*
X125482786Y-99130806D01*
X125487692Y-99124148D01*
X125645327Y-98877216D01*
X125649296Y-98869973D01*
X125772610Y-98604238D01*
X125775583Y-98596519D01*
X125862378Y-98316718D01*
X125864294Y-98308679D01*
X125909615Y-98040000D01*
X122893411Y-98040000D01*
X122918534Y-97942970D01*
X122928886Y-97738835D01*
X122898426Y-97540000D01*
X125906207Y-97540000D01*
X125906207Y-97539999D01*
X125894039Y-97419048D01*
X125892662Y-97410887D01*
X125824751Y-97125919D01*
X125822300Y-97118018D01*
X125717012Y-96844645D01*
X125713532Y-96837144D01*
X125572745Y-96580241D01*
X125568292Y-96573266D01*
X125394523Y-96337425D01*
X125389178Y-96331103D01*
X125185525Y-96120527D01*
X125179390Y-96114979D01*
X124949481Y-95933421D01*
X124942671Y-95928746D01*
X124690606Y-95779448D01*
X124683230Y-95775721D01*
X124413517Y-95661352D01*
X124405713Y-95658642D01*
X124123179Y-95581248D01*
X124115057Y-95579597D01*
X123894974Y-95549999D01*
X152591708Y-95549999D01*
X152610844Y-95805350D01*
X152667826Y-96055003D01*
X152761377Y-96293367D01*
X152889412Y-96515130D01*
X153049069Y-96715334D01*
X153236778Y-96889503D01*
X153236781Y-96889505D01*
X153448355Y-97033754D01*
X153679065Y-97144858D01*
X153923757Y-97220335D01*
X154176966Y-97258500D01*
X154433034Y-97258500D01*
X154686243Y-97220335D01*
X154930935Y-97144858D01*
X155161646Y-97033754D01*
X155373219Y-96889505D01*
X155560931Y-96715334D01*
X155720587Y-96515131D01*
X155848622Y-96293369D01*
X155942174Y-96055001D01*
X155999155Y-95805353D01*
X156018291Y-95550000D01*
X155999155Y-95294647D01*
X155942174Y-95044999D01*
X155848622Y-94806631D01*
X155720587Y-94584869D01*
X155560931Y-94384666D01*
X155560930Y-94384665D01*
X155373221Y-94210496D01*
X155273645Y-94142606D01*
X155161646Y-94066246D01*
X155161643Y-94066245D01*
X155161641Y-94066243D01*
X154930935Y-93955142D01*
X154686244Y-93879665D01*
X154433034Y-93841500D01*
X154176966Y-93841500D01*
X153923755Y-93879665D01*
X153679066Y-93955141D01*
X153448361Y-94066243D01*
X153448355Y-94066246D01*
X153393758Y-94103469D01*
X153236778Y-94210496D01*
X153049069Y-94384665D01*
X152889412Y-94584869D01*
X152761377Y-94806632D01*
X152667826Y-95044996D01*
X152610844Y-95294649D01*
X152591708Y-95549999D01*
X123894974Y-95549999D01*
X123824721Y-95540551D01*
X123816479Y-95540000D01*
X122170000Y-95540000D01*
X122170000Y-96815374D01*
X122022199Y-96785000D01*
X121869033Y-96785000D01*
X121716652Y-96800496D01*
X121670000Y-96815132D01*
X121670000Y-95540000D01*
X120096854Y-95540000D01*
X120092693Y-95540139D01*
X119873565Y-95554808D01*
X119865372Y-95555910D01*
X119578298Y-95614260D01*
X119570309Y-95616448D01*
X119293570Y-95712542D01*
X119285958Y-95715770D01*
X119024498Y-95847892D01*
X119017381Y-95852106D01*
X118775855Y-96017905D01*
X118769367Y-96023029D01*
X118552101Y-96219535D01*
X118546351Y-96225480D01*
X118357213Y-96449193D01*
X118352307Y-96455851D01*
X118194672Y-96702783D01*
X118190703Y-96710026D01*
X118067389Y-96975761D01*
X118064416Y-96983480D01*
X117977621Y-97263281D01*
X117975705Y-97271320D01*
X117930384Y-97539999D01*
X114300000Y-97539999D01*
X114300000Y-89074861D01*
X126271211Y-89074861D01*
X126290257Y-89329015D01*
X126346972Y-89577498D01*
X126440088Y-89814752D01*
X126565227Y-90031500D01*
X126567521Y-90035473D01*
X126726430Y-90234738D01*
X126913263Y-90408093D01*
X127123846Y-90551666D01*
X127353476Y-90662250D01*
X127597022Y-90737374D01*
X127849045Y-90775361D01*
X128103915Y-90775361D01*
X128355938Y-90737374D01*
X128599484Y-90662250D01*
X128829114Y-90551666D01*
X129039697Y-90408093D01*
X129226530Y-90234738D01*
X129385439Y-90035473D01*
X129512873Y-89814749D01*
X129605988Y-89577498D01*
X129662702Y-89329018D01*
X129681748Y-89074861D01*
X129662702Y-88820704D01*
X129605988Y-88572224D01*
X129522695Y-88360000D01*
X136431843Y-88360000D01*
X136450435Y-88584363D01*
X136450435Y-88584366D01*
X136450436Y-88584368D01*
X136498673Y-88774852D01*
X136505705Y-88802618D01*
X136596138Y-89008788D01*
X136596140Y-89008791D01*
X136719278Y-89197268D01*
X136871760Y-89362906D01*
X137049424Y-89501189D01*
X137247426Y-89608342D01*
X137460365Y-89681444D01*
X137682431Y-89718500D01*
X137907569Y-89718500D01*
X138129635Y-89681444D01*
X138342574Y-89608342D01*
X138540576Y-89501189D01*
X138718240Y-89362906D01*
X138870722Y-89197268D01*
X138993860Y-89008791D01*
X139041580Y-88900000D01*
X150460033Y-88900000D01*
X150479858Y-89126602D01*
X150538733Y-89346326D01*
X150634866Y-89552484D01*
X150685972Y-89625471D01*
X150685974Y-89625472D01*
X151367046Y-88944399D01*
X151379835Y-89025148D01*
X151437359Y-89138045D01*
X151526955Y-89227641D01*
X151639852Y-89285165D01*
X151720599Y-89297953D01*
X151039526Y-89979025D01*
X151039526Y-89979026D01*
X151112515Y-90030133D01*
X151318673Y-90126266D01*
X151538397Y-90185141D01*
X151764999Y-90204966D01*
X151991602Y-90185141D01*
X152211326Y-90126266D01*
X152417480Y-90030134D01*
X152490472Y-89979025D01*
X151809401Y-89297953D01*
X151890148Y-89285165D01*
X152003045Y-89227641D01*
X152092641Y-89138045D01*
X152150165Y-89025148D01*
X152162953Y-88944400D01*
X152844025Y-89625472D01*
X152895133Y-89552481D01*
X152917927Y-89503600D01*
X152964098Y-89451160D01*
X153031292Y-89432007D01*
X153098173Y-89452222D01*
X153142692Y-89503598D01*
X153167475Y-89556746D01*
X153167476Y-89556748D01*
X153167477Y-89556749D01*
X153298802Y-89744300D01*
X153460700Y-89906198D01*
X153648251Y-90037523D01*
X153648254Y-90037524D01*
X153648255Y-90037525D01*
X153672887Y-90049011D01*
X153855757Y-90134284D01*
X154076913Y-90193543D01*
X154305000Y-90213498D01*
X154533087Y-90193543D01*
X154754243Y-90134284D01*
X154961749Y-90037523D01*
X155149300Y-89906198D01*
X155311198Y-89744300D01*
X155442523Y-89556749D01*
X155539284Y-89349243D01*
X155598543Y-89128087D01*
X155618498Y-88900000D01*
X155598543Y-88671913D01*
X155539284Y-88450757D01*
X155467307Y-88296400D01*
X155442525Y-88243255D01*
X155442524Y-88243254D01*
X155442523Y-88243251D01*
X155311198Y-88055700D01*
X155149300Y-87893802D01*
X154961749Y-87762477D01*
X154961746Y-87762476D01*
X154961744Y-87762474D01*
X154754246Y-87665717D01*
X154754243Y-87665716D01*
X154643664Y-87636086D01*
X154533084Y-87606456D01*
X154305000Y-87586501D01*
X154076915Y-87606456D01*
X153855753Y-87665717D01*
X153648255Y-87762474D01*
X153648250Y-87762477D01*
X153648251Y-87762477D01*
X153494222Y-87870330D01*
X153460696Y-87893805D01*
X153298805Y-88055696D01*
X153298802Y-88055699D01*
X153298802Y-88055700D01*
X153167477Y-88243251D01*
X153167476Y-88243253D01*
X153167474Y-88243256D01*
X153142691Y-88296402D01*
X153096518Y-88348841D01*
X153029325Y-88367992D01*
X152962444Y-88347775D01*
X152917927Y-88296400D01*
X152895131Y-88247512D01*
X152844025Y-88174526D01*
X152162953Y-88855598D01*
X152150165Y-88774852D01*
X152092641Y-88661955D01*
X152003045Y-88572359D01*
X151890148Y-88514835D01*
X151809400Y-88502046D01*
X152490472Y-87820974D01*
X152490471Y-87820972D01*
X152417484Y-87769866D01*
X152211326Y-87673733D01*
X151991602Y-87614858D01*
X151764999Y-87595033D01*
X151538397Y-87614858D01*
X151318672Y-87673733D01*
X151112516Y-87769865D01*
X151039527Y-87820973D01*
X151039526Y-87820973D01*
X151720600Y-88502046D01*
X151639852Y-88514835D01*
X151526955Y-88572359D01*
X151437359Y-88661955D01*
X151379835Y-88774852D01*
X151367046Y-88855599D01*
X150685973Y-88174526D01*
X150685973Y-88174527D01*
X150634865Y-88247516D01*
X150538733Y-88453672D01*
X150479858Y-88673397D01*
X150460033Y-88900000D01*
X139041580Y-88900000D01*
X139084296Y-88802616D01*
X139139564Y-88584368D01*
X139158156Y-88360000D01*
X139139564Y-88135632D01*
X139084296Y-87917384D01*
X138993860Y-87711209D01*
X138870722Y-87522732D01*
X138718240Y-87357094D01*
X138540576Y-87218811D01*
X138342574Y-87111658D01*
X138342573Y-87111657D01*
X138342572Y-87111657D01*
X138129636Y-87038556D01*
X137907569Y-87001500D01*
X137682431Y-87001500D01*
X137460363Y-87038556D01*
X137247427Y-87111657D01*
X137049424Y-87218811D01*
X136871760Y-87357094D01*
X136719279Y-87522730D01*
X136596138Y-87711211D01*
X136505705Y-87917381D01*
X136450435Y-88135636D01*
X136431843Y-88360000D01*
X129522695Y-88360000D01*
X129512873Y-88334973D01*
X129485817Y-88288111D01*
X129406170Y-88150156D01*
X129385439Y-88114249D01*
X129226530Y-87914984D01*
X129039697Y-87741629D01*
X128829114Y-87598056D01*
X128599484Y-87487472D01*
X128355938Y-87412348D01*
X128103915Y-87374361D01*
X127849045Y-87374361D01*
X127597022Y-87412348D01*
X127353476Y-87487472D01*
X127131052Y-87594586D01*
X127123846Y-87598056D01*
X127020551Y-87668481D01*
X126913261Y-87741630D01*
X126726429Y-87914983D01*
X126726430Y-87914984D01*
X126614213Y-88055700D01*
X126567518Y-88114253D01*
X126440088Y-88334969D01*
X126346972Y-88572223D01*
X126290257Y-88820706D01*
X126271211Y-89074861D01*
X114300000Y-89074861D01*
X114300000Y-83280000D01*
X136431843Y-83280000D01*
X136450435Y-83504363D01*
X136450435Y-83504366D01*
X136450436Y-83504368D01*
X136498673Y-83694852D01*
X136505705Y-83722618D01*
X136596138Y-83928788D01*
X136596140Y-83928791D01*
X136719278Y-84117268D01*
X136871760Y-84282906D01*
X137049424Y-84421189D01*
X137247426Y-84528342D01*
X137460365Y-84601444D01*
X137682431Y-84638500D01*
X137907569Y-84638500D01*
X138129635Y-84601444D01*
X138342574Y-84528342D01*
X138540576Y-84421189D01*
X138718240Y-84282906D01*
X138870722Y-84117268D01*
X138993860Y-83928791D01*
X139084296Y-83722616D01*
X139139564Y-83504368D01*
X139158156Y-83280000D01*
X146591843Y-83280000D01*
X146610435Y-83504363D01*
X146610435Y-83504366D01*
X146610436Y-83504368D01*
X146658673Y-83694852D01*
X146665705Y-83722618D01*
X146756138Y-83928788D01*
X146756140Y-83928791D01*
X146879278Y-84117268D01*
X147031760Y-84282906D01*
X147209424Y-84421189D01*
X147407426Y-84528342D01*
X147620365Y-84601444D01*
X147842431Y-84638500D01*
X148067569Y-84638500D01*
X148289635Y-84601444D01*
X148382746Y-84569477D01*
X148397794Y-84565351D01*
X149719346Y-84291086D01*
X149744543Y-84288500D01*
X157105904Y-84288500D01*
X157172943Y-84308185D01*
X157193585Y-84324819D01*
X159719184Y-86850418D01*
X159752669Y-86911741D01*
X159747685Y-86981433D01*
X159705813Y-87037366D01*
X159663598Y-87057874D01*
X159556506Y-87086570D01*
X159342422Y-87186399D01*
X159258625Y-87245072D01*
X159887466Y-87873913D01*
X159877685Y-87875320D01*
X159746900Y-87935048D01*
X159638239Y-88029202D01*
X159560507Y-88150156D01*
X159536923Y-88230476D01*
X158905072Y-87598625D01*
X158846399Y-87682422D01*
X158746569Y-87896507D01*
X158685430Y-88124681D01*
X158664842Y-88360000D01*
X158685430Y-88595318D01*
X158746569Y-88823492D01*
X158846400Y-89037580D01*
X158905073Y-89121373D01*
X159536923Y-88489523D01*
X159560507Y-88569844D01*
X159638239Y-88690798D01*
X159746900Y-88784952D01*
X159877685Y-88844680D01*
X159887465Y-88846086D01*
X159258625Y-89474925D01*
X159342420Y-89533599D01*
X159556507Y-89633430D01*
X159784681Y-89694569D01*
X160019999Y-89715157D01*
X160255318Y-89694569D01*
X160483492Y-89633430D01*
X160697576Y-89533600D01*
X160781373Y-89474925D01*
X160152534Y-88846086D01*
X160162315Y-88844680D01*
X160293100Y-88784952D01*
X160401761Y-88690798D01*
X160479493Y-88569844D01*
X160503076Y-88489524D01*
X161134925Y-89121373D01*
X161193600Y-89037576D01*
X161293430Y-88823491D01*
X161322125Y-88716403D01*
X161358490Y-88656742D01*
X161421337Y-88626213D01*
X161490712Y-88634508D01*
X161529581Y-88660815D01*
X176412535Y-103543769D01*
X176420706Y-103552784D01*
X176448432Y-103586568D01*
X176601996Y-103712595D01*
X176777196Y-103806241D01*
X176805879Y-103814942D01*
X176822074Y-103819855D01*
X176879191Y-103837181D01*
X176967300Y-103863909D01*
X177165000Y-103883380D01*
X177208488Y-103879096D01*
X177220642Y-103878500D01*
X180744087Y-103878500D01*
X180766939Y-103880624D01*
X182024954Y-104116502D01*
X182034196Y-104118603D01*
X182064719Y-104126781D01*
X182201913Y-104163543D01*
X182372873Y-104178500D01*
X182397812Y-104178500D01*
X182406606Y-104178811D01*
X182444029Y-104181473D01*
X182449329Y-104181243D01*
X182450915Y-104181145D01*
X182485100Y-104178791D01*
X182493583Y-104178500D01*
X183384418Y-104178500D01*
X183387127Y-104178500D01*
X183558087Y-104163543D01*
X183779243Y-104104284D01*
X183986749Y-104007523D01*
X184174300Y-103876198D01*
X184336198Y-103714300D01*
X184467523Y-103526749D01*
X184564284Y-103319243D01*
X184623543Y-103098087D01*
X184643498Y-102870000D01*
X184623543Y-102641913D01*
X184564284Y-102420757D01*
X184467523Y-102213251D01*
X184336198Y-102025700D01*
X184174300Y-101863802D01*
X183986749Y-101732477D01*
X183986748Y-101732476D01*
X183986746Y-101732475D01*
X183933598Y-101707692D01*
X183881159Y-101661519D01*
X183862007Y-101594325D01*
X183882223Y-101527444D01*
X183933600Y-101482927D01*
X183982481Y-101460133D01*
X184168819Y-101329658D01*
X184329658Y-101168819D01*
X184460134Y-100982480D01*
X184556266Y-100776326D01*
X184608872Y-100580000D01*
X183249503Y-100580000D01*
X183298917Y-100494413D01*
X183328768Y-100363630D01*
X183318743Y-100229860D01*
X183269734Y-100104987D01*
X183249807Y-100080000D01*
X184608872Y-100080000D01*
X184608871Y-100079999D01*
X184556266Y-99883673D01*
X184460134Y-99677519D01*
X184329658Y-99491180D01*
X184168819Y-99330341D01*
X183982480Y-99199865D01*
X183776326Y-99103733D01*
X183556602Y-99044858D01*
X183389464Y-99030236D01*
X183384054Y-99030000D01*
X183130000Y-99030000D01*
X183130000Y-99961862D01*
X183075259Y-99924541D01*
X182947073Y-99885000D01*
X182846654Y-99885000D01*
X182747353Y-99899967D01*
X182630000Y-99956481D01*
X182630000Y-99030000D01*
X182375946Y-99030000D01*
X182370535Y-99030236D01*
X182203397Y-99044858D01*
X181983673Y-99103733D01*
X181777519Y-99199865D01*
X181591180Y-99330341D01*
X181430341Y-99491180D01*
X181299865Y-99677519D01*
X181203733Y-99883673D01*
X181151128Y-100079999D01*
X181151128Y-100080000D01*
X182510497Y-100080000D01*
X182461083Y-100165587D01*
X182431232Y-100296370D01*
X182441257Y-100430140D01*
X182490266Y-100555013D01*
X182510193Y-100580000D01*
X181151128Y-100580000D01*
X181203733Y-100776326D01*
X181299865Y-100982480D01*
X181430341Y-101168819D01*
X181591180Y-101329658D01*
X181772287Y-101456471D01*
X181815911Y-101511048D01*
X181823104Y-101580547D01*
X181791582Y-101642901D01*
X181731352Y-101678315D01*
X181724015Y-101679922D01*
X180766931Y-101859376D01*
X180744079Y-101861500D01*
X177634096Y-101861500D01*
X177567057Y-101841815D01*
X177546415Y-101825181D01*
X173261233Y-97539999D01*
X183970384Y-97539999D01*
X183970385Y-97540000D01*
X186986589Y-97540000D01*
X186961466Y-97637030D01*
X186951114Y-97841165D01*
X186981574Y-98040000D01*
X183973793Y-98040000D01*
X183985960Y-98160951D01*
X183987337Y-98169112D01*
X184055248Y-98454080D01*
X184057699Y-98461981D01*
X184162987Y-98735354D01*
X184166467Y-98742855D01*
X184307254Y-98999758D01*
X184311707Y-99006733D01*
X184485476Y-99242574D01*
X184490821Y-99248896D01*
X184694474Y-99459472D01*
X184700609Y-99465020D01*
X184930518Y-99646578D01*
X184937328Y-99651253D01*
X185189393Y-99800551D01*
X185196769Y-99804278D01*
X185466482Y-99918647D01*
X185474286Y-99921357D01*
X185756820Y-99998751D01*
X185764942Y-100000402D01*
X186055278Y-100039448D01*
X186063521Y-100040000D01*
X187710000Y-100040000D01*
X187710000Y-98764625D01*
X187857801Y-98795000D01*
X188010967Y-98795000D01*
X188163348Y-98779504D01*
X188210000Y-98764867D01*
X188210000Y-100040000D01*
X189783146Y-100040000D01*
X189787306Y-100039860D01*
X190006434Y-100025191D01*
X190014627Y-100024089D01*
X190301701Y-99965739D01*
X190309690Y-99963551D01*
X190586429Y-99867457D01*
X190594041Y-99864229D01*
X190855501Y-99732107D01*
X190862618Y-99727893D01*
X191104144Y-99562094D01*
X191110632Y-99556970D01*
X191327898Y-99360464D01*
X191333648Y-99354519D01*
X191522786Y-99130806D01*
X191527692Y-99124148D01*
X191685327Y-98877216D01*
X191689296Y-98869973D01*
X191812610Y-98604238D01*
X191815583Y-98596519D01*
X191902378Y-98316718D01*
X191904294Y-98308679D01*
X191949615Y-98040000D01*
X188933411Y-98040000D01*
X188958534Y-97942970D01*
X188968886Y-97738835D01*
X188938426Y-97540000D01*
X191946207Y-97540000D01*
X191946207Y-97539999D01*
X191934039Y-97419048D01*
X191932662Y-97410887D01*
X191864751Y-97125919D01*
X191862300Y-97118018D01*
X191757012Y-96844645D01*
X191753532Y-96837144D01*
X191612745Y-96580241D01*
X191608292Y-96573266D01*
X191434523Y-96337425D01*
X191429178Y-96331103D01*
X191225525Y-96120527D01*
X191219390Y-96114979D01*
X190989481Y-95933421D01*
X190982671Y-95928746D01*
X190730606Y-95779448D01*
X190723230Y-95775721D01*
X190453517Y-95661352D01*
X190445713Y-95658642D01*
X190163179Y-95581248D01*
X190155057Y-95579597D01*
X189864721Y-95540551D01*
X189856479Y-95540000D01*
X188210000Y-95540000D01*
X188210000Y-96815374D01*
X188062199Y-96785000D01*
X187909033Y-96785000D01*
X187756652Y-96800496D01*
X187710000Y-96815132D01*
X187710000Y-95540000D01*
X186136854Y-95540000D01*
X186132693Y-95540139D01*
X185913565Y-95554808D01*
X185905372Y-95555910D01*
X185618298Y-95614260D01*
X185610309Y-95616448D01*
X185333570Y-95712542D01*
X185325958Y-95715770D01*
X185064498Y-95847892D01*
X185057381Y-95852106D01*
X184815855Y-96017905D01*
X184809367Y-96023029D01*
X184592101Y-96219535D01*
X184586351Y-96225480D01*
X184397213Y-96449193D01*
X184392307Y-96455851D01*
X184234672Y-96702783D01*
X184230703Y-96710026D01*
X184107389Y-96975761D01*
X184104416Y-96983480D01*
X184017621Y-97263281D01*
X184015705Y-97271320D01*
X183970384Y-97539999D01*
X173261233Y-97539999D01*
X167496233Y-91774999D01*
X174181708Y-91774999D01*
X174200844Y-92030350D01*
X174257826Y-92280003D01*
X174351377Y-92518367D01*
X174479412Y-92740130D01*
X174639069Y-92940334D01*
X174826778Y-93114503D01*
X174826781Y-93114505D01*
X175038355Y-93258754D01*
X175269065Y-93369858D01*
X175513757Y-93445335D01*
X175766966Y-93483500D01*
X176023034Y-93483500D01*
X176276243Y-93445335D01*
X176520935Y-93369858D01*
X176751646Y-93258754D01*
X176963219Y-93114505D01*
X177150931Y-92940334D01*
X177275553Y-92784061D01*
X177332741Y-92743922D01*
X177402553Y-92741072D01*
X177462823Y-92776417D01*
X177494416Y-92838736D01*
X177496500Y-92861374D01*
X177496500Y-94664547D01*
X177496797Y-94667564D01*
X177496798Y-94667581D01*
X177511091Y-94812698D01*
X177511092Y-94812701D01*
X177568759Y-95002804D01*
X177662405Y-95178004D01*
X177788432Y-95331568D01*
X177941996Y-95457595D01*
X178117196Y-95551241D01*
X178307299Y-95608908D01*
X178505000Y-95628380D01*
X178702701Y-95608908D01*
X178892804Y-95551241D01*
X179046547Y-95469063D01*
X179114949Y-95454822D01*
X179163450Y-95469062D01*
X179317196Y-95551241D01*
X179507299Y-95608908D01*
X179705000Y-95628380D01*
X179902701Y-95608908D01*
X180092804Y-95551241D01*
X180268004Y-95457595D01*
X180421568Y-95331568D01*
X180547595Y-95178004D01*
X180641241Y-95002804D01*
X180698908Y-94812701D01*
X180713500Y-94664547D01*
X180713500Y-91440000D01*
X186011501Y-91440000D01*
X186031456Y-91668084D01*
X186090717Y-91889246D01*
X186187474Y-92096744D01*
X186187476Y-92096746D01*
X186187477Y-92096749D01*
X186318802Y-92284300D01*
X186480700Y-92446198D01*
X186668251Y-92577523D01*
X186668254Y-92577524D01*
X186668255Y-92577525D01*
X186772004Y-92625903D01*
X186875757Y-92674284D01*
X187096913Y-92733543D01*
X187325000Y-92753498D01*
X187553087Y-92733543D01*
X187774243Y-92674284D01*
X187981749Y-92577523D01*
X188169300Y-92446198D01*
X188331198Y-92284300D01*
X188462523Y-92096749D01*
X188559284Y-91889243D01*
X188618543Y-91668087D01*
X188638498Y-91440000D01*
X188618543Y-91211913D01*
X188559284Y-90990757D01*
X188462523Y-90783251D01*
X188331198Y-90595700D01*
X188169300Y-90433802D01*
X187981749Y-90302477D01*
X187963132Y-90293796D01*
X187938655Y-90282382D01*
X187886215Y-90236210D01*
X187867063Y-90169017D01*
X187887278Y-90102136D01*
X187938655Y-90057618D01*
X187941882Y-90056112D01*
X187981749Y-90037523D01*
X188169300Y-89906198D01*
X188331198Y-89744300D01*
X188462523Y-89556749D01*
X188559284Y-89349243D01*
X188618543Y-89128087D01*
X188638498Y-88900000D01*
X188638498Y-88899999D01*
X190991672Y-88899999D01*
X191010948Y-89132621D01*
X191010948Y-89132624D01*
X191010949Y-89132626D01*
X191027319Y-89197268D01*
X191068251Y-89358908D01*
X191162016Y-89572669D01*
X191289684Y-89768081D01*
X191376857Y-89862775D01*
X191407779Y-89925429D01*
X191399919Y-89994856D01*
X191355772Y-90049011D01*
X191328962Y-90062939D01*
X191258796Y-90089110D01*
X191141738Y-90176738D01*
X191054110Y-90293796D01*
X191003011Y-90430794D01*
X190996853Y-90488075D01*
X190996500Y-90491362D01*
X190996500Y-92388638D01*
X190996852Y-92391918D01*
X190996853Y-92391924D01*
X191003011Y-92449205D01*
X191054110Y-92586203D01*
X191141738Y-92703261D01*
X191258796Y-92790889D01*
X191395794Y-92841988D01*
X191395797Y-92841988D01*
X191395799Y-92841989D01*
X191456362Y-92848500D01*
X191459672Y-92848500D01*
X193350328Y-92848500D01*
X193353638Y-92848500D01*
X193414201Y-92841989D01*
X193414203Y-92841988D01*
X193414205Y-92841988D01*
X193492124Y-92812924D01*
X193551204Y-92790889D01*
X193668261Y-92703261D01*
X193755889Y-92586204D01*
X193806989Y-92449201D01*
X193813500Y-92388638D01*
X193813500Y-90491362D01*
X193806989Y-90430799D01*
X193806988Y-90430797D01*
X193806988Y-90430794D01*
X193755889Y-90293796D01*
X193668261Y-90176738D01*
X193551204Y-90089110D01*
X193481037Y-90062939D01*
X193425104Y-90021067D01*
X193400688Y-89955603D01*
X193415541Y-89887330D01*
X193433138Y-89862780D01*
X193520314Y-89768083D01*
X193647984Y-89572669D01*
X193741749Y-89358907D01*
X193799051Y-89132626D01*
X193818327Y-88900000D01*
X193815012Y-88860000D01*
X193810258Y-88802618D01*
X193799051Y-88667374D01*
X193741749Y-88441093D01*
X193647984Y-88227331D01*
X193521535Y-88033786D01*
X193520315Y-88031918D01*
X193393172Y-87893805D01*
X193362220Y-87860182D01*
X193358075Y-87856956D01*
X193309991Y-87819530D01*
X193178017Y-87716810D01*
X192972727Y-87605713D01*
X192972726Y-87605712D01*
X192972725Y-87605712D01*
X192751953Y-87529919D01*
X192521712Y-87491500D01*
X192288288Y-87491500D01*
X192058046Y-87529919D01*
X191837274Y-87605712D01*
X191631983Y-87716810D01*
X191447780Y-87860181D01*
X191289684Y-88031918D01*
X191162016Y-88227330D01*
X191068251Y-88441091D01*
X191010948Y-88667378D01*
X190991672Y-88899999D01*
X188638498Y-88899999D01*
X188618543Y-88671913D01*
X188559284Y-88450757D01*
X188487307Y-88296400D01*
X188462525Y-88243255D01*
X188462524Y-88243254D01*
X188462523Y-88243251D01*
X188331198Y-88055700D01*
X188169300Y-87893802D01*
X187981749Y-87762477D01*
X187981746Y-87762476D01*
X187981744Y-87762474D01*
X187774246Y-87665717D01*
X187774243Y-87665716D01*
X187663664Y-87636086D01*
X187553084Y-87606456D01*
X187325000Y-87586501D01*
X187096915Y-87606456D01*
X186875753Y-87665717D01*
X186668255Y-87762474D01*
X186668250Y-87762477D01*
X186668251Y-87762477D01*
X186514222Y-87870330D01*
X186480696Y-87893805D01*
X186318805Y-88055696D01*
X186318802Y-88055699D01*
X186318802Y-88055700D01*
X186277803Y-88114253D01*
X186187474Y-88243255D01*
X186090717Y-88450753D01*
X186031456Y-88671915D01*
X186011501Y-88900000D01*
X186031456Y-89128084D01*
X186031457Y-89128087D01*
X186089934Y-89346326D01*
X186090717Y-89349246D01*
X186187474Y-89556744D01*
X186187476Y-89556746D01*
X186187477Y-89556749D01*
X186318802Y-89744300D01*
X186480700Y-89906198D01*
X186668251Y-90037523D01*
X186708334Y-90056214D01*
X186711345Y-90057618D01*
X186763784Y-90103791D01*
X186782936Y-90170984D01*
X186762720Y-90237865D01*
X186711345Y-90282382D01*
X186668255Y-90302475D01*
X186668251Y-90302477D01*
X186504416Y-90417196D01*
X186480696Y-90433805D01*
X186318805Y-90595696D01*
X186187474Y-90783255D01*
X186090717Y-90990753D01*
X186031456Y-91211915D01*
X186011501Y-91440000D01*
X180713500Y-91440000D01*
X180713500Y-90506516D01*
X180733185Y-90439477D01*
X180785989Y-90393722D01*
X180855147Y-90383778D01*
X180907352Y-90404062D01*
X180913259Y-90408089D01*
X180913263Y-90408093D01*
X181123846Y-90551666D01*
X181353476Y-90662250D01*
X181597022Y-90737374D01*
X181849045Y-90775361D01*
X182103915Y-90775361D01*
X182355938Y-90737374D01*
X182599484Y-90662250D01*
X182829114Y-90551666D01*
X183039697Y-90408093D01*
X183226530Y-90234738D01*
X183385439Y-90035473D01*
X183512873Y-89814749D01*
X183605988Y-89577498D01*
X183662702Y-89329018D01*
X183681748Y-89074861D01*
X183662702Y-88820704D01*
X183605988Y-88572224D01*
X183512873Y-88334973D01*
X183485817Y-88288111D01*
X183406170Y-88150156D01*
X183385439Y-88114249D01*
X183226530Y-87914984D01*
X183039697Y-87741629D01*
X182829114Y-87598056D01*
X182599484Y-87487472D01*
X182355938Y-87412348D01*
X182330875Y-87408570D01*
X182246380Y-87395834D01*
X182183023Y-87366377D01*
X182145650Y-87307343D01*
X182146125Y-87237475D01*
X182177179Y-87185540D01*
X183655503Y-85707215D01*
X183674774Y-85691475D01*
X184723974Y-84997614D01*
X184739969Y-84988662D01*
X184806749Y-84957523D01*
X184994300Y-84826198D01*
X185156198Y-84664300D01*
X185287523Y-84476749D01*
X185384284Y-84269243D01*
X185443543Y-84048087D01*
X185463498Y-83820000D01*
X187281501Y-83820000D01*
X187301456Y-84048084D01*
X187301457Y-84048087D01*
X187359934Y-84266326D01*
X187360717Y-84269246D01*
X187457474Y-84476744D01*
X187457476Y-84476746D01*
X187457477Y-84476749D01*
X187588802Y-84664300D01*
X187750700Y-84826198D01*
X187938251Y-84957523D01*
X187938254Y-84957524D01*
X187938255Y-84957525D01*
X188013755Y-84992731D01*
X188145757Y-85054284D01*
X188366913Y-85113543D01*
X188595000Y-85133498D01*
X188823087Y-85113543D01*
X189044243Y-85054284D01*
X189251749Y-84957523D01*
X189439300Y-84826198D01*
X189601198Y-84664300D01*
X189732523Y-84476749D01*
X189829284Y-84269243D01*
X189888543Y-84048087D01*
X189908498Y-83820000D01*
X189908498Y-83819999D01*
X192290033Y-83819999D01*
X192309858Y-84046602D01*
X192368733Y-84266326D01*
X192464866Y-84472484D01*
X192515972Y-84545471D01*
X192515974Y-84545472D01*
X193197046Y-83864399D01*
X193209835Y-83945148D01*
X193267359Y-84058045D01*
X193356955Y-84147641D01*
X193469852Y-84205165D01*
X193550599Y-84217953D01*
X192869526Y-84899025D01*
X192869526Y-84899026D01*
X192942515Y-84950133D01*
X193148673Y-85046266D01*
X193368397Y-85105141D01*
X193595000Y-85124966D01*
X193821602Y-85105141D01*
X194041326Y-85046266D01*
X194247480Y-84950134D01*
X194320472Y-84899025D01*
X193639401Y-84217953D01*
X193720148Y-84205165D01*
X193833045Y-84147641D01*
X193922641Y-84058045D01*
X193980165Y-83945148D01*
X193992953Y-83864400D01*
X194674025Y-84545472D01*
X194725134Y-84472480D01*
X194821266Y-84266326D01*
X194880141Y-84046602D01*
X194899966Y-83820000D01*
X194880141Y-83593397D01*
X194821266Y-83373673D01*
X194725133Y-83167515D01*
X194674025Y-83094526D01*
X193992953Y-83775598D01*
X193980165Y-83694852D01*
X193922641Y-83581955D01*
X193833045Y-83492359D01*
X193720148Y-83434835D01*
X193639399Y-83422045D01*
X194320472Y-82740973D01*
X194320471Y-82740972D01*
X194247484Y-82689866D01*
X194041326Y-82593733D01*
X193821602Y-82534858D01*
X193595000Y-82515033D01*
X193368397Y-82534858D01*
X193148672Y-82593733D01*
X192942516Y-82689865D01*
X192869526Y-82740973D01*
X193550598Y-83422046D01*
X193469852Y-83434835D01*
X193356955Y-83492359D01*
X193267359Y-83581955D01*
X193209835Y-83694852D01*
X193197046Y-83775599D01*
X192515973Y-83094526D01*
X192515973Y-83094527D01*
X192464865Y-83167516D01*
X192368733Y-83373672D01*
X192309858Y-83593397D01*
X192290033Y-83819999D01*
X189908498Y-83819999D01*
X189888543Y-83591913D01*
X189829284Y-83370757D01*
X189732523Y-83163251D01*
X189601198Y-82975700D01*
X189439300Y-82813802D01*
X189251749Y-82682477D01*
X189251746Y-82682476D01*
X189251744Y-82682474D01*
X189044246Y-82585717D01*
X189044243Y-82585716D01*
X188854440Y-82534858D01*
X188823084Y-82526456D01*
X188594999Y-82506501D01*
X188366915Y-82526456D01*
X188145753Y-82585717D01*
X187938255Y-82682474D01*
X187750696Y-82813805D01*
X187588805Y-82975696D01*
X187457474Y-83163255D01*
X187360717Y-83370753D01*
X187301456Y-83591915D01*
X187281501Y-83820000D01*
X185463498Y-83820000D01*
X185443543Y-83591913D01*
X185384284Y-83370757D01*
X185287523Y-83163251D01*
X185156198Y-82975700D01*
X184994300Y-82813802D01*
X184806749Y-82682477D01*
X184806746Y-82682476D01*
X184806744Y-82682474D01*
X184599246Y-82585717D01*
X184599243Y-82585716D01*
X184409440Y-82534858D01*
X184378084Y-82526456D01*
X184150000Y-82506501D01*
X183921915Y-82526456D01*
X183700753Y-82585717D01*
X183493255Y-82682474D01*
X183305696Y-82813805D01*
X183143805Y-82975696D01*
X183012475Y-83163254D01*
X183001871Y-83185994D01*
X182990848Y-83205019D01*
X182973781Y-83229236D01*
X182919072Y-83272695D01*
X182849552Y-83279676D01*
X182787293Y-83247964D01*
X182760041Y-83210208D01*
X182740134Y-83167517D01*
X182689025Y-83094526D01*
X182007953Y-83775598D01*
X181995165Y-83694852D01*
X181937641Y-83581955D01*
X181848045Y-83492359D01*
X181735148Y-83434835D01*
X181654400Y-83422046D01*
X182335472Y-82740974D01*
X182335471Y-82740972D01*
X182262484Y-82689866D01*
X182056326Y-82593733D01*
X181836602Y-82534858D01*
X181610000Y-82515033D01*
X181383397Y-82534858D01*
X181163672Y-82593733D01*
X180957516Y-82689865D01*
X180884527Y-82740973D01*
X180884526Y-82740973D01*
X181565600Y-83422046D01*
X181484852Y-83434835D01*
X181371955Y-83492359D01*
X181282359Y-83581955D01*
X181224835Y-83694852D01*
X181212046Y-83775599D01*
X180530973Y-83094526D01*
X180530973Y-83094527D01*
X180479865Y-83167516D01*
X180383733Y-83373672D01*
X180324858Y-83593397D01*
X180305033Y-83820000D01*
X180324858Y-84046602D01*
X180383733Y-84266326D01*
X180479866Y-84472484D01*
X180530972Y-84545471D01*
X180530974Y-84545472D01*
X181212046Y-83864399D01*
X181224835Y-83945148D01*
X181282359Y-84058045D01*
X181371955Y-84147641D01*
X181484852Y-84205165D01*
X181565599Y-84217953D01*
X180884526Y-84899025D01*
X180884526Y-84899026D01*
X180957515Y-84950133D01*
X181163675Y-85046267D01*
X181193062Y-85054141D01*
X181252723Y-85090504D01*
X181283254Y-85153351D01*
X181274960Y-85222726D01*
X181248652Y-85261597D01*
X179031228Y-87479022D01*
X179022214Y-87487193D01*
X178988430Y-87514919D01*
X178862405Y-87668481D01*
X178761661Y-87856956D01*
X178760675Y-87870330D01*
X178711090Y-88033786D01*
X178691620Y-88231485D01*
X178695903Y-88274973D01*
X178696500Y-88287127D01*
X178696500Y-89673668D01*
X178676815Y-89740707D01*
X178624011Y-89786462D01*
X178560346Y-89797071D01*
X178505000Y-89791620D01*
X178307301Y-89811091D01*
X178243931Y-89830314D01*
X178117196Y-89868759D01*
X178117192Y-89868760D01*
X178117192Y-89868761D01*
X177941996Y-89962404D01*
X177788432Y-90088432D01*
X177662404Y-90241996D01*
X177568761Y-90417192D01*
X177568759Y-90417196D01*
X177541664Y-90506516D01*
X177511091Y-90607301D01*
X177501227Y-90707455D01*
X177475066Y-90772242D01*
X177418031Y-90812600D01*
X177348231Y-90815717D01*
X177287826Y-90780602D01*
X177280877Y-90772613D01*
X177150930Y-90609665D01*
X176963221Y-90435496D01*
X176808769Y-90330192D01*
X176751646Y-90291246D01*
X176751643Y-90291245D01*
X176751641Y-90291243D01*
X176520935Y-90180142D01*
X176276244Y-90104665D01*
X176023034Y-90066500D01*
X175766966Y-90066500D01*
X175513755Y-90104665D01*
X175269066Y-90180141D01*
X175056761Y-90282382D01*
X175038355Y-90291246D01*
X174983758Y-90328469D01*
X174826778Y-90435496D01*
X174639069Y-90609665D01*
X174479412Y-90809869D01*
X174351377Y-91031632D01*
X174257826Y-91269996D01*
X174200844Y-91519649D01*
X174181708Y-91774999D01*
X167496233Y-91774999D01*
X164931562Y-89210328D01*
X174186499Y-89210328D01*
X174186500Y-89210346D01*
X174186500Y-89213638D01*
X174186852Y-89216918D01*
X174186853Y-89216924D01*
X174193011Y-89274205D01*
X174244110Y-89411203D01*
X174331738Y-89528261D01*
X174448796Y-89615889D01*
X174585794Y-89666988D01*
X174585797Y-89666988D01*
X174585799Y-89666989D01*
X174646362Y-89673500D01*
X174649672Y-89673500D01*
X177140328Y-89673500D01*
X177143638Y-89673500D01*
X177204201Y-89666989D01*
X177204203Y-89666988D01*
X177204205Y-89666988D01*
X177315511Y-89625472D01*
X177341204Y-89615889D01*
X177458261Y-89528261D01*
X177545889Y-89411204D01*
X177568998Y-89349246D01*
X177596988Y-89274205D01*
X177596988Y-89274203D01*
X177596989Y-89274201D01*
X177603500Y-89213638D01*
X177603500Y-86716362D01*
X177596989Y-86655799D01*
X177596988Y-86655797D01*
X177596988Y-86655794D01*
X177545889Y-86518796D01*
X177458261Y-86401738D01*
X177341203Y-86314110D01*
X177204205Y-86263011D01*
X177146924Y-86256853D01*
X177146918Y-86256852D01*
X177143638Y-86256500D01*
X174646362Y-86256500D01*
X174643082Y-86256852D01*
X174643075Y-86256853D01*
X174585794Y-86263011D01*
X174448796Y-86314110D01*
X174331738Y-86401738D01*
X174244110Y-86518796D01*
X174193011Y-86655794D01*
X174186853Y-86713075D01*
X174186500Y-86716362D01*
X174186500Y-86719652D01*
X174186499Y-86719671D01*
X174186499Y-89210328D01*
X164931562Y-89210328D01*
X160471307Y-84750073D01*
X160437822Y-84688750D01*
X160442806Y-84619058D01*
X160484678Y-84563125D01*
X160518720Y-84545113D01*
X160567574Y-84528342D01*
X160765576Y-84421189D01*
X160943240Y-84282906D01*
X161095722Y-84117268D01*
X161218860Y-83928791D01*
X161309296Y-83722616D01*
X161364564Y-83504368D01*
X161383156Y-83280000D01*
X168816843Y-83280000D01*
X168835435Y-83504363D01*
X168835435Y-83504366D01*
X168835436Y-83504368D01*
X168883673Y-83694852D01*
X168890705Y-83722618D01*
X168981138Y-83928788D01*
X168981140Y-83928791D01*
X169104278Y-84117268D01*
X169256760Y-84282906D01*
X169434424Y-84421189D01*
X169632426Y-84528342D01*
X169845365Y-84601444D01*
X170067431Y-84638500D01*
X170292569Y-84638500D01*
X170514635Y-84601444D01*
X170727574Y-84528342D01*
X170925576Y-84421189D01*
X171103240Y-84282906D01*
X171255722Y-84117268D01*
X171378860Y-83928791D01*
X171469296Y-83722616D01*
X171524564Y-83504368D01*
X171543156Y-83280000D01*
X171524564Y-83055632D01*
X171469296Y-82837384D01*
X171378860Y-82631209D01*
X171255722Y-82442732D01*
X171103240Y-82277094D01*
X170925576Y-82138811D01*
X170727574Y-82031658D01*
X170727573Y-82031657D01*
X170727572Y-82031657D01*
X170514636Y-81958556D01*
X170292569Y-81921500D01*
X170067431Y-81921500D01*
X169845363Y-81958556D01*
X169632427Y-82031657D01*
X169434424Y-82138811D01*
X169256760Y-82277094D01*
X169104279Y-82442730D01*
X168981138Y-82631211D01*
X168890705Y-82837381D01*
X168835435Y-83055636D01*
X168816843Y-83280000D01*
X161383156Y-83280000D01*
X161364564Y-83055632D01*
X161309296Y-82837384D01*
X161218860Y-82631209D01*
X161095722Y-82442732D01*
X160943240Y-82277094D01*
X160765576Y-82138811D01*
X160567574Y-82031658D01*
X160567573Y-82031657D01*
X160567572Y-82031657D01*
X160354636Y-81958556D01*
X160132569Y-81921500D01*
X159907431Y-81921500D01*
X159685363Y-81958556D01*
X159472427Y-82031657D01*
X159274424Y-82138811D01*
X159096760Y-82277094D01*
X158944279Y-82442730D01*
X158821138Y-82631211D01*
X158751138Y-82790796D01*
X158706182Y-82844282D01*
X158639446Y-82864972D01*
X158572118Y-82846297D01*
X158549901Y-82828667D01*
X158327464Y-82606230D01*
X158319291Y-82597213D01*
X158291567Y-82563431D01*
X158138003Y-82437404D01*
X157962502Y-82343597D01*
X157959875Y-82342870D01*
X157772703Y-82286091D01*
X157640900Y-82273110D01*
X157575000Y-82266620D01*
X157574999Y-82266620D01*
X157531512Y-82270903D01*
X157519358Y-82271500D01*
X149744548Y-82271500D01*
X149719351Y-82268913D01*
X149708302Y-82266620D01*
X149576692Y-82239306D01*
X148397802Y-81994649D01*
X148382736Y-81990517D01*
X148289637Y-81958556D01*
X148067569Y-81921500D01*
X147842431Y-81921500D01*
X147620363Y-81958556D01*
X147407427Y-82031657D01*
X147209424Y-82138811D01*
X147031760Y-82277094D01*
X146879279Y-82442730D01*
X146756138Y-82631211D01*
X146665705Y-82837381D01*
X146610435Y-83055636D01*
X146591843Y-83280000D01*
X139158156Y-83280000D01*
X139139564Y-83055632D01*
X139084296Y-82837384D01*
X138993860Y-82631209D01*
X138870722Y-82442732D01*
X138718240Y-82277094D01*
X138540576Y-82138811D01*
X138342574Y-82031658D01*
X138342573Y-82031657D01*
X138342572Y-82031657D01*
X138129636Y-81958556D01*
X137907569Y-81921500D01*
X137682431Y-81921500D01*
X137460363Y-81958556D01*
X137247427Y-82031657D01*
X137049424Y-82138811D01*
X136871760Y-82277094D01*
X136719279Y-82442730D01*
X136596138Y-82631211D01*
X136505705Y-82837381D01*
X136450435Y-83055636D01*
X136431843Y-83280000D01*
X114300000Y-83280000D01*
X114300000Y-75689000D01*
X114319685Y-75621961D01*
X114372489Y-75576206D01*
X114424000Y-75565000D01*
X131004905Y-75565000D01*
X131071944Y-75584685D01*
G37*
G04 #@! TD.AperFunction*
G04 #@! TA.AperFunction,Conductor*
G36*
X141616012Y-108356419D02*
G01*
X142308580Y-109048987D01*
X142312007Y-109057260D01*
X142309575Y-109064401D01*
X141490461Y-110127506D01*
X141482697Y-110131968D01*
X141476729Y-110131180D01*
X140813788Y-109857562D01*
X140807448Y-109851238D01*
X140807437Y-109851211D01*
X140533819Y-109188270D01*
X140533830Y-109179315D01*
X140537490Y-109174541D01*
X141600601Y-108355423D01*
X141609243Y-108353089D01*
X141616012Y-108356419D01*
G37*
G04 #@! TD.AperFunction*
G04 #@! TA.AperFunction,Conductor*
G36*
X182430529Y-102073387D02*
G01*
X182434114Y-102077297D01*
X182877760Y-102864254D01*
X182878838Y-102873144D01*
X182877760Y-102875746D01*
X182434114Y-103662702D01*
X182427066Y-103668226D01*
X182421766Y-103668456D01*
X180839544Y-103371789D01*
X180832044Y-103366896D01*
X180830000Y-103360289D01*
X180830000Y-102379710D01*
X180833427Y-102371437D01*
X180839542Y-102368210D01*
X182421768Y-102071543D01*
X182430529Y-102073387D01*
G37*
G04 #@! TD.AperFunction*
G04 #@! TA.AperFunction,Conductor*
G36*
X137097262Y-104219278D02*
G01*
X137098635Y-104220934D01*
X138004439Y-105544803D01*
X138006283Y-105553566D01*
X138003056Y-105559683D01*
X137309683Y-106253056D01*
X137301410Y-106256483D01*
X137294803Y-106254439D01*
X135970934Y-105348635D01*
X135966041Y-105341135D01*
X135967885Y-105332372D01*
X135969252Y-105330722D01*
X136524293Y-104774293D01*
X137080717Y-104219257D01*
X137088994Y-104215841D01*
X137097262Y-104219278D01*
G37*
G04 #@! TD.AperFunction*
G04 #@! TA.AperFunction,Conductor*
G36*
X141481768Y-113729407D02*
G01*
X142174337Y-114421976D01*
X142177764Y-114430249D01*
X142174713Y-114438128D01*
X141295539Y-115403248D01*
X141287435Y-115407056D01*
X141279011Y-115404018D01*
X141278629Y-115403654D01*
X140810954Y-114937363D01*
X140808399Y-114933541D01*
X140597321Y-114421976D01*
X140555427Y-114320440D01*
X140555440Y-114311486D01*
X140559952Y-114306113D01*
X141467208Y-113727813D01*
X141476025Y-113726257D01*
X141481768Y-113729407D01*
G37*
G04 #@! TD.AperFunction*
G04 #@! TA.AperFunction,Conductor*
G36*
X138293225Y-112863427D02*
G01*
X138296518Y-112869933D01*
X138512945Y-114286551D01*
X138510807Y-114295247D01*
X138503146Y-114299884D01*
X138501395Y-114300018D01*
X137795000Y-114301000D01*
X137088604Y-114300018D01*
X137080335Y-114296580D01*
X137076920Y-114288302D01*
X137077053Y-114286560D01*
X137293482Y-112869931D01*
X137298119Y-112862272D01*
X137305048Y-112860000D01*
X138284952Y-112860000D01*
X138293225Y-112863427D01*
G37*
G04 #@! TD.AperFunction*
G04 #@! TA.AperFunction,Conductor*
G36*
X183592621Y-83262839D02*
G01*
X183594144Y-83264120D01*
X184149048Y-83817638D01*
X184151600Y-83821456D01*
X184452469Y-84550196D01*
X184452458Y-84559151D01*
X184448108Y-84564420D01*
X183366729Y-85279562D01*
X183357938Y-85281267D01*
X183352002Y-85278076D01*
X182658616Y-84584690D01*
X182655189Y-84576417D01*
X182657324Y-84569679D01*
X183576318Y-83265662D01*
X183583884Y-83260875D01*
X183592621Y-83262839D01*
G37*
G04 #@! TD.AperFunction*
G04 #@! TA.AperFunction,Conductor*
G36*
X138501395Y-114299981D02*
G01*
X138509664Y-114303419D01*
X138513079Y-114311697D01*
X138512945Y-114313448D01*
X138296518Y-115730067D01*
X138291881Y-115737728D01*
X138284952Y-115740000D01*
X137305048Y-115740000D01*
X137296775Y-115736573D01*
X137293482Y-115730067D01*
X137077054Y-114313446D01*
X137079192Y-114304752D01*
X137086853Y-114300115D01*
X137088602Y-114299981D01*
X137795000Y-114299000D01*
X138501395Y-114299981D01*
G37*
G04 #@! TD.AperFunction*
G04 #@! TA.AperFunction,Conductor*
G36*
X148280997Y-109386107D02*
G01*
X148282117Y-109387090D01*
X148750707Y-109854293D01*
X149217909Y-110322882D01*
X149221324Y-110331160D01*
X149217885Y-110339428D01*
X149216765Y-110340411D01*
X148157104Y-111156872D01*
X148148459Y-111159207D01*
X148141690Y-111155877D01*
X147449122Y-110463309D01*
X147445695Y-110455036D01*
X147448125Y-110447898D01*
X148264589Y-109388233D01*
X148272352Y-109383772D01*
X148280997Y-109386107D01*
G37*
G04 #@! TD.AperFunction*
G04 #@! TA.AperFunction,Conductor*
G36*
X149991824Y-104473365D02*
G01*
X149991967Y-104473424D01*
X150718545Y-104773400D01*
X150722361Y-104775951D01*
X151277378Y-105332357D01*
X151280795Y-105340635D01*
X151277358Y-105348903D01*
X151277314Y-105348947D01*
X150196231Y-106415981D01*
X150187935Y-106419354D01*
X150179739Y-106415927D01*
X149486311Y-105722499D01*
X149482884Y-105714226D01*
X149483722Y-105709878D01*
X149976499Y-104479827D01*
X149982756Y-104473424D01*
X149991710Y-104473319D01*
X149991824Y-104473365D01*
G37*
G04 #@! TD.AperFunction*
G04 #@! TA.AperFunction,Conductor*
G36*
X155654114Y-121782795D02*
G01*
X156347204Y-122475885D01*
X156350631Y-122484158D01*
X156348452Y-122490958D01*
X155478347Y-123709106D01*
X155470749Y-123713847D01*
X155462026Y-123711827D01*
X155460564Y-123710590D01*
X154939293Y-123190707D01*
X154419409Y-122669435D01*
X154415993Y-122661157D01*
X154419431Y-122652889D01*
X154420881Y-122651662D01*
X155639042Y-121781546D01*
X155647764Y-121779527D01*
X155654114Y-121782795D01*
G37*
G04 #@! TD.AperFunction*
G04 #@! TA.AperFunction,Conductor*
G36*
X149645677Y-82778065D02*
G01*
X149653082Y-82783102D01*
X149655000Y-82789521D01*
X149655000Y-83770478D01*
X149651573Y-83778751D01*
X149645677Y-83781934D01*
X148289751Y-84063332D01*
X148280955Y-84061658D01*
X148276569Y-84056365D01*
X147955865Y-83284489D01*
X147955856Y-83275534D01*
X147955865Y-83275511D01*
X148276570Y-82503632D01*
X148282908Y-82497309D01*
X148289749Y-82496667D01*
X149645677Y-82778065D01*
G37*
G04 #@! TD.AperFunction*
M02*
