G04 #@! TF.GenerationSoftware,KiCad,Pcbnew,7.0.2-0*
G04 #@! TF.CreationDate,2023-05-29T14:12:07-07:00*
G04 #@! TF.ProjectId,SWR Protector,53575220-5072-46f7-9465-63746f722e6b,v2.0*
G04 #@! TF.SameCoordinates,Original*
G04 #@! TF.FileFunction,Legend,Bot*
G04 #@! TF.FilePolarity,Positive*
%FSLAX46Y46*%
G04 Gerber Fmt 4.6, Leading zero omitted, Abs format (unit mm)*
G04 Created by KiCad (PCBNEW 7.0.2-0) date 2023-05-29 14:12:07*
%MOMM*%
%LPD*%
G01*
G04 APERTURE LIST*
%ADD10C,0.300000*%
G04 APERTURE END LIST*
D10*
X125372857Y-78556428D02*
X125372857Y-77056428D01*
X125372857Y-77056428D02*
X124515714Y-78556428D01*
X124515714Y-78556428D02*
X124515714Y-77056428D01*
X123944285Y-77056428D02*
X122944285Y-77056428D01*
X122944285Y-77056428D02*
X123587142Y-78556428D01*
X122587142Y-77056428D02*
X121730000Y-77056428D01*
X122158571Y-78556428D02*
X122158571Y-77056428D01*
X121230000Y-78556428D02*
X121230000Y-77056428D01*
X121230000Y-77056428D02*
X120872857Y-77056428D01*
X120872857Y-77056428D02*
X120658571Y-77127857D01*
X120658571Y-77127857D02*
X120515714Y-77270714D01*
X120515714Y-77270714D02*
X120444285Y-77413571D01*
X120444285Y-77413571D02*
X120372857Y-77699285D01*
X120372857Y-77699285D02*
X120372857Y-77913571D01*
X120372857Y-77913571D02*
X120444285Y-78199285D01*
X120444285Y-78199285D02*
X120515714Y-78342142D01*
X120515714Y-78342142D02*
X120658571Y-78485000D01*
X120658571Y-78485000D02*
X120872857Y-78556428D01*
X120872857Y-78556428D02*
X121230000Y-78556428D01*
X119230000Y-77770714D02*
X119015714Y-77842142D01*
X119015714Y-77842142D02*
X118944285Y-77913571D01*
X118944285Y-77913571D02*
X118872857Y-78056428D01*
X118872857Y-78056428D02*
X118872857Y-78270714D01*
X118872857Y-78270714D02*
X118944285Y-78413571D01*
X118944285Y-78413571D02*
X119015714Y-78485000D01*
X119015714Y-78485000D02*
X119158571Y-78556428D01*
X119158571Y-78556428D02*
X119730000Y-78556428D01*
X119730000Y-78556428D02*
X119730000Y-77056428D01*
X119730000Y-77056428D02*
X119230000Y-77056428D01*
X119230000Y-77056428D02*
X119087143Y-77127857D01*
X119087143Y-77127857D02*
X119015714Y-77199285D01*
X119015714Y-77199285D02*
X118944285Y-77342142D01*
X118944285Y-77342142D02*
X118944285Y-77485000D01*
X118944285Y-77485000D02*
X119015714Y-77627857D01*
X119015714Y-77627857D02*
X119087143Y-77699285D01*
X119087143Y-77699285D02*
X119230000Y-77770714D01*
X119230000Y-77770714D02*
X119730000Y-77770714D01*
M02*
