G04 #@! TF.GenerationSoftware,KiCad,Pcbnew,7.0.2-0*
G04 #@! TF.CreationDate,2023-05-29T14:12:07-07:00*
G04 #@! TF.ProjectId,SWR Protector,53575220-5072-46f7-9465-63746f722e6b,v2.0*
G04 #@! TF.SameCoordinates,Original*
G04 #@! TF.FileFunction,Copper,L1,Top*
G04 #@! TF.FilePolarity,Positive*
%FSLAX46Y46*%
G04 Gerber Fmt 4.6, Leading zero omitted, Abs format (unit mm)*
G04 Created by KiCad (PCBNEW 7.0.2-0) date 2023-05-29 14:12:07*
%MOMM*%
%LPD*%
G01*
G04 APERTURE LIST*
G04 Aperture macros list*
%AMRoundRect*
0 Rectangle with rounded corners*
0 $1 Rounding radius*
0 $2 $3 $4 $5 $6 $7 $8 $9 X,Y pos of 4 corners*
0 Add a 4 corners polygon primitive as box body*
4,1,4,$2,$3,$4,$5,$6,$7,$8,$9,$2,$3,0*
0 Add four circle primitives for the rounded corners*
1,1,$1+$1,$2,$3*
1,1,$1+$1,$4,$5*
1,1,$1+$1,$6,$7*
1,1,$1+$1,$8,$9*
0 Add four rect primitives between the rounded corners*
20,1,$1+$1,$2,$3,$4,$5,0*
20,1,$1+$1,$4,$5,$6,$7,0*
20,1,$1+$1,$6,$7,$8,$9,0*
20,1,$1+$1,$8,$9,$2,$3,0*%
G04 Aperture macros list end*
G04 #@! TA.AperFunction,ComponentPad*
%ADD10C,1.600000*%
G04 #@! TD*
G04 #@! TA.AperFunction,ComponentPad*
%ADD11O,1.600000X1.600000*%
G04 #@! TD*
G04 #@! TA.AperFunction,ComponentPad*
%ADD12C,1.700000*%
G04 #@! TD*
G04 #@! TA.AperFunction,ComponentPad*
%ADD13O,2.500000X1.600000*%
G04 #@! TD*
G04 #@! TA.AperFunction,ComponentPad*
%ADD14O,7.000000X3.500000*%
G04 #@! TD*
G04 #@! TA.AperFunction,ComponentPad*
%ADD15C,1.500000*%
G04 #@! TD*
G04 #@! TA.AperFunction,ComponentPad*
%ADD16R,1.700000X1.700000*%
G04 #@! TD*
G04 #@! TA.AperFunction,ComponentPad*
%ADD17O,1.700000X1.700000*%
G04 #@! TD*
G04 #@! TA.AperFunction,ComponentPad*
%ADD18C,2.340000*%
G04 #@! TD*
G04 #@! TA.AperFunction,ComponentPad*
%ADD19R,2.400000X2.400000*%
G04 #@! TD*
G04 #@! TA.AperFunction,ComponentPad*
%ADD20O,2.400000X2.400000*%
G04 #@! TD*
G04 #@! TA.AperFunction,ComponentPad*
%ADD21R,3.500000X3.500000*%
G04 #@! TD*
G04 #@! TA.AperFunction,ComponentPad*
%ADD22RoundRect,0.750000X0.750000X1.000000X-0.750000X1.000000X-0.750000X-1.000000X0.750000X-1.000000X0*%
G04 #@! TD*
G04 #@! TA.AperFunction,ComponentPad*
%ADD23RoundRect,0.875000X0.875000X0.875000X-0.875000X0.875000X-0.875000X-0.875000X0.875000X-0.875000X0*%
G04 #@! TD*
G04 #@! TA.AperFunction,ComponentPad*
%ADD24R,1.050000X1.500000*%
G04 #@! TD*
G04 #@! TA.AperFunction,ComponentPad*
%ADD25O,1.050000X1.500000*%
G04 #@! TD*
G04 #@! TA.AperFunction,ComponentPad*
%ADD26R,1.800000X1.800000*%
G04 #@! TD*
G04 #@! TA.AperFunction,ComponentPad*
%ADD27C,1.800000*%
G04 #@! TD*
G04 #@! TA.AperFunction,ComponentPad*
%ADD28R,2.000000X2.000000*%
G04 #@! TD*
G04 #@! TA.AperFunction,ComponentPad*
%ADD29C,2.000000*%
G04 #@! TD*
G04 #@! TA.AperFunction,ComponentPad*
%ADD30R,1.350000X1.350000*%
G04 #@! TD*
G04 #@! TA.AperFunction,ComponentPad*
%ADD31C,1.350000*%
G04 #@! TD*
G04 #@! TA.AperFunction,ComponentPad*
%ADD32RoundRect,0.750000X-0.750000X-1.000000X0.750000X-1.000000X0.750000X1.000000X-0.750000X1.000000X0*%
G04 #@! TD*
G04 #@! TA.AperFunction,ComponentPad*
%ADD33RoundRect,0.875000X-0.875000X-0.875000X0.875000X-0.875000X0.875000X0.875000X-0.875000X0.875000X0*%
G04 #@! TD*
G04 #@! TA.AperFunction,ViaPad*
%ADD34C,0.800000*%
G04 #@! TD*
G04 #@! TA.AperFunction,Conductor*
%ADD35C,1.000000*%
G04 #@! TD*
G04 #@! TA.AperFunction,Conductor*
%ADD36C,2.500000*%
G04 #@! TD*
G04 APERTURE END LIST*
D10*
X188595000Y-83820000D03*
X193595000Y-83820000D03*
X156210000Y-104775000D03*
D11*
X153670000Y-104775000D03*
D10*
X180975000Y-78740000D03*
D11*
X183515000Y-78740000D03*
D10*
X151765000Y-88900000D03*
D11*
X154305000Y-88900000D03*
D10*
X141605000Y-126325000D03*
X141605000Y-121325000D03*
D12*
X170180000Y-78200000D03*
X160020000Y-88360000D03*
X170180000Y-83280000D03*
X160020000Y-83280000D03*
D13*
X182880000Y-102870000D03*
D14*
X187960000Y-97790000D03*
D13*
X182880000Y-100330000D03*
D14*
X187960000Y-107950000D03*
D15*
X154940000Y-123190000D03*
X160020000Y-123190000D03*
X162560000Y-123190000D03*
X165100000Y-123190000D03*
X165100000Y-118110000D03*
X162560000Y-118110000D03*
X160020000Y-118110000D03*
X154940000Y-118110000D03*
D12*
X147955000Y-78200000D03*
X137795000Y-88360000D03*
X147955000Y-83280000D03*
X137795000Y-83280000D03*
D16*
X172715000Y-104140000D03*
D17*
X175255000Y-104140000D03*
D10*
X148180000Y-104775000D03*
D11*
X150720000Y-104775000D03*
D18*
X137160000Y-99060000D03*
X142160000Y-96560000D03*
X137160000Y-94060000D03*
D19*
X175895000Y-87965000D03*
D20*
X175895000Y-91775000D03*
D19*
X154305000Y-99360000D03*
D20*
X154305000Y-95550000D03*
D21*
X182626000Y-124460000D03*
D22*
X188626000Y-124460000D03*
D23*
X185626000Y-119760000D03*
D10*
X187325000Y-91440000D03*
D11*
X187325000Y-88900000D03*
D24*
X157480000Y-112395000D03*
D25*
X160020000Y-112395000D03*
X162560000Y-112395000D03*
D16*
X173228000Y-108458000D03*
D17*
X175768000Y-108458000D03*
X173228000Y-110998000D03*
X175768000Y-110998000D03*
X173228000Y-113538000D03*
X175768000Y-113538000D03*
D10*
X159465000Y-104775000D03*
X164465000Y-104775000D03*
X135226000Y-104775000D03*
D11*
X137766000Y-104775000D03*
D26*
X192405000Y-91440000D03*
D27*
X192405000Y-88900000D03*
D13*
X127000000Y-102870000D03*
D14*
X121920000Y-107950000D03*
D13*
X127000000Y-105410000D03*
D14*
X121920000Y-97790000D03*
D10*
X181610000Y-83820000D03*
D11*
X184150000Y-83820000D03*
D28*
X160040000Y-96520000D03*
D29*
X167640000Y-96520000D03*
D10*
X140941000Y-104775000D03*
D11*
X143481000Y-104775000D03*
D30*
X140810000Y-109855000D03*
D31*
X140810000Y-112395000D03*
X140810000Y-114935000D03*
X140810000Y-117475000D03*
X148750000Y-117475000D03*
X148750000Y-114935000D03*
X148750000Y-112395000D03*
X148750000Y-109855000D03*
D24*
X123190000Y-114935000D03*
D25*
X120650000Y-114935000D03*
X118110000Y-114935000D03*
D19*
X192405000Y-78105000D03*
D20*
X188595000Y-78105000D03*
D10*
X132715000Y-118745000D03*
X137715000Y-118745000D03*
D21*
X127254000Y-124460000D03*
D32*
X121254000Y-124460000D03*
D33*
X124254000Y-129160000D03*
D34*
X189745497Y-120389234D03*
X189745497Y-115309234D03*
X189745497Y-94989234D03*
X184665497Y-94989234D03*
X174505497Y-84829234D03*
X169425497Y-115309234D03*
X169425497Y-100069234D03*
X169425497Y-89909234D03*
X164345497Y-120389234D03*
X164345497Y-115309234D03*
X164345497Y-94989234D03*
X164345497Y-84829234D03*
X164345497Y-79749234D03*
X159265497Y-120389234D03*
X159265497Y-100069234D03*
X159265497Y-79749234D03*
X154185497Y-115309234D03*
X154185497Y-110229234D03*
X154185497Y-84829234D03*
X154185497Y-79749234D03*
X149105497Y-100069234D03*
X149105497Y-94989234D03*
X149105497Y-89909234D03*
X144025497Y-89909234D03*
X144025497Y-84829234D03*
X144025497Y-79749234D03*
X133865497Y-115309234D03*
X133865497Y-94989234D03*
X128785497Y-110229234D03*
X128785497Y-100069234D03*
X128785497Y-84829234D03*
X128785497Y-79749234D03*
X123705497Y-125469234D03*
X123705497Y-105149234D03*
X123705497Y-94989234D03*
X123705497Y-89909234D03*
X123705497Y-84829234D03*
X123705497Y-79749234D03*
X118625497Y-125469234D03*
X118625497Y-105149234D03*
X118625497Y-94989234D03*
X118625497Y-89909234D03*
X118625497Y-84829234D03*
X118625497Y-79749234D03*
X166370000Y-107315000D03*
X178505000Y-105664000D03*
X178505000Y-94615000D03*
X179705000Y-94615000D03*
X144780000Y-107315000D03*
D35*
X162560000Y-112395000D02*
X162560000Y-118110000D01*
X175895000Y-97790000D02*
X166370000Y-107315000D01*
X156845000Y-118110000D02*
X162560000Y-112395000D01*
X190870000Y-92975000D02*
X192405000Y-91440000D01*
X175895000Y-91775000D02*
X177095000Y-92975000D01*
X154940000Y-118110000D02*
X156845000Y-118110000D01*
X177095000Y-92975000D02*
X190870000Y-92975000D01*
X175895000Y-91775000D02*
X175895000Y-97790000D01*
X138985000Y-117475000D02*
X137715000Y-118745000D01*
X140810000Y-117475000D02*
X138985000Y-117475000D01*
X175768000Y-108401000D02*
X178505000Y-105664000D01*
X159465000Y-104520000D02*
X154305000Y-99360000D01*
X164698000Y-110008000D02*
X172238000Y-110008000D01*
X151130000Y-104775000D02*
X150720000Y-104775000D01*
X159465000Y-104775000D02*
X164698000Y-110008000D01*
X154305000Y-101600000D02*
X151130000Y-104775000D01*
X154305000Y-99360000D02*
X154305000Y-101600000D01*
X172238000Y-110008000D02*
X173228000Y-110998000D01*
X177888000Y-85972300D02*
X175895000Y-87965000D01*
X132715000Y-117426000D02*
X129262000Y-113972000D01*
X185087000Y-87797800D02*
X183262000Y-85972300D01*
X124153000Y-113972000D02*
X123190000Y-114935000D01*
X129262000Y-113972000D02*
X124153000Y-113972000D01*
X178505000Y-94615000D02*
X178505000Y-103181000D01*
X132715000Y-118745000D02*
X132715000Y-117426000D01*
X187183000Y-91440000D02*
X185087000Y-89344000D01*
X183262000Y-85972300D02*
X177888000Y-85972300D01*
X178505000Y-103181000D02*
X173228000Y-108458000D01*
X185087000Y-89344000D02*
X185087000Y-87797800D01*
D36*
X162560000Y-124251000D02*
X162560000Y-123190000D01*
X118110000Y-118745000D02*
X118110000Y-114935000D01*
X127254000Y-123444000D02*
X122555000Y-118745000D01*
X151384000Y-126325000D02*
X160486000Y-126325000D01*
X122555000Y-118745000D02*
X118110000Y-118745000D01*
D35*
X151384000Y-111534000D02*
X151384000Y-126325000D01*
D36*
X160486000Y-126325000D02*
X162560000Y-124251000D01*
X127254000Y-124460000D02*
X129794000Y-121920000D01*
D35*
X148750000Y-109855000D02*
X149705000Y-109855000D01*
D36*
X129794000Y-121920000D02*
X137200000Y-121920000D01*
X127254000Y-124460000D02*
X127254000Y-123444000D01*
D35*
X149705000Y-109855000D02*
X151384000Y-111534000D01*
D36*
X137200000Y-121920000D02*
X141605000Y-126325000D01*
X141605000Y-126325000D02*
X151384000Y-126325000D01*
D35*
X154305000Y-91440000D02*
X154305000Y-95550000D01*
X154305000Y-88900000D02*
X154305000Y-91440000D01*
X137795000Y-88360000D02*
X140875000Y-91440000D01*
X140875000Y-91440000D02*
X154305000Y-91440000D01*
X159925000Y-83280000D02*
X154305000Y-88900000D01*
X177024000Y-83280000D02*
X180975000Y-79329400D01*
X180975000Y-78740000D02*
X182475000Y-77240000D01*
X180975000Y-79329400D02*
X180975000Y-78740000D01*
X170180000Y-83280000D02*
X177024000Y-83280000D01*
X182475000Y-77240000D02*
X187730000Y-77240000D01*
X187730000Y-77240000D02*
X188595000Y-78105000D01*
X192405000Y-88900000D02*
X187325000Y-88900000D01*
X174778000Y-115088000D02*
X173228000Y-113538000D01*
X179705000Y-111793000D02*
X176410000Y-115088000D01*
X179705000Y-94615000D02*
X179705000Y-111793000D01*
X192405000Y-80010000D02*
X188595000Y-83820000D01*
X192405000Y-78105000D02*
X192405000Y-80010000D01*
X176410000Y-115088000D02*
X174778000Y-115088000D01*
X188595000Y-83820000D02*
X184150000Y-83820000D01*
X150843000Y-78200000D02*
X170180000Y-78200000D01*
X137795000Y-83280000D02*
X145763000Y-83280000D01*
X145763000Y-83280000D02*
X150843000Y-78200000D01*
X127000000Y-94439000D02*
X137795000Y-83644000D01*
X127000000Y-102870000D02*
X127000000Y-94439000D01*
X137795000Y-83644000D02*
X137795000Y-83280000D01*
X160020000Y-112395000D02*
X160020000Y-108585000D01*
X160020000Y-108585000D02*
X156210000Y-104775000D01*
X148750000Y-117475000D02*
X142240000Y-110965000D01*
X142240000Y-106074000D02*
X140941000Y-104775000D01*
X142240000Y-110965000D02*
X142240000Y-106074000D01*
X137766000Y-104775000D02*
X140941000Y-104775000D01*
X153670000Y-104775000D02*
X151130000Y-107315000D01*
X151130000Y-107315000D02*
X144780000Y-107315000D01*
X148750000Y-114935000D02*
X148750000Y-112395000D01*
G04 #@! TA.AperFunction,Conductor*
G36*
X178615834Y-104598913D02*
G01*
X178671767Y-104640785D01*
X178696184Y-104706249D01*
X178696500Y-104715095D01*
X178696500Y-111323903D01*
X178676815Y-111390942D01*
X178660181Y-111411584D01*
X177160067Y-112911697D01*
X177098744Y-112945182D01*
X177029052Y-112940198D01*
X176973119Y-112898326D01*
X176968577Y-112891837D01*
X176843722Y-112700732D01*
X176816144Y-112670775D01*
X176691240Y-112535094D01*
X176513576Y-112396811D01*
X176477067Y-112377053D01*
X176427478Y-112327836D01*
X176412370Y-112259619D01*
X176436540Y-112194063D01*
X176477067Y-112158946D01*
X176513576Y-112139189D01*
X176691240Y-112000906D01*
X176843722Y-111835268D01*
X176966860Y-111646791D01*
X177057296Y-111440616D01*
X177112564Y-111222368D01*
X177131156Y-110998000D01*
X177112564Y-110773632D01*
X177057296Y-110555384D01*
X176966860Y-110349209D01*
X176843722Y-110160732D01*
X176691240Y-109995094D01*
X176531690Y-109870910D01*
X176513575Y-109856810D01*
X176470302Y-109833392D01*
X176420712Y-109784172D01*
X176405605Y-109715955D01*
X176429776Y-109650400D01*
X176458198Y-109622763D01*
X176639078Y-109496109D01*
X176806106Y-109329081D01*
X176941600Y-109135576D01*
X177041430Y-108921492D01*
X177098636Y-108708000D01*
X176201686Y-108708000D01*
X176227493Y-108667844D01*
X176268000Y-108529889D01*
X176268000Y-108386111D01*
X176227493Y-108248156D01*
X176201686Y-108208000D01*
X177098636Y-108208000D01*
X177098635Y-108207999D01*
X177041430Y-107994507D01*
X176941599Y-107780421D01*
X176806109Y-107586921D01*
X176639081Y-107419893D01*
X176445576Y-107284399D01*
X176231492Y-107184569D01*
X176199325Y-107175950D01*
X176139664Y-107139584D01*
X176109136Y-107076737D01*
X176117431Y-107007362D01*
X176143733Y-106968500D01*
X178484821Y-104627412D01*
X178546142Y-104593929D01*
X178615834Y-104598913D01*
G37*
G04 #@! TD.AperFunction*
G04 #@! TA.AperFunction,Conductor*
G36*
X149259025Y-105500472D02*
G01*
X149310133Y-105427481D01*
X149332927Y-105378600D01*
X149379098Y-105326160D01*
X149446292Y-105307007D01*
X149513173Y-105327222D01*
X149557692Y-105378598D01*
X149582475Y-105431746D01*
X149582476Y-105431748D01*
X149582477Y-105431749D01*
X149713802Y-105619300D01*
X149875700Y-105781198D01*
X150063251Y-105912523D01*
X150063254Y-105912524D01*
X150063255Y-105912525D01*
X150120992Y-105939448D01*
X150270757Y-106009284D01*
X150460557Y-106060141D01*
X150470200Y-106062725D01*
X150529860Y-106099090D01*
X150560389Y-106161938D01*
X150552094Y-106231313D01*
X150507609Y-106285191D01*
X150441056Y-106306465D01*
X150438106Y-106306500D01*
X148429056Y-106306500D01*
X148362017Y-106286815D01*
X148316262Y-106234011D01*
X148306318Y-106164853D01*
X148335343Y-106101297D01*
X148394121Y-106063523D01*
X148396962Y-106062725D01*
X148626326Y-106001266D01*
X148832480Y-105905134D01*
X148905472Y-105854025D01*
X148224401Y-105172953D01*
X148305148Y-105160165D01*
X148418045Y-105102641D01*
X148507641Y-105013045D01*
X148565165Y-104900148D01*
X148577953Y-104819400D01*
X149259025Y-105500472D01*
G37*
G04 #@! TD.AperFunction*
G04 #@! TA.AperFunction,Conductor*
G36*
X182689025Y-84545472D02*
G01*
X182740133Y-84472481D01*
X182762927Y-84423600D01*
X182809098Y-84371160D01*
X182876292Y-84352007D01*
X182943173Y-84372222D01*
X182987692Y-84423598D01*
X183012475Y-84476746D01*
X183012476Y-84476748D01*
X183012477Y-84476749D01*
X183143802Y-84664300D01*
X183143805Y-84664302D01*
X183143805Y-84664303D01*
X183231621Y-84752119D01*
X183265106Y-84813442D01*
X183260122Y-84883134D01*
X183218250Y-84939067D01*
X183152786Y-84963484D01*
X183143940Y-84963800D01*
X182451609Y-84963800D01*
X182384570Y-84944115D01*
X182363928Y-84927481D01*
X181654401Y-84217953D01*
X181735148Y-84205165D01*
X181848045Y-84147641D01*
X181937641Y-84058045D01*
X181995165Y-83945148D01*
X182007953Y-83864400D01*
X182689025Y-84545472D01*
G37*
G04 #@! TD.AperFunction*
G04 #@! TA.AperFunction,Conductor*
G36*
X152844025Y-89625472D02*
G01*
X152895133Y-89552481D01*
X152917927Y-89503600D01*
X152964098Y-89451160D01*
X153031292Y-89432007D01*
X153098173Y-89452222D01*
X153142692Y-89503598D01*
X153167475Y-89556746D01*
X153167476Y-89556748D01*
X153167477Y-89556749D01*
X153274075Y-89708986D01*
X153296402Y-89775191D01*
X153296500Y-89780109D01*
X153296500Y-90307500D01*
X153276815Y-90374539D01*
X153224011Y-90420294D01*
X153172500Y-90431500D01*
X152014056Y-90431500D01*
X151947017Y-90411815D01*
X151901262Y-90359011D01*
X151891318Y-90289853D01*
X151920343Y-90226297D01*
X151979121Y-90188523D01*
X151981962Y-90187725D01*
X152211326Y-90126266D01*
X152417480Y-90030134D01*
X152490472Y-89979025D01*
X151809401Y-89297953D01*
X151890148Y-89285165D01*
X152003045Y-89227641D01*
X152092641Y-89138045D01*
X152150165Y-89025148D01*
X152162953Y-88944400D01*
X152844025Y-89625472D01*
G37*
G04 #@! TD.AperFunction*
G04 #@! TA.AperFunction,Conductor*
G36*
X130171944Y-75789419D02*
G01*
X130217699Y-75842223D01*
X130228905Y-75893734D01*
X130228905Y-77982151D01*
X130228905Y-78074861D01*
X130228905Y-78274429D01*
X130229169Y-78277288D01*
X130229170Y-78277289D01*
X130265466Y-78669000D01*
X130265468Y-78669015D01*
X130265732Y-78671863D01*
X130266257Y-78674676D01*
X130266259Y-78674684D01*
X130338549Y-79061398D01*
X130338552Y-79061411D01*
X130339074Y-79064203D01*
X130339856Y-79066954D01*
X130339857Y-79066955D01*
X130447278Y-79444505D01*
X130448302Y-79448102D01*
X130449333Y-79450765D01*
X130449335Y-79450769D01*
X130587335Y-79806989D01*
X130592487Y-79820286D01*
X130593768Y-79822859D01*
X130593770Y-79822863D01*
X130722741Y-80081873D01*
X130770397Y-80177578D01*
X130771898Y-80180003D01*
X130771903Y-80180011D01*
X130979011Y-80514502D01*
X130979017Y-80514511D01*
X130980515Y-80516930D01*
X131022860Y-80573004D01*
X131138826Y-80726568D01*
X131221049Y-80835448D01*
X131489945Y-81130413D01*
X131784910Y-81399309D01*
X132103428Y-81639843D01*
X132442780Y-81849961D01*
X132800072Y-82027871D01*
X133172256Y-82172056D01*
X133556155Y-82281284D01*
X133948495Y-82354626D01*
X134345929Y-82391453D01*
X134348801Y-82391453D01*
X134742193Y-82391453D01*
X134745065Y-82391453D01*
X135142499Y-82354626D01*
X135534839Y-82281284D01*
X135918738Y-82172056D01*
X136290922Y-82027871D01*
X136648214Y-81849961D01*
X136987566Y-81639843D01*
X137306084Y-81399309D01*
X137601049Y-81130413D01*
X137869945Y-80835448D01*
X138110479Y-80516930D01*
X138320597Y-80177578D01*
X138498507Y-79820286D01*
X138642692Y-79448102D01*
X138751920Y-79064203D01*
X138825262Y-78671863D01*
X138862089Y-78274429D01*
X138862089Y-78074861D01*
X138862089Y-77982151D01*
X138862089Y-75893733D01*
X138881774Y-75826695D01*
X138934578Y-75780940D01*
X138986089Y-75769734D01*
X170966871Y-75769734D01*
X171033910Y-75789419D01*
X171079665Y-75842223D01*
X171090871Y-75893734D01*
X171090871Y-76940165D01*
X171071186Y-77007204D01*
X171018382Y-77052959D01*
X170949224Y-77062903D01*
X170907854Y-77049220D01*
X170727572Y-76951657D01*
X170514636Y-76878556D01*
X170292569Y-76841500D01*
X170067431Y-76841500D01*
X169845363Y-76878556D01*
X169632427Y-76951657D01*
X169434424Y-77058811D01*
X169297540Y-77165353D01*
X169232546Y-77190996D01*
X169221377Y-77191500D01*
X150898642Y-77191500D01*
X150886488Y-77190903D01*
X150843000Y-77186620D01*
X150645297Y-77206091D01*
X150499442Y-77250337D01*
X150455196Y-77263758D01*
X150279996Y-77357404D01*
X150126433Y-77483430D01*
X150098707Y-77517214D01*
X150090536Y-77526228D01*
X149506766Y-78109997D01*
X149445443Y-78143482D01*
X149375751Y-78138498D01*
X149319818Y-78096626D01*
X149295557Y-78033122D01*
X149289569Y-77964681D01*
X149228430Y-77736507D01*
X149128599Y-77522421D01*
X149069926Y-77438626D01*
X149069925Y-77438625D01*
X148438076Y-78070475D01*
X148414493Y-77990156D01*
X148336761Y-77869202D01*
X148228100Y-77775048D01*
X148097315Y-77715320D01*
X148087533Y-77713913D01*
X148716373Y-77085073D01*
X148716373Y-77085072D01*
X148632580Y-77026400D01*
X148418492Y-76926569D01*
X148190318Y-76865430D01*
X147954999Y-76844842D01*
X147719681Y-76865430D01*
X147491507Y-76926569D01*
X147277422Y-77026399D01*
X147193625Y-77085072D01*
X147822466Y-77713913D01*
X147812685Y-77715320D01*
X147681900Y-77775048D01*
X147573239Y-77869202D01*
X147495507Y-77990156D01*
X147471923Y-78070475D01*
X146840073Y-77438625D01*
X146840072Y-77438625D01*
X146781399Y-77522422D01*
X146681569Y-77736507D01*
X146620430Y-77964681D01*
X146599842Y-78200000D01*
X146620430Y-78435318D01*
X146681569Y-78663492D01*
X146781400Y-78877580D01*
X146840073Y-78961373D01*
X147471923Y-78329523D01*
X147495507Y-78409844D01*
X147573239Y-78530798D01*
X147681900Y-78624952D01*
X147812685Y-78684680D01*
X147822466Y-78686086D01*
X147193625Y-79314925D01*
X147277420Y-79373599D01*
X147491507Y-79473430D01*
X147719681Y-79534569D01*
X147788122Y-79540557D01*
X147853191Y-79566009D01*
X147894170Y-79622599D01*
X147898049Y-79692361D01*
X147864997Y-79751766D01*
X145381585Y-82235181D01*
X145320262Y-82268666D01*
X145293904Y-82271500D01*
X138753623Y-82271500D01*
X138686584Y-82251815D01*
X138677460Y-82245353D01*
X138629848Y-82208295D01*
X138540576Y-82138811D01*
X138342574Y-82031658D01*
X138342573Y-82031657D01*
X138342572Y-82031657D01*
X138129636Y-81958556D01*
X137907569Y-81921500D01*
X137682431Y-81921500D01*
X137460363Y-81958556D01*
X137247427Y-82031657D01*
X137049424Y-82138811D01*
X136871760Y-82277094D01*
X136719279Y-82442730D01*
X136596138Y-82631211D01*
X136505705Y-82837381D01*
X136450435Y-83055636D01*
X136431843Y-83280000D01*
X136450124Y-83500614D01*
X136436043Y-83569050D01*
X136414229Y-83598535D01*
X130789997Y-89222767D01*
X130728674Y-89256252D01*
X130658982Y-89251268D01*
X130603049Y-89209396D01*
X130578632Y-89143932D01*
X130578542Y-89127613D01*
X130581733Y-89074861D01*
X130562738Y-88760832D01*
X130506029Y-88451383D01*
X130412434Y-88151026D01*
X130283317Y-87864140D01*
X130120561Y-87594909D01*
X129926540Y-87347259D01*
X129704082Y-87124801D01*
X129456432Y-86930780D01*
X129321816Y-86849401D01*
X129190406Y-86769961D01*
X129190399Y-86769957D01*
X129187201Y-86768024D01*
X128900315Y-86638907D01*
X128896737Y-86637792D01*
X128603534Y-86546426D01*
X128603528Y-86546424D01*
X128599958Y-86545312D01*
X128596287Y-86544639D01*
X128596278Y-86544637D01*
X128294193Y-86489278D01*
X128294191Y-86489277D01*
X128290509Y-86488603D01*
X128286783Y-86488377D01*
X128286770Y-86488376D01*
X127980216Y-86469834D01*
X127976480Y-86469608D01*
X127972744Y-86469834D01*
X127666189Y-86488376D01*
X127666174Y-86488377D01*
X127662451Y-86488603D01*
X127658770Y-86489277D01*
X127658766Y-86489278D01*
X127356681Y-86544637D01*
X127356668Y-86544640D01*
X127353002Y-86545312D01*
X127349434Y-86546423D01*
X127349425Y-86546426D01*
X127056222Y-86637792D01*
X127056216Y-86637794D01*
X127052645Y-86638907D01*
X127049236Y-86640441D01*
X127049234Y-86640442D01*
X126769173Y-86766487D01*
X126769166Y-86766490D01*
X126765759Y-86768024D01*
X126762566Y-86769953D01*
X126762553Y-86769961D01*
X126499732Y-86928843D01*
X126496528Y-86930780D01*
X126493586Y-86933084D01*
X126493580Y-86933089D01*
X126265655Y-87111657D01*
X126248878Y-87124801D01*
X126246232Y-87127446D01*
X126246224Y-87127454D01*
X126029073Y-87344605D01*
X126029065Y-87344613D01*
X126026420Y-87347259D01*
X126024108Y-87350209D01*
X126024108Y-87350210D01*
X125834708Y-87591961D01*
X125834703Y-87591967D01*
X125832399Y-87594909D01*
X125830462Y-87598111D01*
X125830462Y-87598113D01*
X125671580Y-87860934D01*
X125671572Y-87860947D01*
X125669643Y-87864140D01*
X125668109Y-87867547D01*
X125668106Y-87867554D01*
X125565255Y-88096080D01*
X125540526Y-88151026D01*
X125539413Y-88154597D01*
X125539411Y-88154603D01*
X125448045Y-88447806D01*
X125448042Y-88447815D01*
X125446931Y-88451383D01*
X125446259Y-88455049D01*
X125446256Y-88455062D01*
X125407348Y-88667378D01*
X125390222Y-88760832D01*
X125389996Y-88764555D01*
X125389995Y-88764570D01*
X125375223Y-89008791D01*
X125371227Y-89074861D01*
X125371453Y-89078594D01*
X125371453Y-89078597D01*
X125389995Y-89385151D01*
X125389996Y-89385164D01*
X125390222Y-89388890D01*
X125390896Y-89392572D01*
X125390897Y-89392574D01*
X125446256Y-89694659D01*
X125446258Y-89694668D01*
X125446931Y-89698339D01*
X125448043Y-89701909D01*
X125448045Y-89701915D01*
X125498171Y-89862774D01*
X125540526Y-89998696D01*
X125669643Y-90285582D01*
X125671576Y-90288780D01*
X125671580Y-90288787D01*
X125712401Y-90356313D01*
X125832399Y-90554813D01*
X126026420Y-90802463D01*
X126248878Y-91024921D01*
X126496528Y-91218942D01*
X126736715Y-91364140D01*
X126747903Y-91370904D01*
X126765759Y-91381698D01*
X127052645Y-91510815D01*
X127353002Y-91604410D01*
X127662451Y-91661119D01*
X127976480Y-91680114D01*
X128029219Y-91676923D01*
X128097322Y-91692523D01*
X128146182Y-91742467D01*
X128160285Y-91810899D01*
X128135151Y-91876092D01*
X128124386Y-91888378D01*
X126326228Y-93686536D01*
X126317214Y-93694707D01*
X126283430Y-93722433D01*
X126157405Y-93875995D01*
X126125260Y-93936135D01*
X126063758Y-94051195D01*
X126006091Y-94241297D01*
X125986620Y-94438999D01*
X125990903Y-94482487D01*
X125991500Y-94494641D01*
X125991500Y-96890364D01*
X125971815Y-96957403D01*
X125919011Y-97003158D01*
X125849853Y-97013102D01*
X125786297Y-96984077D01*
X125751786Y-96934931D01*
X125717012Y-96844645D01*
X125713532Y-96837144D01*
X125572745Y-96580241D01*
X125568292Y-96573266D01*
X125394523Y-96337425D01*
X125389178Y-96331103D01*
X125185525Y-96120527D01*
X125179390Y-96114979D01*
X124949481Y-95933421D01*
X124942671Y-95928746D01*
X124690606Y-95779448D01*
X124683230Y-95775721D01*
X124413517Y-95661352D01*
X124405713Y-95658642D01*
X124123179Y-95581248D01*
X124115057Y-95579597D01*
X123824721Y-95540551D01*
X123816479Y-95540000D01*
X122170000Y-95540000D01*
X122169999Y-96815373D01*
X122022199Y-96785000D01*
X121869033Y-96785000D01*
X121716652Y-96800496D01*
X121670000Y-96815132D01*
X121670000Y-95540000D01*
X120096854Y-95540000D01*
X120092693Y-95540139D01*
X119873565Y-95554808D01*
X119865372Y-95555910D01*
X119578298Y-95614260D01*
X119570309Y-95616448D01*
X119293570Y-95712542D01*
X119285958Y-95715770D01*
X119024498Y-95847892D01*
X119017381Y-95852106D01*
X118775855Y-96017905D01*
X118769367Y-96023029D01*
X118552101Y-96219535D01*
X118546351Y-96225480D01*
X118357213Y-96449193D01*
X118352307Y-96455851D01*
X118194672Y-96702783D01*
X118190703Y-96710026D01*
X118067389Y-96975761D01*
X118064416Y-96983480D01*
X117977621Y-97263281D01*
X117975705Y-97271320D01*
X117930384Y-97539999D01*
X117930385Y-97540000D01*
X120946589Y-97540000D01*
X120921466Y-97637030D01*
X120911114Y-97841165D01*
X120941574Y-98040000D01*
X117933793Y-98040000D01*
X117945960Y-98160951D01*
X117947337Y-98169112D01*
X118015248Y-98454080D01*
X118017699Y-98461981D01*
X118122987Y-98735354D01*
X118126467Y-98742855D01*
X118267254Y-98999758D01*
X118271707Y-99006733D01*
X118445476Y-99242574D01*
X118450821Y-99248896D01*
X118654474Y-99459472D01*
X118660609Y-99465020D01*
X118890518Y-99646578D01*
X118897328Y-99651253D01*
X119149393Y-99800551D01*
X119156769Y-99804278D01*
X119426482Y-99918647D01*
X119434286Y-99921357D01*
X119716820Y-99998751D01*
X119724942Y-100000402D01*
X120015278Y-100039448D01*
X120023521Y-100040000D01*
X121670000Y-100040000D01*
X121670000Y-98764625D01*
X121817801Y-98795000D01*
X121970967Y-98795000D01*
X122123348Y-98779504D01*
X122169999Y-98764867D01*
X122169999Y-100040000D01*
X123743146Y-100040000D01*
X123747306Y-100039860D01*
X123966434Y-100025191D01*
X123974627Y-100024089D01*
X124261701Y-99965739D01*
X124269690Y-99963551D01*
X124546429Y-99867457D01*
X124554041Y-99864229D01*
X124815501Y-99732107D01*
X124822618Y-99727893D01*
X125064144Y-99562094D01*
X125070632Y-99556970D01*
X125287898Y-99360464D01*
X125293648Y-99354519D01*
X125482786Y-99130806D01*
X125487692Y-99124148D01*
X125645327Y-98877216D01*
X125649296Y-98869973D01*
X125755021Y-98642142D01*
X125801095Y-98589617D01*
X125868253Y-98570340D01*
X125935172Y-98590432D01*
X125980605Y-98643513D01*
X125991500Y-98694338D01*
X125991500Y-101607666D01*
X125971815Y-101674705D01*
X125919904Y-101720048D01*
X125893251Y-101732477D01*
X125800102Y-101797701D01*
X125705696Y-101863805D01*
X125543805Y-102025696D01*
X125412474Y-102213255D01*
X125315717Y-102420753D01*
X125256456Y-102641915D01*
X125236501Y-102870000D01*
X125256456Y-103098084D01*
X125315717Y-103319246D01*
X125412474Y-103526744D01*
X125412476Y-103526746D01*
X125412477Y-103526749D01*
X125543802Y-103714300D01*
X125705700Y-103876198D01*
X125893251Y-104007523D01*
X125946401Y-104032307D01*
X125998839Y-104078477D01*
X126017992Y-104145670D01*
X125997777Y-104212552D01*
X125946403Y-104257069D01*
X125897520Y-104279864D01*
X125711180Y-104410341D01*
X125550341Y-104571180D01*
X125419865Y-104757519D01*
X125323733Y-104963673D01*
X125271128Y-105159999D01*
X125271128Y-105160000D01*
X126630497Y-105160000D01*
X126581083Y-105245587D01*
X126551232Y-105376370D01*
X126561257Y-105510140D01*
X126610266Y-105635013D01*
X126630193Y-105660000D01*
X125271128Y-105660000D01*
X125323733Y-105856326D01*
X125419865Y-106062480D01*
X125550341Y-106248819D01*
X125711180Y-106409658D01*
X125897519Y-106540134D01*
X126103673Y-106636266D01*
X126323397Y-106695141D01*
X126490535Y-106709763D01*
X126495946Y-106710000D01*
X126750000Y-106710000D01*
X126750000Y-105778137D01*
X126804741Y-105815459D01*
X126932927Y-105855000D01*
X127033346Y-105855000D01*
X127132647Y-105840033D01*
X127249999Y-105783518D01*
X127249999Y-106709999D01*
X127250000Y-106710000D01*
X127504054Y-106710000D01*
X127509464Y-106709763D01*
X127676602Y-106695141D01*
X127896326Y-106636266D01*
X128102480Y-106540134D01*
X128288819Y-106409658D01*
X128449658Y-106248819D01*
X128580134Y-106062480D01*
X128676266Y-105856326D01*
X128728872Y-105660000D01*
X127369503Y-105660000D01*
X127418917Y-105574413D01*
X127448768Y-105443630D01*
X127438743Y-105309860D01*
X127389734Y-105184987D01*
X127369807Y-105160000D01*
X128728872Y-105160000D01*
X128728871Y-105159999D01*
X128676266Y-104963673D01*
X128580134Y-104757519D01*
X128449658Y-104571180D01*
X128288819Y-104410341D01*
X128102482Y-104279866D01*
X128053597Y-104257070D01*
X128001158Y-104210897D01*
X127982007Y-104143703D01*
X128002223Y-104076822D01*
X128053595Y-104032308D01*
X128106749Y-104007523D01*
X128294300Y-103876198D01*
X128456198Y-103714300D01*
X128587523Y-103526749D01*
X128684284Y-103319243D01*
X128743543Y-103098087D01*
X128763498Y-102870000D01*
X128743543Y-102641913D01*
X128684284Y-102420757D01*
X128587523Y-102213251D01*
X128456198Y-102025700D01*
X128294300Y-101863802D01*
X128106749Y-101732477D01*
X128080095Y-101720048D01*
X128027656Y-101673875D01*
X128008500Y-101607666D01*
X128008500Y-99059999D01*
X135476792Y-99059999D01*
X135495592Y-99310867D01*
X135530777Y-99465020D01*
X135551573Y-99556134D01*
X135643483Y-99790316D01*
X135769269Y-100008184D01*
X135926122Y-100204872D01*
X136110538Y-100375984D01*
X136318397Y-100517700D01*
X136545055Y-100626853D01*
X136785450Y-100701004D01*
X136785451Y-100701005D01*
X137034213Y-100738500D01*
X137034214Y-100738500D01*
X137285787Y-100738500D01*
X137410167Y-100719752D01*
X137534549Y-100701005D01*
X137774945Y-100626853D01*
X138001604Y-100517700D01*
X138209462Y-100375984D01*
X138393878Y-100204872D01*
X138550731Y-100008184D01*
X138676517Y-99790316D01*
X138768427Y-99556134D01*
X138824407Y-99310869D01*
X138843207Y-99060000D01*
X138838692Y-98999758D01*
X138824407Y-98809132D01*
X138824407Y-98809131D01*
X138768427Y-98563866D01*
X138676517Y-98329684D01*
X138550731Y-98111816D01*
X138393878Y-97915128D01*
X138209462Y-97744016D01*
X138209459Y-97744013D01*
X138001606Y-97602301D01*
X137931704Y-97568638D01*
X137774945Y-97493147D01*
X137700792Y-97470273D01*
X137534548Y-97418994D01*
X137285787Y-97381500D01*
X137285786Y-97381500D01*
X137034214Y-97381500D01*
X137034213Y-97381500D01*
X136785451Y-97418994D01*
X136545055Y-97493147D01*
X136318399Y-97602298D01*
X136110536Y-97744017D01*
X135926122Y-97915128D01*
X135769268Y-98111817D01*
X135643483Y-98329683D01*
X135551573Y-98563865D01*
X135495592Y-98809132D01*
X135476792Y-99059999D01*
X128008500Y-99059999D01*
X128008500Y-96559999D01*
X140476792Y-96559999D01*
X140495592Y-96810867D01*
X140539829Y-97004680D01*
X140551573Y-97056134D01*
X140643483Y-97290316D01*
X140769269Y-97508184D01*
X140926122Y-97704872D01*
X141110538Y-97875984D01*
X141318397Y-98017700D01*
X141545055Y-98126853D01*
X141785450Y-98201004D01*
X141785451Y-98201005D01*
X142034213Y-98238500D01*
X142034214Y-98238500D01*
X142285787Y-98238500D01*
X142410167Y-98219752D01*
X142534549Y-98201005D01*
X142774945Y-98126853D01*
X143001604Y-98017700D01*
X143209462Y-97875984D01*
X143393878Y-97704872D01*
X143502521Y-97568638D01*
X158531500Y-97568638D01*
X158531852Y-97571918D01*
X158531853Y-97571924D01*
X158538011Y-97629205D01*
X158589110Y-97766203D01*
X158676738Y-97883261D01*
X158793796Y-97970889D01*
X158930794Y-98021988D01*
X158930797Y-98021988D01*
X158930799Y-98021989D01*
X158991362Y-98028500D01*
X158994672Y-98028500D01*
X161085328Y-98028500D01*
X161088638Y-98028500D01*
X161149201Y-98021989D01*
X161149203Y-98021988D01*
X161149205Y-98021988D01*
X161264235Y-97979083D01*
X161286204Y-97970889D01*
X161403261Y-97883261D01*
X161490889Y-97766204D01*
X161513765Y-97704871D01*
X161541988Y-97629205D01*
X161541988Y-97629203D01*
X161541989Y-97629201D01*
X161548500Y-97568638D01*
X161548500Y-96519999D01*
X166134858Y-96519999D01*
X166155386Y-96767732D01*
X166216413Y-97008721D01*
X166316268Y-97236370D01*
X166416563Y-97389882D01*
X166416564Y-97389882D01*
X167156923Y-96649523D01*
X167180507Y-96729844D01*
X167258239Y-96850798D01*
X167366900Y-96944952D01*
X167497685Y-97004680D01*
X167507466Y-97006086D01*
X166769942Y-97743609D01*
X166769942Y-97743610D01*
X166816766Y-97780055D01*
X167035393Y-97898368D01*
X167270506Y-97979083D01*
X167515707Y-98020000D01*
X167764293Y-98020000D01*
X168009493Y-97979083D01*
X168244606Y-97898368D01*
X168463233Y-97780053D01*
X168510056Y-97743609D01*
X167772533Y-97006086D01*
X167782315Y-97004680D01*
X167913100Y-96944952D01*
X168021761Y-96850798D01*
X168099493Y-96729844D01*
X168123076Y-96649524D01*
X168863434Y-97389882D01*
X168963730Y-97236369D01*
X169063586Y-97008721D01*
X169124613Y-96767732D01*
X169145141Y-96519999D01*
X169124613Y-96272267D01*
X169063586Y-96031278D01*
X168963730Y-95803630D01*
X168863434Y-95650116D01*
X168123076Y-96390475D01*
X168099493Y-96310156D01*
X168021761Y-96189202D01*
X167913100Y-96095048D01*
X167782315Y-96035320D01*
X167772534Y-96033913D01*
X168510057Y-95296390D01*
X168510056Y-95296388D01*
X168463235Y-95259947D01*
X168244606Y-95141631D01*
X168009493Y-95060916D01*
X167764293Y-95020000D01*
X167515707Y-95020000D01*
X167270506Y-95060916D01*
X167035393Y-95141631D01*
X166816764Y-95259946D01*
X166769942Y-95296388D01*
X166769942Y-95296390D01*
X167507466Y-96033913D01*
X167497685Y-96035320D01*
X167366900Y-96095048D01*
X167258239Y-96189202D01*
X167180507Y-96310156D01*
X167156923Y-96390474D01*
X166416564Y-95650116D01*
X166316266Y-95803634D01*
X166216413Y-96031278D01*
X166155386Y-96272267D01*
X166134858Y-96519999D01*
X161548500Y-96519999D01*
X161548500Y-95471362D01*
X161541989Y-95410799D01*
X161541988Y-95410797D01*
X161541988Y-95410794D01*
X161490889Y-95273796D01*
X161403261Y-95156738D01*
X161286203Y-95069110D01*
X161149205Y-95018011D01*
X161091924Y-95011853D01*
X161091918Y-95011852D01*
X161088638Y-95011500D01*
X158991362Y-95011500D01*
X158988082Y-95011852D01*
X158988075Y-95011853D01*
X158930794Y-95018011D01*
X158793796Y-95069110D01*
X158676738Y-95156738D01*
X158589110Y-95273796D01*
X158538011Y-95410794D01*
X158531853Y-95468075D01*
X158531500Y-95471362D01*
X158531500Y-97568638D01*
X143502521Y-97568638D01*
X143550731Y-97508184D01*
X143676517Y-97290316D01*
X143768427Y-97056134D01*
X143824407Y-96810869D01*
X143843207Y-96560000D01*
X143824407Y-96309131D01*
X143768427Y-96063866D01*
X143676517Y-95829684D01*
X143550731Y-95611816D01*
X143393878Y-95415128D01*
X143209462Y-95244016D01*
X143209459Y-95244013D01*
X143001606Y-95102301D01*
X142915669Y-95060916D01*
X142774945Y-94993147D01*
X142700792Y-94970273D01*
X142534548Y-94918994D01*
X142285787Y-94881500D01*
X142285786Y-94881500D01*
X142034214Y-94881500D01*
X142034213Y-94881500D01*
X141785451Y-94918994D01*
X141545055Y-94993147D01*
X141318399Y-95102298D01*
X141110536Y-95244017D01*
X140926122Y-95415128D01*
X140769268Y-95611817D01*
X140643483Y-95829683D01*
X140551573Y-96063865D01*
X140495592Y-96309132D01*
X140476792Y-96559999D01*
X128008500Y-96559999D01*
X128008500Y-94908095D01*
X128028185Y-94841056D01*
X128044814Y-94820419D01*
X128805233Y-94060000D01*
X135485316Y-94060000D01*
X135504021Y-94309597D01*
X135559718Y-94553621D01*
X135651163Y-94786618D01*
X135776310Y-95003380D01*
X135814800Y-95051645D01*
X136557452Y-94308993D01*
X136567188Y-94338956D01*
X136655186Y-94477619D01*
X136774903Y-94590040D01*
X136909510Y-94664041D01*
X136168402Y-95405148D01*
X136322660Y-95510318D01*
X136548167Y-95618917D01*
X136787348Y-95692695D01*
X137034851Y-95730000D01*
X137285149Y-95730000D01*
X137532651Y-95692695D01*
X137771832Y-95618917D01*
X137997337Y-95510320D01*
X138151596Y-95405148D01*
X137407534Y-94661086D01*
X137475629Y-94634126D01*
X137608492Y-94537595D01*
X137713175Y-94411055D01*
X137761631Y-94308079D01*
X138505198Y-95051646D01*
X138505199Y-95051645D01*
X138543688Y-95003382D01*
X138668836Y-94786618D01*
X138760281Y-94553621D01*
X138815978Y-94309597D01*
X138834683Y-94060000D01*
X138815978Y-93810402D01*
X138760281Y-93566378D01*
X138668836Y-93333381D01*
X138543689Y-93116619D01*
X138505198Y-93068353D01*
X137762546Y-93811004D01*
X137752812Y-93781044D01*
X137664814Y-93642381D01*
X137545097Y-93529960D01*
X137410489Y-93455958D01*
X138151596Y-92714850D01*
X137997340Y-92609681D01*
X137771832Y-92501082D01*
X137532651Y-92427304D01*
X137285149Y-92390000D01*
X137034851Y-92390000D01*
X136787348Y-92427304D01*
X136548167Y-92501083D01*
X136322660Y-92609680D01*
X136168402Y-92714849D01*
X136912466Y-93458913D01*
X136844371Y-93485874D01*
X136711508Y-93582405D01*
X136606825Y-93708945D01*
X136558368Y-93811920D01*
X135814800Y-93068353D01*
X135814799Y-93068353D01*
X135776313Y-93116615D01*
X135651163Y-93333381D01*
X135559718Y-93566378D01*
X135504021Y-93810402D01*
X135485316Y-94060000D01*
X128805233Y-94060000D01*
X134505232Y-88360000D01*
X136431843Y-88360000D01*
X136450435Y-88584363D01*
X136450435Y-88584366D01*
X136450436Y-88584368D01*
X136498673Y-88774852D01*
X136505705Y-88802618D01*
X136596138Y-89008788D01*
X136596140Y-89008791D01*
X136719278Y-89197268D01*
X136871760Y-89362906D01*
X137049424Y-89501189D01*
X137247426Y-89608342D01*
X137460365Y-89681444D01*
X137682431Y-89718500D01*
X137692565Y-89720191D01*
X137692055Y-89723242D01*
X137742943Y-89738185D01*
X137763585Y-89754819D01*
X140122535Y-92113769D01*
X140130706Y-92122784D01*
X140158432Y-92156568D01*
X140311996Y-92282595D01*
X140394282Y-92326577D01*
X140487193Y-92376240D01*
X140487195Y-92376240D01*
X140487196Y-92376241D01*
X140528064Y-92388638D01*
X140677299Y-92433909D01*
X140875000Y-92453380D01*
X140918488Y-92449096D01*
X140930642Y-92448500D01*
X153172500Y-92448500D01*
X153239539Y-92468185D01*
X153285294Y-92520989D01*
X153296500Y-92572500D01*
X153296500Y-94104243D01*
X153276815Y-94171282D01*
X153242352Y-94206697D01*
X153236778Y-94210496D01*
X153049069Y-94384665D01*
X152889412Y-94584869D01*
X152761377Y-94806632D01*
X152667826Y-95044996D01*
X152610844Y-95294649D01*
X152591708Y-95549999D01*
X152610844Y-95805350D01*
X152667826Y-96055003D01*
X152761377Y-96293367D01*
X152889412Y-96515130D01*
X153049069Y-96715334D01*
X153236778Y-96889503D01*
X153236781Y-96889505D01*
X153448355Y-97033754D01*
X153679065Y-97144858D01*
X153923757Y-97220335D01*
X154176966Y-97258500D01*
X154433034Y-97258500D01*
X154686243Y-97220335D01*
X154930935Y-97144858D01*
X155161646Y-97033754D01*
X155373219Y-96889505D01*
X155560931Y-96715334D01*
X155720587Y-96515131D01*
X155848622Y-96293369D01*
X155942174Y-96055001D01*
X155999155Y-95805353D01*
X156018291Y-95550000D01*
X155999155Y-95294647D01*
X155942174Y-95044999D01*
X155848622Y-94806631D01*
X155720587Y-94584869D01*
X155560931Y-94384666D01*
X155560930Y-94384665D01*
X155373221Y-94210496D01*
X155367648Y-94206697D01*
X155323346Y-94152668D01*
X155313500Y-94104243D01*
X155313500Y-91495639D01*
X155314097Y-91483485D01*
X155318380Y-91440000D01*
X155314097Y-91396513D01*
X155313500Y-91384359D01*
X155313500Y-89780109D01*
X155333185Y-89713070D01*
X155335909Y-89709007D01*
X155442523Y-89556749D01*
X155539284Y-89349243D01*
X155598543Y-89128087D01*
X155603755Y-89068504D01*
X155629206Y-89003437D01*
X155639594Y-88991638D01*
X156271232Y-88360000D01*
X158664842Y-88360000D01*
X158685430Y-88595318D01*
X158746569Y-88823492D01*
X158846400Y-89037580D01*
X158905073Y-89121373D01*
X159536923Y-88489523D01*
X159560507Y-88569844D01*
X159638239Y-88690798D01*
X159746900Y-88784952D01*
X159877685Y-88844680D01*
X159887466Y-88846086D01*
X159258625Y-89474925D01*
X159342420Y-89533599D01*
X159556507Y-89633430D01*
X159784681Y-89694569D01*
X160019999Y-89715157D01*
X160255318Y-89694569D01*
X160483492Y-89633430D01*
X160697576Y-89533600D01*
X160781373Y-89474925D01*
X160152533Y-88846086D01*
X160162315Y-88844680D01*
X160293100Y-88784952D01*
X160401761Y-88690798D01*
X160479493Y-88569844D01*
X160503076Y-88489524D01*
X161134925Y-89121373D01*
X161193600Y-89037576D01*
X161293430Y-88823492D01*
X161354569Y-88595318D01*
X161375157Y-88360000D01*
X161354569Y-88124681D01*
X161293430Y-87896507D01*
X161193599Y-87682421D01*
X161134926Y-87598626D01*
X161134925Y-87598625D01*
X160503076Y-88230474D01*
X160479493Y-88150156D01*
X160401761Y-88029202D01*
X160293100Y-87935048D01*
X160162315Y-87875320D01*
X160152533Y-87873913D01*
X160781373Y-87245073D01*
X160781373Y-87245072D01*
X160697580Y-87186400D01*
X160483492Y-87086569D01*
X160255318Y-87025430D01*
X160019999Y-87004842D01*
X159784681Y-87025430D01*
X159556507Y-87086569D01*
X159342422Y-87186399D01*
X159258625Y-87245072D01*
X159887466Y-87873913D01*
X159877685Y-87875320D01*
X159746900Y-87935048D01*
X159638239Y-88029202D01*
X159560507Y-88150156D01*
X159536923Y-88230476D01*
X158905072Y-87598625D01*
X158846399Y-87682422D01*
X158746569Y-87896507D01*
X158685430Y-88124681D01*
X158664842Y-88360000D01*
X156271232Y-88360000D01*
X159956414Y-84674819D01*
X160017738Y-84641334D01*
X160044096Y-84638500D01*
X160132569Y-84638500D01*
X160354635Y-84601444D01*
X160567574Y-84528342D01*
X160765576Y-84421189D01*
X160943240Y-84282906D01*
X161095722Y-84117268D01*
X161218860Y-83928791D01*
X161309296Y-83722616D01*
X161364564Y-83504368D01*
X161383156Y-83280000D01*
X161364564Y-83055632D01*
X161309296Y-82837384D01*
X161218860Y-82631209D01*
X161095722Y-82442732D01*
X160943240Y-82277094D01*
X160765576Y-82138811D01*
X160567574Y-82031658D01*
X160567573Y-82031657D01*
X160567572Y-82031657D01*
X160354636Y-81958556D01*
X160132569Y-81921500D01*
X159907431Y-81921500D01*
X159685363Y-81958556D01*
X159472427Y-82031657D01*
X159274424Y-82138811D01*
X159096760Y-82277094D01*
X158944279Y-82442730D01*
X158821138Y-82631211D01*
X158730705Y-82837381D01*
X158675435Y-83055636D01*
X158674879Y-83062344D01*
X158649723Y-83127528D01*
X158638984Y-83139780D01*
X154213368Y-87565396D01*
X154152045Y-87598881D01*
X154136497Y-87601243D01*
X154089673Y-87605340D01*
X154076913Y-87606457D01*
X153927233Y-87646564D01*
X153855753Y-87665717D01*
X153648255Y-87762474D01*
X153648250Y-87762477D01*
X153648251Y-87762477D01*
X153464708Y-87890996D01*
X153460696Y-87893805D01*
X153298805Y-88055696D01*
X153298802Y-88055699D01*
X153298802Y-88055700D01*
X153167477Y-88243251D01*
X153167476Y-88243253D01*
X153167474Y-88243256D01*
X153142691Y-88296402D01*
X153096518Y-88348841D01*
X153029325Y-88367992D01*
X152962444Y-88347775D01*
X152917927Y-88296400D01*
X152895131Y-88247512D01*
X152844025Y-88174526D01*
X152162953Y-88855598D01*
X152150165Y-88774852D01*
X152092641Y-88661955D01*
X152003045Y-88572359D01*
X151890148Y-88514835D01*
X151809400Y-88502046D01*
X152490472Y-87820974D01*
X152490471Y-87820972D01*
X152417484Y-87769866D01*
X152211326Y-87673733D01*
X151991602Y-87614858D01*
X151764999Y-87595033D01*
X151538397Y-87614858D01*
X151318672Y-87673733D01*
X151112516Y-87769865D01*
X151039527Y-87820973D01*
X151039526Y-87820973D01*
X151720600Y-88502046D01*
X151639852Y-88514835D01*
X151526955Y-88572359D01*
X151437359Y-88661955D01*
X151379835Y-88774852D01*
X151367046Y-88855599D01*
X150685973Y-88174526D01*
X150685973Y-88174527D01*
X150634865Y-88247516D01*
X150538733Y-88453672D01*
X150479858Y-88673397D01*
X150460033Y-88900000D01*
X150479858Y-89126602D01*
X150538733Y-89346326D01*
X150634866Y-89552484D01*
X150685972Y-89625471D01*
X150685974Y-89625472D01*
X151367046Y-88944399D01*
X151379835Y-89025148D01*
X151437359Y-89138045D01*
X151526955Y-89227641D01*
X151639852Y-89285165D01*
X151720599Y-89297953D01*
X151039526Y-89979025D01*
X151039526Y-89979026D01*
X151112515Y-90030133D01*
X151318673Y-90126266D01*
X151548038Y-90187725D01*
X151607698Y-90224090D01*
X151638227Y-90286937D01*
X151629932Y-90356313D01*
X151585447Y-90410191D01*
X151518895Y-90431465D01*
X151515944Y-90431500D01*
X141344096Y-90431500D01*
X141277057Y-90411815D01*
X141256415Y-90395181D01*
X139184598Y-88323364D01*
X139151113Y-88262041D01*
X139148702Y-88245922D01*
X139139564Y-88135632D01*
X139084296Y-87917384D01*
X138993860Y-87711209D01*
X138870722Y-87522732D01*
X138718240Y-87357094D01*
X138540576Y-87218811D01*
X138342574Y-87111658D01*
X138342573Y-87111657D01*
X138342572Y-87111657D01*
X138129636Y-87038556D01*
X137907569Y-87001500D01*
X137682431Y-87001500D01*
X137460363Y-87038556D01*
X137247427Y-87111657D01*
X137049424Y-87218811D01*
X136871760Y-87357094D01*
X136719279Y-87522730D01*
X136596138Y-87711211D01*
X136514861Y-87896507D01*
X136505704Y-87917384D01*
X136483150Y-88006447D01*
X136450435Y-88135636D01*
X136431843Y-88360000D01*
X134505232Y-88360000D01*
X138317414Y-84547818D01*
X138346073Y-84526448D01*
X138540576Y-84421189D01*
X138677459Y-84314647D01*
X138742454Y-84289004D01*
X138753623Y-84288500D01*
X145707358Y-84288500D01*
X145719511Y-84289096D01*
X145763000Y-84293380D01*
X145960701Y-84273909D01*
X146150804Y-84216241D01*
X146150822Y-84216231D01*
X146150839Y-84216223D01*
X146243616Y-84166632D01*
X146326004Y-84122595D01*
X146479568Y-83996568D01*
X146507299Y-83962776D01*
X146515451Y-83953781D01*
X146562933Y-83906299D01*
X146624254Y-83872816D01*
X146693946Y-83877800D01*
X146749879Y-83919672D01*
X146754421Y-83926160D01*
X146756140Y-83928791D01*
X146879278Y-84117268D01*
X147031760Y-84282906D01*
X147209424Y-84421189D01*
X147407426Y-84528342D01*
X147620365Y-84601444D01*
X147842431Y-84638500D01*
X148067569Y-84638500D01*
X148289635Y-84601444D01*
X148502574Y-84528342D01*
X148700576Y-84421189D01*
X148878240Y-84282906D01*
X149030722Y-84117268D01*
X149153860Y-83928791D01*
X149244296Y-83722616D01*
X149299564Y-83504368D01*
X149318156Y-83280000D01*
X149299564Y-83055632D01*
X149244296Y-82837384D01*
X149153860Y-82631209D01*
X149030722Y-82442732D01*
X148878240Y-82277094D01*
X148700576Y-82138811D01*
X148700574Y-82138810D01*
X148700573Y-82138809D01*
X148606650Y-82087980D01*
X148557060Y-82038761D01*
X148541952Y-81970544D01*
X148566123Y-81904989D01*
X148577980Y-81891252D01*
X151224414Y-79244819D01*
X151285738Y-79211334D01*
X151312096Y-79208500D01*
X169221377Y-79208500D01*
X169288416Y-79228185D01*
X169297540Y-79234647D01*
X169434424Y-79341189D01*
X169632426Y-79448342D01*
X169845365Y-79521444D01*
X170067431Y-79558500D01*
X170292569Y-79558500D01*
X170514635Y-79521444D01*
X170727574Y-79448342D01*
X170925576Y-79341189D01*
X171070513Y-79228378D01*
X171135502Y-79202737D01*
X171204042Y-79216303D01*
X171254368Y-79264771D01*
X171265938Y-79292299D01*
X171309482Y-79445341D01*
X171310268Y-79448102D01*
X171311299Y-79450765D01*
X171311301Y-79450769D01*
X171449301Y-79806989D01*
X171454453Y-79820286D01*
X171455734Y-79822859D01*
X171455736Y-79822863D01*
X171584707Y-80081873D01*
X171632363Y-80177578D01*
X171633864Y-80180003D01*
X171633869Y-80180011D01*
X171840977Y-80514502D01*
X171840983Y-80514511D01*
X171842481Y-80516930D01*
X171884826Y-80573004D01*
X172000792Y-80726568D01*
X172083015Y-80835448D01*
X172351911Y-81130413D01*
X172646876Y-81399309D01*
X172965394Y-81639843D01*
X173304746Y-81849961D01*
X173662038Y-82027871D01*
X173664724Y-82028911D01*
X173664725Y-82028912D01*
X173672369Y-82031874D01*
X173727770Y-82074447D01*
X173751360Y-82140214D01*
X173735648Y-82208295D01*
X173685624Y-82257073D01*
X173627574Y-82271500D01*
X171138623Y-82271500D01*
X171071584Y-82251815D01*
X171062460Y-82245353D01*
X171014848Y-82208295D01*
X170925576Y-82138811D01*
X170727574Y-82031658D01*
X170727573Y-82031657D01*
X170727572Y-82031657D01*
X170514636Y-81958556D01*
X170292569Y-81921500D01*
X170067431Y-81921500D01*
X169845363Y-81958556D01*
X169632427Y-82031657D01*
X169434424Y-82138811D01*
X169256760Y-82277094D01*
X169104279Y-82442730D01*
X168981138Y-82631211D01*
X168890705Y-82837381D01*
X168835435Y-83055636D01*
X168816843Y-83280000D01*
X168835435Y-83504363D01*
X168835435Y-83504366D01*
X168835436Y-83504368D01*
X168883673Y-83694852D01*
X168890705Y-83722618D01*
X168981138Y-83928788D01*
X168981140Y-83928791D01*
X169104278Y-84117268D01*
X169256760Y-84282906D01*
X169434424Y-84421189D01*
X169632426Y-84528342D01*
X169845365Y-84601444D01*
X170067431Y-84638500D01*
X170292569Y-84638500D01*
X170514635Y-84601444D01*
X170727574Y-84528342D01*
X170925576Y-84421189D01*
X171062459Y-84314647D01*
X171127454Y-84289004D01*
X171138623Y-84288500D01*
X176968333Y-84288500D01*
X176980493Y-84289098D01*
X177023946Y-84293380D01*
X177023947Y-84293379D01*
X177023949Y-84293380D01*
X177073516Y-84288500D01*
X177073526Y-84288500D01*
X177073547Y-84288500D01*
X177114116Y-84284504D01*
X177221650Y-84273919D01*
X177221654Y-84273917D01*
X177221681Y-84273915D01*
X177307412Y-84247908D01*
X177346181Y-84236149D01*
X177410798Y-84216551D01*
X177411798Y-84216259D01*
X177412857Y-84215678D01*
X177504615Y-84166632D01*
X177526597Y-84154883D01*
X177585742Y-84123274D01*
X177587062Y-84122591D01*
X177588551Y-84121325D01*
X177593494Y-84117269D01*
X177613982Y-84100453D01*
X177667710Y-84056361D01*
X177701984Y-84028236D01*
X177702044Y-84028187D01*
X177702061Y-84028169D01*
X177740568Y-83996568D01*
X177768278Y-83962801D01*
X177776427Y-83953810D01*
X181648762Y-80081867D01*
X181657761Y-80073711D01*
X181691568Y-80045968D01*
X181760160Y-79962387D01*
X181816754Y-79893434D01*
X181817607Y-79892422D01*
X181818261Y-79891158D01*
X181865978Y-79801885D01*
X181886810Y-79762916D01*
X181911120Y-79717440D01*
X181911232Y-79717237D01*
X181918777Y-79692361D01*
X181929636Y-79656563D01*
X181960613Y-79604884D01*
X181981198Y-79584300D01*
X182112523Y-79396749D01*
X182137308Y-79343596D01*
X182183476Y-79291160D01*
X182250669Y-79272007D01*
X182317551Y-79292221D01*
X182362070Y-79343597D01*
X182384866Y-79392482D01*
X182515341Y-79578819D01*
X182676180Y-79739658D01*
X182862519Y-79870134D01*
X183068673Y-79966266D01*
X183264999Y-80018871D01*
X183265000Y-80018871D01*
X183265000Y-79055685D01*
X183276955Y-79067641D01*
X183389852Y-79125165D01*
X183483519Y-79140000D01*
X183546481Y-79140000D01*
X183640148Y-79125165D01*
X183753045Y-79067641D01*
X183765000Y-79055685D01*
X183765000Y-80018871D01*
X183961326Y-79966266D01*
X184167480Y-79870134D01*
X184353819Y-79739658D01*
X184514658Y-79578819D01*
X184645134Y-79392480D01*
X184741266Y-79186326D01*
X184793872Y-78990000D01*
X183830686Y-78990000D01*
X183842641Y-78978045D01*
X183900165Y-78865148D01*
X183919986Y-78740000D01*
X183900165Y-78614852D01*
X183842641Y-78501955D01*
X183830686Y-78490000D01*
X184793872Y-78490000D01*
X184793871Y-78489999D01*
X184770987Y-78404594D01*
X184772650Y-78334744D01*
X184811812Y-78276881D01*
X184876040Y-78249377D01*
X184890762Y-78248500D01*
X186777407Y-78248500D01*
X186844446Y-78268185D01*
X186890201Y-78320989D01*
X186898035Y-78351462D01*
X186898777Y-78351293D01*
X186957826Y-78610003D01*
X187027422Y-78787331D01*
X187051378Y-78848369D01*
X187068243Y-78877580D01*
X187179412Y-79070130D01*
X187339069Y-79270334D01*
X187526778Y-79444503D01*
X187526781Y-79444505D01*
X187738355Y-79588754D01*
X187969065Y-79699858D01*
X188213757Y-79775335D01*
X188466966Y-79813500D01*
X188723034Y-79813500D01*
X188976243Y-79775335D01*
X189220935Y-79699858D01*
X189451646Y-79588754D01*
X189663219Y-79444505D01*
X189850931Y-79270334D01*
X190010587Y-79070131D01*
X190138622Y-78848369D01*
X190232174Y-78610001D01*
X190289155Y-78360353D01*
X190308291Y-78105000D01*
X190289155Y-77849647D01*
X190232174Y-77599999D01*
X190138622Y-77361631D01*
X190010587Y-77139869D01*
X189850931Y-76939666D01*
X189785070Y-76878556D01*
X189663221Y-76765496D01*
X189506721Y-76658796D01*
X189451646Y-76621246D01*
X189451643Y-76621245D01*
X189451641Y-76621243D01*
X189220935Y-76510142D01*
X188976244Y-76434665D01*
X188723034Y-76396500D01*
X188466966Y-76396500D01*
X188466965Y-76396500D01*
X188370611Y-76411022D01*
X188301387Y-76401549D01*
X188293678Y-76397765D01*
X188117803Y-76303758D01*
X187927702Y-76246091D01*
X187828850Y-76236355D01*
X187730000Y-76226620D01*
X187729999Y-76226620D01*
X187686512Y-76230903D01*
X187674358Y-76231500D01*
X182530640Y-76231500D01*
X182518486Y-76230903D01*
X182475000Y-76226620D01*
X182425453Y-76231500D01*
X182277301Y-76246091D01*
X182213931Y-76265314D01*
X182087196Y-76303759D01*
X182087192Y-76303760D01*
X182087192Y-76303761D01*
X181911996Y-76397404D01*
X181758433Y-76523430D01*
X181730707Y-76557214D01*
X181722536Y-76566228D01*
X180883368Y-77405396D01*
X180822045Y-77438881D01*
X180806497Y-77441243D01*
X180759673Y-77445340D01*
X180746913Y-77446457D01*
X180551884Y-77498715D01*
X180525753Y-77505717D01*
X180318255Y-77602474D01*
X180130696Y-77733805D01*
X179968803Y-77895698D01*
X179949629Y-77923082D01*
X179895052Y-77966706D01*
X179825553Y-77973898D01*
X179763199Y-77942375D01*
X179727786Y-77882145D01*
X179724055Y-77851957D01*
X179724055Y-75893734D01*
X179743740Y-75826695D01*
X179796544Y-75780940D01*
X179848055Y-75769734D01*
X195182963Y-75769734D01*
X195250002Y-75789419D01*
X195295757Y-75842223D01*
X195306963Y-75893734D01*
X195306963Y-130255987D01*
X195287278Y-130323026D01*
X195234474Y-130368781D01*
X195182963Y-130379987D01*
X179848055Y-130379987D01*
X179781016Y-130360302D01*
X179735261Y-130307498D01*
X179724055Y-130255987D01*
X179724055Y-127878165D01*
X179724055Y-127878164D01*
X179724055Y-127875293D01*
X179687228Y-127477859D01*
X179613886Y-127085519D01*
X179504658Y-126701620D01*
X179360473Y-126329436D01*
X179182563Y-125972144D01*
X179101833Y-125841761D01*
X178973948Y-125635219D01*
X178973945Y-125635214D01*
X178972445Y-125632792D01*
X178731911Y-125314274D01*
X178463015Y-125019309D01*
X178168050Y-124750413D01*
X177849532Y-124509879D01*
X177847113Y-124508381D01*
X177847104Y-124508375D01*
X177512613Y-124301267D01*
X177512605Y-124301262D01*
X177510180Y-124299761D01*
X177507614Y-124298483D01*
X177507610Y-124298481D01*
X177155465Y-124123134D01*
X177155461Y-124123132D01*
X177152888Y-124121851D01*
X177150217Y-124120816D01*
X177150212Y-124120814D01*
X176783371Y-123978699D01*
X176783367Y-123978697D01*
X176780704Y-123977666D01*
X176777951Y-123976882D01*
X176777943Y-123976880D01*
X176399557Y-123869221D01*
X176399556Y-123869220D01*
X176396805Y-123868438D01*
X176394013Y-123867916D01*
X176394000Y-123867913D01*
X176007286Y-123795623D01*
X176007278Y-123795621D01*
X176004465Y-123795096D01*
X176001617Y-123794832D01*
X176001602Y-123794830D01*
X175609891Y-123758534D01*
X175609890Y-123758533D01*
X175607031Y-123758269D01*
X175207895Y-123758269D01*
X175205036Y-123758533D01*
X175205034Y-123758534D01*
X174813323Y-123794830D01*
X174813305Y-123794832D01*
X174810461Y-123795096D01*
X174807650Y-123795621D01*
X174807639Y-123795623D01*
X174420925Y-123867913D01*
X174420907Y-123867917D01*
X174418121Y-123868438D01*
X174415373Y-123869219D01*
X174415368Y-123869221D01*
X174036982Y-123976880D01*
X174036967Y-123976884D01*
X174034222Y-123977666D01*
X174031565Y-123978695D01*
X174031554Y-123978699D01*
X173664713Y-124120814D01*
X173664700Y-124120819D01*
X173662038Y-124121851D01*
X173659472Y-124123128D01*
X173659460Y-124123134D01*
X173307315Y-124298481D01*
X173307301Y-124298488D01*
X173304746Y-124299761D01*
X173302329Y-124301257D01*
X173302312Y-124301267D01*
X172967821Y-124508375D01*
X172967801Y-124508388D01*
X172965394Y-124509879D01*
X172963120Y-124511595D01*
X172963113Y-124511601D01*
X172649163Y-124748685D01*
X172649150Y-124748695D01*
X172646876Y-124750413D01*
X172644761Y-124752340D01*
X172644755Y-124752346D01*
X172354026Y-125017380D01*
X172354015Y-125017390D01*
X172351911Y-125019309D01*
X172349992Y-125021413D01*
X172349982Y-125021424D01*
X172084948Y-125312153D01*
X172084942Y-125312159D01*
X172083015Y-125314274D01*
X172081297Y-125316548D01*
X172081287Y-125316561D01*
X171844203Y-125630511D01*
X171844197Y-125630518D01*
X171842481Y-125632792D01*
X171840990Y-125635199D01*
X171840977Y-125635219D01*
X171633869Y-125969710D01*
X171633859Y-125969727D01*
X171632363Y-125972144D01*
X171631090Y-125974699D01*
X171631083Y-125974713D01*
X171455736Y-126326858D01*
X171455730Y-126326870D01*
X171454453Y-126329436D01*
X171453421Y-126332098D01*
X171453416Y-126332111D01*
X171311301Y-126698952D01*
X171311297Y-126698963D01*
X171310268Y-126701620D01*
X171309486Y-126704365D01*
X171309482Y-126704380D01*
X171214025Y-127039880D01*
X171201040Y-127085519D01*
X171200519Y-127088305D01*
X171200515Y-127088323D01*
X171128225Y-127475037D01*
X171128223Y-127475048D01*
X171127698Y-127477859D01*
X171127434Y-127480703D01*
X171127432Y-127480721D01*
X171094819Y-127832683D01*
X171090871Y-127875293D01*
X171090871Y-127878164D01*
X171090871Y-127878165D01*
X171090871Y-130255987D01*
X171071186Y-130323026D01*
X171018382Y-130368781D01*
X170966871Y-130379987D01*
X138986089Y-130379987D01*
X138919050Y-130360302D01*
X138873295Y-130307498D01*
X138862089Y-130255987D01*
X138862089Y-127878165D01*
X138862089Y-127878164D01*
X138862089Y-127875293D01*
X138825262Y-127477859D01*
X138751920Y-127085519D01*
X138642692Y-126701620D01*
X138498507Y-126329436D01*
X138320597Y-125972144D01*
X138160308Y-125713269D01*
X138141753Y-125645910D01*
X138162561Y-125579211D01*
X138216126Y-125534349D01*
X138285442Y-125525569D01*
X138348501Y-125555657D01*
X138353417Y-125560312D01*
X140336654Y-127543548D01*
X140339847Y-127546862D01*
X140405562Y-127617686D01*
X140481093Y-127677920D01*
X140484628Y-127680849D01*
X140557835Y-127743851D01*
X140569638Y-127751266D01*
X140579907Y-127757718D01*
X140591247Y-127765764D01*
X140611624Y-127782015D01*
X140695238Y-127830289D01*
X140699211Y-127832683D01*
X140762471Y-127872432D01*
X140781004Y-127884077D01*
X140804907Y-127894505D01*
X140817303Y-127900763D01*
X140839876Y-127913796D01*
X140929811Y-127949092D01*
X140934032Y-127950842D01*
X141022571Y-127989472D01*
X141047748Y-127996218D01*
X141060955Y-128000563D01*
X141085220Y-128010087D01*
X141179407Y-128031584D01*
X141183834Y-128032682D01*
X141277158Y-128057688D01*
X141303061Y-128060606D01*
X141316745Y-128062930D01*
X141342174Y-128068735D01*
X141438500Y-128075953D01*
X141443064Y-128076380D01*
X141539064Y-128087198D01*
X141635569Y-128083587D01*
X141640206Y-128083500D01*
X151318200Y-128083500D01*
X160450794Y-128083500D01*
X160455431Y-128083587D01*
X160551934Y-128087198D01*
X160551934Y-128087197D01*
X160551936Y-128087198D01*
X160647944Y-128076379D01*
X160652492Y-128075953D01*
X160748826Y-128068735D01*
X160774239Y-128062933D01*
X160787946Y-128060606D01*
X160813834Y-128057689D01*
X160813834Y-128057688D01*
X160813842Y-128057688D01*
X160907188Y-128032675D01*
X160911591Y-128031584D01*
X161005780Y-128010087D01*
X161030044Y-128000563D01*
X161043242Y-127996220D01*
X161068424Y-127989473D01*
X161156974Y-127950838D01*
X161161172Y-127949099D01*
X161251124Y-127913796D01*
X161273691Y-127900765D01*
X161286113Y-127894495D01*
X161309996Y-127884076D01*
X161391805Y-127832671D01*
X161395695Y-127830327D01*
X161479376Y-127782015D01*
X161499752Y-127765765D01*
X161511080Y-127757726D01*
X161533161Y-127743853D01*
X161606381Y-127680841D01*
X161609909Y-127677917D01*
X161685438Y-127617686D01*
X161751129Y-127546886D01*
X161754318Y-127543575D01*
X163778575Y-125519318D01*
X163781889Y-125516127D01*
X163852686Y-125450438D01*
X163912917Y-125374909D01*
X163915841Y-125371381D01*
X163978853Y-125298161D01*
X163992726Y-125276080D01*
X164000766Y-125264751D01*
X164003716Y-125261051D01*
X164017015Y-125244376D01*
X164065327Y-125160695D01*
X164067671Y-125156805D01*
X164119076Y-125074996D01*
X164129496Y-125051110D01*
X164135768Y-125038687D01*
X164148794Y-125016127D01*
X164148796Y-125016124D01*
X164184099Y-124926172D01*
X164185838Y-124921974D01*
X164224473Y-124833424D01*
X164231220Y-124808242D01*
X164235564Y-124795043D01*
X164245087Y-124770779D01*
X164249294Y-124752346D01*
X164266584Y-124676591D01*
X164267675Y-124672188D01*
X164292688Y-124578842D01*
X164292689Y-124578834D01*
X164295606Y-124552946D01*
X164297935Y-124539234D01*
X164303735Y-124513826D01*
X164310953Y-124417492D01*
X164311381Y-124412929D01*
X164313702Y-124392335D01*
X164340767Y-124327924D01*
X164398362Y-124288369D01*
X164468199Y-124286231D01*
X164489325Y-124293839D01*
X164667919Y-124377118D01*
X164667920Y-124377118D01*
X164667924Y-124377120D01*
X164880629Y-124434115D01*
X165100000Y-124453307D01*
X165319371Y-124434115D01*
X165532076Y-124377120D01*
X165731654Y-124284056D01*
X165912038Y-124157749D01*
X166067749Y-124002038D01*
X166194056Y-123821654D01*
X166287120Y-123622076D01*
X166344115Y-123409371D01*
X166363307Y-123190000D01*
X166344115Y-122970629D01*
X166287120Y-122757924D01*
X166194056Y-122558347D01*
X166067749Y-122377962D01*
X165912038Y-122222251D01*
X165731654Y-122095944D01*
X165578205Y-122024390D01*
X165532077Y-122002880D01*
X165319368Y-121945884D01*
X165100000Y-121926692D01*
X164880631Y-121945884D01*
X164667922Y-122002880D01*
X164468349Y-122095943D01*
X164468347Y-122095944D01*
X164305184Y-122210192D01*
X164287958Y-122222254D01*
X164239835Y-122270377D01*
X164178512Y-122303861D01*
X164108820Y-122298876D01*
X164052887Y-122257005D01*
X164044775Y-122244706D01*
X164017015Y-122196624D01*
X163852686Y-121990562D01*
X163783852Y-121926693D01*
X163659483Y-121811295D01*
X163441713Y-121662822D01*
X163204252Y-121548467D01*
X162952401Y-121470782D01*
X162691782Y-121431500D01*
X162691781Y-121431500D01*
X162428219Y-121431500D01*
X162428218Y-121431500D01*
X162167598Y-121470782D01*
X161915748Y-121548467D01*
X161678287Y-121662822D01*
X161460513Y-121811298D01*
X161267317Y-121990558D01*
X161102983Y-122196624D01*
X161075229Y-122244696D01*
X161024661Y-122292911D01*
X160956054Y-122306132D01*
X160891190Y-122280163D01*
X160880162Y-122270375D01*
X160832041Y-122222254D01*
X160832040Y-122222254D01*
X160832038Y-122222251D01*
X160651654Y-122095944D01*
X160498205Y-122024390D01*
X160452077Y-122002880D01*
X160239368Y-121945884D01*
X160020000Y-121926692D01*
X159800631Y-121945884D01*
X159587922Y-122002880D01*
X159388349Y-122095943D01*
X159388347Y-122095944D01*
X159225184Y-122210192D01*
X159207958Y-122222254D01*
X159052254Y-122377958D01*
X159052251Y-122377961D01*
X159052251Y-122377962D01*
X158930903Y-122551266D01*
X158925943Y-122558349D01*
X158832880Y-122757922D01*
X158775884Y-122970631D01*
X158756692Y-123190000D01*
X158775884Y-123409368D01*
X158832880Y-123622077D01*
X158860512Y-123681334D01*
X158925944Y-123821654D01*
X159052251Y-124002038D01*
X159207962Y-124157749D01*
X159388346Y-124284056D01*
X159458858Y-124316936D01*
X159487127Y-124330118D01*
X159539566Y-124376290D01*
X159558718Y-124443484D01*
X159538502Y-124510365D01*
X159485337Y-124555699D01*
X159434722Y-124566500D01*
X155525278Y-124566500D01*
X155458239Y-124546815D01*
X155412484Y-124494011D01*
X155402540Y-124424853D01*
X155431565Y-124361297D01*
X155472873Y-124330118D01*
X155477578Y-124327924D01*
X155571654Y-124284056D01*
X155752038Y-124157749D01*
X155907749Y-124002038D01*
X156034056Y-123821654D01*
X156127120Y-123622076D01*
X156184115Y-123409371D01*
X156203307Y-123190000D01*
X156184115Y-122970629D01*
X156127120Y-122757924D01*
X156034056Y-122558347D01*
X155907749Y-122377962D01*
X155752038Y-122222251D01*
X155571654Y-122095944D01*
X155418205Y-122024390D01*
X155372077Y-122002880D01*
X155159368Y-121945884D01*
X154940000Y-121926692D01*
X154720631Y-121945884D01*
X154507922Y-122002880D01*
X154308349Y-122095943D01*
X154308347Y-122095944D01*
X154145184Y-122210192D01*
X154127958Y-122222254D01*
X153972254Y-122377958D01*
X153972251Y-122377961D01*
X153972251Y-122377962D01*
X153850903Y-122551266D01*
X153845943Y-122558349D01*
X153752880Y-122757922D01*
X153695884Y-122970631D01*
X153676692Y-123190000D01*
X153695884Y-123409368D01*
X153752880Y-123622077D01*
X153780512Y-123681334D01*
X153845944Y-123821654D01*
X153972251Y-124002038D01*
X154127962Y-124157749D01*
X154308346Y-124284056D01*
X154378858Y-124316936D01*
X154407127Y-124330118D01*
X154459566Y-124376290D01*
X154478718Y-124443484D01*
X154458502Y-124510365D01*
X154405337Y-124555699D01*
X154354722Y-124566500D01*
X152516500Y-124566500D01*
X152449461Y-124546815D01*
X152403706Y-124494011D01*
X152392500Y-124442500D01*
X152392500Y-113189518D01*
X156455000Y-113189518D01*
X156455354Y-113196132D01*
X156461400Y-113252371D01*
X156511647Y-113387089D01*
X156597811Y-113502188D01*
X156712910Y-113588352D01*
X156847628Y-113638599D01*
X156903867Y-113644645D01*
X156910482Y-113645000D01*
X157230000Y-113645000D01*
X157230000Y-112675617D01*
X157299052Y-112729363D01*
X157417424Y-112770000D01*
X157511073Y-112770000D01*
X157603446Y-112754586D01*
X157713514Y-112695019D01*
X157730000Y-112677110D01*
X157730000Y-113645000D01*
X158049518Y-113645000D01*
X158056132Y-113644645D01*
X158112371Y-113638599D01*
X158247089Y-113588352D01*
X158362188Y-113502188D01*
X158448352Y-113387089D01*
X158498599Y-113252371D01*
X158504645Y-113196132D01*
X158505000Y-113189518D01*
X158505000Y-112645000D01*
X157759560Y-112645000D01*
X157798278Y-112602941D01*
X157848551Y-112488330D01*
X157858886Y-112363605D01*
X157828163Y-112242281D01*
X157764606Y-112145000D01*
X158505000Y-112145000D01*
X158505000Y-111600481D01*
X158504645Y-111593867D01*
X158498599Y-111537628D01*
X158448352Y-111402910D01*
X158362188Y-111287811D01*
X158247089Y-111201647D01*
X158112371Y-111151400D01*
X158056132Y-111145354D01*
X158049518Y-111145000D01*
X157730000Y-111145000D01*
X157730000Y-112114382D01*
X157660948Y-112060637D01*
X157542576Y-112020000D01*
X157448927Y-112020000D01*
X157356554Y-112035414D01*
X157246486Y-112094981D01*
X157230000Y-112112889D01*
X157230000Y-111145000D01*
X156910482Y-111145000D01*
X156903867Y-111145354D01*
X156847628Y-111151400D01*
X156712910Y-111201647D01*
X156597811Y-111287811D01*
X156511647Y-111402910D01*
X156461400Y-111537628D01*
X156455354Y-111593867D01*
X156455000Y-111600481D01*
X156455000Y-112145000D01*
X157200440Y-112145000D01*
X157161722Y-112187059D01*
X157111449Y-112301670D01*
X157101114Y-112426395D01*
X157131837Y-112547719D01*
X157195394Y-112645000D01*
X156455000Y-112645000D01*
X156455000Y-113189518D01*
X152392500Y-113189518D01*
X152392500Y-111589641D01*
X152393097Y-111577487D01*
X152397380Y-111534000D01*
X152377909Y-111336300D01*
X152320242Y-111146197D01*
X152320240Y-111146193D01*
X152276650Y-111064642D01*
X152226595Y-110970996D01*
X152100568Y-110817432D01*
X152066789Y-110789710D01*
X152057773Y-110781538D01*
X150457464Y-109181230D01*
X150449291Y-109172213D01*
X150421567Y-109138431D01*
X150268003Y-109012404D01*
X150092804Y-108918759D01*
X150052393Y-108906500D01*
X149902702Y-108861091D01*
X149803850Y-108851355D01*
X149705000Y-108841620D01*
X149704999Y-108841620D01*
X149661512Y-108845903D01*
X149649358Y-108846500D01*
X149404650Y-108846500D01*
X149339372Y-108827927D01*
X149279792Y-108791036D01*
X149177529Y-108751419D01*
X149075268Y-108711803D01*
X148859667Y-108671500D01*
X148640333Y-108671500D01*
X148445076Y-108708000D01*
X148424732Y-108711803D01*
X148220208Y-108791036D01*
X148033724Y-108906502D01*
X147871636Y-109054264D01*
X147739456Y-109229299D01*
X147641692Y-109425635D01*
X147581667Y-109636604D01*
X147561430Y-109855000D01*
X147581667Y-110073395D01*
X147581667Y-110073398D01*
X147581668Y-110073399D01*
X147606515Y-110160730D01*
X147641692Y-110284364D01*
X147739456Y-110480700D01*
X147871636Y-110655735D01*
X148033724Y-110803497D01*
X148033726Y-110803498D01*
X148033727Y-110803499D01*
X148220209Y-110918964D01*
X148424732Y-110998197D01*
X148451023Y-111003111D01*
X148513303Y-111034780D01*
X148548576Y-111095092D01*
X148545642Y-111164900D01*
X148505433Y-111222040D01*
X148451023Y-111246888D01*
X148424731Y-111251803D01*
X148424732Y-111251803D01*
X148220208Y-111331036D01*
X148033724Y-111446502D01*
X147871636Y-111594264D01*
X147739456Y-111769299D01*
X147641692Y-111965635D01*
X147581667Y-112176604D01*
X147561430Y-112395000D01*
X147581667Y-112613395D01*
X147581667Y-112613398D01*
X147581668Y-112613399D01*
X147641189Y-112822598D01*
X147641692Y-112824364D01*
X147728500Y-112998697D01*
X147741500Y-113053969D01*
X147741500Y-114276030D01*
X147728500Y-114331301D01*
X147641690Y-114505638D01*
X147603122Y-114641194D01*
X147565843Y-114700287D01*
X147502534Y-114729845D01*
X147433294Y-114720483D01*
X147396175Y-114694941D01*
X143284819Y-110583585D01*
X143251334Y-110522262D01*
X143248500Y-110495904D01*
X143248500Y-107315000D01*
X143766620Y-107315000D01*
X143786091Y-107512698D01*
X143786092Y-107512701D01*
X143843759Y-107702804D01*
X143843761Y-107702807D01*
X143932288Y-107868432D01*
X143937405Y-107878004D01*
X144063432Y-108031568D01*
X144216996Y-108157595D01*
X144392196Y-108251241D01*
X144582299Y-108308908D01*
X144730453Y-108323500D01*
X151074358Y-108323500D01*
X151086511Y-108324096D01*
X151130000Y-108328380D01*
X151327701Y-108308909D01*
X151517804Y-108251241D01*
X151569704Y-108223500D01*
X151693004Y-108157595D01*
X151846568Y-108031568D01*
X151874299Y-107997776D01*
X151882451Y-107988781D01*
X153761632Y-106109600D01*
X153822953Y-106076117D01*
X153838498Y-106073756D01*
X153898087Y-106068543D01*
X154119243Y-106009284D01*
X154326749Y-105912523D01*
X154514300Y-105781198D01*
X154676198Y-105619300D01*
X154807523Y-105431749D01*
X154827617Y-105388655D01*
X154873790Y-105336215D01*
X154940983Y-105317063D01*
X155007864Y-105337278D01*
X155052382Y-105388655D01*
X155072477Y-105431749D01*
X155203802Y-105619300D01*
X155365700Y-105781198D01*
X155553251Y-105912523D01*
X155553254Y-105912524D01*
X155553255Y-105912525D01*
X155610992Y-105939448D01*
X155760757Y-106009284D01*
X155981913Y-106068543D01*
X156041493Y-106073755D01*
X156106561Y-106099206D01*
X156118368Y-106109601D01*
X158975182Y-108966416D01*
X159008666Y-109027737D01*
X159011500Y-109054095D01*
X159011500Y-111915886D01*
X159006161Y-111951879D01*
X159001454Y-111967396D01*
X158986798Y-112116191D01*
X158986797Y-112116207D01*
X158986500Y-112119225D01*
X158986500Y-112670775D01*
X158986797Y-112673793D01*
X158986798Y-112673808D01*
X159001453Y-112822599D01*
X159017080Y-112874113D01*
X159054871Y-112998697D01*
X159060551Y-113017419D01*
X159155862Y-113195734D01*
X159156518Y-113196960D01*
X159285669Y-113354331D01*
X159443040Y-113483482D01*
X159622583Y-113579450D01*
X159675299Y-113595441D01*
X159733735Y-113633736D01*
X159762192Y-113697548D01*
X159751633Y-113766615D01*
X159726983Y-113801781D01*
X156463585Y-117065181D01*
X156402262Y-117098666D01*
X156375904Y-117101500D01*
X155732938Y-117101500D01*
X155665899Y-117081815D01*
X155661815Y-117079075D01*
X155571655Y-117015944D01*
X155372077Y-116922880D01*
X155159368Y-116865884D01*
X154940000Y-116846692D01*
X154720631Y-116865884D01*
X154507922Y-116922880D01*
X154316138Y-117012311D01*
X154308347Y-117015944D01*
X154127962Y-117142251D01*
X154127958Y-117142254D01*
X153972254Y-117297958D01*
X153972251Y-117297961D01*
X153972251Y-117297962D01*
X153845946Y-117478345D01*
X153845943Y-117478349D01*
X153752880Y-117677922D01*
X153695884Y-117890631D01*
X153676692Y-118110000D01*
X153695884Y-118329368D01*
X153752880Y-118542077D01*
X153789147Y-118619852D01*
X153845944Y-118741654D01*
X153972251Y-118922038D01*
X154127962Y-119077749D01*
X154308346Y-119204056D01*
X154507924Y-119297120D01*
X154720629Y-119354115D01*
X154866876Y-119366909D01*
X154939999Y-119373307D01*
X154939999Y-119373306D01*
X154940000Y-119373307D01*
X155159371Y-119354115D01*
X155372076Y-119297120D01*
X155571654Y-119204056D01*
X155644391Y-119153125D01*
X155661815Y-119140925D01*
X155728021Y-119118598D01*
X155732938Y-119118500D01*
X156789358Y-119118500D01*
X156801511Y-119119096D01*
X156845000Y-119123380D01*
X157042701Y-119103909D01*
X157232804Y-119046241D01*
X157232804Y-119046240D01*
X157247208Y-119041871D01*
X157257359Y-119033114D01*
X157408004Y-118952595D01*
X157561568Y-118826568D01*
X157589299Y-118792776D01*
X157597451Y-118783781D01*
X158562336Y-117818896D01*
X158623657Y-117785413D01*
X158693349Y-117790397D01*
X158749282Y-117832269D01*
X158773699Y-117897733D01*
X158773543Y-117917386D01*
X158756692Y-118109999D01*
X158775884Y-118329368D01*
X158832880Y-118542077D01*
X158869147Y-118619852D01*
X158925944Y-118741654D01*
X159052251Y-118922038D01*
X159207962Y-119077749D01*
X159388346Y-119204056D01*
X159587924Y-119297120D01*
X159800629Y-119354115D01*
X160020000Y-119373307D01*
X160239371Y-119354115D01*
X160452076Y-119297120D01*
X160651654Y-119204056D01*
X160832038Y-119077749D01*
X160987749Y-118922038D01*
X161114056Y-118741654D01*
X161170853Y-118619852D01*
X161177618Y-118605344D01*
X161223790Y-118552904D01*
X161290983Y-118533752D01*
X161357865Y-118553967D01*
X161402382Y-118605344D01*
X161465941Y-118741649D01*
X161465943Y-118741651D01*
X161465944Y-118741654D01*
X161592251Y-118922038D01*
X161747962Y-119077749D01*
X161928346Y-119204056D01*
X162127924Y-119297120D01*
X162340629Y-119354115D01*
X162560000Y-119373307D01*
X162779371Y-119354115D01*
X162992076Y-119297120D01*
X163191654Y-119204056D01*
X163372038Y-119077749D01*
X163527749Y-118922038D01*
X163654056Y-118741654D01*
X163710853Y-118619852D01*
X163722307Y-118595289D01*
X163768479Y-118542849D01*
X163835673Y-118523697D01*
X163902554Y-118543913D01*
X163947071Y-118595289D01*
X164013331Y-118737386D01*
X164056873Y-118799571D01*
X164056875Y-118799572D01*
X164616923Y-118239523D01*
X164640507Y-118319844D01*
X164718239Y-118440798D01*
X164826900Y-118534952D01*
X164957685Y-118594680D01*
X164967466Y-118596086D01*
X164410426Y-119153124D01*
X164410427Y-119153125D01*
X164472610Y-119196666D01*
X164670840Y-119289102D01*
X164882113Y-119345712D01*
X165100000Y-119364775D01*
X165317886Y-119345712D01*
X165529159Y-119289102D01*
X165727385Y-119196667D01*
X165789572Y-119153124D01*
X165232534Y-118596086D01*
X165242315Y-118594680D01*
X165373100Y-118534952D01*
X165481761Y-118440798D01*
X165559493Y-118319844D01*
X165583076Y-118239524D01*
X166143124Y-118799572D01*
X166186667Y-118737385D01*
X166279102Y-118539159D01*
X166335712Y-118327886D01*
X166354775Y-118110000D01*
X166335712Y-117892113D01*
X166279102Y-117680840D01*
X166186667Y-117482615D01*
X166143123Y-117420427D01*
X165583076Y-117980473D01*
X165559493Y-117900156D01*
X165481761Y-117779202D01*
X165373100Y-117685048D01*
X165242315Y-117625320D01*
X165232534Y-117623913D01*
X165781586Y-117074861D01*
X179371227Y-117074861D01*
X179371453Y-117078597D01*
X179389995Y-117385151D01*
X179389996Y-117385164D01*
X179390222Y-117388890D01*
X179390896Y-117392572D01*
X179390897Y-117392574D01*
X179446256Y-117694659D01*
X179446258Y-117694668D01*
X179446931Y-117698339D01*
X179448043Y-117701909D01*
X179448045Y-117701915D01*
X179520993Y-117936013D01*
X179540526Y-117998696D01*
X179669643Y-118285582D01*
X179671576Y-118288780D01*
X179671580Y-118288787D01*
X179733640Y-118391446D01*
X179832399Y-118554813D01*
X180026420Y-118802463D01*
X180248878Y-119024921D01*
X180496528Y-119218942D01*
X180765759Y-119381698D01*
X181052645Y-119510815D01*
X181353002Y-119604410D01*
X181662451Y-119661119D01*
X181976480Y-119680114D01*
X182290509Y-119661119D01*
X182599958Y-119604410D01*
X182900315Y-119510815D01*
X183187201Y-119381698D01*
X183190410Y-119379757D01*
X183193724Y-119378019D01*
X183187786Y-119381373D01*
X183255226Y-119363464D01*
X183321730Y-119384887D01*
X183366096Y-119438863D01*
X183375999Y-119487420D01*
X183375999Y-119509999D01*
X183376000Y-119510000D01*
X184192314Y-119510000D01*
X184166507Y-119550156D01*
X184126000Y-119688111D01*
X184126000Y-119831889D01*
X184166507Y-119969844D01*
X184192314Y-120010000D01*
X183376001Y-120010000D01*
X183376001Y-120726930D01*
X183376088Y-120730230D01*
X183378567Y-120776923D01*
X183379605Y-120785383D01*
X183423237Y-121010986D01*
X183505880Y-121229976D01*
X183624340Y-121431841D01*
X183775213Y-121610786D01*
X183954158Y-121761659D01*
X184156025Y-121880120D01*
X184371631Y-121961486D01*
X184427403Y-122003573D01*
X184451567Y-122069131D01*
X184436452Y-122137346D01*
X184386857Y-122186561D01*
X184327850Y-122201500D01*
X180827362Y-122201500D01*
X180824082Y-122201852D01*
X180824075Y-122201853D01*
X180766794Y-122208011D01*
X180629796Y-122259110D01*
X180512738Y-122346738D01*
X180425110Y-122463796D01*
X180374011Y-122600794D01*
X180370875Y-122629966D01*
X180367500Y-122661362D01*
X180367500Y-126258638D01*
X180367852Y-126261918D01*
X180367853Y-126261924D01*
X180374011Y-126319205D01*
X180425110Y-126456203D01*
X180512738Y-126573261D01*
X180629796Y-126660889D01*
X180766794Y-126711988D01*
X180766797Y-126711988D01*
X180766799Y-126711989D01*
X180827362Y-126718500D01*
X180830672Y-126718500D01*
X184421328Y-126718500D01*
X184424638Y-126718500D01*
X184485201Y-126711989D01*
X184485203Y-126711988D01*
X184485205Y-126711988D01*
X184596181Y-126670595D01*
X184622204Y-126660889D01*
X184739261Y-126573261D01*
X184826889Y-126456204D01*
X184874172Y-126329436D01*
X184877988Y-126319205D01*
X184877988Y-126319203D01*
X184877989Y-126319201D01*
X184884500Y-126258638D01*
X184884500Y-124210000D01*
X186626000Y-124210000D01*
X188126000Y-124210000D01*
X188126000Y-124710000D01*
X186626001Y-124710000D01*
X186626001Y-125521744D01*
X186626192Y-125526625D01*
X186636400Y-125656331D01*
X186691377Y-125874518D01*
X186784430Y-126079379D01*
X186912565Y-126264332D01*
X187071667Y-126423434D01*
X187256620Y-126551569D01*
X187461481Y-126644622D01*
X187679668Y-126699599D01*
X187809374Y-126709808D01*
X187814254Y-126709999D01*
X188375999Y-126709999D01*
X188376000Y-126709998D01*
X188376000Y-125893686D01*
X188416156Y-125919493D01*
X188554111Y-125960000D01*
X188697889Y-125960000D01*
X188835844Y-125919493D01*
X188876000Y-125893686D01*
X188876000Y-126709999D01*
X189437744Y-126709999D01*
X189442625Y-126709807D01*
X189572331Y-126699599D01*
X189790518Y-126644622D01*
X189995379Y-126551569D01*
X190180332Y-126423434D01*
X190339434Y-126264332D01*
X190467569Y-126079379D01*
X190560622Y-125874518D01*
X190615599Y-125656331D01*
X190625808Y-125526625D01*
X190626000Y-125521745D01*
X190626000Y-124710000D01*
X189126000Y-124710000D01*
X189126000Y-124210000D01*
X190625999Y-124210000D01*
X190625999Y-123398255D01*
X190625807Y-123393374D01*
X190615599Y-123263668D01*
X190560622Y-123045481D01*
X190467569Y-122840620D01*
X190339434Y-122655667D01*
X190180332Y-122496565D01*
X189995379Y-122368430D01*
X189790518Y-122275377D01*
X189572331Y-122220400D01*
X189442625Y-122210191D01*
X189437746Y-122210000D01*
X188876000Y-122210000D01*
X188876000Y-123026313D01*
X188835844Y-123000507D01*
X188697889Y-122960000D01*
X188554111Y-122960000D01*
X188416156Y-123000507D01*
X188376000Y-123026313D01*
X188376000Y-122210000D01*
X187814255Y-122210000D01*
X187809374Y-122210192D01*
X187679668Y-122220400D01*
X187461481Y-122275377D01*
X187256620Y-122368430D01*
X187071667Y-122496565D01*
X186912565Y-122655667D01*
X186784430Y-122840620D01*
X186691377Y-123045481D01*
X186636400Y-123263668D01*
X186626191Y-123393374D01*
X186626000Y-123398254D01*
X186626000Y-124210000D01*
X184884500Y-124210000D01*
X184884500Y-122661362D01*
X184877989Y-122600799D01*
X184877988Y-122600797D01*
X184877988Y-122600794D01*
X184826889Y-122463796D01*
X184739261Y-122346738D01*
X184622204Y-122259111D01*
X184596180Y-122249404D01*
X184540247Y-122207531D01*
X184515832Y-122142066D01*
X184530685Y-122073794D01*
X184580091Y-122024390D01*
X184646101Y-122009398D01*
X184655782Y-122009912D01*
X184659057Y-122009999D01*
X185375999Y-122009999D01*
X185376000Y-122009998D01*
X185376000Y-120260000D01*
X185876000Y-120260000D01*
X185876000Y-122009999D01*
X186592931Y-122009999D01*
X186596230Y-122009911D01*
X186642923Y-122007432D01*
X186651383Y-122006394D01*
X186876986Y-121962762D01*
X187095976Y-121880119D01*
X187297841Y-121761659D01*
X187476786Y-121610786D01*
X187627659Y-121431841D01*
X187746119Y-121229976D01*
X187828762Y-121010986D01*
X187872392Y-120785391D01*
X187873433Y-120776908D01*
X187875912Y-120730237D01*
X187876000Y-120726942D01*
X187876000Y-120010000D01*
X187059686Y-120010000D01*
X187085493Y-119969844D01*
X187126000Y-119831889D01*
X187126000Y-119688111D01*
X187085493Y-119550156D01*
X187059686Y-119510000D01*
X187875999Y-119510000D01*
X187875999Y-118793069D01*
X187875911Y-118789769D01*
X187873432Y-118743076D01*
X187872394Y-118734616D01*
X187828762Y-118509013D01*
X187746119Y-118290023D01*
X187627659Y-118088158D01*
X187476786Y-117909213D01*
X187297841Y-117758340D01*
X187095976Y-117639880D01*
X186876986Y-117557237D01*
X186651391Y-117513607D01*
X186642908Y-117512566D01*
X186596237Y-117510087D01*
X186592943Y-117510000D01*
X185876000Y-117510000D01*
X185876000Y-119260000D01*
X185376000Y-119260000D01*
X185376000Y-117510000D01*
X184687139Y-117510000D01*
X184620100Y-117490315D01*
X184574345Y-117437511D01*
X184563365Y-117378515D01*
X184581733Y-117074861D01*
X184581147Y-117065181D01*
X184568089Y-116849299D01*
X184562738Y-116760832D01*
X184506029Y-116451383D01*
X184412434Y-116151026D01*
X184283317Y-115864140D01*
X184120561Y-115594909D01*
X183926540Y-115347259D01*
X183704082Y-115124801D01*
X183456432Y-114930780D01*
X183217503Y-114786342D01*
X183190406Y-114769961D01*
X183190399Y-114769957D01*
X183187201Y-114768024D01*
X182900315Y-114638907D01*
X182887716Y-114634981D01*
X182603534Y-114546426D01*
X182603528Y-114546424D01*
X182599958Y-114545312D01*
X182596287Y-114544639D01*
X182596278Y-114544637D01*
X182294193Y-114489278D01*
X182294191Y-114489277D01*
X182290509Y-114488603D01*
X182286783Y-114488377D01*
X182286770Y-114488376D01*
X181980216Y-114469834D01*
X181976480Y-114469608D01*
X181972744Y-114469834D01*
X181666189Y-114488376D01*
X181666174Y-114488377D01*
X181662451Y-114488603D01*
X181658770Y-114489277D01*
X181658766Y-114489278D01*
X181356681Y-114544637D01*
X181356668Y-114544640D01*
X181353002Y-114545312D01*
X181349434Y-114546423D01*
X181349425Y-114546426D01*
X181056222Y-114637792D01*
X181056216Y-114637794D01*
X181052645Y-114638907D01*
X181049236Y-114640441D01*
X181049234Y-114640442D01*
X180769173Y-114766487D01*
X180769166Y-114766490D01*
X180765759Y-114768024D01*
X180762566Y-114769953D01*
X180762553Y-114769961D01*
X180520671Y-114916185D01*
X180496528Y-114930780D01*
X180493586Y-114933084D01*
X180493580Y-114933089D01*
X180296210Y-115087719D01*
X180248878Y-115124801D01*
X180246232Y-115127446D01*
X180246224Y-115127454D01*
X180029073Y-115344605D01*
X180029065Y-115344613D01*
X180026420Y-115347259D01*
X180024108Y-115350209D01*
X180024108Y-115350210D01*
X179834708Y-115591961D01*
X179834703Y-115591967D01*
X179832399Y-115594909D01*
X179830462Y-115598111D01*
X179830462Y-115598113D01*
X179671580Y-115860934D01*
X179671572Y-115860947D01*
X179669643Y-115864140D01*
X179668109Y-115867547D01*
X179668106Y-115867554D01*
X179542061Y-116147615D01*
X179540526Y-116151026D01*
X179539413Y-116154597D01*
X179539411Y-116154603D01*
X179448045Y-116447806D01*
X179448042Y-116447815D01*
X179446931Y-116451383D01*
X179446259Y-116455049D01*
X179446256Y-116455062D01*
X179390897Y-116757147D01*
X179390222Y-116760832D01*
X179389996Y-116764555D01*
X179389995Y-116764570D01*
X179371777Y-117065762D01*
X179371227Y-117074861D01*
X165781586Y-117074861D01*
X165789572Y-117066875D01*
X165789571Y-117066873D01*
X165727386Y-117023331D01*
X165529161Y-116930898D01*
X165317886Y-116874287D01*
X165100000Y-116855224D01*
X164882113Y-116874287D01*
X164670840Y-116930897D01*
X164472611Y-117023333D01*
X164410428Y-117066874D01*
X164410427Y-117066875D01*
X164967466Y-117623913D01*
X164957685Y-117625320D01*
X164826900Y-117685048D01*
X164718239Y-117779202D01*
X164640507Y-117900156D01*
X164616923Y-117980475D01*
X164056875Y-117420427D01*
X164056874Y-117420428D01*
X164013333Y-117482611D01*
X163947071Y-117624712D01*
X163900899Y-117677151D01*
X163833705Y-117696303D01*
X163766824Y-117676087D01*
X163722307Y-117624712D01*
X163654055Y-117478345D01*
X163590925Y-117388186D01*
X163568598Y-117321980D01*
X163568500Y-117317063D01*
X163568500Y-112874113D01*
X163573839Y-112838117D01*
X163578546Y-112822601D01*
X163593500Y-112670775D01*
X163593500Y-112119225D01*
X163578546Y-111967399D01*
X163519450Y-111772583D01*
X163423482Y-111593040D01*
X163294331Y-111435669D01*
X163136960Y-111306518D01*
X163136959Y-111306517D01*
X162957419Y-111210551D01*
X162957418Y-111210550D01*
X162957417Y-111210550D01*
X162857190Y-111180147D01*
X162762599Y-111151453D01*
X162560000Y-111131499D01*
X162357400Y-111151453D01*
X162162580Y-111210551D01*
X161983040Y-111306517D01*
X161825669Y-111435669D01*
X161696517Y-111593040D01*
X161616122Y-111743450D01*
X161600550Y-111772583D01*
X161581535Y-111835268D01*
X161541800Y-111966258D01*
X161510820Y-112017943D01*
X161265181Y-112263583D01*
X161203858Y-112297068D01*
X161134167Y-112292084D01*
X161078233Y-112250213D01*
X161053816Y-112184748D01*
X161053500Y-112175902D01*
X161053500Y-112122274D01*
X161053500Y-112122273D01*
X161053500Y-112119225D01*
X161038546Y-111967399D01*
X161038011Y-111965635D01*
X161033839Y-111951879D01*
X161028500Y-111915886D01*
X161028500Y-108640641D01*
X161029097Y-108628487D01*
X161029738Y-108621981D01*
X161033380Y-108585000D01*
X161013909Y-108387300D01*
X160964220Y-108223500D01*
X160957129Y-108200124D01*
X160956401Y-108197494D01*
X160867711Y-108031568D01*
X160862595Y-108021996D01*
X160736568Y-107868432D01*
X160702784Y-107840706D01*
X160693769Y-107832535D01*
X159141232Y-106279998D01*
X159107747Y-106218675D01*
X159112731Y-106148983D01*
X159154603Y-106093050D01*
X159220067Y-106068633D01*
X159239718Y-106068789D01*
X159275576Y-106071925D01*
X159296493Y-106073755D01*
X159361561Y-106099206D01*
X159373367Y-106109601D01*
X161732444Y-108468679D01*
X163945537Y-110681772D01*
X163953709Y-110690788D01*
X163981429Y-110724565D01*
X163981430Y-110724566D01*
X163981432Y-110724568D01*
X164019916Y-110756151D01*
X164019918Y-110756153D01*
X164019928Y-110756161D01*
X164019931Y-110756164D01*
X164048513Y-110779620D01*
X164134996Y-110850595D01*
X164159141Y-110863501D01*
X164212109Y-110891813D01*
X164310197Y-110944242D01*
X164500300Y-111001909D01*
X164698000Y-111021380D01*
X164741488Y-111017096D01*
X164753642Y-111016500D01*
X171752227Y-111016500D01*
X171819266Y-111036185D01*
X171865021Y-111088989D01*
X171875803Y-111130260D01*
X171883435Y-111222363D01*
X171883435Y-111222366D01*
X171883436Y-111222368D01*
X171937451Y-111435669D01*
X171938705Y-111440618D01*
X172029138Y-111646788D01*
X172029140Y-111646791D01*
X172152278Y-111835268D01*
X172304760Y-112000906D01*
X172482424Y-112139189D01*
X172518930Y-112158945D01*
X172568520Y-112208162D01*
X172583630Y-112276379D01*
X172559459Y-112341935D01*
X172518933Y-112377052D01*
X172482427Y-112396809D01*
X172482425Y-112396810D01*
X172482424Y-112396811D01*
X172304759Y-112535093D01*
X172304760Y-112535094D01*
X172152279Y-112700730D01*
X172029138Y-112889211D01*
X171938705Y-113095381D01*
X171938704Y-113095384D01*
X171888542Y-113293468D01*
X171883435Y-113313636D01*
X171864843Y-113538000D01*
X171883435Y-113762363D01*
X171883435Y-113762366D01*
X171883436Y-113762368D01*
X171906544Y-113853620D01*
X171938705Y-113980618D01*
X172029138Y-114186788D01*
X172029140Y-114186791D01*
X172152278Y-114375268D01*
X172304760Y-114540906D01*
X172482424Y-114679189D01*
X172680426Y-114786342D01*
X172893365Y-114859444D01*
X173115431Y-114896500D01*
X173125565Y-114898191D01*
X173125055Y-114901242D01*
X173175943Y-114916185D01*
X173196585Y-114932819D01*
X174025535Y-115761769D01*
X174033706Y-115770784D01*
X174061432Y-115804568D01*
X174214996Y-115930595D01*
X174232782Y-115940101D01*
X174248271Y-115948381D01*
X174390195Y-116024241D01*
X174469378Y-116048261D01*
X174580299Y-116081909D01*
X174778000Y-116101380D01*
X174821488Y-116097096D01*
X174833642Y-116096500D01*
X176354358Y-116096500D01*
X176366511Y-116097096D01*
X176410000Y-116101380D01*
X176607701Y-116081909D01*
X176797804Y-116024241D01*
X176939730Y-115948380D01*
X176973004Y-115930595D01*
X177126568Y-115804568D01*
X177154299Y-115770776D01*
X177162451Y-115761781D01*
X180378781Y-112545451D01*
X180387776Y-112537299D01*
X180421568Y-112509568D01*
X180547595Y-112356004D01*
X180641241Y-112180804D01*
X180659921Y-112119225D01*
X180664254Y-112104943D01*
X180685345Y-112035414D01*
X180698909Y-111990700D01*
X180718380Y-111793000D01*
X180714097Y-111749510D01*
X180713500Y-111737357D01*
X180713500Y-107699999D01*
X183970384Y-107699999D01*
X183970385Y-107700000D01*
X186986589Y-107700000D01*
X186961466Y-107797030D01*
X186951114Y-108001165D01*
X186981574Y-108200000D01*
X183973793Y-108200000D01*
X183985960Y-108320951D01*
X183987337Y-108329112D01*
X184055248Y-108614080D01*
X184057699Y-108621981D01*
X184162987Y-108895354D01*
X184166467Y-108902855D01*
X184307254Y-109159758D01*
X184311707Y-109166733D01*
X184485476Y-109402574D01*
X184490821Y-109408896D01*
X184694474Y-109619472D01*
X184700609Y-109625020D01*
X184930518Y-109806578D01*
X184937328Y-109811253D01*
X185189393Y-109960551D01*
X185196769Y-109964278D01*
X185466482Y-110078647D01*
X185474286Y-110081357D01*
X185756820Y-110158751D01*
X185764942Y-110160402D01*
X186055278Y-110199448D01*
X186063521Y-110200000D01*
X187710000Y-110200000D01*
X187710000Y-108924625D01*
X187857801Y-108955000D01*
X188010967Y-108955000D01*
X188163348Y-108939504D01*
X188210000Y-108924867D01*
X188210000Y-110200000D01*
X189783146Y-110200000D01*
X189787306Y-110199860D01*
X190006434Y-110185191D01*
X190014627Y-110184089D01*
X190301701Y-110125739D01*
X190309690Y-110123551D01*
X190586429Y-110027457D01*
X190594041Y-110024229D01*
X190855501Y-109892107D01*
X190862618Y-109887893D01*
X191104144Y-109722094D01*
X191110632Y-109716970D01*
X191327898Y-109520464D01*
X191333648Y-109514519D01*
X191522786Y-109290806D01*
X191527692Y-109284148D01*
X191685327Y-109037216D01*
X191689296Y-109029973D01*
X191812610Y-108764238D01*
X191815583Y-108756519D01*
X191902378Y-108476718D01*
X191904294Y-108468679D01*
X191949615Y-108200000D01*
X188933411Y-108200000D01*
X188958534Y-108102970D01*
X188968886Y-107898835D01*
X188938426Y-107700000D01*
X191946207Y-107700000D01*
X191946207Y-107699999D01*
X191934039Y-107579048D01*
X191932662Y-107570887D01*
X191864751Y-107285919D01*
X191862300Y-107278018D01*
X191757012Y-107004645D01*
X191753532Y-106997144D01*
X191612745Y-106740241D01*
X191608292Y-106733266D01*
X191434523Y-106497425D01*
X191429178Y-106491103D01*
X191225525Y-106280527D01*
X191219390Y-106274979D01*
X190989481Y-106093421D01*
X190982671Y-106088746D01*
X190730606Y-105939448D01*
X190723230Y-105935721D01*
X190453517Y-105821352D01*
X190445713Y-105818642D01*
X190163179Y-105741248D01*
X190155057Y-105739597D01*
X189864721Y-105700551D01*
X189856479Y-105700000D01*
X188210000Y-105700000D01*
X188210000Y-106975374D01*
X188062199Y-106945000D01*
X187909033Y-106945000D01*
X187756652Y-106960496D01*
X187710000Y-106975132D01*
X187710000Y-105700000D01*
X186136854Y-105700000D01*
X186132693Y-105700139D01*
X185913565Y-105714808D01*
X185905372Y-105715910D01*
X185618298Y-105774260D01*
X185610309Y-105776448D01*
X185333570Y-105872542D01*
X185325958Y-105875770D01*
X185064498Y-106007892D01*
X185057381Y-106012106D01*
X184815855Y-106177905D01*
X184809367Y-106183029D01*
X184592101Y-106379535D01*
X184586351Y-106385480D01*
X184397213Y-106609193D01*
X184392307Y-106615851D01*
X184234672Y-106862783D01*
X184230703Y-106870026D01*
X184107389Y-107135761D01*
X184104416Y-107143480D01*
X184017621Y-107423281D01*
X184015705Y-107431320D01*
X183970384Y-107699999D01*
X180713500Y-107699999D01*
X180713500Y-102870000D01*
X181116501Y-102870000D01*
X181136456Y-103098084D01*
X181195717Y-103319246D01*
X181292474Y-103526744D01*
X181292476Y-103526746D01*
X181292477Y-103526749D01*
X181423802Y-103714300D01*
X181585700Y-103876198D01*
X181773251Y-104007523D01*
X181773254Y-104007524D01*
X181773255Y-104007525D01*
X181846135Y-104041509D01*
X181980757Y-104104284D01*
X182201913Y-104163543D01*
X182372873Y-104178500D01*
X182375582Y-104178500D01*
X183384418Y-104178500D01*
X183387127Y-104178500D01*
X183558087Y-104163543D01*
X183779243Y-104104284D01*
X183986749Y-104007523D01*
X184174300Y-103876198D01*
X184336198Y-103714300D01*
X184467523Y-103526749D01*
X184564284Y-103319243D01*
X184623543Y-103098087D01*
X184643498Y-102870000D01*
X184623543Y-102641913D01*
X184564284Y-102420757D01*
X184467523Y-102213251D01*
X184336198Y-102025700D01*
X184174300Y-101863802D01*
X183986749Y-101732477D01*
X183986748Y-101732476D01*
X183986746Y-101732475D01*
X183933598Y-101707692D01*
X183881159Y-101661519D01*
X183862007Y-101594325D01*
X183882223Y-101527444D01*
X183933600Y-101482927D01*
X183982481Y-101460133D01*
X184168819Y-101329658D01*
X184329658Y-101168819D01*
X184460134Y-100982480D01*
X184556266Y-100776326D01*
X184608872Y-100580000D01*
X183249503Y-100580000D01*
X183298917Y-100494413D01*
X183328768Y-100363630D01*
X183318743Y-100229860D01*
X183269734Y-100104987D01*
X183249807Y-100080000D01*
X184608872Y-100080000D01*
X184608871Y-100079999D01*
X184556266Y-99883673D01*
X184460134Y-99677519D01*
X184329658Y-99491180D01*
X184168819Y-99330341D01*
X183982480Y-99199865D01*
X183776326Y-99103733D01*
X183556602Y-99044858D01*
X183389464Y-99030236D01*
X183384054Y-99030000D01*
X183130000Y-99030000D01*
X183130000Y-99961862D01*
X183075259Y-99924541D01*
X182947073Y-99885000D01*
X182846654Y-99885000D01*
X182747353Y-99899967D01*
X182630000Y-99956481D01*
X182630000Y-99030000D01*
X182375946Y-99030000D01*
X182370535Y-99030236D01*
X182203397Y-99044858D01*
X181983673Y-99103733D01*
X181777519Y-99199865D01*
X181591180Y-99330341D01*
X181430341Y-99491180D01*
X181299865Y-99677519D01*
X181203733Y-99883673D01*
X181151128Y-100079999D01*
X181151128Y-100080000D01*
X182510497Y-100080000D01*
X182461083Y-100165587D01*
X182431232Y-100296370D01*
X182441257Y-100430140D01*
X182490266Y-100555013D01*
X182510193Y-100580000D01*
X181151128Y-100580000D01*
X181203733Y-100776326D01*
X181299865Y-100982480D01*
X181430341Y-101168819D01*
X181591180Y-101329658D01*
X181777516Y-101460132D01*
X181826400Y-101482927D01*
X181878839Y-101529099D01*
X181897992Y-101596292D01*
X181877777Y-101663174D01*
X181826402Y-101707691D01*
X181773256Y-101732474D01*
X181773255Y-101732475D01*
X181773251Y-101732477D01*
X181680102Y-101797701D01*
X181585696Y-101863805D01*
X181423805Y-102025696D01*
X181292474Y-102213255D01*
X181195717Y-102420753D01*
X181136456Y-102641915D01*
X181116501Y-102870000D01*
X180713500Y-102870000D01*
X180713500Y-97539999D01*
X183970384Y-97539999D01*
X183970385Y-97540000D01*
X186986589Y-97540000D01*
X186961466Y-97637030D01*
X186951114Y-97841165D01*
X186981574Y-98040000D01*
X183973793Y-98040000D01*
X183985960Y-98160951D01*
X183987337Y-98169112D01*
X184055248Y-98454080D01*
X184057699Y-98461981D01*
X184162987Y-98735354D01*
X184166467Y-98742855D01*
X184307254Y-98999758D01*
X184311707Y-99006733D01*
X184485476Y-99242574D01*
X184490821Y-99248896D01*
X184694474Y-99459472D01*
X184700609Y-99465020D01*
X184930518Y-99646578D01*
X184937328Y-99651253D01*
X185189393Y-99800551D01*
X185196769Y-99804278D01*
X185466482Y-99918647D01*
X185474286Y-99921357D01*
X185756820Y-99998751D01*
X185764942Y-100000402D01*
X186055278Y-100039448D01*
X186063521Y-100040000D01*
X187710000Y-100040000D01*
X187710000Y-98764625D01*
X187857801Y-98795000D01*
X188010967Y-98795000D01*
X188163348Y-98779504D01*
X188210000Y-98764867D01*
X188210000Y-100040000D01*
X189783146Y-100040000D01*
X189787306Y-100039860D01*
X190006434Y-100025191D01*
X190014627Y-100024089D01*
X190301701Y-99965739D01*
X190309690Y-99963551D01*
X190586429Y-99867457D01*
X190594041Y-99864229D01*
X190855501Y-99732107D01*
X190862618Y-99727893D01*
X191104144Y-99562094D01*
X191110632Y-99556970D01*
X191327898Y-99360464D01*
X191333648Y-99354519D01*
X191522786Y-99130806D01*
X191527692Y-99124148D01*
X191685327Y-98877216D01*
X191689296Y-98869973D01*
X191812610Y-98604238D01*
X191815583Y-98596519D01*
X191902378Y-98316718D01*
X191904294Y-98308679D01*
X191949615Y-98040000D01*
X188933411Y-98040000D01*
X188958534Y-97942970D01*
X188968886Y-97738835D01*
X188938426Y-97540000D01*
X191946207Y-97540000D01*
X191946207Y-97539999D01*
X191934039Y-97419048D01*
X191932662Y-97410887D01*
X191864751Y-97125919D01*
X191862300Y-97118018D01*
X191757012Y-96844645D01*
X191753532Y-96837144D01*
X191612745Y-96580241D01*
X191608292Y-96573266D01*
X191434523Y-96337425D01*
X191429178Y-96331103D01*
X191225525Y-96120527D01*
X191219390Y-96114979D01*
X190989481Y-95933421D01*
X190982671Y-95928746D01*
X190730606Y-95779448D01*
X190723230Y-95775721D01*
X190453517Y-95661352D01*
X190445713Y-95658642D01*
X190163179Y-95581248D01*
X190155057Y-95579597D01*
X189864721Y-95540551D01*
X189856479Y-95540000D01*
X188210000Y-95540000D01*
X188210000Y-96815374D01*
X188062199Y-96785000D01*
X187909033Y-96785000D01*
X187756652Y-96800496D01*
X187710000Y-96815132D01*
X187710000Y-95540000D01*
X186136854Y-95540000D01*
X186132693Y-95540139D01*
X185913565Y-95554808D01*
X185905372Y-95555910D01*
X185618298Y-95614260D01*
X185610309Y-95616448D01*
X185333570Y-95712542D01*
X185325958Y-95715770D01*
X185064498Y-95847892D01*
X185057381Y-95852106D01*
X184815855Y-96017905D01*
X184809367Y-96023029D01*
X184592101Y-96219535D01*
X184586351Y-96225480D01*
X184397213Y-96449193D01*
X184392307Y-96455851D01*
X184234672Y-96702783D01*
X184230703Y-96710026D01*
X184107389Y-96975761D01*
X184104416Y-96983480D01*
X184017621Y-97263281D01*
X184015705Y-97271320D01*
X183970384Y-97539999D01*
X180713500Y-97539999D01*
X180713500Y-94568502D01*
X180713500Y-94565453D01*
X180698908Y-94417299D01*
X180641241Y-94227196D01*
X180608505Y-94165952D01*
X180594264Y-94097550D01*
X180619264Y-94032306D01*
X180675569Y-93990936D01*
X180717864Y-93983500D01*
X190814358Y-93983500D01*
X190826511Y-93984096D01*
X190870000Y-93988380D01*
X191067701Y-93968909D01*
X191257804Y-93911241D01*
X191281768Y-93898432D01*
X191433004Y-93817595D01*
X191586568Y-93691568D01*
X191614299Y-93657776D01*
X191622451Y-93648781D01*
X192386414Y-92884819D01*
X192447738Y-92851334D01*
X192474096Y-92848500D01*
X193350328Y-92848500D01*
X193353638Y-92848500D01*
X193414201Y-92841989D01*
X193414203Y-92841988D01*
X193414205Y-92841988D01*
X193492124Y-92812924D01*
X193551204Y-92790889D01*
X193668261Y-92703261D01*
X193755889Y-92586204D01*
X193787638Y-92501082D01*
X193806988Y-92449205D01*
X193806988Y-92449203D01*
X193806989Y-92449201D01*
X193813500Y-92388638D01*
X193813500Y-90491362D01*
X193806989Y-90430799D01*
X193806988Y-90430797D01*
X193806988Y-90430794D01*
X193755889Y-90293796D01*
X193668261Y-90176738D01*
X193551204Y-90089110D01*
X193481037Y-90062939D01*
X193425104Y-90021067D01*
X193400688Y-89955603D01*
X193415541Y-89887330D01*
X193433138Y-89862780D01*
X193520314Y-89768083D01*
X193647984Y-89572669D01*
X193741749Y-89358907D01*
X193799051Y-89132626D01*
X193818327Y-88900000D01*
X193815012Y-88860000D01*
X193810258Y-88802618D01*
X193799051Y-88667374D01*
X193741749Y-88441093D01*
X193647984Y-88227331D01*
X193580920Y-88124681D01*
X193520315Y-88031918D01*
X193393172Y-87893805D01*
X193362220Y-87860182D01*
X193345818Y-87847416D01*
X193311843Y-87820972D01*
X193178017Y-87716810D01*
X192972727Y-87605713D01*
X192972726Y-87605712D01*
X192972725Y-87605712D01*
X192751953Y-87529919D01*
X192521712Y-87491500D01*
X192288288Y-87491500D01*
X192058046Y-87529919D01*
X191837274Y-87605712D01*
X191642333Y-87711209D01*
X191631983Y-87716810D01*
X191447780Y-87860182D01*
X191447778Y-87860183D01*
X191441137Y-87865353D01*
X191376143Y-87890996D01*
X191364974Y-87891500D01*
X188205110Y-87891500D01*
X188138071Y-87871815D01*
X188133987Y-87869075D01*
X187981748Y-87762476D01*
X187774246Y-87665717D01*
X187774243Y-87665716D01*
X187584440Y-87614858D01*
X187553084Y-87606456D01*
X187325000Y-87586501D01*
X187096915Y-87606456D01*
X186875753Y-87665717D01*
X186668255Y-87762474D01*
X186668250Y-87762477D01*
X186668251Y-87762477D01*
X186484708Y-87890996D01*
X186480696Y-87893805D01*
X186311131Y-88063371D01*
X186309481Y-88061721D01*
X186266496Y-88096080D01*
X186196998Y-88103272D01*
X186134643Y-88071749D01*
X186099231Y-88011518D01*
X186095500Y-87981331D01*
X186095500Y-87853514D01*
X186096099Y-87841342D01*
X186098108Y-87820972D01*
X186100380Y-87797939D01*
X186095502Y-87748345D01*
X186095500Y-87748313D01*
X186095500Y-87748253D01*
X186090631Y-87698819D01*
X186080935Y-87600235D01*
X186080934Y-87600232D01*
X186080925Y-87600139D01*
X186051277Y-87502417D01*
X186023274Y-87410059D01*
X186023241Y-87409998D01*
X186023241Y-87409996D01*
X185988289Y-87344605D01*
X185974647Y-87319081D01*
X185929635Y-87234843D01*
X185865489Y-87156683D01*
X185835245Y-87119820D01*
X185835201Y-87119776D01*
X185835186Y-87119759D01*
X185803568Y-87081232D01*
X185769834Y-87053547D01*
X185760819Y-87045374D01*
X185740880Y-87025430D01*
X184061478Y-85345568D01*
X184028001Y-85284241D01*
X184032995Y-85214550D01*
X184074874Y-85158622D01*
X184139209Y-85134636D01*
X184139193Y-85134444D01*
X184139888Y-85134383D01*
X184140342Y-85134214D01*
X184141694Y-85134225D01*
X184271588Y-85122860D01*
X184378087Y-85113543D01*
X184599243Y-85054284D01*
X184806749Y-84957523D01*
X184890291Y-84899026D01*
X184958987Y-84850925D01*
X185025193Y-84828598D01*
X185030110Y-84828500D01*
X187714890Y-84828500D01*
X187781929Y-84848185D01*
X187786013Y-84850925D01*
X187911893Y-84939067D01*
X187938251Y-84957523D01*
X188145757Y-85054284D01*
X188366913Y-85113543D01*
X188595000Y-85133498D01*
X188823087Y-85113543D01*
X189044243Y-85054284D01*
X189251749Y-84957523D01*
X189439300Y-84826198D01*
X189601198Y-84664300D01*
X189732523Y-84476749D01*
X189829284Y-84269243D01*
X189888543Y-84048087D01*
X189893755Y-83988504D01*
X189919206Y-83923437D01*
X189929594Y-83911638D01*
X190021233Y-83819999D01*
X192290033Y-83819999D01*
X192309858Y-84046602D01*
X192368733Y-84266326D01*
X192464866Y-84472484D01*
X192515972Y-84545471D01*
X192515974Y-84545472D01*
X193197046Y-83864399D01*
X193209835Y-83945148D01*
X193267359Y-84058045D01*
X193356955Y-84147641D01*
X193469852Y-84205165D01*
X193550599Y-84217953D01*
X192869526Y-84899025D01*
X192869526Y-84899026D01*
X192942515Y-84950133D01*
X193148673Y-85046266D01*
X193368397Y-85105141D01*
X193595000Y-85124966D01*
X193821602Y-85105141D01*
X194041326Y-85046266D01*
X194247480Y-84950134D01*
X194320472Y-84899025D01*
X193639401Y-84217953D01*
X193720148Y-84205165D01*
X193833045Y-84147641D01*
X193922641Y-84058045D01*
X193980165Y-83945148D01*
X193992953Y-83864400D01*
X194674025Y-84545472D01*
X194725134Y-84472480D01*
X194821266Y-84266326D01*
X194880141Y-84046602D01*
X194899966Y-83820000D01*
X194880141Y-83593397D01*
X194821266Y-83373673D01*
X194725133Y-83167515D01*
X194674025Y-83094526D01*
X193992953Y-83775598D01*
X193980165Y-83694852D01*
X193922641Y-83581955D01*
X193833045Y-83492359D01*
X193720148Y-83434835D01*
X193639399Y-83422045D01*
X194320472Y-82740973D01*
X194320471Y-82740972D01*
X194247484Y-82689866D01*
X194041326Y-82593733D01*
X193821602Y-82534858D01*
X193595000Y-82515033D01*
X193368397Y-82534858D01*
X193148672Y-82593733D01*
X192942516Y-82689865D01*
X192869526Y-82740973D01*
X193550598Y-83422046D01*
X193469852Y-83434835D01*
X193356955Y-83492359D01*
X193267359Y-83581955D01*
X193209835Y-83694852D01*
X193197046Y-83775599D01*
X192515973Y-83094526D01*
X192515973Y-83094527D01*
X192464865Y-83167516D01*
X192368733Y-83373672D01*
X192309858Y-83593397D01*
X192290033Y-83819999D01*
X190021233Y-83819999D01*
X193078781Y-80762451D01*
X193087776Y-80754299D01*
X193121568Y-80726568D01*
X193247595Y-80573004D01*
X193341241Y-80397804D01*
X193355913Y-80349437D01*
X193377851Y-80277119D01*
X193398908Y-80207702D01*
X193398909Y-80207700D01*
X193418380Y-80010000D01*
X193414097Y-79966510D01*
X193413500Y-79954357D01*
X193413500Y-79937500D01*
X193433185Y-79870461D01*
X193485989Y-79824706D01*
X193537500Y-79813500D01*
X193650328Y-79813500D01*
X193653638Y-79813500D01*
X193714201Y-79806989D01*
X193714203Y-79806988D01*
X193714205Y-79806988D01*
X193799070Y-79775334D01*
X193851204Y-79755889D01*
X193968261Y-79668261D01*
X194055889Y-79551204D01*
X194077924Y-79492124D01*
X194106988Y-79414205D01*
X194106988Y-79414203D01*
X194106989Y-79414201D01*
X194113500Y-79353638D01*
X194113500Y-76856362D01*
X194106989Y-76795799D01*
X194106988Y-76795797D01*
X194106988Y-76795794D01*
X194055889Y-76658796D01*
X193968261Y-76541738D01*
X193851203Y-76454110D01*
X193714205Y-76403011D01*
X193656924Y-76396853D01*
X193656918Y-76396852D01*
X193653638Y-76396500D01*
X191156362Y-76396500D01*
X191153082Y-76396852D01*
X191153075Y-76396853D01*
X191095794Y-76403011D01*
X190958796Y-76454110D01*
X190841738Y-76541738D01*
X190754110Y-76658796D01*
X190703011Y-76795794D01*
X190697738Y-76844842D01*
X190696500Y-76856362D01*
X190696500Y-76859652D01*
X190696499Y-76859671D01*
X190696499Y-79350328D01*
X190696500Y-79350346D01*
X190696500Y-79353638D01*
X190696852Y-79356918D01*
X190696853Y-79356924D01*
X190703011Y-79414205D01*
X190754110Y-79551203D01*
X190841738Y-79668261D01*
X190907119Y-79717204D01*
X190958796Y-79755889D01*
X190977640Y-79762917D01*
X191033571Y-79804787D01*
X191057989Y-79870251D01*
X191043138Y-79938524D01*
X191021986Y-79966779D01*
X188503368Y-82485396D01*
X188442045Y-82518881D01*
X188426497Y-82521243D01*
X188379673Y-82525340D01*
X188366913Y-82526457D01*
X188171884Y-82578715D01*
X188145753Y-82585717D01*
X187938251Y-82682476D01*
X187786013Y-82789075D01*
X187719807Y-82811402D01*
X187714890Y-82811500D01*
X185030110Y-82811500D01*
X184963071Y-82791815D01*
X184958987Y-82789075D01*
X184806748Y-82682476D01*
X184599246Y-82585717D01*
X184599243Y-82585716D01*
X184409440Y-82534858D01*
X184378084Y-82526456D01*
X184150000Y-82506501D01*
X183921915Y-82526456D01*
X183700753Y-82585717D01*
X183493255Y-82682474D01*
X183305696Y-82813805D01*
X183143805Y-82975696D01*
X183143802Y-82975699D01*
X183143802Y-82975700D01*
X183012477Y-83163251D01*
X183012476Y-83163253D01*
X183012474Y-83163256D01*
X182987691Y-83216402D01*
X182941518Y-83268841D01*
X182874325Y-83287992D01*
X182807444Y-83267775D01*
X182762927Y-83216400D01*
X182740131Y-83167512D01*
X182689025Y-83094526D01*
X182007953Y-83775598D01*
X181995165Y-83694852D01*
X181937641Y-83581955D01*
X181848045Y-83492359D01*
X181735148Y-83434835D01*
X181654400Y-83422046D01*
X182335472Y-82740974D01*
X182335471Y-82740972D01*
X182262484Y-82689866D01*
X182056326Y-82593733D01*
X181836602Y-82534858D01*
X181610000Y-82515033D01*
X181383397Y-82534858D01*
X181163672Y-82593733D01*
X180957516Y-82689865D01*
X180884527Y-82740973D01*
X180884526Y-82740973D01*
X181565600Y-83422046D01*
X181484852Y-83434835D01*
X181371955Y-83492359D01*
X181282359Y-83581955D01*
X181224835Y-83694852D01*
X181212046Y-83775599D01*
X180530973Y-83094526D01*
X180530973Y-83094527D01*
X180479865Y-83167516D01*
X180383733Y-83373672D01*
X180324858Y-83593397D01*
X180305033Y-83820000D01*
X180324858Y-84046602D01*
X180383733Y-84266326D01*
X180479866Y-84472484D01*
X180530972Y-84545471D01*
X180530974Y-84545472D01*
X181212046Y-83864399D01*
X181224835Y-83945148D01*
X181282359Y-84058045D01*
X181371955Y-84147641D01*
X181484852Y-84205165D01*
X181565599Y-84217953D01*
X180856071Y-84927481D01*
X180794748Y-84960966D01*
X180768390Y-84963800D01*
X177943693Y-84963800D01*
X177931530Y-84963202D01*
X177888076Y-84958918D01*
X177838496Y-84963798D01*
X177838469Y-84963800D01*
X177838453Y-84963800D01*
X177838401Y-84963805D01*
X177838389Y-84963806D01*
X177802509Y-84967340D01*
X177690338Y-84978379D01*
X177606013Y-85003959D01*
X177500231Y-85036040D01*
X177481099Y-85046266D01*
X177417065Y-85080492D01*
X177325060Y-85129662D01*
X177325058Y-85129662D01*
X177325025Y-85129681D01*
X177319488Y-85134225D01*
X177251257Y-85190220D01*
X177209974Y-85224096D01*
X177209965Y-85224104D01*
X177209915Y-85224147D01*
X177171433Y-85255729D01*
X177143737Y-85289475D01*
X177135562Y-85298494D01*
X176213732Y-86220188D01*
X176152406Y-86253668D01*
X176126057Y-86256500D01*
X174646362Y-86256500D01*
X174643082Y-86256852D01*
X174643075Y-86256853D01*
X174585794Y-86263011D01*
X174448796Y-86314110D01*
X174331738Y-86401738D01*
X174244110Y-86518796D01*
X174193011Y-86655794D01*
X174186853Y-86713075D01*
X174186500Y-86716362D01*
X174186500Y-86719652D01*
X174186499Y-86719671D01*
X174186499Y-89210328D01*
X174186500Y-89210346D01*
X174186500Y-89213638D01*
X174186852Y-89216918D01*
X174186853Y-89216924D01*
X174193011Y-89274205D01*
X174244110Y-89411203D01*
X174331738Y-89528261D01*
X174448796Y-89615889D01*
X174585794Y-89666988D01*
X174585797Y-89666988D01*
X174585799Y-89666989D01*
X174646362Y-89673500D01*
X174649672Y-89673500D01*
X177140328Y-89673500D01*
X177143638Y-89673500D01*
X177204201Y-89666989D01*
X177204203Y-89666988D01*
X177204205Y-89666988D01*
X177315511Y-89625472D01*
X177341204Y-89615889D01*
X177458261Y-89528261D01*
X177545889Y-89411204D01*
X177568998Y-89349246D01*
X177596988Y-89274205D01*
X177596988Y-89274203D01*
X177596989Y-89274201D01*
X177603500Y-89213638D01*
X177603500Y-87734252D01*
X177623185Y-87667213D01*
X177639825Y-87646564D01*
X177679939Y-87606457D01*
X178100456Y-87186003D01*
X178269373Y-87017112D01*
X178330699Y-86983632D01*
X178357048Y-86980800D01*
X180093517Y-86980800D01*
X180160556Y-87000485D01*
X180206311Y-87053289D01*
X180216255Y-87122447D01*
X180187230Y-87186003D01*
X180181198Y-87192481D01*
X180029073Y-87344605D01*
X180029065Y-87344613D01*
X180026420Y-87347259D01*
X180024108Y-87350209D01*
X180024108Y-87350210D01*
X179834708Y-87591961D01*
X179834703Y-87591967D01*
X179832399Y-87594909D01*
X179830462Y-87598111D01*
X179830462Y-87598113D01*
X179671580Y-87860934D01*
X179671572Y-87860947D01*
X179669643Y-87864140D01*
X179668109Y-87867547D01*
X179668106Y-87867554D01*
X179565255Y-88096080D01*
X179540526Y-88151026D01*
X179539413Y-88154597D01*
X179539411Y-88154603D01*
X179448045Y-88447806D01*
X179448042Y-88447815D01*
X179446931Y-88451383D01*
X179446259Y-88455049D01*
X179446256Y-88455062D01*
X179407348Y-88667378D01*
X179390222Y-88760832D01*
X179389996Y-88764555D01*
X179389995Y-88764570D01*
X179375223Y-89008791D01*
X179371227Y-89074861D01*
X179371453Y-89078594D01*
X179371453Y-89078597D01*
X179389995Y-89385151D01*
X179389996Y-89385164D01*
X179390222Y-89388890D01*
X179390896Y-89392572D01*
X179390897Y-89392574D01*
X179446256Y-89694659D01*
X179446258Y-89694668D01*
X179446931Y-89698339D01*
X179448043Y-89701909D01*
X179448045Y-89701915D01*
X179498171Y-89862774D01*
X179540526Y-89998696D01*
X179669643Y-90285582D01*
X179671576Y-90288780D01*
X179671580Y-90288787D01*
X179712401Y-90356313D01*
X179832399Y-90554813D01*
X180026420Y-90802463D01*
X180248878Y-91024921D01*
X180496528Y-91218942D01*
X180736715Y-91364140D01*
X180747903Y-91370904D01*
X180765759Y-91381698D01*
X181052645Y-91510815D01*
X181353002Y-91604410D01*
X181662451Y-91661119D01*
X181976480Y-91680114D01*
X182290509Y-91661119D01*
X182599958Y-91604410D01*
X182900315Y-91510815D01*
X183187201Y-91381698D01*
X183456432Y-91218942D01*
X183704082Y-91024921D01*
X183926540Y-90802463D01*
X184120561Y-90554813D01*
X184283317Y-90285582D01*
X184308607Y-90229388D01*
X184354070Y-90176334D01*
X184421000Y-90156281D01*
X184488147Y-90175596D01*
X184509364Y-90192598D01*
X186025020Y-91708254D01*
X186057113Y-91763839D01*
X186069591Y-91810404D01*
X186067930Y-91880254D01*
X186028768Y-91938117D01*
X185964540Y-91965623D01*
X185949817Y-91966500D01*
X177727580Y-91966500D01*
X177660541Y-91946815D01*
X177614786Y-91894011D01*
X177603927Y-91833232D01*
X177608291Y-91774998D01*
X177595507Y-91604410D01*
X177589155Y-91519647D01*
X177532174Y-91269999D01*
X177438622Y-91031631D01*
X177310587Y-90809869D01*
X177150931Y-90609666D01*
X177094990Y-90557760D01*
X176963221Y-90435496D01*
X176775486Y-90307500D01*
X176751646Y-90291246D01*
X176751643Y-90291245D01*
X176751641Y-90291243D01*
X176520935Y-90180142D01*
X176276244Y-90104665D01*
X176023034Y-90066500D01*
X175766966Y-90066500D01*
X175513755Y-90104665D01*
X175269066Y-90180141D01*
X175057220Y-90282161D01*
X175038355Y-90291246D01*
X175014515Y-90307500D01*
X174826778Y-90435496D01*
X174639069Y-90609665D01*
X174479412Y-90809869D01*
X174351377Y-91031632D01*
X174257826Y-91269996D01*
X174200844Y-91519649D01*
X174181708Y-91774999D01*
X174200844Y-92030350D01*
X174257826Y-92280003D01*
X174331682Y-92468185D01*
X174351378Y-92518369D01*
X174479413Y-92740131D01*
X174639069Y-92940334D01*
X174826781Y-93114505D01*
X174832351Y-93118302D01*
X174876653Y-93172329D01*
X174886500Y-93220756D01*
X174886500Y-97320904D01*
X174866815Y-97387943D01*
X174850181Y-97408585D01*
X165624000Y-106634765D01*
X165623990Y-106634775D01*
X165621848Y-106636918D01*
X165619923Y-106639263D01*
X165619919Y-106639268D01*
X165527404Y-106751997D01*
X165433758Y-106927195D01*
X165376091Y-107117297D01*
X165356620Y-107315000D01*
X165376091Y-107512702D01*
X165433758Y-107702804D01*
X165475246Y-107780421D01*
X165527405Y-107878003D01*
X165576648Y-107938006D01*
X165653431Y-108031568D01*
X165730214Y-108094581D01*
X165806997Y-108157595D01*
X165881085Y-108197196D01*
X165982195Y-108251241D01*
X166027424Y-108264961D01*
X166172299Y-108308909D01*
X166370000Y-108328380D01*
X166567701Y-108308909D01*
X166757804Y-108251241D01*
X166933003Y-108157595D01*
X167048082Y-108063152D01*
X171144819Y-103966413D01*
X171206142Y-103932929D01*
X171275834Y-103937913D01*
X171331767Y-103979785D01*
X171356184Y-104045249D01*
X171356500Y-104054095D01*
X171356500Y-105038638D01*
X171356852Y-105041918D01*
X171356853Y-105041924D01*
X171363011Y-105099205D01*
X171414110Y-105236203D01*
X171501738Y-105353261D01*
X171618796Y-105440889D01*
X171755794Y-105491988D01*
X171755797Y-105491988D01*
X171755799Y-105491989D01*
X171816362Y-105498500D01*
X171819672Y-105498500D01*
X173610328Y-105498500D01*
X173613638Y-105498500D01*
X173674201Y-105491989D01*
X173674203Y-105491988D01*
X173674205Y-105491988D01*
X173752124Y-105462924D01*
X173811204Y-105440889D01*
X173928261Y-105353261D01*
X174015889Y-105236204D01*
X174061137Y-105114889D01*
X174103009Y-105058956D01*
X174168474Y-105034540D01*
X174236747Y-105049392D01*
X174268548Y-105074241D01*
X174324385Y-105134895D01*
X174331760Y-105142906D01*
X174509424Y-105281189D01*
X174667585Y-105366781D01*
X174717175Y-105415999D01*
X174732283Y-105484216D01*
X174708113Y-105549772D01*
X174696248Y-105563516D01*
X173196585Y-107063181D01*
X173135262Y-107096666D01*
X173108904Y-107099500D01*
X172329362Y-107099500D01*
X172326082Y-107099852D01*
X172326075Y-107099853D01*
X172268794Y-107106011D01*
X172131796Y-107157110D01*
X172014738Y-107244738D01*
X171927110Y-107361796D01*
X171876011Y-107498794D01*
X171874516Y-107512701D01*
X171869500Y-107559362D01*
X171869500Y-107562652D01*
X171869499Y-107562671D01*
X171869500Y-108875500D01*
X171849815Y-108942539D01*
X171797011Y-108988294D01*
X171745500Y-108999500D01*
X165167097Y-108999500D01*
X165100058Y-108979815D01*
X165079416Y-108963181D01*
X160891233Y-104774999D01*
X163160033Y-104774999D01*
X163179858Y-105001602D01*
X163238733Y-105221326D01*
X163334866Y-105427484D01*
X163385972Y-105500471D01*
X163385974Y-105500472D01*
X164067046Y-104819399D01*
X164079835Y-104900148D01*
X164137359Y-105013045D01*
X164226955Y-105102641D01*
X164339852Y-105160165D01*
X164420599Y-105172953D01*
X163739526Y-105854025D01*
X163739526Y-105854026D01*
X163812515Y-105905133D01*
X164018673Y-106001266D01*
X164238397Y-106060141D01*
X164465000Y-106079966D01*
X164691602Y-106060141D01*
X164911326Y-106001266D01*
X165117480Y-105905134D01*
X165190472Y-105854025D01*
X164509401Y-105172953D01*
X164590148Y-105160165D01*
X164703045Y-105102641D01*
X164792641Y-105013045D01*
X164850165Y-104900148D01*
X164862953Y-104819400D01*
X165544025Y-105500472D01*
X165595134Y-105427480D01*
X165691266Y-105221326D01*
X165750141Y-105001602D01*
X165769966Y-104774999D01*
X165750141Y-104548397D01*
X165691266Y-104328673D01*
X165595133Y-104122515D01*
X165544025Y-104049526D01*
X164862953Y-104730597D01*
X164850165Y-104649852D01*
X164792641Y-104536955D01*
X164703045Y-104447359D01*
X164590148Y-104389835D01*
X164509400Y-104377046D01*
X165190472Y-103695974D01*
X165190471Y-103695972D01*
X165117484Y-103644866D01*
X164911326Y-103548733D01*
X164691602Y-103489858D01*
X164465000Y-103470033D01*
X164238397Y-103489858D01*
X164018672Y-103548733D01*
X163812516Y-103644865D01*
X163739527Y-103695973D01*
X163739526Y-103695973D01*
X164420600Y-104377046D01*
X164339852Y-104389835D01*
X164226955Y-104447359D01*
X164137359Y-104536955D01*
X164079835Y-104649852D01*
X164067046Y-104730599D01*
X163385973Y-104049526D01*
X163385973Y-104049527D01*
X163334865Y-104122516D01*
X163238733Y-104328672D01*
X163179858Y-104548397D01*
X163160033Y-104774999D01*
X160891233Y-104774999D01*
X160799602Y-104683368D01*
X160766117Y-104622045D01*
X160763755Y-104606492D01*
X160763475Y-104603294D01*
X160758543Y-104546913D01*
X160699284Y-104325757D01*
X160602523Y-104118251D01*
X160471198Y-103930700D01*
X160309300Y-103768802D01*
X160121749Y-103637477D01*
X159929761Y-103547952D01*
X159894485Y-103523251D01*
X156049819Y-99678584D01*
X156016334Y-99617261D01*
X156013500Y-99590903D01*
X156013500Y-98114671D01*
X156013500Y-98114670D01*
X156013500Y-98111362D01*
X156006989Y-98050799D01*
X156006988Y-98050797D01*
X156006988Y-98050794D01*
X155955889Y-97913796D01*
X155868261Y-97796738D01*
X155751203Y-97709110D01*
X155614205Y-97658011D01*
X155556924Y-97651853D01*
X155556918Y-97651852D01*
X155553638Y-97651500D01*
X153056362Y-97651500D01*
X153053082Y-97651852D01*
X153053075Y-97651853D01*
X152995794Y-97658011D01*
X152858796Y-97709110D01*
X152741738Y-97796738D01*
X152654110Y-97913796D01*
X152603011Y-98050794D01*
X152596853Y-98108075D01*
X152596500Y-98111362D01*
X152596500Y-100608638D01*
X152596852Y-100611918D01*
X152596853Y-100611924D01*
X152603011Y-100669205D01*
X152654110Y-100806203D01*
X152741738Y-100923261D01*
X152858796Y-101010889D01*
X152995794Y-101061988D01*
X152995797Y-101061988D01*
X152995799Y-101061989D01*
X153056362Y-101068500D01*
X153110904Y-101068500D01*
X153177943Y-101088185D01*
X153223698Y-101140989D01*
X153233642Y-101210147D01*
X153204617Y-101273703D01*
X153198585Y-101280181D01*
X151034235Y-103444529D01*
X150972912Y-103478014D01*
X150935747Y-103480376D01*
X150720000Y-103461501D01*
X150491915Y-103481456D01*
X150270753Y-103540717D01*
X150063255Y-103637474D01*
X149875696Y-103768805D01*
X149713805Y-103930696D01*
X149713802Y-103930699D01*
X149713802Y-103930700D01*
X149582477Y-104118251D01*
X149582476Y-104118253D01*
X149582474Y-104118256D01*
X149557691Y-104171402D01*
X149511518Y-104223841D01*
X149444325Y-104242992D01*
X149377444Y-104222775D01*
X149332927Y-104171400D01*
X149310131Y-104122512D01*
X149259025Y-104049526D01*
X148577953Y-104730598D01*
X148565165Y-104649852D01*
X148507641Y-104536955D01*
X148418045Y-104447359D01*
X148305148Y-104389835D01*
X148224400Y-104377046D01*
X148905472Y-103695974D01*
X148905471Y-103695972D01*
X148832484Y-103644866D01*
X148626326Y-103548733D01*
X148406602Y-103489858D01*
X148180000Y-103470033D01*
X147953397Y-103489858D01*
X147733672Y-103548733D01*
X147527516Y-103644865D01*
X147454527Y-103695973D01*
X147454526Y-103695973D01*
X148135600Y-104377046D01*
X148054852Y-104389835D01*
X147941955Y-104447359D01*
X147852359Y-104536955D01*
X147794835Y-104649852D01*
X147782046Y-104730599D01*
X147100973Y-104049526D01*
X147100973Y-104049527D01*
X147049865Y-104122516D01*
X146953733Y-104328672D01*
X146894858Y-104548397D01*
X146875033Y-104775000D01*
X146894858Y-105001602D01*
X146953733Y-105221326D01*
X147049866Y-105427484D01*
X147100972Y-105500471D01*
X147100974Y-105500472D01*
X147782046Y-104819399D01*
X147794835Y-104900148D01*
X147852359Y-105013045D01*
X147941955Y-105102641D01*
X148054852Y-105160165D01*
X148135599Y-105172953D01*
X147454526Y-105854025D01*
X147454526Y-105854026D01*
X147527515Y-105905133D01*
X147733673Y-106001266D01*
X147963038Y-106062725D01*
X148022698Y-106099090D01*
X148053227Y-106161937D01*
X148044932Y-106231313D01*
X148000447Y-106285191D01*
X147933895Y-106306465D01*
X147930944Y-106306500D01*
X144730453Y-106306500D01*
X144727436Y-106306797D01*
X144727418Y-106306798D01*
X144582301Y-106321091D01*
X144518931Y-106340314D01*
X144392196Y-106378759D01*
X144392192Y-106378760D01*
X144392192Y-106378761D01*
X144216996Y-106472404D01*
X144063432Y-106598432D01*
X143937404Y-106751996D01*
X143843761Y-106927192D01*
X143843759Y-106927196D01*
X143805314Y-107053931D01*
X143786091Y-107117301D01*
X143766620Y-107315000D01*
X143248500Y-107315000D01*
X143248500Y-106194947D01*
X143268185Y-106127908D01*
X143320989Y-106082153D01*
X143383308Y-106071419D01*
X143481000Y-106079966D01*
X143707602Y-106060141D01*
X143927326Y-106001266D01*
X144133480Y-105905134D01*
X144206472Y-105854025D01*
X143525400Y-105172953D01*
X143606148Y-105160165D01*
X143719045Y-105102641D01*
X143808641Y-105013045D01*
X143866165Y-104900148D01*
X143878953Y-104819399D01*
X144560025Y-105500472D01*
X144611134Y-105427480D01*
X144707266Y-105221326D01*
X144766141Y-105001602D01*
X144785966Y-104774999D01*
X144766141Y-104548397D01*
X144707266Y-104328673D01*
X144611133Y-104122515D01*
X144560025Y-104049526D01*
X143878953Y-104730597D01*
X143866165Y-104649852D01*
X143808641Y-104536955D01*
X143719045Y-104447359D01*
X143606148Y-104389835D01*
X143525400Y-104377046D01*
X144206472Y-103695974D01*
X144206471Y-103695972D01*
X144133484Y-103644866D01*
X143927326Y-103548733D01*
X143707602Y-103489858D01*
X143481000Y-103470033D01*
X143254397Y-103489858D01*
X143034672Y-103548733D01*
X142828516Y-103644865D01*
X142755527Y-103695973D01*
X142755526Y-103695973D01*
X143436600Y-104377046D01*
X143355852Y-104389835D01*
X143242955Y-104447359D01*
X143153359Y-104536955D01*
X143095835Y-104649852D01*
X143083046Y-104730599D01*
X142401973Y-104049527D01*
X142350865Y-104122517D01*
X142328069Y-104171402D01*
X142281896Y-104223840D01*
X142214702Y-104242991D01*
X142147821Y-104222774D01*
X142103307Y-104171401D01*
X142078523Y-104118251D01*
X141947198Y-103930700D01*
X141785300Y-103768802D01*
X141597749Y-103637477D01*
X141597746Y-103637476D01*
X141597744Y-103637474D01*
X141390246Y-103540717D01*
X141390243Y-103540716D01*
X141207904Y-103491858D01*
X141169084Y-103481456D01*
X140940999Y-103461501D01*
X140712915Y-103481456D01*
X140491753Y-103540717D01*
X140284251Y-103637476D01*
X140132013Y-103744075D01*
X140065807Y-103766402D01*
X140060890Y-103766500D01*
X138646110Y-103766500D01*
X138579071Y-103746815D01*
X138574987Y-103744075D01*
X138422748Y-103637476D01*
X138215246Y-103540717D01*
X138215243Y-103540716D01*
X138032904Y-103491858D01*
X137994084Y-103481456D01*
X137766000Y-103461501D01*
X137537915Y-103481456D01*
X137316753Y-103540717D01*
X137109255Y-103637474D01*
X136921696Y-103768805D01*
X136759805Y-103930696D01*
X136759802Y-103930699D01*
X136759802Y-103930700D01*
X136638259Y-104104282D01*
X136628476Y-104118253D01*
X136608382Y-104161345D01*
X136562209Y-104213784D01*
X136495016Y-104232936D01*
X136428135Y-104212720D01*
X136383618Y-104161345D01*
X136382214Y-104158334D01*
X136363523Y-104118251D01*
X136232198Y-103930700D01*
X136070300Y-103768802D01*
X135882749Y-103637477D01*
X135882746Y-103637476D01*
X135882744Y-103637474D01*
X135675246Y-103540717D01*
X135675243Y-103540716D01*
X135492904Y-103491858D01*
X135454084Y-103481456D01*
X135226000Y-103461501D01*
X134997915Y-103481456D01*
X134776753Y-103540717D01*
X134569255Y-103637474D01*
X134381696Y-103768805D01*
X134219805Y-103930696D01*
X134219802Y-103930699D01*
X134219802Y-103930700D01*
X134194795Y-103966414D01*
X134088474Y-104118255D01*
X133991717Y-104325753D01*
X133932456Y-104546915D01*
X133912501Y-104775000D01*
X133932456Y-105003084D01*
X133935125Y-105013045D01*
X133990934Y-105221326D01*
X133991717Y-105224246D01*
X134088474Y-105431744D01*
X134088476Y-105431746D01*
X134088477Y-105431749D01*
X134219802Y-105619300D01*
X134381700Y-105781198D01*
X134569251Y-105912523D01*
X134569254Y-105912524D01*
X134569255Y-105912525D01*
X134626992Y-105939448D01*
X134776757Y-106009284D01*
X134997913Y-106068543D01*
X135226000Y-106088498D01*
X135454087Y-106068543D01*
X135675243Y-106009284D01*
X135882749Y-105912523D01*
X136070300Y-105781198D01*
X136232198Y-105619300D01*
X136363523Y-105431749D01*
X136383617Y-105388655D01*
X136429790Y-105336215D01*
X136496983Y-105317063D01*
X136563864Y-105337278D01*
X136608382Y-105388655D01*
X136628477Y-105431749D01*
X136759802Y-105619300D01*
X136921700Y-105781198D01*
X137109251Y-105912523D01*
X137109254Y-105912524D01*
X137109255Y-105912525D01*
X137166992Y-105939448D01*
X137316757Y-106009284D01*
X137537913Y-106068543D01*
X137766000Y-106088498D01*
X137994087Y-106068543D01*
X138215243Y-106009284D01*
X138422749Y-105912523D01*
X138506291Y-105854026D01*
X138574987Y-105805925D01*
X138641193Y-105783598D01*
X138646110Y-105783500D01*
X140060890Y-105783500D01*
X140127929Y-105803185D01*
X140132013Y-105805925D01*
X140232518Y-105876299D01*
X140284251Y-105912523D01*
X140491757Y-106009284D01*
X140712913Y-106068543D01*
X140772493Y-106073755D01*
X140837561Y-106099206D01*
X140849368Y-106109602D01*
X141195181Y-106455414D01*
X141228666Y-106516737D01*
X141231500Y-106543095D01*
X141231500Y-108547500D01*
X141211815Y-108614539D01*
X141159011Y-108660294D01*
X141107500Y-108671500D01*
X140086362Y-108671500D01*
X140083082Y-108671852D01*
X140083075Y-108671853D01*
X140025794Y-108678011D01*
X139888796Y-108729110D01*
X139771738Y-108816738D01*
X139684110Y-108933796D01*
X139633011Y-109070794D01*
X139626853Y-109128075D01*
X139626500Y-109131362D01*
X139626500Y-110578638D01*
X139626852Y-110581918D01*
X139626853Y-110581924D01*
X139633011Y-110639205D01*
X139684110Y-110776203D01*
X139771738Y-110893261D01*
X139888796Y-110980889D01*
X140025794Y-111031988D01*
X140025797Y-111031988D01*
X140025799Y-111031989D01*
X140086362Y-111038500D01*
X140371990Y-111038500D01*
X140439029Y-111058185D01*
X140484784Y-111110989D01*
X140494728Y-111180147D01*
X140465703Y-111243703D01*
X140416786Y-111278125D01*
X140343500Y-111306517D01*
X140280208Y-111331036D01*
X140093724Y-111446502D01*
X139931636Y-111594264D01*
X139799456Y-111769299D01*
X139701692Y-111965635D01*
X139641667Y-112176604D01*
X139621430Y-112395000D01*
X139641667Y-112613395D01*
X139641667Y-112613398D01*
X139641668Y-112613399D01*
X139701189Y-112822598D01*
X139701692Y-112824364D01*
X139799456Y-113020700D01*
X139931636Y-113195735D01*
X140093724Y-113343497D01*
X140093726Y-113343498D01*
X140093727Y-113343499D01*
X140280209Y-113458964D01*
X140484732Y-113538197D01*
X140511021Y-113543111D01*
X140573301Y-113574776D01*
X140608575Y-113635088D01*
X140605643Y-113704896D01*
X140565435Y-113762037D01*
X140511026Y-113786887D01*
X140484735Y-113791802D01*
X140280208Y-113871036D01*
X140093724Y-113986502D01*
X139931636Y-114134264D01*
X139799456Y-114309299D01*
X139701692Y-114505635D01*
X139641667Y-114716604D01*
X139621430Y-114934999D01*
X139641667Y-115153395D01*
X139641667Y-115153398D01*
X139641668Y-115153399D01*
X139700715Y-115360932D01*
X139701692Y-115364364D01*
X139799456Y-115560700D01*
X139931636Y-115735735D01*
X140093724Y-115883497D01*
X140093726Y-115883498D01*
X140093727Y-115883499D01*
X140280209Y-115998964D01*
X140484732Y-116078197D01*
X140534152Y-116087435D01*
X140596431Y-116119102D01*
X140631704Y-116179414D01*
X140628771Y-116249222D01*
X140588562Y-116306363D01*
X140534151Y-116331211D01*
X140487072Y-116340011D01*
X140284012Y-116418677D01*
X140098868Y-116533314D01*
X139937944Y-116680014D01*
X139806712Y-116853794D01*
X139709650Y-117048722D01*
X139650059Y-117258165D01*
X139648499Y-117275000D01*
X140434916Y-117275000D01*
X140400762Y-117342031D01*
X140379702Y-117475000D01*
X140400762Y-117607969D01*
X140434916Y-117675000D01*
X139648499Y-117675000D01*
X139650059Y-117691834D01*
X139709650Y-117901277D01*
X139806712Y-118096205D01*
X139937944Y-118269985D01*
X140098868Y-118416685D01*
X140284012Y-118531322D01*
X140487069Y-118609986D01*
X140610000Y-118632965D01*
X140610000Y-117850083D01*
X140677031Y-117884238D01*
X140776549Y-117900000D01*
X140843451Y-117900000D01*
X140942969Y-117884238D01*
X141010000Y-117850083D01*
X141010000Y-118632965D01*
X141132930Y-118609986D01*
X141335987Y-118531322D01*
X141521131Y-118416685D01*
X141682055Y-118269985D01*
X141813287Y-118096205D01*
X141910349Y-117901277D01*
X141969940Y-117691834D01*
X141971501Y-117675000D01*
X141185084Y-117675000D01*
X141219238Y-117607969D01*
X141240298Y-117475000D01*
X141219238Y-117342031D01*
X141185084Y-117275000D01*
X141971501Y-117275000D01*
X141969940Y-117258165D01*
X141910349Y-117048722D01*
X141813287Y-116853794D01*
X141682055Y-116680014D01*
X141521131Y-116533314D01*
X141335987Y-116418677D01*
X141132931Y-116340013D01*
X141085849Y-116331212D01*
X141023568Y-116299543D01*
X140988295Y-116239231D01*
X140991229Y-116169423D01*
X141031438Y-116112283D01*
X141085846Y-116087435D01*
X141135268Y-116078197D01*
X141339791Y-115998964D01*
X141526273Y-115883499D01*
X141688364Y-115735734D01*
X141820543Y-115560701D01*
X141918309Y-115364361D01*
X141978332Y-115153399D01*
X141998570Y-114935000D01*
X141978332Y-114716601D01*
X141918309Y-114505639D01*
X141820543Y-114309299D01*
X141728027Y-114186788D01*
X141688363Y-114134264D01*
X141526275Y-113986502D01*
X141339791Y-113871036D01*
X141294835Y-113853620D01*
X141135268Y-113791803D01*
X141135265Y-113791802D01*
X141135264Y-113791802D01*
X141108974Y-113786887D01*
X141046694Y-113755218D01*
X141011422Y-113694905D01*
X141014358Y-113625097D01*
X141054568Y-113567957D01*
X141108975Y-113543111D01*
X141135268Y-113538197D01*
X141339791Y-113458964D01*
X141526273Y-113343499D01*
X141687020Y-113196959D01*
X141688363Y-113195735D01*
X141738454Y-113129404D01*
X141820543Y-113020701D01*
X141918309Y-112824361D01*
X141978332Y-112613399D01*
X141994991Y-112433615D01*
X142020777Y-112368680D01*
X142077577Y-112327992D01*
X142147358Y-112324472D01*
X142206143Y-112357377D01*
X147574604Y-117725838D01*
X147606189Y-117779585D01*
X147641689Y-117904359D01*
X147739456Y-118100700D01*
X147871636Y-118275735D01*
X148033724Y-118423497D01*
X148033726Y-118423498D01*
X148033727Y-118423499D01*
X148220209Y-118538964D01*
X148424732Y-118618197D01*
X148640333Y-118658500D01*
X148640335Y-118658500D01*
X148859665Y-118658500D01*
X148859667Y-118658500D01*
X149075268Y-118618197D01*
X149279791Y-118538964D01*
X149466273Y-118423499D01*
X149612690Y-118290023D01*
X149628363Y-118275735D01*
X149632705Y-118269985D01*
X149760543Y-118100701D01*
X149858309Y-117904361D01*
X149918332Y-117693399D01*
X149938570Y-117475000D01*
X149918332Y-117256601D01*
X149858309Y-117045639D01*
X149760543Y-116849299D01*
X149684065Y-116748026D01*
X149628363Y-116674264D01*
X149466275Y-116526502D01*
X149279791Y-116411036D01*
X149075268Y-116331803D01*
X149075265Y-116331802D01*
X149075264Y-116331802D01*
X149061068Y-116329148D01*
X148998788Y-116297478D01*
X148996175Y-116294941D01*
X148992366Y-116291132D01*
X148958881Y-116229809D01*
X148963865Y-116160117D01*
X149005737Y-116104184D01*
X149057260Y-116081563D01*
X149075268Y-116078197D01*
X149279791Y-115998964D01*
X149466273Y-115883499D01*
X149628364Y-115735734D01*
X149760543Y-115560701D01*
X149858309Y-115364361D01*
X149918332Y-115153399D01*
X149938570Y-114935000D01*
X149918332Y-114716601D01*
X149858309Y-114505639D01*
X149813286Y-114415220D01*
X149771500Y-114331301D01*
X149758500Y-114276030D01*
X149758500Y-113053969D01*
X149771500Y-112998697D01*
X149833535Y-112874113D01*
X149858309Y-112824361D01*
X149918332Y-112613399D01*
X149938570Y-112395000D01*
X149918332Y-112176601D01*
X149858309Y-111965639D01*
X149760543Y-111769299D01*
X149741023Y-111743450D01*
X149628363Y-111594264D01*
X149466275Y-111446502D01*
X149279791Y-111331036D01*
X149216500Y-111306517D01*
X149075268Y-111251803D01*
X149048974Y-111246887D01*
X148986696Y-111215221D01*
X148951423Y-111154909D01*
X148954357Y-111085101D01*
X148994566Y-111027960D01*
X149048974Y-111003112D01*
X149075268Y-110998197D01*
X149249815Y-110930576D01*
X149319434Y-110924714D01*
X149381175Y-110957423D01*
X149382287Y-110958522D01*
X150339181Y-111915415D01*
X150372666Y-111976738D01*
X150375500Y-112003096D01*
X150375500Y-124442500D01*
X150355815Y-124509539D01*
X150303011Y-124555294D01*
X150251500Y-124566500D01*
X142384756Y-124566500D01*
X142317717Y-124546815D01*
X142297075Y-124530181D01*
X140396860Y-122629966D01*
X139091895Y-121325000D01*
X140300033Y-121325000D01*
X140319858Y-121551602D01*
X140378733Y-121771326D01*
X140474866Y-121977484D01*
X140525972Y-122050471D01*
X140525974Y-122050472D01*
X141207046Y-121369399D01*
X141219835Y-121450148D01*
X141277359Y-121563045D01*
X141366955Y-121652641D01*
X141479852Y-121710165D01*
X141560599Y-121722953D01*
X140879526Y-122404025D01*
X140879526Y-122404026D01*
X140952515Y-122455133D01*
X141158673Y-122551266D01*
X141378397Y-122610141D01*
X141605000Y-122629966D01*
X141831602Y-122610141D01*
X142051326Y-122551266D01*
X142257480Y-122455134D01*
X142330472Y-122404025D01*
X141649401Y-121722953D01*
X141730148Y-121710165D01*
X141843045Y-121652641D01*
X141932641Y-121563045D01*
X141990165Y-121450148D01*
X142002953Y-121369400D01*
X142684025Y-122050472D01*
X142735134Y-121977480D01*
X142831266Y-121771326D01*
X142890141Y-121551602D01*
X142909966Y-121325000D01*
X142890141Y-121098397D01*
X142831266Y-120878673D01*
X142735133Y-120672515D01*
X142684025Y-120599526D01*
X142002953Y-121280598D01*
X141990165Y-121199852D01*
X141932641Y-121086955D01*
X141843045Y-120997359D01*
X141730148Y-120939835D01*
X141649399Y-120927045D01*
X142330472Y-120245973D01*
X142330471Y-120245972D01*
X142257484Y-120194866D01*
X142051326Y-120098733D01*
X141831602Y-120039858D01*
X141605000Y-120020033D01*
X141378397Y-120039858D01*
X141158672Y-120098733D01*
X140952516Y-120194865D01*
X140879526Y-120245973D01*
X141560598Y-120927046D01*
X141479852Y-120939835D01*
X141366955Y-120997359D01*
X141277359Y-121086955D01*
X141219835Y-121199852D01*
X141207046Y-121280599D01*
X140525973Y-120599526D01*
X140525973Y-120599527D01*
X140474865Y-120672516D01*
X140378733Y-120878672D01*
X140319858Y-121098397D01*
X140300033Y-121325000D01*
X139091895Y-121325000D01*
X138468332Y-120701437D01*
X138465140Y-120698124D01*
X138399438Y-120627314D01*
X138399437Y-120627313D01*
X138399436Y-120627312D01*
X138323937Y-120567103D01*
X138320368Y-120564146D01*
X138249895Y-120503500D01*
X138247161Y-120501147D01*
X138247159Y-120501145D01*
X138247157Y-120501144D01*
X138225083Y-120487273D01*
X138213745Y-120479229D01*
X138193378Y-120462987D01*
X138193376Y-120462985D01*
X138193373Y-120462983D01*
X138109748Y-120414702D01*
X138105777Y-120412309D01*
X138023998Y-120360925D01*
X138021674Y-120359911D01*
X138000105Y-120350500D01*
X137987696Y-120344236D01*
X137965124Y-120331204D01*
X137875222Y-120295919D01*
X137870940Y-120294145D01*
X137825057Y-120274127D01*
X137771482Y-120229277D01*
X137750660Y-120162582D01*
X137769201Y-120095218D01*
X137821219Y-120048571D01*
X137863835Y-120036945D01*
X137941602Y-120030141D01*
X138161326Y-119971266D01*
X138367480Y-119875134D01*
X138440472Y-119824025D01*
X137759401Y-119142953D01*
X137840148Y-119130165D01*
X137953045Y-119072641D01*
X138042641Y-118983045D01*
X138100165Y-118870148D01*
X138112953Y-118789399D01*
X138794025Y-119470472D01*
X138845134Y-119397480D01*
X138941266Y-119191326D01*
X139000141Y-118971602D01*
X139019966Y-118744999D01*
X139000141Y-118518397D01*
X138941266Y-118298673D01*
X138845133Y-118092515D01*
X138794025Y-118019526D01*
X138112953Y-118700597D01*
X138100165Y-118619852D01*
X138042641Y-118506955D01*
X137953045Y-118417359D01*
X137840148Y-118359835D01*
X137759400Y-118347046D01*
X138440472Y-117665974D01*
X138440471Y-117665972D01*
X138367484Y-117614866D01*
X138161326Y-117518733D01*
X137941602Y-117459858D01*
X137715000Y-117440033D01*
X137488397Y-117459858D01*
X137268672Y-117518733D01*
X137062516Y-117614865D01*
X136989527Y-117665973D01*
X136989526Y-117665973D01*
X137670600Y-118347046D01*
X137589852Y-118359835D01*
X137476955Y-118417359D01*
X137387359Y-118506955D01*
X137329835Y-118619852D01*
X137317046Y-118700598D01*
X136635973Y-118019527D01*
X136584865Y-118092516D01*
X136488733Y-118298672D01*
X136429858Y-118518397D01*
X136410033Y-118745000D01*
X136429858Y-118971602D01*
X136488733Y-119191326D01*
X136584866Y-119397484D01*
X136635972Y-119470471D01*
X136635973Y-119470472D01*
X137317046Y-118789399D01*
X137329835Y-118870148D01*
X137387359Y-118983045D01*
X137476955Y-119072641D01*
X137589852Y-119130165D01*
X137670599Y-119142953D01*
X136989526Y-119824025D01*
X136989526Y-119824026D01*
X137062515Y-119875133D01*
X137169708Y-119925118D01*
X137222147Y-119971290D01*
X137241299Y-120038484D01*
X137221083Y-120105365D01*
X137167918Y-120150700D01*
X137117303Y-120161500D01*
X133332808Y-120161500D01*
X133265769Y-120141815D01*
X133220014Y-120089011D01*
X133210070Y-120019853D01*
X133239095Y-119956297D01*
X133280403Y-119925118D01*
X133371749Y-119882523D01*
X133559300Y-119751198D01*
X133721198Y-119589300D01*
X133852523Y-119401749D01*
X133949284Y-119194243D01*
X134008543Y-118973087D01*
X134028498Y-118745000D01*
X134008543Y-118516913D01*
X133949284Y-118295757D01*
X133852523Y-118088251D01*
X133787311Y-117995118D01*
X133745925Y-117936013D01*
X133723598Y-117869807D01*
X133723500Y-117864890D01*
X133723500Y-117481721D01*
X133724099Y-117469549D01*
X133727010Y-117440033D01*
X133728380Y-117426147D01*
X133723504Y-117376575D01*
X133723500Y-117376511D01*
X133723500Y-117376453D01*
X133718774Y-117328477D01*
X133708937Y-117228443D01*
X133708936Y-117228442D01*
X133708930Y-117228373D01*
X133707020Y-117222077D01*
X133687038Y-117156204D01*
X133681124Y-117136707D01*
X133675339Y-117117627D01*
X133651298Y-117038332D01*
X133651295Y-117038326D01*
X133651274Y-117038257D01*
X133605311Y-116952265D01*
X133563644Y-116874287D01*
X133557677Y-116863119D01*
X133557674Y-116863115D01*
X133557637Y-116863046D01*
X133495122Y-116786873D01*
X133463349Y-116748146D01*
X133463251Y-116748026D01*
X133463207Y-116747982D01*
X133463172Y-116747941D01*
X133431568Y-116709432D01*
X133402774Y-116685801D01*
X133397859Y-116681767D01*
X133388830Y-116673583D01*
X131646530Y-114930780D01*
X130014492Y-113298270D01*
X130006349Y-113289284D01*
X129978568Y-113255432D01*
X129974838Y-113252371D01*
X129897829Y-113189171D01*
X129825064Y-113129437D01*
X129734482Y-113081020D01*
X129649872Y-113035779D01*
X129556851Y-113007562D01*
X129459780Y-112978099D01*
X129363344Y-112968601D01*
X129262149Y-112958619D01*
X129218574Y-112962905D01*
X129206439Y-112963500D01*
X124208642Y-112963500D01*
X124196488Y-112962903D01*
X124153000Y-112958620D01*
X123955298Y-112978091D01*
X123825662Y-113017417D01*
X123765193Y-113035760D01*
X123589996Y-113129404D01*
X123436433Y-113255430D01*
X123408706Y-113289215D01*
X123400535Y-113298229D01*
X123058585Y-113640181D01*
X122997262Y-113673666D01*
X122970904Y-113676500D01*
X122616362Y-113676500D01*
X122613082Y-113676852D01*
X122613075Y-113676853D01*
X122555794Y-113683011D01*
X122418796Y-113734110D01*
X122301738Y-113821738D01*
X122214110Y-113938796D01*
X122163011Y-114075794D01*
X122156853Y-114133075D01*
X122156500Y-114136362D01*
X122156500Y-115733638D01*
X122156852Y-115736918D01*
X122156853Y-115736924D01*
X122163011Y-115794205D01*
X122214110Y-115931203D01*
X122301738Y-116048261D01*
X122418796Y-116135889D01*
X122555794Y-116186988D01*
X122555797Y-116186988D01*
X122555799Y-116186989D01*
X122616362Y-116193500D01*
X122619672Y-116193500D01*
X123760328Y-116193500D01*
X123763638Y-116193500D01*
X123824201Y-116186989D01*
X123824203Y-116186988D01*
X123824205Y-116186988D01*
X123911030Y-116154603D01*
X123961204Y-116135889D01*
X124078261Y-116048261D01*
X124165889Y-115931204D01*
X124192099Y-115860934D01*
X124216988Y-115794205D01*
X124216988Y-115794203D01*
X124216989Y-115794201D01*
X124223500Y-115733638D01*
X124223500Y-115379095D01*
X124243185Y-115312057D01*
X124259819Y-115291415D01*
X124534415Y-115016819D01*
X124595738Y-114983334D01*
X124622096Y-114980500D01*
X126093817Y-114980500D01*
X126160856Y-115000185D01*
X126206611Y-115052989D01*
X126216555Y-115122147D01*
X126187530Y-115185703D01*
X126181498Y-115192181D01*
X126029073Y-115344605D01*
X126029065Y-115344613D01*
X126026420Y-115347259D01*
X126024108Y-115350209D01*
X126024108Y-115350210D01*
X125834708Y-115591961D01*
X125834703Y-115591967D01*
X125832399Y-115594909D01*
X125830462Y-115598111D01*
X125830462Y-115598113D01*
X125671580Y-115860934D01*
X125671572Y-115860947D01*
X125669643Y-115864140D01*
X125668109Y-115867547D01*
X125668106Y-115867554D01*
X125542061Y-116147615D01*
X125540526Y-116151026D01*
X125539413Y-116154597D01*
X125539411Y-116154603D01*
X125448045Y-116447806D01*
X125448042Y-116447815D01*
X125446931Y-116451383D01*
X125446259Y-116455049D01*
X125446256Y-116455062D01*
X125390897Y-116757147D01*
X125390222Y-116760832D01*
X125389996Y-116764555D01*
X125389995Y-116764570D01*
X125371777Y-117065762D01*
X125371227Y-117074861D01*
X125371453Y-117078597D01*
X125389995Y-117385151D01*
X125389996Y-117385164D01*
X125390222Y-117388890D01*
X125390896Y-117392572D01*
X125390897Y-117392574D01*
X125446256Y-117694659D01*
X125446258Y-117694668D01*
X125446931Y-117698339D01*
X125448043Y-117701909D01*
X125448045Y-117701915D01*
X125520993Y-117936013D01*
X125540526Y-117998696D01*
X125669643Y-118285582D01*
X125671576Y-118288780D01*
X125671580Y-118288787D01*
X125733640Y-118391446D01*
X125832399Y-118554813D01*
X126026420Y-118802463D01*
X126248878Y-119024921D01*
X126496528Y-119218942D01*
X126765759Y-119381698D01*
X127052645Y-119510815D01*
X127353002Y-119604410D01*
X127662451Y-119661119D01*
X127976480Y-119680114D01*
X128290509Y-119661119D01*
X128599958Y-119604410D01*
X128900315Y-119510815D01*
X129187201Y-119381698D01*
X129456432Y-119218942D01*
X129704082Y-119024921D01*
X129926540Y-118802463D01*
X130120561Y-118554813D01*
X130283317Y-118285582D01*
X130412434Y-117998696D01*
X130506029Y-117698339D01*
X130562738Y-117388890D01*
X130581733Y-117074861D01*
X130578538Y-117022044D01*
X130594139Y-116953940D01*
X130644084Y-116905080D01*
X130712516Y-116890979D01*
X130777708Y-116916113D01*
X130790006Y-116926889D01*
X131657794Y-117794928D01*
X131691270Y-117856256D01*
X131686275Y-117925947D01*
X131671675Y-117953720D01*
X131577476Y-118088251D01*
X131480717Y-118295753D01*
X131421456Y-118516915D01*
X131401501Y-118745000D01*
X131421456Y-118973084D01*
X131434635Y-119022267D01*
X131479934Y-119191326D01*
X131480717Y-119194246D01*
X131577474Y-119401744D01*
X131577476Y-119401746D01*
X131577477Y-119401749D01*
X131708802Y-119589300D01*
X131870700Y-119751198D01*
X132058251Y-119882523D01*
X132149597Y-119925118D01*
X132202036Y-119971290D01*
X132221188Y-120038484D01*
X132200972Y-120105365D01*
X132147807Y-120150699D01*
X132097192Y-120161500D01*
X129829188Y-120161500D01*
X129824552Y-120161413D01*
X129822078Y-120161320D01*
X129728061Y-120157802D01*
X129632113Y-120168612D01*
X129627499Y-120169045D01*
X129531171Y-120176264D01*
X129505754Y-120182065D01*
X129492054Y-120184393D01*
X129466158Y-120187311D01*
X129372887Y-120212303D01*
X129368384Y-120213419D01*
X129274220Y-120234913D01*
X129267325Y-120237619D01*
X129249943Y-120244440D01*
X129236747Y-120248782D01*
X129211578Y-120255527D01*
X129123086Y-120294134D01*
X129118806Y-120295907D01*
X129028876Y-120331203D01*
X129006305Y-120344235D01*
X128993895Y-120350499D01*
X128970009Y-120360920D01*
X128970001Y-120360924D01*
X128970003Y-120360924D01*
X128888223Y-120412309D01*
X128884269Y-120414691D01*
X128800619Y-120462987D01*
X128780237Y-120479240D01*
X128768908Y-120487279D01*
X128746838Y-120501147D01*
X128673626Y-120564150D01*
X128670058Y-120567106D01*
X128594562Y-120627313D01*
X128528870Y-120698111D01*
X128525654Y-120701449D01*
X127849680Y-121377423D01*
X127788357Y-121410908D01*
X127718665Y-121405924D01*
X127674318Y-121377423D01*
X123823332Y-117526437D01*
X123820140Y-117523124D01*
X123754438Y-117452314D01*
X123754437Y-117452313D01*
X123754436Y-117452312D01*
X123678937Y-117392103D01*
X123675368Y-117389146D01*
X123637037Y-117356160D01*
X123602161Y-117326147D01*
X123602159Y-117326145D01*
X123602157Y-117326144D01*
X123580083Y-117312273D01*
X123568745Y-117304229D01*
X123560886Y-117297962D01*
X123548376Y-117287985D01*
X123548373Y-117287983D01*
X123464748Y-117239702D01*
X123460777Y-117237309D01*
X123378998Y-117185925D01*
X123378996Y-117185924D01*
X123355105Y-117175500D01*
X123342696Y-117169236D01*
X123320124Y-117156204D01*
X123230222Y-117120919D01*
X123225940Y-117119145D01*
X123137427Y-117080528D01*
X123137425Y-117080527D01*
X123137424Y-117080527D01*
X123112246Y-117073780D01*
X123099048Y-117069437D01*
X123074780Y-117059913D01*
X123074780Y-117059912D01*
X122980607Y-117038418D01*
X122976116Y-117037304D01*
X122882840Y-117012311D01*
X122856941Y-117009393D01*
X122843239Y-117007065D01*
X122829597Y-117003951D01*
X122817823Y-117001264D01*
X122721513Y-116994046D01*
X122716898Y-116993613D01*
X122620937Y-116982801D01*
X122524431Y-116986413D01*
X122519794Y-116986500D01*
X119992500Y-116986500D01*
X119925461Y-116966815D01*
X119879706Y-116914011D01*
X119868500Y-116862500D01*
X119868500Y-116106800D01*
X119888185Y-116039761D01*
X119940989Y-115994006D01*
X120010147Y-115984062D01*
X120071165Y-116010947D01*
X120077784Y-116016379D01*
X120255849Y-116111558D01*
X120400000Y-116155285D01*
X120399999Y-115215617D01*
X120469052Y-115269363D01*
X120587424Y-115310000D01*
X120681073Y-115310000D01*
X120773446Y-115294586D01*
X120883514Y-115235019D01*
X120900000Y-115217110D01*
X120900000Y-116155285D01*
X121044150Y-116111558D01*
X121222215Y-116016379D01*
X121378292Y-115888292D01*
X121506379Y-115732215D01*
X121601557Y-115554151D01*
X121660170Y-115360932D01*
X121674701Y-115213395D01*
X121675000Y-115207311D01*
X121675000Y-115185000D01*
X120929560Y-115185000D01*
X120968278Y-115142941D01*
X121018551Y-115028330D01*
X121028886Y-114903605D01*
X120998163Y-114782281D01*
X120934606Y-114685000D01*
X121675000Y-114685000D01*
X121674999Y-114684999D01*
X121675000Y-114662688D01*
X121674701Y-114656604D01*
X121660170Y-114509067D01*
X121601557Y-114315848D01*
X121506379Y-114137784D01*
X121378292Y-113981707D01*
X121222215Y-113853620D01*
X121044146Y-113758440D01*
X120900000Y-113714712D01*
X120900000Y-114654382D01*
X120830948Y-114600637D01*
X120712576Y-114560000D01*
X120618927Y-114560000D01*
X120526554Y-114575414D01*
X120416486Y-114634981D01*
X120400000Y-114652889D01*
X120400000Y-113714712D01*
X120255853Y-113758440D01*
X120077784Y-113853620D01*
X119921706Y-113981708D01*
X119840738Y-114080369D01*
X119782993Y-114119703D01*
X119713148Y-114121574D01*
X119653380Y-114085386D01*
X119637498Y-114063704D01*
X119567015Y-113941624D01*
X119423799Y-113762037D01*
X119402686Y-113735562D01*
X119358868Y-113694905D01*
X119209483Y-113556295D01*
X118991713Y-113407822D01*
X118754252Y-113293467D01*
X118502401Y-113215782D01*
X118241782Y-113176500D01*
X118241781Y-113176500D01*
X117978219Y-113176500D01*
X117978218Y-113176500D01*
X117717598Y-113215782D01*
X117465748Y-113293467D01*
X117228287Y-113407822D01*
X117010513Y-113556298D01*
X116817317Y-113735558D01*
X116652984Y-113941624D01*
X116521204Y-114169875D01*
X116424913Y-114415219D01*
X116366264Y-114672176D01*
X116353563Y-114841670D01*
X116351500Y-114869200D01*
X116351500Y-114871516D01*
X116351500Y-118876783D01*
X116360641Y-118937437D01*
X116361679Y-118946648D01*
X116366264Y-119007827D01*
X116379914Y-119067632D01*
X116381638Y-119076739D01*
X116390782Y-119137403D01*
X116408862Y-119196021D01*
X116411260Y-119204971D01*
X116424912Y-119264780D01*
X116447323Y-119321881D01*
X116450386Y-119330633D01*
X116466137Y-119381698D01*
X116468469Y-119389256D01*
X116495087Y-119444530D01*
X116498795Y-119453028D01*
X116521204Y-119510124D01*
X116551877Y-119563252D01*
X116556205Y-119571440D01*
X116582824Y-119626716D01*
X116617383Y-119677405D01*
X116622316Y-119685256D01*
X116652983Y-119738374D01*
X116652985Y-119738376D01*
X116691236Y-119786342D01*
X116696736Y-119793794D01*
X116731293Y-119844480D01*
X116773017Y-119889448D01*
X116779065Y-119896476D01*
X116817312Y-119944436D01*
X116817314Y-119944438D01*
X116862285Y-119986165D01*
X116868832Y-119992712D01*
X116910562Y-120037686D01*
X116958533Y-120075941D01*
X116965544Y-120081975D01*
X117010519Y-120123706D01*
X117061211Y-120158267D01*
X117068653Y-120163759D01*
X117116624Y-120202015D01*
X117169761Y-120232693D01*
X117177580Y-120237606D01*
X117228284Y-120272176D01*
X117273880Y-120294134D01*
X117283561Y-120298796D01*
X117291760Y-120303129D01*
X117344876Y-120333796D01*
X117387444Y-120350503D01*
X117401968Y-120356203D01*
X117410456Y-120359906D01*
X117465746Y-120386532D01*
X117524386Y-120404619D01*
X117533103Y-120407669D01*
X117548058Y-120413539D01*
X117590219Y-120430087D01*
X117650029Y-120443738D01*
X117658978Y-120446136D01*
X117717600Y-120464218D01*
X117778262Y-120473360D01*
X117787333Y-120475076D01*
X117847174Y-120488735D01*
X117902684Y-120492894D01*
X117908344Y-120493319D01*
X117917559Y-120494357D01*
X117978218Y-120503500D01*
X117978219Y-120503500D01*
X118044200Y-120503500D01*
X121775243Y-120503500D01*
X121842282Y-120523185D01*
X121862924Y-120539819D01*
X124959181Y-123636075D01*
X124992666Y-123697398D01*
X124995500Y-123723756D01*
X124995499Y-126255328D01*
X124995500Y-126255346D01*
X124995500Y-126258638D01*
X124995852Y-126261918D01*
X124995853Y-126261924D01*
X125002011Y-126319205D01*
X125053110Y-126456203D01*
X125140738Y-126573261D01*
X125228365Y-126638857D01*
X125257796Y-126660889D01*
X125277609Y-126668279D01*
X125283818Y-126670595D01*
X125339751Y-126712466D01*
X125364167Y-126777931D01*
X125349315Y-126846204D01*
X125299909Y-126895609D01*
X125233908Y-126910602D01*
X125224205Y-126910086D01*
X125220943Y-126910000D01*
X124504000Y-126910000D01*
X124504000Y-128660000D01*
X124003999Y-128660000D01*
X124003999Y-126910000D01*
X123287069Y-126910000D01*
X123283769Y-126910088D01*
X123237076Y-126912567D01*
X123228616Y-126913605D01*
X123003013Y-126957237D01*
X122784023Y-127039880D01*
X122582158Y-127158340D01*
X122403213Y-127309213D01*
X122252340Y-127488158D01*
X122133880Y-127690023D01*
X122051237Y-127909013D01*
X122007607Y-128134608D01*
X122006566Y-128143091D01*
X122004087Y-128189762D01*
X122004000Y-128193057D01*
X122004000Y-128910000D01*
X122820314Y-128910000D01*
X122794507Y-128950156D01*
X122754000Y-129088111D01*
X122754000Y-129231889D01*
X122794507Y-129369844D01*
X122820314Y-129410000D01*
X122004001Y-129410000D01*
X122004001Y-130126930D01*
X122004088Y-130130230D01*
X122006567Y-130176921D01*
X122007605Y-130185383D01*
X122016707Y-130232441D01*
X122010111Y-130301998D01*
X121966956Y-130356948D01*
X121900944Y-130379843D01*
X121894963Y-130379987D01*
X114769997Y-130379987D01*
X114702958Y-130360302D01*
X114657203Y-130307498D01*
X114645997Y-130255987D01*
X114645997Y-124210000D01*
X119254000Y-124210000D01*
X120754000Y-124210000D01*
X120754000Y-124710000D01*
X119254001Y-124710000D01*
X119254001Y-125521744D01*
X119254192Y-125526625D01*
X119264400Y-125656331D01*
X119319377Y-125874518D01*
X119412430Y-126079379D01*
X119540565Y-126264332D01*
X119699667Y-126423434D01*
X119884620Y-126551569D01*
X120089481Y-126644622D01*
X120307668Y-126699599D01*
X120437374Y-126709808D01*
X120442254Y-126709999D01*
X121003999Y-126709999D01*
X121004000Y-126709998D01*
X121004000Y-125893686D01*
X121044156Y-125919493D01*
X121182111Y-125960000D01*
X121325889Y-125960000D01*
X121463844Y-125919493D01*
X121504000Y-125893686D01*
X121504000Y-126709999D01*
X122065744Y-126709999D01*
X122070625Y-126709807D01*
X122200331Y-126699599D01*
X122418518Y-126644622D01*
X122623379Y-126551569D01*
X122808332Y-126423434D01*
X122967434Y-126264332D01*
X123095569Y-126079379D01*
X123188622Y-125874518D01*
X123243599Y-125656331D01*
X123253808Y-125526625D01*
X123254000Y-125521745D01*
X123254000Y-124710000D01*
X121754000Y-124710000D01*
X121754000Y-124210000D01*
X123253999Y-124210000D01*
X123253999Y-123398255D01*
X123253807Y-123393374D01*
X123243599Y-123263668D01*
X123188622Y-123045481D01*
X123095569Y-122840620D01*
X122967434Y-122655667D01*
X122808332Y-122496565D01*
X122623379Y-122368430D01*
X122418518Y-122275377D01*
X122200331Y-122220400D01*
X122070625Y-122210191D01*
X122065746Y-122210000D01*
X121504000Y-122210000D01*
X121504000Y-123026313D01*
X121463844Y-123000507D01*
X121325889Y-122960000D01*
X121182111Y-122960000D01*
X121044156Y-123000507D01*
X121003999Y-123026313D01*
X121003999Y-122210000D01*
X120442255Y-122210000D01*
X120437374Y-122210192D01*
X120307668Y-122220400D01*
X120089481Y-122275377D01*
X119884620Y-122368430D01*
X119699667Y-122496565D01*
X119540565Y-122655667D01*
X119412430Y-122840620D01*
X119319377Y-123045481D01*
X119264400Y-123263668D01*
X119254191Y-123393374D01*
X119254000Y-123398254D01*
X119254000Y-124210000D01*
X114645997Y-124210000D01*
X114645997Y-107699999D01*
X117930384Y-107699999D01*
X117930385Y-107700000D01*
X120946589Y-107700000D01*
X120921466Y-107797030D01*
X120911114Y-108001165D01*
X120941574Y-108200000D01*
X117933793Y-108200000D01*
X117945960Y-108320951D01*
X117947337Y-108329112D01*
X118015248Y-108614080D01*
X118017699Y-108621981D01*
X118122987Y-108895354D01*
X118126467Y-108902855D01*
X118267254Y-109159758D01*
X118271707Y-109166733D01*
X118445476Y-109402574D01*
X118450821Y-109408896D01*
X118654474Y-109619472D01*
X118660609Y-109625020D01*
X118890518Y-109806578D01*
X118897328Y-109811253D01*
X119149393Y-109960551D01*
X119156769Y-109964278D01*
X119426482Y-110078647D01*
X119434286Y-110081357D01*
X119716820Y-110158751D01*
X119724942Y-110160402D01*
X120015278Y-110199448D01*
X120023521Y-110200000D01*
X121670000Y-110200000D01*
X121670000Y-108924625D01*
X121817801Y-108955000D01*
X121970967Y-108955000D01*
X122123348Y-108939504D01*
X122170000Y-108924867D01*
X122170000Y-110200000D01*
X123743146Y-110200000D01*
X123747306Y-110199860D01*
X123966434Y-110185191D01*
X123974627Y-110184089D01*
X124261701Y-110125739D01*
X124269690Y-110123551D01*
X124546429Y-110027457D01*
X124554041Y-110024229D01*
X124815501Y-109892107D01*
X124822618Y-109887893D01*
X125064144Y-109722094D01*
X125070632Y-109716970D01*
X125287898Y-109520464D01*
X125293648Y-109514519D01*
X125482786Y-109290806D01*
X125487692Y-109284148D01*
X125645327Y-109037216D01*
X125649296Y-109029973D01*
X125772610Y-108764238D01*
X125775583Y-108756519D01*
X125862378Y-108476718D01*
X125864294Y-108468679D01*
X125909615Y-108200000D01*
X122893411Y-108200000D01*
X122918534Y-108102970D01*
X122928886Y-107898835D01*
X122898426Y-107700000D01*
X125906207Y-107700000D01*
X125906207Y-107699999D01*
X125894039Y-107579048D01*
X125892662Y-107570887D01*
X125824751Y-107285919D01*
X125822300Y-107278018D01*
X125717012Y-107004645D01*
X125713532Y-106997144D01*
X125572745Y-106740241D01*
X125568292Y-106733266D01*
X125394523Y-106497425D01*
X125389178Y-106491103D01*
X125185525Y-106280527D01*
X125179390Y-106274979D01*
X124949481Y-106093421D01*
X124942671Y-106088746D01*
X124690606Y-105939448D01*
X124683230Y-105935721D01*
X124413517Y-105821352D01*
X124405713Y-105818642D01*
X124123179Y-105741248D01*
X124115057Y-105739597D01*
X123824721Y-105700551D01*
X123816479Y-105700000D01*
X122170000Y-105700000D01*
X122170000Y-106975374D01*
X122022199Y-106945000D01*
X121869033Y-106945000D01*
X121716652Y-106960496D01*
X121670000Y-106975132D01*
X121670000Y-105700000D01*
X120096854Y-105700000D01*
X120092693Y-105700139D01*
X119873565Y-105714808D01*
X119865372Y-105715910D01*
X119578298Y-105774260D01*
X119570309Y-105776448D01*
X119293570Y-105872542D01*
X119285958Y-105875770D01*
X119024498Y-106007892D01*
X119017381Y-106012106D01*
X118775855Y-106177905D01*
X118769367Y-106183029D01*
X118552101Y-106379535D01*
X118546351Y-106385480D01*
X118357213Y-106609193D01*
X118352307Y-106615851D01*
X118194672Y-106862783D01*
X118190703Y-106870026D01*
X118067389Y-107135761D01*
X118064416Y-107143480D01*
X117977621Y-107423281D01*
X117975705Y-107431320D01*
X117930384Y-107699999D01*
X114645997Y-107699999D01*
X114645997Y-75893734D01*
X114665682Y-75826695D01*
X114718486Y-75780940D01*
X114769997Y-75769734D01*
X130104905Y-75769734D01*
X130171944Y-75789419D01*
G37*
G04 #@! TD.AperFunction*
G04 #@! TA.AperFunction,Conductor*
G36*
X133401830Y-123698185D02*
G01*
X133447585Y-123750989D01*
X133457529Y-123820147D01*
X133428504Y-123883703D01*
X133369726Y-123921477D01*
X133368725Y-123921766D01*
X133175016Y-123976880D01*
X133175001Y-123976884D01*
X133172256Y-123977666D01*
X133169599Y-123978695D01*
X133169588Y-123978699D01*
X132802747Y-124120814D01*
X132802734Y-124120819D01*
X132800072Y-124121851D01*
X132797506Y-124123128D01*
X132797494Y-124123134D01*
X132445349Y-124298481D01*
X132445335Y-124298488D01*
X132442780Y-124299761D01*
X132440363Y-124301257D01*
X132440346Y-124301267D01*
X132105855Y-124508375D01*
X132105835Y-124508388D01*
X132103428Y-124509879D01*
X132101154Y-124511595D01*
X132101147Y-124511601D01*
X131787197Y-124748685D01*
X131787184Y-124748695D01*
X131784910Y-124750413D01*
X131782795Y-124752340D01*
X131782789Y-124752346D01*
X131492060Y-125017380D01*
X131492049Y-125017390D01*
X131489945Y-125019309D01*
X131488026Y-125021413D01*
X131488016Y-125021424D01*
X131222982Y-125312153D01*
X131222976Y-125312159D01*
X131221049Y-125314274D01*
X131219331Y-125316548D01*
X131219321Y-125316561D01*
X130982237Y-125630511D01*
X130982231Y-125630518D01*
X130980515Y-125632792D01*
X130979024Y-125635199D01*
X130979011Y-125635219D01*
X130771903Y-125969710D01*
X130771893Y-125969727D01*
X130770397Y-125972144D01*
X130769124Y-125974699D01*
X130769117Y-125974713D01*
X130593770Y-126326858D01*
X130593764Y-126326870D01*
X130592487Y-126329436D01*
X130591455Y-126332098D01*
X130591450Y-126332111D01*
X130449335Y-126698952D01*
X130449331Y-126698963D01*
X130448302Y-126701620D01*
X130447520Y-126704365D01*
X130447516Y-126704380D01*
X130352059Y-127039880D01*
X130339074Y-127085519D01*
X130338553Y-127088305D01*
X130338549Y-127088323D01*
X130266259Y-127475037D01*
X130266257Y-127475048D01*
X130265732Y-127477859D01*
X130265468Y-127480703D01*
X130265466Y-127480721D01*
X130232853Y-127832683D01*
X130228905Y-127875293D01*
X130228905Y-127878165D01*
X130228905Y-130255987D01*
X130209220Y-130323026D01*
X130156416Y-130368781D01*
X130104905Y-130379987D01*
X126613037Y-130379987D01*
X126545998Y-130360302D01*
X126500243Y-130307498D01*
X126490299Y-130238340D01*
X126491293Y-130232441D01*
X126500392Y-130185391D01*
X126501433Y-130176906D01*
X126503912Y-130130237D01*
X126504000Y-130126942D01*
X126504000Y-129410000D01*
X125687686Y-129410000D01*
X125713493Y-129369844D01*
X125754000Y-129231889D01*
X125754000Y-129088111D01*
X125713493Y-128950156D01*
X125687686Y-128910000D01*
X126503999Y-128910000D01*
X126503999Y-128193069D01*
X126503911Y-128189769D01*
X126501432Y-128143076D01*
X126500394Y-128134616D01*
X126456762Y-127909013D01*
X126374119Y-127690023D01*
X126255659Y-127488158D01*
X126104786Y-127309213D01*
X125925841Y-127158340D01*
X125723974Y-127039879D01*
X125508369Y-126958514D01*
X125452597Y-126916427D01*
X125428433Y-126850869D01*
X125443548Y-126782654D01*
X125493143Y-126733439D01*
X125552150Y-126718500D01*
X129049328Y-126718500D01*
X129052638Y-126718500D01*
X129113201Y-126711989D01*
X129113203Y-126711988D01*
X129113205Y-126711988D01*
X129224181Y-126670595D01*
X129250204Y-126660889D01*
X129367261Y-126573261D01*
X129454889Y-126456204D01*
X129502172Y-126329436D01*
X129505988Y-126319205D01*
X129505988Y-126319203D01*
X129505989Y-126319201D01*
X129512500Y-126258638D01*
X129512499Y-124739756D01*
X129532184Y-124672718D01*
X129548818Y-124652076D01*
X130486076Y-123714819D01*
X130547399Y-123681334D01*
X130573757Y-123678500D01*
X133334791Y-123678500D01*
X133401830Y-123698185D01*
G37*
G04 #@! TD.AperFunction*
M02*
