G04 #@! TF.GenerationSoftware,KiCad,Pcbnew,7.0.2-0*
G04 #@! TF.CreationDate,2023-05-29T14:12:07-07:00*
G04 #@! TF.ProjectId,SWR Protector,53575220-5072-46f7-9465-63746f722e6b,v2.0*
G04 #@! TF.SameCoordinates,Original*
G04 #@! TF.FileFunction,Profile,NP*
%FSLAX46Y46*%
G04 Gerber Fmt 4.6, Leading zero omitted, Abs format (unit mm)*
G04 Created by KiCad (PCBNEW 7.0.2-0) date 2023-05-29 14:12:07*
%MOMM*%
%LPD*%
G01*
G04 APERTURE LIST*
G04 #@! TA.AperFunction,Profile*
%ADD10C,0.200000*%
G04 #@! TD*
G04 APERTURE END LIST*
D10*
X131229405Y-131380487D02*
X113645497Y-131380487D01*
X172091371Y-74769234D02*
X172091371Y-78074861D01*
X178723555Y-131380487D02*
X178723555Y-128074861D01*
X131229405Y-78074861D02*
G75*
G03*
X137861589Y-78074861I3316092J0D01*
G01*
X196307463Y-74769234D02*
X196307463Y-131380487D01*
X183576480Y-117074861D02*
G75*
G03*
X183576480Y-117074861I-1600000J0D01*
G01*
X137861589Y-74769234D02*
X172091371Y-74769234D01*
X183576480Y-89074861D02*
G75*
G03*
X183576480Y-89074861I-1600000J0D01*
G01*
X178723555Y-78074861D02*
X178723555Y-74769234D01*
X113645497Y-74769234D02*
X131229405Y-74769234D01*
X178723555Y-128074861D02*
G75*
G03*
X172091371Y-128074861I-3316092J0D01*
G01*
X131229405Y-74769234D02*
X131229405Y-78074861D01*
X137861589Y-128074861D02*
G75*
G03*
X131229405Y-128074861I-3316092J0D01*
G01*
X196307463Y-131380487D02*
X178723555Y-131380487D01*
X129576480Y-117074861D02*
G75*
G03*
X129576480Y-117074861I-1600000J0D01*
G01*
X172091371Y-128074861D02*
X172091371Y-131380487D01*
X172091371Y-78074861D02*
G75*
G03*
X178723555Y-78074861I3316092J0D01*
G01*
X178723555Y-74769234D02*
X196307463Y-74769234D01*
X131229405Y-128074861D02*
X131229405Y-131380487D01*
X129576480Y-89074861D02*
G75*
G03*
X129576480Y-89074861I-1600000J0D01*
G01*
X137861589Y-131380487D02*
X137861589Y-128074861D01*
X137861589Y-78074861D02*
X137861589Y-74769234D01*
X113645497Y-131380487D02*
X113645497Y-74769234D01*
X172091371Y-131380487D02*
X137861589Y-131380487D01*
M02*
