M48
; DRILL file {KiCad 7.0.2-0} date 2023 May 12, Friday 14:37:52
; FORMAT={-:-/ absolute / inch / decimal}
; #@! TF.CreationDate,2023-05-12T14:37:52-07:00
; #@! TF.GenerationSoftware,Kicad,Pcbnew,7.0.2-0
; #@! TF.FileFunction,Plated,1,2,PTH
FMAT,2
INCH
; #@! TA.AperFunction,Plated,PTH,ViaDrill
T1C0.0157
; #@! TA.AperFunction,Plated,PTH,ComponentDrill
T2C0.0295
; #@! TA.AperFunction,Plated,PTH,ComponentDrill
T3C0.0315
; #@! TA.AperFunction,Plated,PTH,ComponentDrill
T4C0.0335
; #@! TA.AperFunction,Plated,PTH,ComponentDrill
T5C0.0350
; #@! TA.AperFunction,Plated,PTH,ComponentDrill
T6C0.0354
; #@! TA.AperFunction,Plated,PTH,ComponentDrill
T7C0.0394
; #@! TA.AperFunction,Plated,PTH,ComponentDrill
T8C0.0472
; #@! TA.AperFunction,Plated,PTH,ComponentDrill
T9C0.0791
%
G90
G05
T1
X4.6683Y-3.1397
X4.6683Y-3.3397
X4.6683Y-3.5397
X4.6683Y-3.7397
X4.6683Y-4.1397
X4.6683Y-4.9397
X4.8683Y-3.1397
X4.8683Y-3.3397
X4.8683Y-3.5397
X4.8683Y-3.7397
X4.8683Y-4.1397
X5.0683Y-3.1397
X5.0683Y-3.3397
X5.0683Y-3.9397
X5.0683Y-4.3397
X5.0683Y-4.7397
X5.2683Y-3.7397
X5.2683Y-3.9397
X5.2683Y-4.1397
X5.2683Y-4.3397
X5.4683Y-3.1397
X5.4683Y-3.7397
X5.4683Y-3.9397
X5.6683Y-3.1397
X5.6683Y-3.3397
X5.6683Y-3.5397
X5.6683Y-3.7397
X5.6683Y-3.9397
X5.6683Y-4.7397
X5.7Y-4.225
X5.8683Y-3.5397
X5.8683Y-3.7397
X5.8683Y-3.9397
X5.8683Y-4.7397
X6.0683Y-3.1397
X6.0683Y-3.3397
X6.0683Y-4.3397
X6.0683Y-4.5397
X6.2683Y-3.1397
X6.2683Y-3.7397
X6.2683Y-3.9397
X6.4683Y-3.1397
X6.4683Y-3.3397
X6.4683Y-3.7397
X6.4683Y-3.9397
X6.4683Y-4.5397
X6.55Y-4.225
X6.6683Y-3.5397
X6.6683Y-3.9397
X6.6683Y-4.3397
X6.6683Y-4.7397
X6.8683Y-3.3397
X6.8683Y-3.7397
X6.8683Y-4.1397
X6.8683Y-4.7397
X7.0278Y-3.575
X7.0278Y-3.725
X7.0683Y-3.3397
X7.0683Y-4.5397
X7.0683Y-4.7397
X7.075Y-3.725
X7.2683Y-3.5397
X7.2683Y-3.7397
X7.2683Y-4.1397
X7.2683Y-4.5397
X7.2683Y-4.9397
X7.4683Y-3.7397
X7.4683Y-4.1397
X7.4683Y-4.5397
X7.4683Y-4.7397
X7.6683Y-3.1397
X7.6683Y-3.5397
X7.6683Y-3.7397
X7.6683Y-3.9397
X7.6683Y-4.1397
X7.6683Y-4.3397
X7.6683Y-4.5397
X7.6683Y-4.7397
X7.6683Y-4.9397
T2
X4.7Y-4.525
X4.75Y-4.525
X4.8Y-4.525
X6.25Y-4.425
X6.3Y-4.425
X6.35Y-4.425
T3
X5.225Y-4.5
X5.225Y-4.675
X5.325Y-4.5
X5.375Y-4.125
X5.4219Y-4.675
X5.425Y-4.5
X5.475Y-4.125
X5.575Y-4.7766
X5.575Y-4.9734
X5.6Y-4.125
X5.7Y-4.125
X5.8339Y-4.125
X5.9339Y-4.125
X5.975Y-3.5
X6.05Y-4.125
X6.075Y-3.5
X6.15Y-4.125
X6.2781Y-4.125
X6.475Y-4.125
X7.125Y-3.1
X7.15Y-3.3
X7.225Y-3.1
X7.25Y-3.3
X7.375Y-3.5
X7.375Y-3.6
X7.425Y-3.3
X7.6219Y-3.3
T4
X5.5437Y-4.325
X5.5437Y-4.425
X5.5437Y-4.525
X5.5437Y-4.625
X5.8563Y-4.325
X5.8563Y-4.425
X5.8563Y-4.525
X5.8563Y-4.625
T5
X5.0Y-4.05
X5.0Y-4.15
X7.2Y-3.95
X7.2Y-4.05
T6
X7.575Y-3.5
X7.575Y-3.6
T7
X5.425Y-3.2787
X5.425Y-3.4787
X5.825Y-3.0787
X5.825Y-3.2787
X6.1Y-4.65
X6.1Y-4.85
X6.3Y-3.2787
X6.3Y-3.4787
X6.3Y-4.65
X6.3Y-4.85
X6.4Y-4.65
X6.4Y-4.85
X6.5Y-4.65
X6.5Y-4.85
X6.7Y-3.0787
X6.7Y-3.2787
X6.9Y-4.35
X6.9Y-4.45
X6.9Y-4.55
X6.9Y-4.65
T8
X6.075Y-3.7618
X6.075Y-3.9118
X6.925Y-3.4632
X6.925Y-3.6132
X7.425Y-3.075
X7.575Y-3.075
T9
X4.8Y-3.85
X4.8Y-4.25
X7.4Y-3.85
X7.4Y-4.25
T7
G00X4.8138Y-4.8606
M15
G01X4.8138Y-4.9394
M16
G05
G00X4.8925Y-5.085
M15
G01X4.9713Y-5.085
M16
G05
G00X5.05Y-4.8606
M15
G01X5.05Y-4.9394
M16
G05
G00X7.15Y-4.9894
M15
G01X7.15Y-4.9106
M16
G05
G00X7.3075Y-4.765
M15
G01X7.2287Y-4.765
M16
G05
G00X7.3862Y-4.9894
M15
G01X7.3862Y-4.9106
M16
G05
T0
M30
